<svg viewBox="0 0 1530 912" xmlns="http://www.w3.org/2000/svg" fill-rule="evenodd" clip-rule="evenodd" stroke-linecap="round" stroke-linejoin="round" stroke-miterlimit="10"><path fill="none" d="M0 0h1529.5v911.839H0z"/><clipPath id="a"><path d="M0 0h1529.5v911.839H0z"/></clipPath><g clip-path="url(#a)"><path fill="#f3f4f6" d="M-.1-4.271h1529.5v759.539H-.1z"/><path d="M521.4-6.133H-.1v761.4h521.5v-490.1H646L521.4-6.133z" fill="#fafafb" fill-rule="nonzero"/><circle cx="1203" cy="333.667" r="208.7" fill="#fff" opacity=".56"/><path d="M398-3.333h93.8l124.7 268.5h-93.8L398-3.333z" fill="#d1dbe5" fill-opacity=".56" fill-rule="nonzero"/><g fill="#d1dbe5" fill-opacity=".56" fill-rule="nonzero"><path d="M243.3 75.567c-6.6 0-12.9.9-19 2.6 32.3 9 56.1 40.2 56.1 77.5 0 37.2-23.8 68.5-56.1 77.5 6.1 1.7 12.5 2.6 19 2.6 41.5 0 75.1-35.8 75.1-80 0-44.4-33.6-80.2-75.1-80.2z"/><path d="M280.4 155.567c0-37.2-23.8-68.5-56.1-77.5-32.3 9-56.1 40.2-56.1 77.5 0 37.2 23.8 68.5 56.1 77.5 32.2-9 56.1-40.3 56.1-77.5z"/><path d="M280.4 155.567c0-37.2-23.8-68.5-56.1-77.5-32.3 9-56.1 40.2-56.1 77.5 0 37.2 23.8 68.5 56.1 77.5 32.2-9 56.1-40.3 56.1-77.5z"/></g><g opacity=".7" fill="#d1dbe5" fill-opacity=".56"><path d="M134 466.867v-94.9l-78.4-8.2 10.3 103.1H134zM148.1 466.867h72v-85l-72-8.2v93.2z" fill-rule="nonzero"/><path d="M148.1 480.967H220v82.7h-71.9z"/><path d="M134 480.967H67.3l8.2 82.7H134v-82.7z" fill-rule="nonzero"/></g><g fill="#d1dbe5" fill-opacity=".56" fill-rule="nonzero"><path d="M453.7 755.267H304v-373.1l149.7-28.9v402z"/><path d="M304 724.767v30.5h149.7l-149.7-30.5z"/></g><path d="M66.4 527.267s10.2 8.1 12.1 29.1M84.2 520.067s-8.4 10-6.1 30.9" fill="none" stroke="#18154d" stroke-width="2"/><path d="M96.3 509.167l-.5-5.7-5.4 1.8-.5-5.7-5.4 1.8v-.1c-.2.2-2.9 4.4-3 4.6-3.2 4.9-1.8 11.5 3.1 14.7 4.9 3.2 11.5 1.8 14.7-3.1.2-.3 2.9-4.5 3-4.7l-.5-5.4-5.5 1.8z" fill="#ff8b62" fill-rule="nonzero"/><path d="M54.6 515.767l.5-5.7 5.4 1.8.5-5.7 5.4 1.8v-.1c.2.2 2.9 4.4 3 4.6 3.2 4.9 1.8 11.5-3.1 14.7-4.9 3.2-11.5 1.8-14.7-3.1-.2-.3-2.9-4.5-3-4.7l.5-5.4 5.5 1.8z" fill="#ffcb6c" fill-rule="nonzero"/><path d="M201.8 527.267s10.2 8.1 12.1 29.1M219.6 520.067s-8.4 10-6.1 30.9" fill="none" stroke="#18154d" stroke-width="2"/><path d="M231.7 509.167l-.5-5.7-5.4 1.8-.5-5.7-5.4 1.8v-.1c-.2.2-2.9 4.4-3 4.6-3.2 4.9-1.8 11.5 3.1 14.7 4.9 3.2 11.5 1.8 14.7-3.1.2-.3 2.9-4.5 3-4.7l-.5-5.4-5.5 1.8z" fill="#ff8b62" fill-rule="nonzero"/><path d="M190 515.767l.5-5.7 5.4 1.8.5-5.7 5.4 1.8v-.1c.2.2 2.9 4.4 3 4.6 3.2 4.9 1.8 11.5-3.1 14.7-4.9 3.2-11.5 1.8-14.7-3.1-.2-.3-2.9-4.5-3-4.7l.5-5.4 5.5 1.8z" fill="#ffcb6c" fill-rule="nonzero"/><path d="M136.4 527.267s10.2 8.1 12.1 29.1M154.2 520.067s-8.4 10-6.1 30.9" fill="none" stroke="#18154d" stroke-width="2"/><path d="M166.3 509.167l-.5-5.7-5.4 1.8-.5-5.7-5.4 1.8v-.1c-.2.2-2.9 4.4-3 4.6-3.2 4.9-1.8 11.5 3.1 14.7 4.9 3.2 11.5 1.8 14.7-3.1.2-.3 2.9-4.5 3-4.7l-.5-5.4-5.5 1.8z" fill="#ff8b62" fill-rule="nonzero"/><path d="M124.6 515.767l.5-5.7 5.4 1.8.5-5.7 5.4 1.8v-.1c.2.2 2.9 4.4 3 4.6 3.2 4.9 1.8 11.5-3.1 14.7-4.9 3.2-11.5 1.8-14.7-3.1-.2-.3-2.9-4.5-3-4.7l.5-5.4 5.5 1.8z" fill="#ffcb6c" fill-rule="nonzero"/><g><path fill="#18154d" d="M44.9 546.667H246v35.7H44.9z"/><path fill="#454179" d="M75.5 546.667H246v35.7H75.5z"/></g><g><path d="M718.4 678.467H610.8l-4.8-87.3c0-6.6 5.4-12 12-12h88.3c6.6 0 12 5.4 12 12v87.3h.1z" fill="#ff8b62" fill-rule="nonzero"/><path d="M587.1 719.167h150.3M614.7 719.167l-20.4 38.3" fill="none" stroke="#18154d" stroke-width="2"/><path d="M721.8 678.467h107.5l4.8-87.3c0-6.6-5.4-12-12-12h-88.3c-6.6 0-12 5.4-12 12v87.3z" fill="#ff8b62" fill-rule="nonzero"/><path d="M852.1 635.567h-8.2c-4.5 0-8.2 3.7-8.2 8.2v40.4H604.6v-40.4c0-4.5-3.7-8.2-8.2-8.2h-8.2c-4.5 0-8.2 3.7-8.2 8.2v69.1h280.3v-69.1c0-4.6-3.7-8.2-8.2-8.2z" fill="#ff8b62" fill-rule="nonzero"/><path d="M853.1 719.167H702.8M825.5 719.167l20.4 38.3" fill="none" stroke="#18154d" stroke-width="2"/><g fill="#fff"><circle cx="640.9" cy="608.867" r="5.1"/><circle cx="686.6" cy="608.867" r="5.1"/><g><circle cx="753" cy="608.867" r="5.1"/><circle cx="798.7" cy="608.867" r="5.1"/></g></g><g fill="#fff"><circle cx="640.9" cy="644.067" r="5.1"/><circle cx="686.6" cy="644.067" r="5.1"/><g><circle cx="753" cy="644.067" r="5.1"/><circle cx="798.7" cy="644.067" r="5.1"/></g></g></g><g><path d="M1143.8 422.467h-109.3c-14.8 0-26.9 12-26.9 26.9v289.5c0 7.3 5.9 13.2 13.2 13.2h136.6c7.3 0 13.2-5.9 13.2-13.2v-289.5c.1-14.9-12-26.9-26.8-26.9z" fill="#18154d" fill-rule="nonzero"/><path d="M1144.7 449.367c0-14.9-12.1-26.9-26.9-26.9h-109.2c-14.9 0-26.9 12.1-26.9 26.9v91h163.1v-91h-.1zM981.6 540.367v198.5c0 7.3 5.9 13.2 13.2 13.2h136.6c7.3 0 13.2-5.9 13.2-13.2v-198.5h-163z" fill="#ffcb6c" fill-rule="nonzero"/><path d="M1126.5 531.467h-40.4c-2.7 0-4.8-2.2-4.8-4.8 0-2.7 2.2-4.8 4.8-4.8h40.4c2.7 0 4.8 2.2 4.8 4.8 0 2.6-2.2 4.8-4.8 4.8zM1126.5 561.067h-40.4c-2.7 0-4.8-2.2-4.8-4.8 0-2.7 2.2-4.8 4.8-4.8h40.4c2.7 0 4.8 2.2 4.8 4.8 0 2.6-2.2 4.8-4.8 4.8z" fill="#ff8b62" fill-rule="nonzero"/><path d="M977.6 540.367h157.7" fill="none" stroke="#18154d" stroke-width="2"/></g><g><path d="M775.859 630.798l-37.052 37.052 37.052 37.052 37.052-37.052-37.052-37.052z" fill="#ffcb6c"/></g><g><path fill="#18154d" d="M952.5 660.667h89.6v47.7h-89.6z"/><path fill="#4f8af7" d="M931.5 660.667h89.6v47.7h-89.6z"/><path fill="#18154d" d="M971.5 660.667h9.3v16.4h-9.3z"/><g><path fill="#18154d" d="M937.2 709.767h89.6v47.7h-89.6z"/><path fill="#4f8af7" d="M916.2 709.767h89.6v47.7h-89.6z"/><path fill="#18154d" d="M956.3 709.767h9.3v16.4h-9.3z"/></g><g><path d="M942.3 463.367H830.5l-12 71.4h135.8l-12-71.4z" fill="#ffcb6c" fill-rule="nonzero"/><path d="M914.1 463.367h-53.3l-11.8 71.4h76.9l-11.8-71.4z" fill="#fcdba7" fill-rule="nonzero"/><g fill="none" stroke="#18154d" stroke-width="2"><path d="M886.4 534.767v222.7M872.3 757.467h28.2"/></g><path d="M910.4 534.767v23.8" fill="none" stroke="#ff8b62" stroke-width="2" stroke-linecap="butt" stroke-linejoin="miter"/><circle cx="910.4" cy="558.567" r="3" fill="#ff8b62"/></g></g><path d="M605 621.667c-9.2 46.4 36.8 62.9 36.8 62.9s8.1-48.1-36.8-62.9z" fill="#ffcb6c" fill-rule="nonzero"/><g><path d="M1223.1 694.567l-69-69c-5-5-13.2-5-18.2 0l-84.2 84.2c-4.1 4.1-4.1 10.7 0 14.8l72.3 72.3c4.1 4.1 10.7 4.1 14.8 0l84.2-84.2c5.1-4.9 5.1-13.1.1-18.1z" fill="#18154d" fill-rule="nonzero"/><path d="M1214.7 704.367c5-5 5-13.2 0-18.2l-69-69c-5-5-13.2-5-18.2 0l-11.6 11.6 87.2 87.2 11.6-11.6zM1115.9 628.767l-72.6 72.6c-4.1 4.1-4.1 10.7 0 14.8l72.3 72.3c4.1 4.1 10.7 4.1 14.8 0l72.6-72.6-87.1-87.1z" fill="#ff8b62" fill-rule="nonzero"/><path d="M1176.1 676.167l-22.6-22.6c-1.5-1.5-1.5-3.9 0-5.4 1.5-1.5 3.9-1.5 5.4 0l22.6 22.6c1.5 1.5 1.5 3.9 0 5.4-1.5 1.5-3.9 1.5-5.4 0z" fill="#ffcb6c" fill-rule="nonzero"/><path d="M1144.7 683.867c-11.6-11.6-29.3-13.3-42.8-5.2l-2.4-2.4c-1.6-1.6-4.1-1.6-5.6 0l-6.2 6.2c-1.6 1.6-1.6 4.1 0 5.6l2.4 2.4c-8.1 13.4-6.4 31.2 5.2 42.8 13.6 13.6 35.8 13.6 49.4 0 13.6-13.7 13.6-35.8 0-49.4z" fill="#fff" fill-rule="nonzero"/><circle cx="1120" cy="708.567" r="20.6" fill="#ffcb6c"/><circle cx="1198.8" cy="692.667" r="7.4" fill="#fff"/><path d="M1113.3 630.967l85.2 85.2" fill="none" stroke="#18154d" stroke-width="2"/><g><ellipse cx="1130.6" cy="812.667" rx="22.4" ry="32.4" fill="#18154d"/><path d="M1064.9 746.967l65.7 65.7 139.6-139.7 40.9.6" fill="none" stroke="#18154d" stroke-width="2"/></g></g><g><path fill="#4f8af7" d="M1342.2 341.767h234.3v509.1h-234.3z"/><path d="M1342.2 850.867v-36.1l-126.7 36.1h126.7z" fill="#18154d" fill-rule="nonzero"/><path fill="#18154d" fill-opacity=".23" d="M1366.2 364.867h208.9v465.4h-208.9z"/><path d="M1482.53 782.253c22.549-9.591 51.712 8.145 65.084 39.582 13.372 31.438 5.92 64.748-16.629 74.339-22.55 9.591-51.713-8.145-65.085-39.582-13.371-31.438-5.92-64.748 16.63-74.339z" fill="#18154d"/></g><g fill-rule="nonzero"><path d="M1224 694.967c-8.1-9-16.9-17.4-25.4-26-.9-.9-1.8-1.6-2.8-2.4v-8.2c4.9.3 9.9-.4 14.8.8.5 1.4 1.3 2.3 2.7 3.2 3.3 2 6.3 4.5 9.2 6.7-.4 3-3.4 3.5-4.5 5.7 3.3 2.7 6.9 1.4 10.5 1 1 4.9-.5 9.5-1.1 14.3-.3 1.9-1.4 3.7-3.4 4.9zM1342 814.467v33.8c-4.9 0-9.8.1-14.7.1h-99.6c.8-1.5 2.1-1.3 3-1.6 5.9-2 11.9-3.2 17.3-7.2 5.8-4.3 12.6-7.2 19.1-10.6 1.9-1 2.8-2.2 3-4.4 1-8 1.6-16 2.5-24 .9-7.8 1.3-15.7 2.6-23.5 1-6.2.5-12.7 1.5-19 1.5-10.2 1.5-20.6 3.2-30.9 1-6.3 1-12.9 1.6-19.4.2-2.2.5-4.3.8-6.5 3.2 2.7 7.1 3.5 11 4.4 1.4 3.9 1.7 8 2.3 12 2 12.7 4 25.3 6 38-3.7 10.9-6.3 22.1-9.4 33.1-3.5 12.8-7 25.6-10.2 38.5-.3 1.3-.5 2.4.6 3.7 7-.7 13.5-3.7 20.1-5.8 10.7-3.4 21.7-5.7 32.2-9.7 2.5.7 4.6-1.3 7.1-1z" fill="#29235c"/><path d="M1293.2 705.867c-3.9-.9-7.8-1.7-11-4.4-.2-.7-.4-1.5-.6-2.2 1-.8 2.3-1 3.5-1.3 7.8-2 15.6-4.1 23.5-5.8 3.7-.8 5.3-3.1 5.9-6.5 1.5-7.7 3.2-15.3 4.5-23 .4-2.2 1.8-4.5.3-7.1-6.2-.8-12.3-1.5-18.5-2.3 1.6-7.1 2.2-14.3 2.7-21.6-.8.3-1.2.6-1.3.9-.9 6.3-1.7 12.6-2.6 19-.1.9.1 1.6 1.1 1.7-.9 8.3-1.9 16.6-2.8 24.9-.1 1.3-.8 2.2-2 2.5-5.2 1.7-10.4 3.3-15.6 4.9-.9-2 .9-4.6-1.5-6.3.4-.6 1-1.2.5-2.1-.1-9.5-1.1-18.9-.6-28.3-2.5-1.2-3.8 2.7-6.1 1-2.1-4.7-3.7-9.6-6.8-13.8-.3-1.7.7-2.7 1.8-3.8 5.3-5.4 10.5-10.8 15.8-16.3 1.8.8 3.5 1.9 5.6 2.3 4.9 1 9.3-.8 13.8-2.2 4.6 2.5 9.3 4.9 13.8 7.6 4.9 3 5.3 8.2 6.1 13.2.8 5 1.1 10.3-.2 14.9-2.8 10.4 1.5 20 2 30 .2 5.4 1.3 10.8 2.1 16.2.2 1.6-1 2.8-1.1 4.2-3.6 1.9-7.4 3.7-11.3 3.9-7 .7-14 .9-21-.2z" fill="#facd7a"/><path d="M1293.2 705.867c6.9 1.1 14 .9 20.9.6 4-.1 7.8-2 11.3-3.9-.7 6.6.9 13.1.9 19.7-.1 6.8 1.5 13.6 1.2 20.3-.3 6.7 1.3 13.3.7 20-.3 3 .7 5.7 2.3 8.3 3.9 6.3 6.9 13.1 11.2 19.1.1 8.2.1 16.3.2 24.5-2.5-.3-4.6 1.7-7.2 1.2.5-1.4-.7-2.1-1.3-2.9-8.9-12-17.8-23.9-26.8-35.8-1.2-1.6-2.1-3.2-2.3-5.2-.5-5.4-1.5-10.7-2.9-15.9-2-12.7-4-25.3-6-38-.5-4-.7-8.1-2.2-12z" fill="#2e4ea2"/><path d="M1300.8 653.267c6.2.8 12.4 1.5 18.5 2.3 1.4 2.6.1 4.9-.3 7.1-1.4 7.7-3 15.3-4.5 23-.7 3.4-2.2 5.7-5.9 6.5-7.9 1.8-15.6 3.9-23.5 5.8-1.2.3-2.5.5-3.5 1.3-9.3 1.4-18.4 4-27.4 6.6-3.3.9-6.5 2.1-9.9 2.4-.4-.8-1-1.2-1.8-1.5-1-1.2-2.1-2.3-3.3-3.7 1.6-3.4 4-6.6 6.3-9.9 1.1-1.6 2.7-1.6 4.3-1.2 2.7.6 5.4.6 8.1.6.8.6 1.5.2 2.3.1 7-1.5 13.7-4.1 20.2-6.9 5.2-1.6 10.4-3.3 15.6-4.9 1.1-.4 1.8-1.3 2-2.5.9-8.5 1.8-16.8 2.8-25.1z" fill="#faab8f"/><path d="M1285.7 570.867c-4.5-8.3.4-14.6 4.4-21.1 1.1-1.8 3.9-1.3 4.7.8 2.3 5.8 6.6 9.4 12.3 11.8 4.2 1.7 8 4.1 11.6 6.9 6.4 5 8.8 11.8 7.4 19.7-.8 4.5-3.7 7.6-7.7 9.6-3.7 1.8-7.5 3.2-11.6 3.9-2-.3-3.5-1.1-3.5-3.4s1.4-2.9 3.4-3.4c1.6-.5 3.1-1.7 4.5-2.8 1.1-.8 2.3-2.1 1.6-3.5-.8-1.6-2.6-1.2-4-.8-1.2.3-2.4.8-3.5 1.4-1.1.5-2.1.8-3.1-.1-1.2-1.1-.9-2.2-.4-3.4.3-.7.6-1.5 1-2.2 1.4-2.3.6-3.9-1.6-5-1.3-.7-2.7-1.3-4-2-3.8-2.2-8.4-3-11.5-6.4z" fill="#29235c"/><path d="M1285.7 570.867c3.2 3.4 7.7 4.2 11.6 6.4 1.3.7 2.6 1.3 4 2 2.2 1.1 3 2.7 1.6 5-.4.7-.7 1.4-1 2.2-.5 1.2-.8 2.4.4 3.4 1.1.9 2.1.6 3.1.1 1.1-.5 2.3-1.1 3.5-1.4 1.4-.3 3.2-.8 4 .8.7 1.4-.5 2.6-1.6 3.5-1.4 1.1-2.9 2.3-4.5 2.8-2 .5-3.4 1.1-3.4 3.4s1.5 3.1 3.5 3.4c-1.3 1-2.8 1.6-3.7 3-.6.1-1.3.1-1.3.8-.1.5.6.5 1 .6 0 3.2 0 6.3-.1 9.5-4.5 1.3-8.9 3.2-13.8 2.2-2.1-.4-3.8-1.5-5.6-2.3.1-.9.3-1.8.4-2.7 6.2-.4 11.5-3 16.5-6.4-5.5 1.3-10.8 1.8-16.1-.4-5.9-3.5-7.7-8.7-6.1-15.2 1.7-7.2 3.6-14.3 7.6-20.7zM1265.8 636.267c3.2 4.2 4.7 9.1 6.8 13.8-13.4 7.7-26.9 15.5-40.3 23.2-1.3.7-2.5 1.5-3.8 2.3-3.5.5-7.1 1.7-10.5-1 1-2.2 4-2.6 4.5-5.7-2.9-2.2-5.9-4.7-9.2-6.7-1.4-.9-2.2-1.7-2.7-3.2 1-1.3 2.2-.8 3.4-.3 3.8 1.6 7.6 3.2 11.3 4.9 2.2 1 3.9 1 5.9-.6 11.5-8.9 23.1-17.8 34.6-26.7z" fill="#faab8f"/><path d="M1284.2 606.867c5.3 2.2 10.6 1.7 16.1.4-5 3.4-10.3 6-16.5 6.4.1-2.3.3-4.6.4-6.8zM1302.9 606.867c-.4-.1-1.1-.1-1-.6.1-.6.7-.7 1.3-.8-.1.5-.2.9-.3 1.4z" fill="#f58862"/><path d="M1300.8 653.267c-1.1-.1-1.3-.8-1.2-1.7.8-6.3 1.7-12.7 2.6-19 .1-.4.5-.7 1.3-.9-.5 7.2-1.1 14.4-2.7 21.6z" fill="#29235c"/></g><g><path d="M375.404 542.169c5.365 4.022 10.295 5.285 14.659 3.396-1.156 6.22-1.069 10.438-.046 13.151-6.626 3.1-12.382 2.57-17.503-.613.794-2.928 1.753-8.187 2.89-15.934z" fill="#faaa8e"/><path d="M402.907 626.312l10.774 147.268-13.349 1.361-15.512-71.884 9.219-73.321 8.868-3.424z" fill="#f9a24e"/><path d="M360.634 625.09c10.056 6.15 22.226 8.49 36.321 4.014l-18.853 147.323c-5.212.486-10.749.562-15.96.24l-1.508-151.577z" fill="#fbcd7a"/><path d="M360.489 626.038c14.655 7.948 29.31 7.9 43.964.18l-2.456-52.932-11.772-14.833c-7.303 3.387-12.856 2.088-17.762-1.383-8.686 2.635-11.722 11.546-15.264 19.111l3.29 49.857z" fill="#268fe5"/><path d="M426.878 589.85l.014 12.578-5.577-7.365 5.563-5.213z" fill="#faa98d"/><path d="M375 541.682c4.812 2.685 10.212 3.657 15.117 3.455l-.825 6.254c-4.21.325-8.65-3.272-13.77-5.921l-.522-3.788z" fill="#dc6f50"/><path d="M394.63 517.602l-11.648-16.965s6.643 1.08 9.928 6.045c4.828 7.296 1.72 10.92 1.72 10.92z" fill="#2f4fa2"/><path d="M377.622 507.545c8.178-2.456 17.426 4.236 20.638 14.935 3.213 10.698-.819 21.378-8.997 23.833-8.178 2.456-17.426-4.236-20.639-14.935-3.212-10.698.82-21.377 8.998-23.833z" fill="#faaa8e"/><path d="M355.605 517.187c-5.07-24.403 18.128-22.496 25.359-19.194 7.366 3.363 14.344 16.819 9.091 24.745-3.039 4.586-10.102 8.258-16.843 7.345 1.342 6.417 3.432 13.854 2.677 19.001-.672 4.584-3.391 10.013-7.205 11.885-.401 11.677-4.365 16.972-12.785 14.285-6.004-2.575-9.502-6.142-10.873-10.553-1.908-5.981.103-9.94 3.429-13.221-4.263-3.774-5.905-8.821-6.334-13.595-.429-4.774.769-10.581 3.76-15.051 2.464-3.163 5.813-4.868 9.724-5.647z" fill="#2f2c73"/><path d="M362.343 776.723l.133 9.708 31.349-1.642-15.389-8.226-16.093.16zM400.4 775.048l1.988 9.506 28.48-1.35-16.674-9.402-13.794 1.246z" fill="#2f2c73" stroke="#241e70" stroke-miterlimit="1.5"/><path d="M401.302 583.182c1.232-.269.971-4.02.808-5.994-.163-1.974-1.736-3.813-1.784-5.852-.053-2.251-.038-6.886 1.467-7.659 1.971.733 4.194 2.444 6.717 6.005 2.211.834 5.951 1.646 11.606 5.69 4.035-5.925 7.264-9.213 9.733-9.66 2.497 2.814 1.258 7.529-1.01 12.767.998 5.197.149 8.122-1.595 11.13-1.275 2.2-3.812 4.169-5.492 5.294 2.473 2.653 6.289 9.025 7.433 11.863 1.508 3.743 1.782 7.271 1.615 10.594-.161 3.232-.657 6.771-2.613 9.349-2.574 3.391-7.338 9.737-12.827 11.001-16.941 3.901-27.661 25.043-37.384 21.386-2.88-4.717-1.859-10.635 6.975-19.181 8.023-7.761 22.547-.537 23.901-6.511.756-3.332-4.911-4.905-5.99-8.079-1.139-3.345-.838-11.992-.838-11.992l1.125-10.251c-4.817-4.801-6.778-8.812-8.112-12.036-1.882-5.473-2.202-9.539-.086-11.414 1.382-1.177 5.973 3.632 6.351 3.55z" fill="#f58c38"/><path d="M408.671 569.741c3.499-4.141 2.752-6.421 7.273-6.024 2.751.241 6.505 3.28 7.925 6.639l-3.632 5.367-11.566-5.982z" fill="#faa98d"/><ellipse cx="409.75" cy="580.299" rx="1.652" ry="1.525" fill="#fae0cd"/><ellipse cx="418.014" cy="581.085" rx="1.652" ry="1.525" fill="#fae0cd"/><path d="M413.268 583.702c1.214.2 2.088 1.037 1.951 1.867-.137.831-1.233 1.343-2.448 1.142-1.214-.2-2.088-1.036-1.951-1.867s1.234-1.342 2.448-1.142z" fill="#fae0cd"/><path d="M373.519 593.264l11.743-10.221s19.753 23.643 28.471 33.651c3.93 4.512 16.8 11.451 16.915 13.035.11 1.532-11.237 7.926-12.409 7.24-2.07-1.211-44.72-43.705-44.72-43.705z" fill="#faaa8e"/><path d="M376.666 596.395l6.15-11.223-9.268 8.101 3.118 3.122z" fill="#db7053"/><path d="M374.557 569.102c3.336 4.455 6.121 9.109 10.226 13.086" fill="none" stroke="#2e2973" stroke-width="1.92" stroke-miterlimit="1.5"/><path d="M395.189 580.391c-1.61 3.388-.682 6.798.644 10.693 1.325 3.895 4.139 7.414 7.335 10.939M421.282 595.731s7.264 9.357 8.172 14.602c1.694 9.794-1.878 15.546-1.878 15.546M406.428 636.716s-7.202-.18-13.895.603c-5.202.609-11.202 7.081-13.416 10.764-3.124 5.196-.614 10.156-.614 10.156M402.757 566.848s.908 1.21.853 1.827c-.051.575-.738 1.15-.738 1.15" fill="none" stroke="#e36f00" stroke-width="1.92" stroke-miterlimit="1.5"/></g></g></svg>