<svg viewBox="0 0 1530 912" xmlns="http://www.w3.org/2000/svg" fill-rule="evenodd" clip-rule="evenodd" stroke-miterlimit="10"><path fill="#f3f4f6" d="M0-3.251h1529.5V804.7H0z"/><path d="M577.9 804.7S772.4 793 962 624c86.6-77.3 225.5-65.4 243.5 180.7" fill="#e4eaf1" fill-rule="nonzero"/><path d="M461.3 550.5c35 41.6 90.7 60.2 144.7 66 63.7 6.9 129.1-1.6 189-24.4 113.1-43 200.5-133 297.3-205.6-108.3-26.2-224-21-329.6 14.9-110 37.3-206.5 106-313 152.3" fill="#fff" fill-opacity=".56" fill-rule="nonzero"/><path d="M1374.1 523.6v-94.9l78.4-8.2-10.3 103.1h-68.1zm-14.1 0h-71.9v-85l71.9-8.3v93.3z" fill="#d1dbe5" fill-opacity=".56" fill-rule="nonzero"/><path fill="#d1dbe5" fill-opacity=".56" d="M1288.1 537.7h71.9v82.7h-71.9z"/><path d="M1374.1 537.7h66.7l-8.2 82.7h-58.5v-82.7z" fill="#d1dbe5" fill-opacity=".56" fill-rule="nonzero"/><path d="M1459.6 581.8l-5.4 1.8-.5-5.7-5.4 1.8-.5-5.7-5.4 1.8v-.1c-.2.2-2.9 4.4-3 4.6-3 4.6-1.9 10.7 2.3 14.1-1.1 1-6.1 5.7-9.5 15.8-.3-13.8-5.3-21.2-6.5-22.7 3.9-3.4 4.8-9.3 1.9-13.7-.1-.2-2.9-4.4-3-4.6v.1l-5.4-1.8-.5 5.7-5.4-1.8-.5 5.7-5.4-1.8-.5 5.4c.1.3 2.9 4.5 3 4.7 3.1 4.8 9.5 6.2 14.3 3.4 1 1.4 7.8 11.2 5.7 30 0 .3 0 .5.2.7-.2 1.5-.4 3-.6 4.6 0 .5.4 1 .9 1.1h.1c.5 0 .9-.4 1-.9 1.8-20.3 11.6-28.3 11.7-28.4.1-.1.2-.2.2-.3 4.8 2.5 10.8 1 13.8-3.6.2-.3 2.9-4.5 3-4.7l-.6-5.5zm-140.8 1.8l-.5-5.7-5.4 1.8-.5-5.7-5.4 1.8v-.1c-.2.2-2.9 4.4-3 4.6-3 4.6-1.9 10.7 2.3 14.1-1.1 1-6.1 5.7-9.5 15.8-.3-13.8-5.3-21.2-6.5-22.7 3.9-3.4 4.8-9.3 1.9-13.7-.1-.2-2.9-4.4-3-4.6v.1l-5.4-1.8-.5 5.7-5.4-1.8-.5 5.7-5.4-1.8-.5 5.4c.1.3 2.9 4.5 3 4.7 3.1 4.8 9.5 6.2 14.3 3.4 1 1.4 7.8 11.2 5.7 30 0 .3 0 .5.2.7-.2 1.5-.4 3-.6 4.6 0 .5.4 1 .9 1.1h.1c.5 0 .9-.4 1-.9 1.8-20.3 11.6-28.3 11.7-28.4.1-.1.2-.2.2-.3 4.8 2.5 10.8 1 13.8-3.6.2-.3 2.9-4.5 3-4.7l-.5-5.4-5.5 1.7zm65.4 0l-.5-5.7-5.4 1.8-.5-5.7-5.4 1.8v-.1c-.2.2-2.9 4.4-3 4.6-3 4.6-1.9 10.7 2.3 14.1-1.1 1-6.1 5.7-9.5 15.8-.3-13.8-5.3-21.2-6.5-22.7 3.9-3.4 4.8-9.3 1.9-13.7-.1-.2-2.9-4.4-3-4.6v.1l-5.4-1.8-.5 5.7-5.4-1.8-.5 5.7-5.4-1.8-.5 5.4c.1.3 2.9 4.5 3 4.7 3.1 4.8 9.5 6.2 14.3 3.4 1 1.4 7.8 11.2 5.7 30 0 .3 0 .5.2.7-.2 1.5-.4 3-.6 4.6 0 .5.4 1 .9 1.1h.1c.5 0 .9-.4 1-.9 1.8-20.3 11.6-28.3 11.7-28.4.1-.1.2-.2.2-.3 4.8 2.5 10.8 1 13.8-3.6.2-.3 2.9-4.5 3-4.7l-.5-5.4-5.5 1.7z" fill="#d1dbe5" fill-rule="nonzero"/><path d="M1459.6 581.8l-5.4 1.8-.5-5.7-5.4 1.8-.5-5.7-5.4 1.8v-.1c-.2.2-2.9 4.4-3 4.6-3 4.6-1.9 10.7 2.3 14.1-1.1 1-6.1 5.7-9.5 15.8-.3-13.8-5.3-21.2-6.5-22.7 3.9-3.4 4.8-9.3 1.9-13.7-.1-.2-2.9-4.4-3-4.6v.1l-5.4-1.8-.5 5.7-5.4-1.8-.5 5.7-5.4-1.8-.5 5.4c.1.3 2.9 4.5 3 4.7 3.1 4.8 9.5 6.2 14.3 3.4 1 1.4 7.8 11.2 5.7 30 0 .3 0 .5.2.7-.2 1.5-.4 3-.6 4.6 0 .5.4 1 .9 1.1h.1c.5 0 .9-.4 1-.9 1.8-20.3 11.6-28.3 11.7-28.4.1-.1.2-.2.2-.3 4.8 2.5 10.8 1 13.8-3.6.2-.3 2.9-4.5 3-4.7l-.6-5.5zm-75.4 1.8l-.5-5.7-5.4 1.8-.5-5.7-5.4 1.8v-.1c-.2.2-2.9 4.4-3 4.6-3 4.6-1.9 10.7 2.3 14.1-1.1 1-6.1 5.7-9.5 15.8-.3-13.8-5.3-21.2-6.5-22.7 3.9-3.4 4.8-9.3 1.9-13.7-.1-.2-2.9-4.4-3-4.6v.1l-5.4-1.8-.5 5.7-5.4-1.8-.5 5.7-5.4-1.8-.5 5.4c.1.3 2.9 4.5 3 4.7 3.1 4.8 9.5 6.2 14.3 3.4 1 1.4 7.8 11.2 5.7 30 0 .3 0 .5.2.7-.2 1.5-.4 3-.6 4.6 0 .5.4 1 .9 1.1h.1c.5 0 .9-.4 1-.9 1.8-20.3 11.6-28.3 11.7-28.4.1-.1.2-.2.2-.3 4.8 2.5 10.8 1 13.8-3.6.2-.3 2.9-4.5 3-4.7l-.5-5.4-5.5 1.7z" fill="#d1dbe5" fill-rule="nonzero"/><path d="M989.6 679H656c-8.9 0-16.1 7.2-16.1 16.1v129.6c0 7.3 5.9 13.2 13.2 13.2h339.5c7.3 0 13.2-5.9 13.2-13.2V695.1c-.1-8.9-7.3-16.1-16.2-16.1z" fill="#18154d" fill-rule="nonzero"/><path d="M936.2 679H813.7c-8.9 0-16.1 7.2-16.1 16.1v129.6c0 7.3 5.9 13.2 13.2 13.2h128.4c7.3 0 13.2-5.9 13.2-13.2V695.1c-.1-8.9-7.3-16.1-16.2-16.1z" fill="#18154d" fill-rule="nonzero"/><path d="M761.5 679H639.1c-8.9 0-16.1 7.2-16.1 16.1v20.5h154.7v-20.5c0-8.9-7.3-16.1-16.2-16.1z" fill="#ff8b62" fill-rule="nonzero"/><path d="M622.9 824.7c0 7.3 5.9 13.2 13.2 13.2h128.4c7.3 0 13.2-5.9 13.2-13.2V715.6H622.9v109.1zm157.7 0c0 7.3 5.9 13.2 13.2 13.2h128.4c7.3 0 13.2-5.9 13.2-13.2V715.6H780.6v109.1z" fill="#ffcb6c" fill-rule="nonzero"/><path d="M919.2 679H796.8c-8.9 0-16.1 7.2-16.1 16.1v20.5h154.7v-20.5c0-8.9-7.3-16.1-16.2-16.1z" fill="#ff8b62" fill-rule="nonzero"/><path d="M878.3 702.3h-40.2c-2.7 0-4.8-2.2-4.8-4.8 0-2.7 2.2-4.8 4.8-4.8h40.2c2.7 0 4.8 2.2 4.8 4.8 0 2.7-2.2 4.8-4.8 4.8z" fill="#ffcb6c" fill-rule="nonzero"/><path d="M773.8 500H656.5c-10.2 0-18.4-8.2-18.4-18.4v-42.7c0-10.2 8.2-18.4 18.4-18.4h117.3c10.2 0 18.4 8.2 18.4 18.4v42.7c0 10.1-8.2 18.4-18.4 18.4z" fill="#18154d" fill-rule="nonzero"/><path d="M758.6 500H641.3c-10.2 0-18.4-8.2-18.4-18.4v-42.7c0-10.2 8.2-18.4 18.4-18.4h117.3c10.2 0 18.4 8.2 18.4 18.4v42.7c0 10.1-8.2 18.4-18.4 18.4z" fill="#ffcb6c" fill-rule="nonzero"/><path d="M718.6 484.3h-40.2c-2.7 0-4.8-2.2-4.8-4.8 0-2.7 2.2-4.8 4.8-4.8h40.2c2.7 0 4.8 2.2 4.8 4.8 0 2.6-2.2 4.8-4.8 4.8z" fill="#ff8b62" fill-rule="nonzero"/><path d="M929.4 500H812.1c-10.2 0-18.4-8.2-18.4-18.4v-42.7c0-10.2 8.2-18.4 18.4-18.4h117.3c10.2 0 18.4 8.2 18.4 18.4v42.7c0 10.1-8.2 18.4-18.4 18.4z" fill="#18154d" fill-rule="nonzero"/><path d="M914.2 500H796.9c-10.2 0-18.4-8.2-18.4-18.4v-42.7c0-10.2 8.2-18.4 18.4-18.4h117.3c10.2 0 18.4 8.2 18.4 18.4v42.7c0 10.1-8.2 18.4-18.4 18.4z" fill="#ffcb6c" fill-rule="nonzero"/><path d="M874.1 484.3H834c-2.7 0-4.8-2.2-4.8-4.8 0-2.7 2.2-4.8 4.8-4.8h40.2c2.7 0 4.8 2.2 4.8 4.8-.1 2.6-2.2 4.8-4.9 4.8z" fill="#ff8b62" fill-rule="nonzero"/><path d="M718.6 702.3h-40.2c-2.7 0-4.8-2.2-4.8-4.8 0-2.7 2.2-4.8 4.8-4.8h40.2c2.7 0 4.8 2.2 4.8 4.8 0 2.7-2.2 4.8-4.8 4.8z" fill="#ffcb6c" fill-rule="nonzero"/><path fill="#ffcb6c" d="M780.6 757.6h154.7v40.1H780.6z"/><path d="M755.9 795v-40.2c0-2.7 2.2-4.8 4.8-4.8 2.7 0 4.8 2.2 4.8 4.8V795c0 2.7-2.2 4.8-4.8 4.8-2.6 0-4.8-2.2-4.8-4.8zm122.4-52.6h-40.2c-2.7 0-4.8-2.2-4.8-4.8 0-2.7 2.2-4.8 4.8-4.8h40.2c2.7 0 4.8 2.2 4.8 4.8 0 2.6-2.2 4.8-4.8 4.8zm0 40h-40.2c-2.7 0-4.8-2.2-4.8-4.8 0-2.7 2.2-4.8 4.8-4.8h40.2c2.7 0 4.8 2.2 4.8 4.8 0 2.7-2.2 4.8-4.8 4.8zm0 40.1h-40.2c-2.7 0-4.8-2.2-4.8-4.8 0-2.7 2.2-4.8 4.8-4.8h40.2c2.7 0 4.8 2.2 4.8 4.8 0 2.6-2.2 4.8-4.8 4.8zm-83.4-170.1h-1.2v-16.3l1.8-3.8-1.4-4.6H788l-1.4 4.6 1.8 3.8v16.3h-1.2c-1.4 0-2.5 1.1-2.5 2.5s1.1 2.5 2.5 2.5h.2v7.6h7.5v-7.6h.2c1.4 0 2.5-1.1 2.5-2.5-.1-1.4-1.3-2.5-2.7-2.5zm-52.5-24.6v3.8c0 1.4-1.1 2.5-2.5 2.5s-2.5-1.1-2.5-2.5v-3.8c-1.9.9-3.3 2.9-3.3 5.2 0 2 1 3.8 2.6 4.8v23.4h6.4v-23.4c1.5-1 2.6-2.8 2.6-4.8 0-2.2-1.3-4.2-3.3-5.2zm33 1.2h-4.3v-1.2h-6.3v1l-4-1h-4.5v6.3h4.5l4-1.2v13.4h6.3V633h1.7c1.7 3 5.7 1.9 5.7 1.9l-3.1-5.9zm44 4.1c0-.1 0-.1 0 0 0-.3 0-.5-.1-.7 0-.1 0-.2-.1-.3 0-.1 0-.2-.1-.3-.4-1.7-1.6-3.1-3.1-3.9-.7-.4-1.6-.6-2.5-.6-.9 0-1.7.2-2.5.6-1.6.7-2.7 2.2-3.1 3.9 0 .1 0 .2-.1.3 0 .1 0 .2-.1.3v1.4c.2 1.7 1.2 3.2 2.5 4.1v23.4h6.4v-23.4c1.4-.9 2.3-2.4 2.5-4.1.3-.2.3-.5.3-.7zm-3.6 1.4l-2.2 1.3-2.2-1.3V632l2.2-1.3 2.2 1.3v2.5z" fill="#ff8b62" fill-rule="nonzero"/><path fill="none" stroke="#4f8af7" stroke-width="2" d="M723.4 623h104v32.8h-104z"/><path fill="#18154d" d="M735.1 646.4h104v30.7h-104z"/><path fill="#4f8af7" d="M715.4 646.4h104v30.7h-104z"/><path d="M1241.7 701.4v-.7c0-1.3 1-2.3 2.3-2.3h4.2v-2.7h26.4c5.4 0 9.8 4.4 9.8 9.8s-4.4 9.8-9.8 9.8h-1.5l4.1 19.5h2.7c2.5 0 4.5 2 4.5 4.5s-2 4.5-4.5 4.5h-20.1c-2.5 0-4.5-2-4.5-4.5s2-4.5 4.5-4.5h3.5l-4.1-19.5h-11v-2.7h-4.2c-1.3 0-2.3-1-2.3-2.3v-.7c-2.3 0-4.2-1.9-4.2-4.2 0-2.3 1.9-4 4.2-4z" fill="#ff8b62" fill-rule="nonzero"/><path d="M1237.5 705.6h-15.6" fill="none" stroke="#18154d" stroke-width="2" stroke-linecap="round" stroke-linejoin="round"/><path fill="#ffcb6c" d="M1214.1 745.9h291.1v6.3h-291.1z"/><path d="M1234.3 882.6V756.2h195.6v126.4" fill="none" stroke="#18154d" stroke-width="2" stroke-linecap="round" stroke-linejoin="round"/><path d="M1292.8 882.6V756.2h195.6v126.4" fill="none" stroke="#18154d" stroke-width="2" stroke-linecap="round" stroke-linejoin="round"/><path d="M1093.6 679h-123c-9 0-16.2 7.3-16.2 16.2v129.4c0 7.3 5.9 13.2 13.2 13.2h129c7.3 0 13.2-5.9 13.2-13.2V695.2c.1-9-7.2-16.2-16.2-16.2z" fill="#18154d" fill-rule="nonzero"/><path d="M1078.6 679h-123c-9 0-16.2 7.3-16.2 16.2v129.4c0 7.3 5.9 13.2 13.2 13.2h129c7.3 0 13.2-5.9 13.2-13.2V695.2c.1-9-7.2-16.2-16.2-16.2z" fill="#4f8af7" fill-rule="nonzero"/><circle cx="1070.2" cy="696.8" r="8.3" fill="#fff"/><circle cx="962.7" cy="696.8" r="8.3" fill="#fff"/><circle cx="998.5" cy="696.8" r="8.3" fill="#fff"/><circle cx="1034.4" cy="696.8" r="8.3" fill="#fff"/><path fill="#4b478d" d="M939.4 715.8h155.5v95.5H939.4z"/><path d="M1094.9 811.3H939.4l-34.6-72.4h155.5l34.6 72.4z" fill="#4f8af7" fill-rule="nonzero"/><path d="M1008.4 761.8H968c-2.7 0-4.8-2.2-4.8-4.8 0-2.7 2.2-4.8 4.8-4.8h40.4c2.7 0 4.8 2.2 4.8 4.8 0 2.6-2.1 4.8-4.8 4.8z" fill="#18154d" fill-rule="nonzero"/><path d="M938.3 811.3h157.6" fill="none" stroke="#18154d" stroke-width="2" stroke-linecap="round" stroke-linejoin="round"/><path d="M426 500.3l-99.4 34.9c-13.5 4.7-20.6 19.5-15.9 33l29 82.8L403 831.5c2.3 6.6 9.6 10.1 16.2 7.8l124.2-43.6c6.6-2.3 10.1-9.6 7.8-16.2L488 598.9l-29-82.8c-4.7-13.4-19.5-20.5-33-15.8z" fill="#18154d" fill-rule="nonzero"/><path d="M435.4 524.5c-4.7-13.5-19.6-20.6-33.1-15.9L303 543.4c-13.5 4.7-20.6 19.6-15.9 33.1l29 82.7 148.3-52-29-82.7z" fill="#ffcb6c" fill-rule="nonzero"/><path d="M316.1 659.2l63.3 180.5c2.3 6.6 9.6 10.1 16.2 7.8L519.9 804c6.6-2.3 10.1-9.6 7.8-16.2l-63.3-180.5-148.3 51.9z" fill="#ffcb6c" fill-rule="nonzero"/><path d="M445 605l-36.7 12.9c-2.4.9-5.1-.4-5.9-2.8-.9-2.4.4-5.1 2.8-5.9l36.7-12.9c2.4-.9 5.1.4 5.9 2.8.9 2.4-.3 5-2.8 5.9zm9.5 26.9l-36.7 12.9c-2.4.9-5.1-.4-5.9-2.8-.9-2.4.4-5.1 2.8-5.9l36.7-12.9c2.4-.9 5.1.4 5.9 2.8.9 2.3-.4 5-2.8 5.9z" fill="#ff8b62" fill-rule="nonzero"/><path d="M312.5 660.5l143.4-50.3" fill="none" stroke="#18154d" stroke-width="2" stroke-linecap="round" stroke-linejoin="round"/><path d="M359.185 893.526c-11.615-6.706-13.18-25.771-3.494-42.547 9.686-16.777 26.979-24.954 38.594-18.248 11.615 6.706 13.181 25.771 3.495 42.548-9.687 16.776-26.98 24.953-38.595 18.247z" fill="#18154d"/><path d="M471.6 829.9l-94.8 33.3L306 661.5l-40.1-18.6" fill="none" stroke="#18154d" stroke-width="2" stroke-linecap="round" stroke-linejoin="round"/><path d="M1184.9 798.8c-.9 5.3-1.8 10.6-2.6 15.9-3.1 7.2-7.9 12.6-15.3 15.8-5.2 2.3-10.2 5.3-15.2 8.1-.8.4-1.3 1.3-2 2-.2.2-.4.3-.7.3-1.3.4-2.8.7-4 1.4-15.2 8.1-30.4 16.2-45.6 24.4-4.6 2.5-9 5.3-13.4 7.9-3.8 1-7.6 2.7-11.4 2.9-7.5.3-16-8-15.4-15.5.2-3.4 0-6.8 0-10.3 4.7-7.3 12.2-10.9 19.3-15 1.4-.2 3.1 0 4.2-.7 14.5-10.1 28.9-20.4 43.3-30.7.7-.5 1.2-1.5 1.7-2.3-.3-.4-.7-.7-1-1.1-4.2 2.9-8.4 5.9-12.8 8.9-2-6.4-1.1-12.3.3-18.1.7.2 1.5.6 2.2.7 11.1.8 22.3 1.5 33.4 2.4 11.8 1 23.4 2 35 3z" fill="#444181" fill-rule="nonzero"/><path d="M1086.1 874.7c4.5-2.7 8.9-5.5 13.4-7.9 15.2-8.2 30.4-16.3 45.6-24.4 1.2-.7 2.7-.9 4-1.4 1 .2 2 .6 2.9.6h27.4c.6 4.4 1.2 8.8 1.6 13.2.1.6-.6 1.3-1 2-9.4 1.8-18.9 3.4-28.3 5.4-18.4 3.8-36.8 7.8-55.3 11.6-3.3.6-6.8.6-10.3.9z" fill="#262252" fill-rule="nonzero"/><path d="M1180.1 856.7c.3-.7 1-1.3 1-2-.4-4.4-1-8.8-1.6-13.2 0-.3 0-.6.1-.9 6.1-1.6 12.2-3.3 19.6-5.3v25.9c-.4 4-.8 8-1.2 12.1-2.7.4-5.5.8-8.2 1.2H1172c.7-1.7 1.1-3.1 1.7-4.3 2.1-4.5 4.3-9 6.4-13.5z" fill="#454281" fill-rule="nonzero"/><path d="M1179.5 840.7c0 .3 0 .6-.1.9H1152c-1 0-2-.4-2.9-.6.3 0 .5-.1.7-.3h29.7z" fill="#00003c" fill-rule="nonzero"/><path d="M1189.8 874.6c2.7-.4 5.4-.8 8.2-1.2.4-4.1.8-8.1 1.2-12.1v13.3h-9.4z" fill="#0a0374" fill-rule="nonzero"/><path d="M1184.9 798.8c-11.6-1-23.3-2-34.9-2.9-11.1-.9-22.2-1.6-33.4-2.4-.7-.1-1.5-.4-2.2-.7-.1-.3-.2-.5-.3-.8v-1.5c.1-.3.1-.5.2-.8.8-9.4 1.7-18.8 2.5-28.3 1.6 0 3.3-.4 4.9 0 9.1 2.1 18.2 4.6 27.3 6.6 4.7 1 10.2 2.9 13.7-2.2 4.4-6.6 8.2-13.6 12-20.5.5-.9.2-2.8-.5-3.8-4.4-6.6-10.8-10.4-18.5-12.1-1.1-.2-3 .5-3.6 1.4-1.7 2.9-2.9 6.1-4.3 9.2-4.2-.4-8.4-.7-12.7-1.1l-14.1-1.2c.3-2.7.6-5.5.8-8.2.6-7.4 1.1-14.8 1.6-22.2.9-.9 1.8-1.8 2.5-2.8 3.5-4.8 6.9-9.7 10.5-14.4 2-2.6 4.6-4.9 6.8-7.3 1.8.3 3.6.7 5.4 1-1.4 8.3-2.8 16.6-4.3 25.6 5.4-2.4 9.6-4.4 13.9-6.3 5.5-2.3 11.8-3.8 11.6-11.7 0-.1.2-.2.3-.3 6.7 2.8 9.3 8.9 11.6 15 5.4 14.7 6.8 30 4.5 45.5-2.1 13.9-2.6 27.8.4 41.6.8 2.8.3 4.3-1.7 5.6z" fill="#f9cb79" fill-rule="nonzero"/><path d="M1148.9 684c-1.8-.3-3.6-.7-5.4-1-3.5-1.9-6.9-4-7.4-8.6-.1-5 2-8.5 6.6-10.4 2 .4 4 .5 5.9 1.2 8 3.2 13.4 1.8 17.6-4.5 3.9-6 1.3-11.3-5.8-12.3-4.5-.6-8.9-1.6-13.4-2.5-.9-.7-1.7-1.5-2.7-2.1-3.8-2.8-4.6-9.9-1.6-13.5 5.3-6.3 13-5.9 18.4-1.9 2.1 1.6 4.2 3.3 6.3 4.9 2.5 3.8 5.8 6 10.4 6.7 12.4 1.9 15.3 9.7 7.5 19.8-.2.3-.1.8-.2 1.1-3.5 2-4.4 4.2-2.3 8.3 3.4 6.9-2.4 13-10.8 11.8-3.4-3.2-3.3-5.1.2-7.8 1.4-1.1 3.1-2.2 3.9-3.7.7-1.4.2-3.3.2-5-1.5.3-3.5.1-4.5 1-1.8 1.7-3.4 3.8-4.4 6-3.5 8.4-9.1 13.3-18.5 12.5z" fill="#2e3273" fill-rule="nonzero"/><path d="M1148.9 684c9.4.7 15-4.1 18.5-12.4 1-2.2 2.6-4.4 4.4-6 1-.9 3-.7 4.5-1 0 1.7.4 3.6-.2 5-.7 1.5-2.4 2.6-3.9 3.7-3.5 2.7-3.6 4.6-.2 7.8-.5 3.4-1.1 6.8-1.6 10.3-.1.1-.3.2-.3.3.2 7.9-6.1 9.4-11.6 11.7-4.3 1.8-8.5 3.8-13.9 6.3 1.5-9.1 2.9-17.4 4.3-25.7z" fill="#f4a78f" fill-rule="nonzero"/><path d="M1116.9 761.6c-2.2-.9-4.3-1.9-6.5-2.6-2.8-.9-5.7-1.4-8.5-2.1-.3 0-.5-.1-.8-.1-.2-.2-.4-.2-.7-.2-4.6-1.4-9.2-2.9-13.8-4.2-.8-.2-1.8-.2-2.7-.1-6 1.1-12.1 2-18.1 3.4-2.3.5-3.5-.2-4.4-2-3.1-5.8-6.1-11.6-9.1-17.3-1-2-.3-3 1.7-3.3 7.2-1.2 14.4-2.5 21.6-3.6 1.1-.2 2.5.5 3.5 1.1 1.2.7 2.4 1.7 3.2 2.8 4.7 6.5 11.2 6 18 4.7 4.7-.1 9.4-.1 14.2-.2h1.8c1.7 0 3.3 0 5-.1l14.1 1.2c.3.5.6 1.4.9 1.5 5.8.8 11.5 1.6 17.3 2.3.2 0 .4-.5 1-1.2-2.5-.5-4.5-1-6.6-1.5 1.4-3.1 2.6-6.3 4.3-9.2.5-.9 2.5-1.7 3.6-1.4 7.7 1.7 14.1 5.5 18.5 12.1.7 1 1 2.9.5 3.8-3.8 6.9-7.6 14-12 20.5-3.4 5.1-9 3.2-13.7 2.2-9.2-2-18.2-4.5-27.3-6.6-1.7-.3-3.4 0-5 .1z" fill="#f5a890" fill-rule="nonzero"/><path d="M1119.8 671.4c2-.1 4-.6 5.9-.2 3.5.8 6.9 2.1 10.4 3.2.6 4.5 3.9 6.6 7.4 8.6-2.3 2.4-4.8 4.7-6.8 7.3-3.6 4.7-7 9.6-10.5 14.4-.7 1-1.7 1.9-2.5 2.8l-7.2-3.3-9.9-6.3c.2-1.7.2-3.4.6-5 1.9-8.5 7-15.1 12.6-21.5z" fill="#f9ba64" fill-rule="nonzero"/><path d="M1148 740.1c2.1.5 4.2.9 6.6 1.5-.6.7-.8 1.2-1 1.2-5.8-.7-11.6-1.4-17.3-2.3-.4-.1-.6-1-.9-1.5 4.1.4 8.3.8 12.6 1.1z" fill="#1d1c51" fill-rule="nonzero"/><path d="M1114.4 792.9l-.5-.5s.1-.2.2-.3c.1.3.2.6.3.8zm-.2-2.3c0-.2-.1-.4-.1-.6 0-.1.2-.1.3-.2-.1.3-.2.5-.2.8z" fill="#444181" fill-rule="nonzero"/><path d="M1142.7 664.1c1.4-6 2.8-12 4.2-18.1 4.5.8 8.9 1.9 13.4 2.5 7.1 1 9.8 6.3 5.8 12.3-4.2 6.4-9.6 7.7-17.6 4.5-1.8-.7-3.9-.8-5.8-1.2z" fill="#f3a68f" fill-rule="nonzero"/><path d="M1119.8 671.4c-5.6 6.3-10.8 13-12.8 21.5-.4 1.6-.4 3.3-.6 5-1.3-.8-2.6-1.5-3.9-2.3-.8-.4-1.5-.8-2.3-1.2-9.2-5.1-18.4-10.1-27.6-15.2-1.4-.2-2.7-.6-4.1-.6-15.4 0-30.7.1-46.1.1-1.3 0-2.6.3-3.8.4-2.2-.3-4.5-.6-6.7-.8.6-.6 1.1-1.4 1.8-1.8 2.6-1.5 5.5-2.6 7.8-4.5 7.6-6.1 16.1-5.8 25.2-5.1 16.4 1.4 32.8 2 49.3 3 7.9.4 15.9 1 23.8 1.5z" fill="#d9704d" fill-rule="nonzero"/><path d="M1101.1 756.8c-.2.5-.3 1.1-.5 1.6-.1-.6-.1-1.2-.2-1.8.2-.1.5 0 .7.2zm-8.8 69.7c-.1.1-.2.2-.4.3-4.4 3.4-8.8 6.7-13.3 10 1.4-.2 3.1 0 4.2-.7 14.5-10.1 28.9-20.4 43.3-30.7.7-.5 1.2-1.5 1.7-2.3-.3-.3-.6-.7-.9-1l-34.6 24.4z" fill="#22245b" fill-rule="nonzero"/><path d="M180.6 763.4c0-1.2-.1-2.4-.1-3.5.2-.6.6-1.3.6-1.9v-41.6c0-.8-.8-1.6-1.2-2.5-.1-1.9-.1-3.8-.2-5.6l1.5-.6c.7.4 1.4.7 2.2 1.1 8.4 4.4 17.6 4.8 26.6 4.7 5.3-.1 10.5-2.9 15.8-4.6-.1.9 0 1.8-.2 2.6-1.1 5-2.2 9.9-3.3 14.9-1 4.6-1.9 9.2-2.9 13.9-.3.2-.8.3-.8.5-1.8 8-3.5 15.9-5.3 23.9l-4.2 16.8-2.1 10.8c-.5.7-1.2 1.2-1.4 2-1 3.9-2.3 7.8-2.8 11.7-1 8.3-6.2 14.3-10.7 20.7-12.1 17.1-24.2 34.3-36.4 51.5-.3.4-.6.7-.9 1-1.4 0-2.8-.2-4.2-.1-5.3.4-10.5.9-15.7 1.3 9.9-17.1 19.8-34.3 29.7-51.4 4.9-8.5 9.9-17 14.9-25.5.6-.6 1.1-1.2 1.7-1.8.2-.6.7-1.2.7-1.8v-34.4c-.2-.6-.9-1.4-1.3-2.1z" fill="#298ae3" fill-rule="nonzero"/><path d="M225.7 708.9c-5.3 1.6-10.5 4.5-15.8 4.6-9 .2-18.3-.3-26.6-4.7-.7-.4-1.4-.7-2.2-1.1-.5-.1-.9-.2-1.4-.3-2.6-1.8-2.5-4.7-2.6-7.3-.6-15.3-.3-30.5 2.2-45.7 0-.2.2-.4.3-.6 1.4.7 2.8 1.5 4.3 1.9 11.4 3.7 22.7 7.5 34.1 11.1 2.9.9 6.1 1.2 9.1 1.8.7.5 1.4 1 2.2 1.5.4 3.3.9 6.6 1.2 9.9.5 6.7.7 13.3 1.5 20 .5 3.8-1.7 5.7-3.9 7.9-.8.3-1.6.7-2.4 1z" fill="#f9cc79" fill-rule="nonzero"/><path d="M206.9 792.3l2.1-10.8c5.5 6.2 12.4 10.5 19.7 14.3 2.8 1.5 6 2.1 9 3.2 1.2 10.1 2.4 20.2 3.5 30.3.8 8.3 1.3 16.6 2.1 24.8.5 4.9 1.3 9.8 2 14.7-5.1 1.2-10.3 2.3-15.4 3.5-2.1-6.6-4.3-13.2-6.3-19.8-4.6-15.9-9-31.9-13.4-47.9-1.2-4.2-2.2-8.2-3.3-12.3z" fill="#2d6ec7" fill-rule="nonzero"/><path d="M229.3 670.1c-.7-.5-1.4-1-2.2-1.5-2.3-1.4-4.6-2.8-7-4.2-1-.8-1.8-1.7-2.9-2.4-3.4-2.3-6.9-4.5-10.4-6.7 5-5.4 10.1-10.8 15.1-16.3 1.1.5 2.1.9 3.2 1.4 1.8 1.5 3.6 3 5.4 4.4 4.3 3.9 8.5 7.9 12.8 11.7.7.6 2 1 2.8.7 9-2.8 17.9-5.7 26.8-8.7.9-.3 1.7-1.2 2.5-1.8.8-.4 1.7-.8 2.5-1.1 2-.8 4.1-1.5 6-2.5 5.2-2.5 8.4-1.8 12.6 3-1.4 2-2.7 4.1-4.1 6.2-.5.5-.9 1-1.4 1.6-.4.3-.8.5-1 .9-2.8 5.3-7.8 7.1-13.1 8.6-11.2 3.3-22.4 6.9-33.5 10.5-3 1-5.5 1.1-8.1-.9-1.8-1.1-4-1.9-6-2.9z" fill="#f7a990" fill-rule="nonzero"/><path d="M230.6 644.9c-1.8-1.5-3.6-3-5.4-4.4-.3-.6-.4-1.4-.8-1.8-7.1-6.2-14.2-12.3-21.3-18.4-.4-.3-1.1-.3-1.6-.4-.1.2-.2.4-.4.7l21 18.6c-5 5.4-10.1 10.8-15.1 16.3-5.3-4.4-10.7-8.6-15.7-13.3-2.8-2.6-4.9-6-7.4-9 2.2-10.2 6.3-19.6 13-27.6 1-1.2 2.5-2 3.8-3-1.4 6.1 1.9 9.3 7.1 11.2 1.8.7 3.7 1.3 5.6 1.7 6.9 1.5 10.3-1.1 10.4-8 1.8 4.5 3.8 9 5.5 13.6 1.1 2.9 2 5.9 3 8.8l-.9 10.2c-.4 1.5-.6 3.1-.8 4.8z" fill="#f8cb79" fill-rule="nonzero"/><path d="M200 591.4c-2-.1-4.3.3-6-.5-6.5-3.4-10.3-9-11.1-16.2-1.2-11.5.1-22.5 10.6-29.7 2.8-1.9 6.7-2.4 10-3.6 3.3-1.2 6.9-2.1 9.8-4 3.6-2.3 7.1-2.7 10.5-.5 3 1.9 4 5.1 3.5 8.7-.7 5.4-3.1 9.9-7.2 13.4-3.2 1.3-6.5 2.5-9.7 3.8-4.5 1.9-8.3 4.3-7.7 10.2.1.9-1 2.4-1.9 2.7-6.2 2.3-6.3 2.2-1.6 6.7 2.9 3 3.3 6.6.8 9z" fill="#454282" fill-rule="nonzero"/><path d="M200 591.4c2.5-2.4 2.2-6.1-.8-8.9-4.6-4.5-4.6-4.4 1.6-6.7.9-.3 2-1.9 1.9-2.7-.6-5.9 3.2-8.3 7.7-10.2 3.2-1.4 6.4-2.6 9.7-3.8 5.2 5.7 8.6 12.3 9.6 20 1 6.8-1.3 12.3-7.3 15.9-5-.2-10-.4-14.7-.6 4.2 2.7 9.2 4.6 14.9 3.7l.9 1.8c0 2.5.1 4.9.1 7.4-.1 6.9-3.5 9.6-10.4 8-1.9-.4-3.8-1-5.6-1.7-5.2-1.9-8.4-5.1-7.1-11.2-.1-3.6-.3-7.3-.5-11z" fill="#f6a890" fill-rule="nonzero"/><path d="M287.8 556.5c-.9 3.2-1.8 6.4-2.9 9.5-1 3.2-1 6.2.7 9.2-9.8 9.5-19.6 19-29.4 28.4-1.1 1-2.2 2-3.3 3.1l-12-18.3c15.4-11.6 30.7-23.3 46.1-34.9.3 1 .5 2 .8 3z" fill="#da6f4b" fill-rule="nonzero"/><path d="M240.9 588.4l12 18.3c-.5 1.4-.5 3.3-1.4 4.3-6.3 6.4-12.9 12.5-19.3 18.8-1-2.9-1.8-5.9-2.9-8.8-1.8-4.6-3.7-9.1-5.5-13.6 0-2.5-.1-4.9-.1-7.4 5.1-3.7 10.3-7.3 15.4-10.9.4-.5 1.1-.5 1.8-.7z" fill="#fabb64" fill-rule="nonzero"/><path d="M219.2 740.3c1-4.6 1.9-9.2 2.9-13.9 2.3-.9 4.6-1.8 7-2.7.3 1 .8 1.9.9 2.9l5.1 48.6c-1.9-1.2-3.4-3.5-6.3-2.8-.4.1-1.1-.3-1.5-.7-5.2-4.5-6.2-10.8-6.7-17.1-.3-3.4-.1-6.8-.3-10.1 0-1.5-.7-2.8-1.1-4.2z" fill="#3154a6" fill-rule="nonzero"/><path d="M134.7 880.5c5.2-.4 10.5-.9 15.7-1.3 1.4-.1 2.8 0 4.2.1 5.9 1.3 11.8 2.8 17.8 3.9 2.4.4 3.7 1.1 4.5 3.4.8 2.4 1.9 4.7 2.9 7-3.2-.2-6.4-.4-9.6-.7-.3 0-.6 0-.9-.1-.7-.1-1.4-.1-2.1-.2-1.9-.1-3.7-.1-5.6-.2h-.7l-15.3-.6c-.5 0-1-.1-1.4-.1-3-.1-5.9-.2-8.9-.2-.4-.1-.8-.3-1.1-.4.1-3.6.3-7.1.5-10.6z" fill="#f5c97a" fill-rule="nonzero"/><path d="M229.9 872.2c5.1-1.2 10.3-2.3 15.4-3.5 9.5 3.7 18.9 7.4 28.4 10.9 2.4.9 3.7 2.1 3.9 4.7-2.3 0-4.6.1-6.9.1l-33-.3c-.9.2-1.9.3-2.8.5-.5.1-1 .1-1.5.2-1.3-4.3-2.4-8.4-3.5-12.6z" fill="#f6c97a" fill-rule="nonzero"/><path d="M183.8 633.1c2.4 3 4.5 6.4 7.4 9 5 4.7 10.4 8.9 15.7 13.3 3.5 2.2 6.9 4.4 10.4 6.7 1 .7 1.9 1.6 2.9 2.4-3.4-.8-6.9-1.4-10.3-2.5-4.3-1.5-8.5-3.3-12.7-5.1-1.6-.7-3.1-1.5-4.3-2.2-2.5-.3-4.7-.5-6.9-.9-2.1-.3-4.2-.8-6.3-1.3 1.4-6.4 2.8-12.9 4.1-19.4z" fill="#f1ac75" fill-rule="nonzero"/><path d="M219.2 740.3c.4 1.4 1 2.7 1.1 4.1.2 3.4 0 6.8.3 10.1.6 6.3 1.5 12.6 6.7 17.1.4.4 1.1.8 1.5.7 2.9-.7 4.3 1.6 6.3 2.8.1 1.6.2 3.1.4 4.7-.3 1.6 0 4.2-2.6 3.4-6.3-2.1-12.1-4.9-15.5-11.2-1.4-2.5-2.9-4.9-4.4-7.4 1.8-8 3.5-15.9 5.3-23.9.1-.1.7-.2.9-.4z" fill="#2e59af" fill-rule="nonzero"/><path d="M237.6 798.9c-3-1-6.2-1.7-9-3.2-7.2-3.8-14.2-8-19.7-14.3l2.1-8.4c.3.1.9.1 1 .3 1.8 4.1 5.5 6 9.1 8 .8.4 1.7.9 2.1 1.7 3 5.3 8.4 6.5 13.6 8.1.3 2.7.6 5.3.8 7.8z" fill="#2967c1" fill-rule="nonzero"/><path d="M236.9 791.3c-5.2-1.6-10.6-2.8-13.6-8.1-.4-.7-1.4-1.2-2.1-1.7-3.6-2-7.3-3.9-9.1-8-.1-.2-.6-.2-1-.3l2.1-8.4c1.5 2.4 3 4.8 4.4 7.3 3.4 6.2 9.2 9.1 15.5 11.2 2.6.9 2.3-1.8 2.6-3.4.3 3.8.7 7.6 1.2 11.4z" fill="#2d60b8" fill-rule="nonzero"/><path d="M320.8 538.1c-7.1 2.9-14.1 5.8-21.2 8.7-2.3.9-4.7 1.8-7 2.7 2.3-6.7 10.7-12.9 17.6-13.2 3.7-.3 7.4-1 10.6 1.8z" fill="#db714c" fill-rule="nonzero"/><path d="M179.7 652.6c2.1.4 4.2.9 6.3 1.3 2.2.4 4.4.6 6.9.9 1.2.6 2.7 1.5 4.3 2.2 4.2 1.8 8.4 3.6 12.7 5.1 3.3 1.1 6.8 1.7 10.3 2.5 2.3 1.4 4.6 2.8 7 4.2-3-.6-6.2-.9-9.1-1.8-11.4-3.6-22.8-7.3-34.1-11.1-1.5-.5-2.9-1.3-4.3-1.9-.1-.6-.1-1 0-1.4z" fill="#f9ba74" fill-rule="nonzero"/><path d="M237.6 884l33 .3c2.3 0 4.6-.1 6.9-.1.3.7.6 1.4.9 2.3h-40.9c.1-.8.1-1.6.1-2.5zm38.9 1.9v-.3h-27.6v.3h27.6z" fill="#1c1952" fill-rule="nonzero"/><path d="M229.1 723.7c-2.3.9-4.6 1.8-7 2.7 1.1-5 2.2-9.9 3.3-14.9.2-.9.2-1.8.2-2.6.8-.4 1.6-.8 2.4-1.1.5 5.3.8 10.6 1.1 15.9z" fill="#325db2" fill-rule="nonzero"/><path d="M170.2 892.8c3.2.2 6.4.4 9.6.7-.1.5-.1 1.4-.3 1.4-1.2.2-2.5.3-3.8.3-9.8-.3-19.6-.7-29.4-1 1-.3 2-.7 3-1 3.4 0 6.7 0 10.1-.1.5-.2 1-.5 1.5-.7h.7c1.9.1 3.7.1 5.6.2.7.1 1.4.1 2.1.2h.9z" fill="#1b1651" fill-rule="nonzero"/><path d="M179.8 713.9c.4.8 1.2 1.6 1.2 2.5.1 13.9.1 27.7 0 41.6 0 .6-.4 1.3-.6 1.9-.1-3.7-.1-7.3-.2-11v-.9c0-4.3-.1-8.6-.1-12.9-.1-3.6-.2-7.1-.2-10.7 0-3.5 0-7-.1-10.5z" fill="#0583e2" fill-rule="nonzero"/><path d="M222.6 598.1c-5.8.8-10.7-1-14.9-3.7 4.6.2 9.6.4 14.7.6.1 1 .2 2 .2 3.1z" fill="#db714c" fill-rule="nonzero"/><path d="M149.3 893.2c-1 .3-2 .7-3 1-3.4-.1-6.9-.2-10.3-.2-1.8 0-2.2-.8-1.7-2.4.3-.1.7-.1 1-.2 3 .1 5.9.2 8.9.2v.7H136c0 .3 0 .6.1.9l8.1-.9c.5-.2.9-.4 1.4-.5l15.3.6c-.5.2-1 .5-1.5.7-3.4 0-6.8 0-10.1.1z" fill="#09094c" fill-rule="nonzero"/><path d="M180.6 763.4c.4.7 1.2 1.4 1.2 2.1.1 11.5.1 22.9 0 34.4 0 .6-.5 1.2-.7 1.8 0-.3-.1-.6-.1-.9v-10.9c0-2.4-.1-4.8-.1-7.1 0-1.4-.1-2.7-.1-4.1-.1-3.7-.1-7.5-.2-11.2-.1-1.3-.1-2.7 0-4.1z" fill="#0583e2" fill-rule="nonzero"/><path d="M287.8 556.5c-.3-1-.5-2-.8-3 1.9-1.4 3.7-2.7 5.6-4.1-1.6 2.4-3.2 4.7-4.8 7.1z" fill="#db714c" fill-rule="nonzero"/><path d="M237.6 884v2.5c-.9-.1-1.9-.3-2.8-.4v-1.6c.9-.1 1.8-.3 2.8-.5z" fill="#312c56" fill-rule="nonzero"/><path d="M180.5 767.5c.1 3.7.1 7.5.2 11.2 0-3.7-.1-7.4-.2-11.2zm-.6-43.2c.1 3.6.2 7.1.2 10.7 0-3.5-.1-7.1-.2-10.7zm.9 58.6c0 2.4.1 4.8.1 7.1 0-2.3-.1-4.7-.1-7.1zm.2 18c0 .3.1.6.1.9-.6.6-1.1 1.2-1.7 1.8.5-.9 1-1.8 1.6-2.7z" fill="#60a2ea" fill-rule="nonzero"/><path d="M234.7 884.5v1.6c-.5-.5-1-.9-1.5-1.4.5 0 1-.1 1.5-.2z" fill="#1c1952" fill-rule="nonzero"/><path d="M179.7 707.4c.5.1.9.2 1.4.3l-1.5.6c0-.3.1-.6.1-.9z" fill="#60a2ea" fill-rule="nonzero"/><path d="M135.3 891.5c-.3.1-.7.1-1 .2-.2-.2-.2-.4-.1-.6.3.1.7.2 1.1.4z" fill="#4b4462" fill-rule="nonzero"/><path d="M180.3 748v.9-.9z" fill="#60a2ea" fill-rule="nonzero"/><path d="M222 639.1l-21-18.6c.1-.2.2-.4.4-.7.5.1 1.2.1 1.6.4 7.1 6.1 14.3 12.3 21.3 18.4.5.4.6 1.2.8 1.8-1-.4-2-.8-3.1-1.3z" fill="#1b1651" fill-rule="nonzero"/><path d="M167.1 892.6c-1.9-.1-3.7-.1-5.6-.2 1.9.1 3.8.1 5.6.2zm-21.5-.8c-.5.2-.9.4-1.4.5v-.7c.4.1.9.2 1.4.2zm24.6 1c-.3 0-.6 0-.9-.1.3.1.6.1.9.1z" fill="#4b4462" fill-rule="nonzero"/><path fill="#312c56" fill-rule="nonzero" d="M248.9 885.6h27.6v.3h-27.6z"/><path d="M149.3 893.2c3.4 0 6.7 0 10.1-.1-3.4 0-6.8 0-10.1.1zm-5.1-.9l-8.1.9c0-.3 0-.6-.1-.9 2.7.1 5.5.1 8.2 0 0 .1 0 0 0 0z" fill="#4b4462" fill-rule="nonzero"/><path d="M1276.4 872s3.2 10.2 4.8 8.8c1.6-1.4 1.4-6.7 4.5-6.3 3.1.4-7.1-3.5-7.1-3.5" fill="#e1792c" fill-rule="nonzero"/><path d="M1311.3 848.9c5.4-2.1 7.1-10.5 3.8-15.8-1.4-2.2-2.3-5-2.5-7.6-.1-1.8.8-4.5 2.1-5.3 1.8-.9 4.7-1.1 6.6-.2 5.4 2.5 8.8 11.4 7.8 17.3-1.4 8.2-6.4 13.4-12.9 17.8-.9.6-1.6 2.2-1.6 3.3 0 5.2 0 10.5-2.8 15.1-1.3 2.2-3 4.3-4.7 6.3-.6.7-1.8 1.1-2.7.9-.5-.1-1.1-1.5-1.1-2.3 0-1.5.4-2.9.7-4.4.8-.7 1.5-1.4 2.3-2.2-1.1 0-2.3-.3-3.3-.1-8 1.8-15.8 1.8-23.5-1.4-.7-.3-1.5-.2-2.3-.3.3.9.5 1.8.8 2.7 0 1.6.3 3.2.1 4.8-.2 1-.8 2.2-1.6 2.7-.5.3-1.9-.4-2.6-1.1-4.7-4.4-5.1-10.5-6.1-16.3-.3-2.1.1-4.3-.3-6.4-.4-2.2-1.2-4.4-1.9-6.6 6 .1 11.6-1.1 15.9-5.9 5.2 4 10.9 3.3 16.8 2.9 3.6-.2 7.7-.6 10.8 2.5 1.1 1.2 1.9 1.4 2.2-.4z" fill="#f58b37" fill-rule="nonzero"/><path d="M1282.4 827.7c.3-.1.5-.2.8-.3 1.7-.6 3.4-1.3 5.1-1.9 1.2 3.9-1.2 9.8-4.6 12.2-.6.1-1.5-.1-1.8.2-1.8 2.3-3.1 4.9-5.2 6.9-4.7 4.6-13.1 4.1-17.3-.7-4.9-3.4-4.6-12.5-.1-14.7.1.4 0 .9.2 1.2.4.7.8 1.7 1.5 2 .7.3 1.6 0 2.5-.1-.3-1-.5-2.2-1-3.1-.3-.6-1.2-.8-1.8-1.3.1-.4.1-.9.4-1.2 4.2-4 13.1-3.9 17.5.2 1.2 1.1 2.2 2.7 3.8.6z" fill="#f68d38" fill-rule="nonzero"/><path d="M1259.5 844.1c4.2 4.8 12.6 5.3 17.3.7 2-2 3.4-4.6 5.2-6.9.3-.3 1.2-.2 1.8-.2 0 .6.2 1.3.1 1.9-.7 3.7.2 5.2 4 5.6 3.3.3 6.6-.1 9.9-.2 5-.2 9.9-.1 13.6 4-.3 1.7-1.1 1.6-2.1.5-3-3.1-7.2-2.7-10.8-2.5-5.9.4-11.6 1.1-16.8-2.9-4.3 4.8-9.9 6.1-15.9 5.9-2.3-1.1-4.7-2.1-7-3.2.2-.9.5-1.8.7-2.7z" fill="#e27826" fill-rule="nonzero"/><path d="M1259.5 844.1c-.3.9-.5 1.7-.8 2.6-6.6-6-6-15.2.9-21.1 4.8-4.1 10.9-3.5 16.3-6.5.3 4.4 2.7 6.2 5.7 7.4.3.4.6.8.8 1.3-1.6 2.1-2.6.5-3.8-.5-4.4-4.1-13.3-4.2-17.5-.2-.3.2-.2.8-.4 1.2-.5.4-.9.8-1.4 1.2-4.4 2.1-4.7 11.2.2 14.6z" fill="#e47a28" fill-rule="nonzero"/><path d="M1278.1 872.8c-.3-.9-.5-1.8-.8-2.7.8.1 1.6 0 2.3.3 7.7 3.1 15.5 3.1 23.5 1.4 1.1-.2 2.2.1 3.3.1-.8.7-1.5 1.4-2.3 2.2-5.1.3-10.3.6-15.4.8-.4 0-.9 0-1.3-.1-5.1-1-5.5-.6-5.6 4.6-.1-1.4-.2-2.8-.4-4.2-.2-2.2-.9-3.6-3.3-2.4z" fill="#e1792c" fill-rule="nonzero"/><path d="M1259.4 829.4c.5-.4.9-.8 1.4-1.2.6.4 1.5.7 1.8 1.3.5.9.7 2.1 1 3.1-.8 0-1.8.4-2.5.1-.7-.3-1.1-1.2-1.5-2-.2-.4-.2-.9-.2-1.3z" fill="#fae9da" fill-rule="nonzero"/><path d="M1271.2 820.9s6.3-4.9 7.2-2.8c.9 2.1.2 5.5 1 7.2" fill="#e47a28" fill-rule="nonzero"/><path d="M1281.3 834.5s7.8-4.4 7.3-8.2c-.5-3.8-7.6 2.5-7.6 2.5" fill="#f68d38" fill-rule="nonzero"/><path d="M1283.2 827.2s-2.1-1.7-4.2-2.2v1.2l2.1 1.9 2.1-.9z" fill="#e47a28" fill-rule="nonzero"/></svg>