<svg viewBox="0 0 758 369" xmlns="http://www.w3.org/2000/svg" fill-rule="evenodd" clip-rule="evenodd" stroke-linecap="round" stroke-linejoin="round" stroke-miterlimit="10"><g transform="translate(-133.445 -328.492)"><path fill="none" d="M133.445 328.492h757.11v368.016h-757.11z"/><clipPath id="a"><path d="M133.445 328.492h757.11v368.016h-757.11z"/></clipPath><g clip-path="url(#a)"><path d="M476.7 328.984H367.4c-14.8 0-26.9 12-26.9 26.9v289.5c0 7.3 5.9 13.2 13.2 13.2h136.6c7.3 0 13.2-5.9 13.2-13.2v-289.5c.1-14.8-11.9-26.9-26.8-26.9z" fill="#18154d" fill-rule="nonzero"/><path d="M477.6 355.884c0-14.8-12-26.9-26.9-26.9H341.4c-14.8 0-26.9 12-26.9 26.9v91h163.1v-91zM314.5 446.884v198.5c0 7.3 5.9 13.2 13.2 13.2h136.6c7.3 0 13.2-5.9 13.2-13.2v-198.5h-163z" fill="#ffcb6c" fill-rule="nonzero"/><path d="M459.4 438.084H419c-2.7 0-4.8-2.2-4.8-4.8 0-2.7 2.2-4.8 4.8-4.8h40.4c2.7 0 4.8 2.2 4.8 4.8 0 2.6-2.1 4.8-4.8 4.8zM459.4 467.684H419c-2.7 0-4.8-2.2-4.8-4.8 0-2.7 2.2-4.8 4.8-4.8h40.4c2.7 0 4.8 2.2 4.8 4.8 0 2.6-2.1 4.8-4.8 4.8z" fill="#ff8b62" fill-rule="nonzero"/><path d="M310.5 446.884h157.7" fill="none" stroke="#18154d" stroke-width="2"/><path d="M659.3 597.084H556.5l-4.8-87.3c0-6.6 5.4-12 12-12H652c6.6 0 12 5.4 12 12l-4.7 87.3z" fill="#4f8af7" fill-rule="nonzero"/><path fill="#4f8af7" d="M532.8 602.784h150.3v28.8H532.8z"/><g fill="#4f8af7" fill-rule="nonzero"><path d="M682 554.184h-8.2c-4.5 0-8.2 3.7-8.2 8.2v69.1h24.6v-69.1c0-4.5-3.6-8.2-8.2-8.2zM542 554.184h-8.2c-4.5 0-8.2 3.7-8.2 8.2v69.1h24.6v-69.1c0-4.5-3.7-8.2-8.2-8.2z"/></g><g transform="translate(-522.3 102.984)" fill="#fff"><circle cx="1107.4" cy="427.7" r="5.1"/><circle cx="1153" cy="427.7" r="5.1"/></g><g transform="translate(-522.3 102.984)" fill="#fff"><circle cx="1107.4" cy="459.9" r="5.1"/><circle cx="1153" cy="459.9" r="5.1"/></g><path fill="#18154d" d="M801.4 579.384H891v47.7h-89.6z"/><path fill="#4f8af7" d="M780.4 579.384H870v47.7h-89.6z"/><path fill="#18154d" d="M820.4 579.384h9.3v16.4h-9.3zM786.2 628.484h89.6v47.7h-89.6z"/><path fill="#4f8af7" d="M765.1 628.484h89.6v47.7h-89.6z"/><path fill="#18154d" d="M805.2 628.484h9.3v16.4h-9.3z"/><g fill="none" stroke="#18154d" stroke-width="2"><path d="M532.8 637.884H683M560.4 637.884l-20.4 38.3M655.4 637.884l20.4 38.3"/></g><path d="M791.2 382.084H679.5l-12 71.4h135.7l-12-71.4z" fill="#ffcb6c" fill-rule="nonzero"/><path d="M763 382.084h-53.3l-11.8 71.4h76.9l-11.8-71.4z" fill="#fcdba7" fill-rule="nonzero"/><g fill="none" stroke="#18154d" stroke-width="2"><path d="M735.4 453.484v222.7M721.3 676.184h28.2"/></g><g transform="translate(-522.3 102.984)"><path d="M1281.6 350.5v23.8" fill="none" stroke="#ff8b62" stroke-width="2" stroke-linecap="butt" stroke-linejoin="miter"/><circle cx="1281.6" cy="374.3" r="3" fill="#ff8b62"/></g><path d="M376.6 515.884H267c-8 0-14.4 6.5-14.4 14.4v133.7c0 6.5 5.3 11.8 11.8 11.8h114.9c6.5 0 11.8-5.3 11.8-11.8v-133.7c-.1-7.9-6.5-14.4-14.5-14.4z" fill="#18154d" fill-rule="nonzero"/><path d="M377.7 530.284c0-8-6.5-14.4-14.4-14.4H253.7c-8 0-14.4 6.5-14.4 14.4v18.4h138.4v-18.4zM239.2 548.684v115.3c0 6.5 5.3 11.8 11.8 11.8h114.9c6.5 0 11.8-5.3 11.8-11.8v-115.3H239.2z" fill="#ff8b62" fill-rule="nonzero"/><path d="M324.7 538.584h-36c-2.4 0-4.3-1.9-4.3-4.3s1.9-4.3 4.3-4.3h36c2.4 0 4.3 1.9 4.3 4.3s-2 4.3-4.3 4.3z" fill="#ffcb6c" fill-rule="nonzero"/><path d="M305.8 569.584c-18.4 0-33.9 12.7-38.1 29.8h-3.8c-2.5 0-4.5 2-4.5 4.5v9.8c0 2.5 2 4.5 4.5 4.5h3.8c4.2 17.1 19.7 29.8 38.1 29.8 21.7 0 39.2-17.6 39.2-39.2s-17.5-39.2-39.2-39.2z" fill="#fff" fill-rule="nonzero"/><circle cx="828.1" cy="505.9" r="23.2" fill="#ffcb6c" transform="translate(-522.3 102.984)"/><circle cx="878.1" cy="430.7" r="8.3" fill="#fff" transform="translate(-522.3 102.984)"/><path d="M238.9 552.584h135.3" fill="none" stroke="#18154d" stroke-width="2"/><path d="M604.9 626.984v-4c.1 1.3.3 2.6.4 3.9-.1 0-.2.1-.4.1z" fill="#e8c485" fill-rule="nonzero"/><path d="M620.7 626.884h.6-.6z" fill="#5d91f2" fill-rule="nonzero"/><path d="M596.3 615.684c-.6 0-1.2.1-1.9.1-.7-1.6-1.4-3.2-2.1-4.7.1-3-.2-6.2.4-9.1.6-2.9 2.2-5.5 3.3-8.2-.2-.1-.5-.3-.7-.4-.8.9-1.8 1.8-2.5 2.8-1.2 1.8-3 2.8-5 2.4-3.2-.7-6.5-1.2-9.3-2.7-5.9-3.1-7.2-7.3-4.6-12.1-2.6-1-3.6-6.2-2-10.1.3.1.7.1.9.2 2.9 2.3 5.8 3.1 9.1.8.4-.3 1-.4 1.6-.4 4.5-.6 4.5-.6 5.1-5.1.7-.9 1.4-1.9 2.1-2.8 4.1 1.3 4.7 5.1 6.3 8.3 1.4 2.8 3.2 5.9 5.6 7.3 2 1.2 5.3.1 8.1-.1.6 0 1.3-.3 1.9-.5.3.7.6 1.4 1.2 2.6 1.3-1.3 2.2-2.3 3.2-3 2.3-1.6 4.5-3.5 7-4.6 9.5-4.1 19.7 1 21.1 11.4.5 3.8-.5 7.2-1.3 10.8-.2.7.1 1.4.1 2.2-1.6 5.6-4.9 10-9.1 13.8-2.8 2.6-5.4 5.3-8.1 8-2.6 1-5.1 2.3-7.8 3.1-2.1.6-4.1-.1-5.4-2-1.2-1.7-.3-3.1.3-4.8 1.7-5 5.8-7.9 9.1-11.4.8-.8 1.5-1.7 2.5-2.9-5.2-.8-9.7-1.7-14.4-2.2-6.5-.7-11.2 2.8-12.8 9-.3 1.4-.9 2.7-1.4 4-.1 0-.3.2-.5.3z" fill="#f28a36" fill-rule="nonzero"/><path d="M643.9 600.684c-.1-.7-.3-1.5-.1-2.2.9-3.5 1.8-6.9 1.3-10.8-1.3-10.4-11.6-15.5-21.1-11.4-2.5 1.1-4.7 3-7 4.6-1 .7-1.9 1.7-3.2 3-.5-1.1-.8-1.8-1.2-2.6 4.1-2.3 7.8-5.4 12.3-7.3 8.9-3.7 20.1 1.4 21.8 11 .6 3.3-.1 6.9-.3 10.3-.7 1.6-1.3 3.2-2 4.8-.1.2-.3.4-.5.6z" fill="#e47828" fill-rule="nonzero"/><path d="M572.1 573.584c-1.6 3.9-.5 9.1 2 10.1-2.7 4.8-1.3 9.1 4.6 12.1 2.8 1.5 6.2 2 9.3 2.7 2.1.4 3.8-.6 5-2.4.7-1 1.6-1.9 2.5-2.8.2.1.5.3.7.4-1.1 2.7-2.7 5.4-3.3 8.2-.6 2.9-.3 6.1-.4 9.1-.2-1.5-.4-3.1-.7-4.6l-.6-3.9c.2-1.9-.4-2.7-2.5-2.7-2.5-.1-5.1-.6-7.6-1-2-.4-3.8-2.1-6.1-1-.1 0-.5-.7-.8-1.1 1.6-1.1.1-1.3-.5-1.7-.6-1.3-1.5-2.6-1.8-4.1-.7-3.1-1.1-6.3-1.6-9.4-.3-1.9-.7-3.8-.7-5.8-.2-1.3.2-3 2.5-2.1z" fill="#e47928" fill-rule="nonzero"/><path d="M574 596.684c.3.4.8 1.2.8 1.1 2.3-1.1 4.1.6 6.1 1 2.5.5 5.1 1 7.6 1 2.1 0 2.7.8 2.5 2.7h-.7c-6.6 1.3-13.2 2.2-19.9.7-1.5-.3-2.3-.9-2.5-2.4 0-1.4.2-2.4 1.9-2.7 1.5-.1 2.9-.9 4.2-1.4z" fill="#ef8938" fill-rule="nonzero"/><path d="M590.4 602.584h.7l.6 3.9c.2 1.5.4 3.1.7 4.6.7 1.6 1.4 3.2 2.1 4.7-.4.2-.9.4-1.3.5-.1-.2-.2-.4-.4-.5-2.1-2.9-2.5-6.3-2.4-9.8v-3.4z" fill="#e27821" fill-rule="nonzero"/><path d="M586.5 623.684c-.2.8-.3 1.6-.5 2.5.2-.8.4-1.7.5-2.5zM592.8 615.884c.2.1.3.3.4.5-.2.2-.5.4-.7.7l.3-1.2zM589.2 619.384l-.3.3v-.2l.3-.1zM589.7 618.784c-.1.1-.2.2-.3.2v-.2h.3zM604.7 622.284c-.2-.4-.3-.8-.5-1.2.2.4.4.8.5 1.2zM600.2 617.084c-.4-.2-.8-.3-1.2-.5.4.1.8.3 1.2.5zM598.3 616.384c-.4-.1-.8-.1-1.2-.2.4.1.8.1 1.2.2zM596.3 615.684l.5-.5c0 .2 0 .4-.2.6l-.3-.1z" fill="#e8c485" fill-rule="nonzero"/><ellipse cx="1118.5" cy="523.7" rx="10.2" ry="11.2" fill="#face7a" transform="rotate(37.721 706.656 -189.252)"/><path d="M571.3 692.284s-8.3 5-17 3.4-14.2-8.3-7.5-13.8c6.6-5.6 25.5-2.5 31.6-7.9 6.1-5.4 14.4-20.1 12.8-43.6" fill="none" stroke="#face7a" stroke-width="2"/><path d="M279.6 469.684c1.1 3.6 2.4 7.2 3.2 10.8.3 1.3-.7 2.8-1 4.2-5.8 1.2-11.5 2.5-17.3 3.7-1.1-3-2.2-6-3.5-9.4-3 7.7-5.8 14.9-8.7 22.1-.4 1-1.3 1.9-1.9 2.9-3.1.5-6.1 1.2-9.2 1.4-4.2.3-6.5 2.5-7.7 6.3-1 3.3-2 6.6-3.1 9.9-.6.1-1.2.4-1.7.3-12.1-3.4-23.6-7.4-27-21.7 1.9-4.4 3.9-8.8 5.8-13.2 1.3-2.9 2.6-5.8 3.8-8.7 1.9-3.4 3.8-6.7.7-10.7-1-1.4-.9-3.7-1.1-5.5-.5-3.7.8-6.3 4.3-8.1 4.2-2.2 8.1-5 12.1-7.6.3-.2.6-.4.8-.6 3-1.7 5.9-3.5 8.9-5.1 2.2-1.2 4.6-2.3 6.8-3.4 1.8 1.6 3.3 3.7 5.4 4.5 2.1.8 4.7.2 7.1.2 2.9 3.2 3.6 6.6 2.4 11-1.7 6.1 1.6 11.7 7.1 14.7 4.6 2.3 9.1 3.1 13.8 2zm-34.2 7.7c-11.8 3.5-15.9-3.3-17.9-13.3-1.8 3.8.2 9.6 3.8 12.9 4.4 3.8 9.3 4.1 14.1.4z" fill="#1b89ed" fill-rule="nonzero"/><path d="M279.6 469.684c-4.8 1-9.2.3-13.5-2-5.5-2.9-8.8-8.6-7.1-14.7 1.2-4.5.5-7.8-2.4-11 .3-4.3.7-8.7 1-13 .5-1.1 1-2.3 1.5-3.4 2.9-4.1 6-8.1 8.7-12.3 1.4-2.1 1.9-4.5-1.7-5.5-1.5-.4-2.9-1.1-4.2-1.8-6.6-3.7-8.1-9.2-4.8-17.9 2.2-2.2 4.4-4.4 6.6-6.5 6.7-.2 13.5-1.9 20 1.7 8.1 4.4 11.7 11.7 9.3 20.5-.8 2.9-2 5.6-3.3 9 .5.6 1.3 1.7 2.3 2.7 9.2 9.5 8.5 22.7.4 33-1.2 1.5-1.7 3.7-2.2 5.6-.6 2.4-.9 4.9-1.3 7.4-3.1 2.7-6.2 5.5-9.3 8.2z" fill="#2b2d75" fill-rule="nonzero"/><path d="M257.1 388.084c-3.2 8.7-1.8 14.3 4.8 17.9 1.3.7 2.7 1.4 4.2 1.8 3.6 1 3 3.4 1.7 5.5-2.7 4.2-5.8 8.2-8.7 12.3-2.5.1-5 .5-7.4.2-3.5-.4-4.1 1.5-4 4.3l-.6.6h.1c-4 1.7-8 3.4-11.9 5.1-.3.1-.7.3-.9.6l-6 9.6c-.3.2-.6.4-.8.6-4 2.6-7.9 5.4-12.1 7.6-3.5 1.8-4.8 4.4-4.3 8.1.3 1.9.1 4.2 1.1 5.5 3 4 1.2 7.3-.7 10.7-5.6-1.3-11.3-2.2-16.6-4.1-4.4-1.6-4.8-3.6-2.2-7.5 3.6-5.3 7.4-10.7 11.9-15.3 6.3-6.5 13.2-12.5 20.1-18.5 2.9-2.5 5.8-4.9 6.7-8.9.5-2.1 1.6-4 2.4-6 2 1.8 4.1 3.6 6 5.5 3.5 3.4 3.9 3.4 6.8-.6-3.2-3.4-3.6-7.8-2.9-12.1.5-3.4 1.9-6.6 2.8-10 .7-1.1 1.4-2.2 2.1-3.4 2.7-3.1 5.6-6.3 8.4-9.5z" fill="#f6a890" fill-rule="nonzero"/><path d="M246.5 400.984c-1 3.3-2.3 6.6-2.8 10-.7 4.3-.2 8.6 2.9 12.1-2.9 4-3.4 4-6.8.6-1.9-1.9-4-3.6-6-5.5-1.4-2.2-1.6-3.9.7-6 3.2-2.8 5.7-6.3 8.7-9.4.8-.9 2.2-1.2 3.3-1.8z" fill="#2f3178" fill-rule="nonzero"/><path d="M257.1 388.084c-2.9 3.2-5.7 6.3-8.6 9.5-3.7-6 2.3-14.1 8.7-14.7 2.2-.2 4.3-.9 6.5-1.3-2.2 2.2-4.4 4.3-6.6 6.5z" fill="#34519d" fill-rule="nonzero"/><path d="M201.8 500.284c3.3 14.2 14.9 18.3 27 21.7.5.1 1.1-.2 1.7-.3-.7 4.6-.7 9 2.2 12.9l-12.6 15.9c-.8.5-1.7.9-2.3 1.6-5.2 6-10.4 12.1-15.6 18.2-1.1 1.3-3.2 3-3 4.2 1.2 6 3 11.9 4.6 17.9 0 1-.2 2 0 2.9 2.4 10.4 4.9 20.7 7.3 31 .9 4.7 1.8 9.5 2.7 14.2-4.4 2.8-8.8 5.5-13.2 8.3-.8-1.1-1.9-2-2.3-3.2-2.6-6.4-5-12.9-7.5-19.3-3.4-9.4-6.7-18.8-10.2-28.2-1.4-3.8-3.1-7.6-4.6-11.3-1.4-4.5-3-8.9-4.1-13.4-.5-1.8-.6-4.2.1-5.9 9.8-22.5 19.8-44.8 29.8-67.2z" fill="#facd7a" fill-rule="nonzero"/><path d="M176 586.684c1.5 3.8 3.2 7.5 4.6 11.3 3.5 9.4 6.8 18.8 10.2 28.2-3.8 9.5-7.5 19.1-11.3 28.6-.4 1.1-1.5 1.9-2.2 2.9-4.6-1.2-9.2-2.4-13.9-3.7-2.2-1.4-2.5-3.2-1.9-5.6 1.8-7.4 3.3-14.8 5-22.1 3.1-12.8 6.1-25.5 9.2-38.3 0-.4.2-.8.3-1.3z" fill="#f8a350" fill-rule="nonzero"/><path d="M200.6 648.784c4.4-2.8 8.8-5.5 13.2-8.3 4 1.7 8.1 3.3 11.9 5.3 1.9.9 2.6 2.6 1.4 4.9-1.5 3-2.5 6.3-4.2 9.1-1.3 2.1-3.6 3.7-5.4 5.5-.3.7-.5 1.4-.8 2.2-.1.3-.2.5-.3.8-.3.7-.6 1.3-.9 2-.1.3-.3.6-.4.9-2.6 4.5-6.8 4.7-11.3 4.4-1.8-.2-3.6-.1-5.4 0-2.3.1-4.6.5-7 .7-1.8-3.5-1.6-6.7 1.4-8 6.9-2.9 6.4-9.1 7.2-14.8.3-1.7.5-3.2.6-4.7z" fill="#2c2e75" fill-rule="nonzero"/><path d="M163.3 654.084c4.6 1.2 9.2 2.4 13.9 3.7-.6 3.7-1.1 7.5-1.7 11.2-.2 1.7-.4 3.3-.7 5l-.7.7h-38.3c-.3-1-.6-2.1-.8-3.1 2.6-1.6 5-4 7.7-4.5 3.4-.6 5.9-2.2 8.5-4.1 4.1-3 8.1-5.9 12.1-8.9z" fill="#2b2d75" fill-rule="nonzero"/><path d="M174.9 673.984c.2-1.7.4-3.3.7-5v6.8h-39.2c-1 0-3 .9-2.4-1.7.7.2 1.3.4 2 .6h38.3c.1-.3.3-.5.6-.7z" fill="#020268" fill-rule="nonzero"/><path d="M191.5 676.084c2.3-.2 4.6-.5 7-.7 1.8-.1 3.6-.2 5.4 0 4.5.4 8.7.1 11.3-4.4-2 5.6-2 5.7-7.5 5.6-5.5-.1-10.8-.3-16.2-.5z" fill="#2b2d75" fill-rule="nonzero"/><path d="M135.9 674.684c-.7-.2-1.3-.4-2-.6.4-.8.8-1.7 1.2-2.5.3 1 .5 2 .8 3.1z" fill="#2f3178" fill-rule="nonzero"/><path d="M216.8 667.384c.3-.7.5-1.4.8-2.2-.3.8-.6 1.5-.8 2.2zM215.5 670.084c.3-.7.6-1.3.9-2-.3.7-.6 1.4-.9 2z" fill="#2b2d75" fill-rule="nonzero"/><path d="M287.6 514.984c1 2.8 0 3.9-3 3.8-12.7-.5-25.3-.8-38-1.3-2.4-.1-2.2 1.6-2.4 3.1-.7 4.8-1.2 9.7-2.3 14.4-.5 2-2.3 3.6-3.5 5.4-1.9-1.9-3.8-3.9-5.7-5.8-2.9-3.9-2.9-8.4-2.2-12.9 1-3.3 2.1-6.6 3.1-9.9 1.2-3.8 3.5-6 7.7-6.3 3.1-.2 6.1-.9 9.2-1.4 3-.4 5.9-.7 8.9-1.2 7-1 7-1 6.5-7.9 1.2-.5 2.4-1 3.5-1.6 4.2-2.3 8.4-4.7 12.6-7.1 1.7 8.3 3.3 16.6 5 24.9.1 1.2.3 2.5.6 3.8z" fill="#f8a98f" fill-rule="nonzero"/><path d="M281.8 486.184c-4.2 2.4-8.4 4.8-12.6 7.1-1.1.6-2.3 1.1-3.5 1.6-.4-2.2-.8-4.3-1.2-6.5 5.8-1.2 11.5-2.5 17.3-3.7v1.5z" fill="#e7856b" fill-rule="nonzero"/><g><path d="M257.6 428.984c-.3 4.3-.7 8.7-1 13-2.4 0-5 .6-7.1-.2-2.1-.8-3.6-3-5.4-4.5l2.7-4.5c3.6-1.3 7.2-2.5 10.8-3.8z" fill="#f3a690" fill-rule="nonzero"/></g><g><path d="M246.8 432.784l-2.7 4.5c-2.3 1.1-4.6 2.2-6.8 3.4-3 1.6-6 3.4-8.9 5.1l6-9.6c.2-.3.6-.4.9-.6 4-1.7 7.9-3.4 11.9-5.1-.2.9-.3 1.6-.4 2.3z" fill="#f2f0f3" fill-rule="nonzero"/></g><g><path d="M245.4 477.384c-4.8 3.7-9.7 3.4-14-.4-3.7-3.2-5.7-9.1-3.8-12.9 1.9 10 6 16.8 17.8 13.3z" fill="#1e1547" fill-rule="nonzero"/></g><g><path d="M227.5 446.484c.3-.2.6-.4.8-.6-.2.1-.5.4-.8.6z" fill="#f2f0f3" fill-rule="nonzero"/></g><g><path d="M246.8 432.784l.3-2.1h-.1l.6-.6c-.1-2.7.5-4.7 4-4.3 2.4.3 4.9-.1 7.4-.2-.5 1.1-1 2.3-1.5 3.4-3.5 1.3-7.1 2.5-10.7 3.8z" fill="#d67055" fill-rule="nonzero"/></g><g><path d="M247.7 430.084l-.6.6.6-.6z" fill="#f2f0f3" fill-rule="nonzero"/></g><g><path d="M220.1 550.484c-5.4 14-10.8 27.9-16.3 41.9-1.6-6-3.4-11.9-4.6-17.9-.2-1.1 1.8-2.8 3-4.2 5.2-6.1 10.4-12.2 15.6-18.2.6-.7 1.5-1 2.3-1.6z" fill="#f9a451" fill-rule="nonzero"/></g><g><path d="M174.9 673.984l-.7.7c.2-.3.4-.5.7-.7z" fill="#2f3178" fill-rule="nonzero"/></g></g></g></svg>