<svg viewBox="0 0 1232 488" xmlns="http://www.w3.org/2000/svg" fill-rule="evenodd" clip-rule="evenodd" stroke-miterlimit="10"><path fill="none" d="M0 0h1231.8v487.715H0z"/><clipPath id="a"><path d="M0 0h1231.8v487.715H0z"/></clipPath><g clip-path="url(#a)"><clipPath id="b"><path d="M-49 0h1281.1v487.715H-49z"/></clipPath><g clip-path="url(#b)"><path fill="#d1dbe5" fill-opacity=".56" d="M309.2 40.5h102.7V163H309.2z"/><path d="M332.7 40.5l27.8-27.8 27.8 27.8h-55.6z" fill="none" stroke="#d1dbe5" stroke-width="2"/><path fill="none" stroke="#d1dbe5" stroke-width="8" d="M309.2 40.5h102.7V163H309.2z"/><path d="M.5 418.4s222.1-199.6 284.2-141.8c62.1 57.8 81.2 85.2 202.3 27.3 121.1-57.9 415.1-138 320.2 114.7" fill="#e4eaf1" fill-opacity=".7" fill-rule="nonzero"/><path fill="#e4eaf1" d="M172.7 205.7h279.2v13.2H172.7z"/><path d="M248 170.5l6.5-16.3h-28.6l6.5 16.3c-4.9 3.9-8.1 11.4-8.1 20.1 0 12.7 7.1 23 15.9 23s15.9-10.3 15.9-23c0-8.7-3.3-16.2-8.1-20.1z" fill="#e4eaf1" fill-rule="nonzero"/><ellipse cx="268.3" cy="460.5" rx="183.6" ry="12.8" fill="#e4eaf1"/><path d="M214.2 338.8s15.4-43.2 0-55c-15.4-11.8-24-48.8-65.6-64.3-41.6-15.6 4.9 52.5 26.5 65.4 21.5 12.9-20.8 31 39.1 53.9z" fill="#ff8b62" fill-rule="nonzero"/><path d="M818 120H708.7c-14.8 0-26.9 12-26.9 26.9v289.5c0 7.3 5.9 13.2 13.2 13.2h136.6c7.3 0 13.2-5.9 13.2-13.2V146.9c.1-14.8-11.9-26.9-26.8-26.9z" fill="#18154d" fill-rule="nonzero"/><path d="M818.9 146.9c0-14.8-12-26.9-26.9-26.9H682.7c-14.8 0-26.9 12-26.9 26.9v91h163.1v-91zm-163.1 91v198.5c0 7.3 5.9 13.2 13.2 13.2h136.6c7.3 0 13.2-5.9 13.2-13.2V237.9h-163z" fill="#ffcb6c" fill-rule="nonzero"/><path d="M800.7 229.1h-40.4c-2.7 0-4.8-2.2-4.8-4.8 0-2.7 2.2-4.8 4.8-4.8h40.4c2.7 0 4.8 2.2 4.8 4.8 0 2.6-2.1 4.8-4.8 4.8zm0 29.6h-40.4c-2.7 0-4.8-2.2-4.8-4.8 0-2.7 2.2-4.8 4.8-4.8h40.4c2.7 0 4.8 2.2 4.8 4.8 0 2.6-2.1 4.8-4.8 4.8z" fill="#ff8b62" fill-rule="nonzero"/><path fill="#ffcb6c" d="M120.8 398.6h291.1v6.3H120.8z"/><path fill="#18154d" d="M281.3 346.9h89.6v47.7h-89.6z"/><path fill="#4f8af7" d="M302.4 346.9H392v47.7h-89.6z"/><path fill="#18154d" d="M342.6 346.9h9.3v16.4h-9.3z"/><path d="M217.4 371.7s2.7-64-42.3-113" fill="none" stroke="#18154d" stroke-width="2" stroke-linecap="round" stroke-linejoin="round"/><g fill="none" stroke="#18154d" stroke-width="2" stroke-linecap="round" stroke-linejoin="round"><path d="M141 456.3v-47.5h195.6v47.5"/><path d="M199.5 456.3v-47.5h195.6v47.5"/></g><path d="M651.8 237.9h157.7" fill="none" stroke="#18154d" stroke-width="2" stroke-linecap="round" stroke-linejoin="round"/><g fill-rule="nonzero"><path d="M189.5 397.7h55.9l6-35.7h-67.9l6 35.7z" fill="#18154d"/><path d="M203.6 397.7h26.6l5.9-35.7h-38.4l5.9 35.7z" fill="#454179"/></g><path d="M1000.6 388.1H897.8l-4.8-87.3c0-6.6 5.4-12 12-12h88.3c6.6 0 12 5.4 12 12l-4.7 87.3z" fill="#4f8af7" fill-rule="nonzero"/><path fill="#4f8af7" d="M874.1 393.8h150.3v28.8H874.1z"/><path d="M1023.3 345.2h-8.2c-4.5 0-8.2 3.7-8.2 8.2v69.1h24.6v-69.1c0-4.5-3.6-8.2-8.2-8.2zm-140 0h-8.2c-4.5 0-8.2 3.7-8.2 8.2v69.1h24.6v-69.1c0-4.5-3.7-8.2-8.2-8.2z" fill="#4f8af7" fill-rule="nonzero"/><g fill="#fff"><circle cx="926.4" cy="321.7" r="5.1"/><circle cx="972" cy="321.7" r="5.1"/></g><g fill="#fff"><circle cx="926.4" cy="353.9" r="5.1"/><circle cx="972" cy="353.9" r="5.1"/></g><path fill="#18154d" d="M1142.7 370.4h89.6v47.7h-89.6z"/><path fill="#4f8af7" d="M1121.7 370.4h89.6v47.7h-89.6z"/><path fill="#18154d" d="M1161.7 370.4h9.3v16.4h-9.3zM1127.5 419.5h89.6v47.7h-89.6z"/><path fill="#4f8af7" d="M1106.4 419.5h89.6v47.7h-89.6z"/><path fill="#18154d" d="M1146.5 419.5h9.3v16.4h-9.3z"/><g><path d="M874.1 428.9h150.2m-122.6 0l-20.4 38.3m115.4-38.3l20.4 38.3" fill="none" stroke="#18154d" stroke-width="2" stroke-linecap="round" stroke-linejoin="round"/></g><g><path d="M1132.5 173.1h-111.7l-12 71.4h135.7l-12-71.4z" fill="#ffcb6c" fill-rule="nonzero"/><path d="M1104.3 173.1H1051l-11.8 71.4h76.9l-11.8-71.4z" fill="#fcdba7" fill-rule="nonzero"/><path d="M1076.7 244.5v222.7m-14.1 0h28.2" fill="none" stroke="#18154d" stroke-width="2" stroke-linecap="round" stroke-linejoin="round"/><path d="M1100.6 244.5v23.8" fill="none" stroke="#ff8b62" stroke-width="2"/><circle cx="1100.6" cy="268.3" r="3" fill="#ff8b62"/></g><g><path d="M717.9 306.9H608.3c-8 0-14.4 6.5-14.4 14.4V455c0 6.5 5.3 11.8 11.8 11.8h114.9c6.5 0 11.8-5.3 11.8-11.8V321.3c-.1-7.9-6.5-14.4-14.5-14.4z" fill="#18154d" fill-rule="nonzero"/><path d="M719 321.3c0-8-6.5-14.4-14.4-14.4H595c-8 0-14.4 6.5-14.4 14.4v18.4H719v-18.4zm-138.5 18.4V455c0 6.5 5.3 11.8 11.8 11.8h114.9c6.5 0 11.8-5.3 11.8-11.8V339.7H580.5z" fill="#ff8b62" fill-rule="nonzero"/><path d="M666 329.6h-36c-2.4 0-4.3-1.9-4.3-4.3s1.9-4.3 4.3-4.3h36c2.4 0 4.3 1.9 4.3 4.3s-2 4.3-4.3 4.3z" fill="#ffcb6c" fill-rule="nonzero"/><path d="M647.1 360.6c-18.4 0-33.9 12.7-38.1 29.8h-3.8c-2.5 0-4.5 2-4.5 4.5v9.8c0 2.5 2 4.5 4.5 4.5h3.8c4.2 17.1 19.7 29.8 38.1 29.8 21.7 0 39.2-17.6 39.2-39.2s-17.5-39.2-39.2-39.2z" fill="#fff" fill-rule="nonzero"/><circle cx="647.1" cy="399.9" r="23.2" fill="#ffcb6c"/><circle cx="697.1" cy="324.7" r="8.3" fill="#fff"/><path d="M580.2 343.6h135.3" fill="none" stroke="#18154d" stroke-width="2" stroke-linecap="round" stroke-linejoin="round"/></g><g><path d="M946.2 418v-4c.1 1.3.3 2.6.4 3.9-.1 0-.2.1-.4.1z" fill="#e8c485" fill-rule="nonzero"/><path d="M962 417.9h.6-.6z" fill="#5d91f2" fill-rule="nonzero"/><path d="M937.6 406.7c-.6 0-1.2.1-1.9.1-.7-1.6-1.4-3.2-2.1-4.7.1-3-.2-6.2.4-9.1.6-2.9 2.2-5.5 3.3-8.2-.2-.1-.5-.3-.7-.4-.8.9-1.8 1.8-2.5 2.8-1.2 1.8-3 2.8-5 2.4-3.2-.7-6.5-1.2-9.3-2.7-5.9-3.1-7.2-7.3-4.6-12.1-2.6-1-3.6-6.2-2-10.1.3.1.7.1.9.2 2.9 2.3 5.8 3.1 9.1.8.4-.3 1-.4 1.6-.4 4.5-.6 4.5-.6 5.1-5.1.7-.9 1.4-1.9 2.1-2.8 4.1 1.3 4.7 5.1 6.3 8.3 1.4 2.8 3.2 5.9 5.6 7.3 2 1.2 5.3.1 8.1-.1.6 0 1.3-.3 1.9-.5.3.7.6 1.4 1.2 2.6 1.3-1.3 2.2-2.3 3.2-3 2.3-1.6 4.5-3.5 7-4.6 9.5-4.1 19.7 1 21.1 11.4.5 3.8-.5 7.2-1.3 10.8-.2.7.1 1.4.1 2.2-1.6 5.6-4.9 10-9.1 13.8-2.8 2.6-5.4 5.3-8.1 8-2.6 1-5.1 2.3-7.8 3.1-2.1.6-4.1-.1-5.4-2-1.2-1.7-.3-3.1.3-4.8 1.7-5 5.8-7.9 9.1-11.4.8-.8 1.5-1.7 2.5-2.9-5.2-.8-9.7-1.7-14.4-2.2-6.5-.7-11.2 2.8-12.8 9-.3 1.4-.9 2.7-1.4 4-.1 0-.3.2-.5.3z" fill="#f28a36" fill-rule="nonzero"/><path d="M985.2 391.7c-.1-.7-.3-1.5-.1-2.2.9-3.5 1.8-6.9 1.3-10.8-1.3-10.4-11.6-15.5-21.1-11.4-2.5 1.1-4.7 3-7 4.6-1 .7-1.9 1.7-3.2 3-.5-1.1-.8-1.8-1.2-2.6 4.1-2.3 7.8-5.4 12.3-7.3 8.9-3.7 20.1 1.4 21.8 11 .6 3.3-.1 6.9-.3 10.3-.7 1.6-1.3 3.2-2 4.8-.1.2-.3.4-.5.6z" fill="#e47828" fill-rule="nonzero"/><path d="M913.4 364.6c-1.6 3.9-.5 9.1 2 10.1-2.7 4.8-1.3 9.1 4.6 12.1 2.8 1.5 6.2 2 9.3 2.7 2.1.4 3.8-.6 5-2.4.7-1 1.6-1.9 2.5-2.8.2.1.5.3.7.4-1.1 2.7-2.7 5.4-3.3 8.2-.6 2.9-.3 6.1-.4 9.1-.2-1.5-.4-3.1-.7-4.6l-.6-3.9c.2-1.9-.4-2.7-2.5-2.7-2.5-.1-5.1-.6-7.6-1-2-.4-3.8-2.1-6.1-1-.1 0-.5-.7-.8-1.1 1.6-1.1.1-1.3-.5-1.7-.6-1.3-1.5-2.6-1.8-4.1-.7-3.1-1.1-6.3-1.6-9.4-.3-1.9-.7-3.8-.7-5.8-.2-1.3.2-3 2.5-2.1z" fill="#e47928" fill-rule="nonzero"/><path d="M915.3 387.7c.3.4.8 1.2.8 1.1 2.3-1.1 4.1.6 6.1 1 2.5.5 5.1 1 7.6 1 2.1 0 2.7.8 2.5 2.7h-.7c-6.6 1.3-13.2 2.2-19.9.7-1.5-.3-2.3-.9-2.5-2.4 0-1.4.2-2.4 1.9-2.7 1.5-.1 2.9-.9 4.2-1.4z" fill="#ef8938" fill-rule="nonzero"/><path d="M931.7 393.6h.7l.6 3.9c.2 1.5.4 3.1.7 4.6.7 1.6 1.4 3.2 2.1 4.7-.4.2-.9.4-1.3.5-.1-.2-.2-.4-.4-.5-2.1-2.9-2.5-6.3-2.4-9.8v-3.4z" fill="#e27821" fill-rule="nonzero"/><path d="M927.8 414.7c-.2.8-.3 1.6-.5 2.5.2-.8.4-1.7.5-2.5zm6.3-7.8c.2.1.3.3.4.5-.2.2-.5.4-.7.7l.3-1.2zm-3.6 3.5l-.3.3v-.2l.3-.1zm.5-.6c-.1.1-.2.2-.3.2v-.2h.3zm15 3.5c-.2-.4-.3-.8-.5-1.2.2.4.4.8.5 1.2zm-4.5-5.2c-.4-.2-.8-.3-1.2-.5.4.1.8.3 1.2.5zm-1.9-.7c-.4-.1-.8-.1-1.2-.2.4.1.8.1 1.2.2zm-2-.7l.5-.5c0 .2 0 .4-.2.6l-.3-.1z" fill="#e8c485" fill-rule="nonzero"/><path d="M944.393 408.815c4.453 3.444 4.998 10.21 1.216 15.1-3.782 4.889-10.467 6.063-14.92 2.619-4.453-3.444-4.998-10.21-1.216-15.1 3.781-4.889 10.467-6.063 14.92-2.619z" fill="#face7a"/><path d="M912.6 483.3s-8.3 5-17 3.4-14.2-8.3-7.5-13.8c6.6-5.6 25.5-2.5 31.6-7.9 6.1-5.4 14.4-20.1 12.8-43.6" fill="none" stroke="#face7a" stroke-width="2" stroke-linecap="round" stroke-linejoin="round"/></g><g fill-rule="nonzero"><path d="M620.9 260.7c1.1 3.6 2.4 7.2 3.2 10.8.3 1.3-.7 2.8-1 4.2-5.8 1.2-11.5 2.5-17.3 3.7-1.1-3-2.2-6-3.5-9.4-3 7.7-5.8 14.9-8.7 22.1-.4 1-1.3 1.9-1.9 2.9-3.1.5-6.1 1.2-9.2 1.4-4.2.3-6.5 2.5-7.7 6.3-1 3.3-2 6.6-3.1 9.9-.6.1-1.2.4-1.7.3-12.1-3.4-23.6-7.4-27-21.7 1.9-4.4 3.9-8.8 5.8-13.2 1.3-2.9 2.6-5.8 3.8-8.7 1.9-3.4 3.8-6.7.7-10.7-1-1.4-.9-3.7-1.1-5.5-.5-3.7.8-6.3 4.3-8.1 4.2-2.2 8.1-5 12.1-7.6.3-.2.6-.4.8-.6 3-1.7 5.9-3.5 8.9-5.1 2.2-1.2 4.6-2.3 6.8-3.4 1.8 1.6 3.3 3.7 5.4 4.5 2.1.8 4.7.2 7.1.2 2.9 3.2 3.6 6.6 2.4 11-1.7 6.1 1.6 11.7 7.1 14.7 4.6 2.3 9.1 3.1 13.8 2zm-34.2 7.7c-11.8 3.5-15.9-3.3-17.9-13.3-1.8 3.8.2 9.6 3.8 12.9 4.4 3.8 9.3 4.1 14.1.4z" fill="#1b89ed"/><path d="M620.9 260.7c-4.8 1-9.2.3-13.5-2-5.5-2.9-8.8-8.6-7.1-14.7 1.2-4.5.5-7.8-2.4-11 .3-4.3.7-8.7 1-13 .5-1.1 1-2.3 1.5-3.4 2.9-4.1 6-8.1 8.7-12.3 1.4-2.1 1.9-4.5-1.7-5.5-1.5-.4-2.9-1.1-4.2-1.8-6.6-3.7-8.1-9.2-4.8-17.9 2.2-2.2 4.4-4.4 6.6-6.5 6.7-.2 13.5-1.9 20 1.7 8.1 4.4 11.7 11.7 9.3 20.5-.8 2.9-2 5.6-3.3 9 .5.6 1.3 1.7 2.3 2.7 9.2 9.5 8.5 22.7.4 33-1.2 1.5-1.7 3.7-2.2 5.6-.6 2.4-.9 4.9-1.3 7.4-3.1 2.7-6.2 5.5-9.3 8.2z" fill="#2b2d75"/><path d="M598.4 179.1c-3.2 8.7-1.8 14.3 4.8 17.9 1.3.7 2.7 1.4 4.2 1.8 3.6 1 3 3.4 1.7 5.5-2.7 4.2-5.8 8.2-8.7 12.3-2.5.1-5 .5-7.4.2-3.5-.4-4.1 1.5-4 4.3l-.6.6h.1c-4 1.7-8 3.4-11.9 5.1-.3.1-.7.3-.9.6l-6 9.6c-.3.2-.6.4-.8.6-4 2.6-7.9 5.4-12.1 7.6-3.5 1.8-4.8 4.4-4.3 8.1.3 1.9.1 4.2 1.1 5.5 3 4 1.2 7.3-.7 10.7-5.6-1.3-11.3-2.2-16.6-4.1-4.4-1.6-4.8-3.6-2.2-7.5 3.6-5.3 7.4-10.7 11.9-15.3 6.3-6.5 13.2-12.5 20.1-18.5 2.9-2.5 5.8-4.9 6.7-8.9.5-2.1 1.6-4 2.4-6 2 1.8 4.1 3.6 6 5.5 3.5 3.4 3.9 3.4 6.8-.6-3.2-3.4-3.6-7.8-2.9-12.1.5-3.4 1.9-6.6 2.8-10 .7-1.1 1.4-2.2 2.1-3.4 2.7-3.1 5.6-6.3 8.4-9.5z" fill="#f6a890"/><path d="M587.8 192c-1 3.3-2.3 6.6-2.8 10-.7 4.3-.2 8.6 2.9 12.1-2.9 4-3.4 4-6.8.6-1.9-1.9-4-3.6-6-5.5-1.4-2.2-1.6-3.9.7-6 3.2-2.8 5.7-6.3 8.7-9.4.8-.9 2.2-1.2 3.3-1.8z" fill="#2f3178"/><path d="M598.4 179.1c-2.9 3.2-5.7 6.3-8.6 9.5-3.7-6 2.3-14.1 8.7-14.7 2.2-.2 4.3-.9 6.5-1.3-2.2 2.2-4.4 4.3-6.6 6.5z" fill="#34519d"/><path d="M543.1 291.3c3.3 14.2 14.9 18.3 27 21.7.5.1 1.1-.2 1.7-.3-.7 4.6-.7 9 2.2 12.9l-12.6 15.9c-.8.5-1.7.9-2.3 1.6-5.2 6-10.4 12.1-15.6 18.2-1.1 1.3-3.2 3-3 4.2 1.2 6 3 11.9 4.6 17.9 0 1-.2 2 0 2.9 2.4 10.4 4.9 20.7 7.3 31 .9 4.7 1.8 9.5 2.7 14.2-4.4 2.8-8.8 5.5-13.2 8.3-.8-1.1-1.9-2-2.3-3.2-2.6-6.4-5-12.9-7.5-19.3-3.4-9.4-6.7-18.8-10.2-28.2-1.4-3.8-3.1-7.6-4.6-11.3-1.4-4.5-3-8.9-4.1-13.4-.5-1.8-.6-4.2.1-5.9 9.8-22.5 19.8-44.8 29.8-67.2z" fill="#facd7a"/><path d="M517.3 377.7c1.5 3.8 3.2 7.5 4.6 11.3 3.5 9.4 6.8 18.8 10.2 28.2-3.8 9.5-7.5 19.1-11.3 28.6-.4 1.1-1.5 1.9-2.2 2.9-4.6-1.2-9.2-2.4-13.9-3.7-2.2-1.4-2.5-3.2-1.9-5.6 1.8-7.4 3.3-14.8 5-22.1 3.1-12.8 6.1-25.5 9.2-38.3 0-.4.2-.8.3-1.3z" fill="#f8a350"/><path d="M541.9 439.8c4.4-2.8 8.8-5.5 13.2-8.3 4 1.7 8.1 3.3 11.9 5.3 1.9.9 2.6 2.6 1.4 4.9-1.5 3-2.5 6.3-4.2 9.1-1.3 2.1-3.6 3.7-5.4 5.5-.3.7-.5 1.4-.8 2.2-.1.3-.2.5-.3.8-.3.7-.6 1.3-.9 2-.1.3-.3.6-.4.9-2.6 4.5-6.8 4.7-11.3 4.4-1.8-.2-3.6-.1-5.4 0-2.3.1-4.6.5-7 .7-1.8-3.5-1.6-6.7 1.4-8 6.9-2.9 6.4-9.1 7.2-14.8.3-1.7.5-3.2.6-4.7z" fill="#2c2e75"/><path d="M504.6 445.1c4.6 1.2 9.2 2.4 13.9 3.7-.6 3.7-1.1 7.5-1.7 11.2-.2 1.7-.4 3.3-.7 5l-.7.7h-38.3c-.3-1-.6-2.1-.8-3.1 2.6-1.6 5-4 7.7-4.5 3.4-.6 5.9-2.2 8.5-4.1 4.1-3 8.1-5.9 12.1-8.9z" fill="#2b2d75"/><path d="M516.2 465c.2-1.7.4-3.3.7-5v6.8h-39.2c-1 0-3 .9-2.4-1.7.7.2 1.3.4 2 .6h38.3c.1-.3.3-.5.6-.7z" fill="#020268"/><path d="M532.8 467.1c2.3-.2 4.6-.5 7-.7 1.8-.1 3.6-.2 5.4 0 4.5.4 8.7.1 11.3-4.4-2 5.6-2 5.7-7.5 5.6-5.5-.1-10.8-.3-16.2-.5z" fill="#2b2d75"/><path d="M477.2 465.7c-.7-.2-1.3-.4-2-.6.4-.8.8-1.7 1.2-2.5.3 1 .5 2 .8 3.1z" fill="#2f3178"/><path d="M558.1 458.4c.3-.7.5-1.4.8-2.2-.3.8-.6 1.5-.8 2.2zm-1.3 2.7c.3-.7.6-1.3.9-2-.3.7-.6 1.4-.9 2z" fill="#2b2d75"/><path d="M628.9 306c1 2.8 0 3.9-3 3.8-12.7-.5-25.3-.8-38-1.3-2.4-.1-2.2 1.6-2.4 3.1-.7 4.8-1.2 9.7-2.3 14.4-.5 2-2.3 3.6-3.5 5.4-1.9-1.9-3.8-3.9-5.7-5.8-2.9-3.9-2.9-8.4-2.2-12.9 1-3.3 2.1-6.6 3.1-9.9 1.2-3.8 3.5-6 7.7-6.3 3.1-.2 6.1-.9 9.2-1.4 3-.4 5.9-.7 8.9-1.2 7-1 7-1 6.5-7.9 1.2-.5 2.4-1 3.5-1.6 4.2-2.3 8.4-4.7 12.6-7.1 1.7 8.3 3.3 16.6 5 24.9.1 1.2.3 2.5.6 3.8z" fill="#f8a98f"/><path d="M623.1 277.2c-4.2 2.4-8.4 4.8-12.6 7.1-1.1.6-2.3 1.1-3.5 1.6-.4-2.2-.8-4.3-1.2-6.5 5.8-1.2 11.5-2.5 17.3-3.7v1.5z" fill="#e7856b"/><path d="M598.9 220c-.3 4.3-.7 8.7-1 13-2.4 0-5 .6-7.1-.2-2.1-.8-3.6-3-5.4-4.5l2.7-4.5c3.6-1.3 7.2-2.5 10.8-3.8z" fill="#f3a690"/><path d="M588.1 223.8l-2.7 4.5c-2.3 1.1-4.6 2.2-6.8 3.4-3 1.6-6 3.4-8.9 5.1l6-9.6c.2-.3.6-.4.9-.6 4-1.7 7.9-3.4 11.9-5.1-.2.9-.3 1.6-.4 2.3z" fill="#f2f0f3"/><path d="M586.7 268.4c-4.8 3.7-9.7 3.4-14-.4-3.7-3.2-5.7-9.1-3.8-12.9 1.9 10 6 16.8 17.8 13.3z" fill="#1e1547"/><path d="M568.8 237.5c.3-.2.6-.4.8-.6-.2.1-.5.4-.8.6z" fill="#f2f0f3"/><path d="M588.1 223.8l.3-2.1h-.1l.6-.6c-.1-2.7.5-4.7 4-4.3 2.4.3 4.9-.1 7.4-.2-.5 1.1-1 2.3-1.5 3.4-3.5 1.3-7.1 2.5-10.7 3.8z" fill="#d67055"/><path d="M589 221.1l-.6.6.6-.6z" fill="#f2f0f3"/><path d="M561.4 341.5c-5.4 14-10.8 27.9-16.3 41.9-1.6-6-3.4-11.9-4.6-17.9-.2-1.1 1.8-2.8 3-4.2 5.2-6.1 10.4-12.2 15.6-18.2.6-.7 1.5-1 2.3-1.6z" fill="#f9a451"/><path d="M516.2 465l-.7.7c.2-.3.4-.5.7-.7z" fill="#2f3178"/></g></g></g></svg>