<svg viewBox="0 0 300 300" xmlns="http://www.w3.org/2000/svg" fill-rule="evenodd" clip-rule="evenodd" stroke-linejoin="round" stroke-miterlimit="2"><path d="M33.817 141.874c1.686 0 3.168.358 4.497 1.022a7.802 7.802 0 013.169 2.862c.766 1.278 1.175 2.71 1.175 4.345v15.485c0 .665-.204 1.176-.562 1.585-.358.409-.869.613-1.482.613-.664 0-1.176-.204-1.533-.613-.358-.358-.563-.92-.563-1.585v-14.974c0-1.585-.46-2.811-1.38-3.68-.97-.869-2.248-1.278-3.884-1.278-1.584 0-2.964.41-4.14 1.227-1.175.818-1.737 1.942-1.737 3.424v15.281c0 .665-.153 1.227-.511 1.585-.409.409-.869.613-1.533.613-.665 0-1.176-.204-1.534-.613-.357-.358-.562-.92-.562-1.585v-14.974c0-1.585-.51-2.811-1.482-3.68-.971-.869-2.249-1.278-3.782-1.278-1.584 0-2.964.46-4.14 1.33-1.175.919-1.737 2.095-1.737 3.577v15.025c0 .665-.205 1.227-.512 1.585-.357.409-.868.613-1.533.613-.664 0-1.124-.204-1.482-.613-.358-.358-.562-.92-.562-1.585V144.43c0-.665.204-1.227.562-1.636.358-.358.818-.562 1.482-.562.614 0 1.125.153 1.482.511.307.358.511.869.563 1.482v.818h.255c.46-.716 1.329-1.431 2.607-2.147 1.226-.664 2.555-1.022 3.935-1.022 1.329 0 2.658.307 3.935.92 1.278.665 2.3 1.533 3.016 2.607.817-1.074 1.89-1.891 3.27-2.556 1.38-.664 2.914-.97 4.703-.97zM72.505 153.067c0 1.124-.306 1.993-.92 2.658-.664.664-1.533.97-2.606.97H52.624c.358 2.3 1.278 4.14 2.862 5.52 1.534 1.38 3.527 2.096 5.98 2.096 2.095 0 4.089-.511 6.082-1.585.562-.255 1.022-.408 1.38-.408.613 0 1.124.306 1.533.97.256.358.358.767.358 1.125 0 .664-.409 1.227-1.176 1.738-.868.562-2.044 1.073-3.475 1.43a18.374 18.374 0 01-4.498.563c-2.708 0-5.11-.562-7.104-1.687-1.993-1.124-3.577-2.708-4.6-4.702-1.124-1.993-1.635-4.19-1.635-6.695 0-2.555.511-4.804 1.636-6.848 1.022-1.994 2.555-3.527 4.446-4.651 1.891-1.125 4.038-1.687 6.389-1.687 2.248 0 4.242.46 6.03 1.38 1.79.92 3.17 2.249 4.191 3.935.971 1.687 1.482 3.68 1.482 5.878zm-3.986-.051c0-2.147-.716-3.884-2.198-5.264-1.482-1.38-3.322-2.045-5.52-2.045-2.095 0-3.832.665-5.315 1.994-1.482 1.38-2.453 3.117-2.81 5.315h15.843zM98.673 142.232c.664 0 1.175.204 1.533.562.358.41.511.971.511 1.636v21.158c0 .665-.153 1.227-.51 1.585-.359.409-.87.613-1.534.613-.665 0-1.176-.204-1.533-.613-.358-.358-.563-.92-.563-1.585v-1.277h-.255c-.562.97-1.584 1.89-2.964 2.657-1.431.767-3.118 1.176-5.06 1.176-3.016 0-5.52-.869-7.41-2.607-1.943-1.686-2.914-4.344-2.914-7.973V144.43c0-.665.204-1.227.562-1.636.358-.358.818-.562 1.482-.562.665 0 1.176.204 1.534.562.306.41.51.971.51 1.636v12.521c0 2.658.614 4.549 1.892 5.622 1.277 1.124 3.015 1.687 5.213 1.687 1.584 0 2.964-.307 4.088-.87 1.125-.561 1.942-1.226 2.505-2.095.562-.868.817-1.686.817-2.555v-14.31c0-.665.205-1.227.563-1.636.357-.358.868-.562 1.533-.562zM120.7 141.874c2.351 0 4.498.562 6.389 1.636 1.89 1.124 3.373 2.657 4.446 4.65 1.074 1.994 1.636 4.243 1.636 6.747 0 2.453-.511 4.65-1.482 6.644a11.38 11.38 0 01-4.396 4.804c-1.993 1.176-4.344 1.789-7.155 1.789-2.606 0-4.855-.511-6.746-1.584-1.891-1.074-3.373-2.505-4.344-4.294-.971-1.737-1.482-3.73-1.482-5.928v-22.181c0-.664.204-1.227.562-1.636.358-.408.818-.613 1.482-.613s1.175.205 1.533.613c.307.41.511.972.511 1.636v12.317h.307c.664-1.124 1.686-2.198 3.169-3.169 1.43-.97 3.27-1.43 5.57-1.43zm-.408 22.386c1.993 0 3.628-.46 4.957-1.33a7.927 7.927 0 002.862-3.475c.613-1.38.92-2.862.92-4.446 0-1.789-.358-3.424-1.124-4.855-.767-1.38-1.79-2.505-3.169-3.271-1.38-.767-2.913-1.176-4.65-1.176-2.556 0-4.6.818-6.083 2.505-1.533 1.737-2.3 3.935-2.3 6.644v.357c0 2.811.767 5.01 2.3 6.593 1.533 1.636 3.629 2.454 6.287 2.454z" fill-rule="nonzero"/><path d="M139.299 133.804v27.702c0 3.492 2.826 6.392 6.293 6.452h.853c1.013 0 1.92-.83 1.92-1.895 0-1.006-.8-1.894-1.866-1.894h-.8c-1.44-.059-2.614-1.184-2.614-2.663v-27.702a1.88 1.88 0 00-1.866-1.895c-1.067 0-1.92.83-1.92 1.895z"/><path d="M173.24 153.067c0 1.124-.307 1.993-.92 2.658-.665.664-1.533.97-2.607.97H153.36c.358 2.3 1.277 4.14 2.862 5.52 1.533 1.38 3.526 2.096 5.98 2.096 2.095 0 4.088-.511 6.081-1.585.563-.255 1.022-.408 1.38-.408.614 0 1.125.306 1.534.97.255.358.357.767.357 1.125 0 .664-.409 1.227-1.175 1.738-.87.562-2.045 1.073-3.476 1.43a18.374 18.374 0 01-4.497.563c-2.709 0-5.11-.562-7.104-1.687-1.993-1.124-3.578-2.708-4.6-4.702-1.124-1.993-1.635-4.19-1.635-6.695 0-2.555.51-4.804 1.635-6.848 1.022-1.994 2.556-3.527 4.447-4.651 1.89-1.125 4.037-1.687 6.388-1.687 2.249 0 4.242.46 6.03 1.38 1.79.92 3.17 2.249 4.192 3.935.97 1.687 1.482 3.68 1.482 5.878zm-3.987-.051c0-2.147-.715-3.884-2.197-5.264-1.482-1.38-3.322-2.045-5.52-2.045-2.095 0-3.833.665-5.315 1.994-1.482 1.38-2.453 3.117-2.811 5.315h15.843zM190.924 163.85c.664 0 1.175.154 1.533.512.358.358.562.818.562 1.482 0 .613-.204 1.073-.562 1.431-.358.358-.87.511-1.533.511h-.92c-2.914 0-5.162-.818-6.696-2.402-1.584-1.584-2.35-3.935-2.35-7.155v-12.164h-2.607c-.664 0-1.227-.153-1.584-.511-.41-.358-.614-.818-.614-1.431 0-.562.205-1.022.614-1.38.357-.358.92-.511 1.584-.511h2.606v-5.57c0-.665.205-1.227.563-1.636.357-.41.817-.614 1.482-.614.664 0 1.175.205 1.533.614.358.409.511.97.511 1.635v5.571h5.673c.665 0 1.227.153 1.636.511.357.358.562.818.562 1.38 0 .613-.205 1.073-.562 1.431-.41.358-.971.511-1.636.511h-5.673v11.244c0 2.198.409 3.833 1.227 4.906.766 1.074 2.044 1.636 3.73 1.636h.92z" fill="#e83644" fill-rule="nonzero"/><path d="M224.807 141.874c1.687 0 3.17.358 4.498 1.022a7.802 7.802 0 013.169 2.862c.766 1.278 1.175 2.71 1.175 4.345v15.485c0 .665-.204 1.176-.562 1.585-.358.409-.869.613-1.482.613-.665 0-1.176-.204-1.533-.613-.358-.358-.563-.92-.563-1.585v-14.974c0-1.585-.46-2.811-1.38-3.68-.97-.869-2.248-1.278-3.884-1.278-1.584 0-2.964.41-4.14 1.227-1.175.818-1.737 1.942-1.737 3.424v15.281c0 .665-.154 1.227-.511 1.585-.41.409-.87.613-1.534.613s-1.175-.204-1.533-.613c-.358-.358-.562-.92-.562-1.585v-14.974c0-1.585-.511-2.811-1.482-3.68-.971-.869-2.249-1.278-3.782-1.278-1.585 0-2.964.46-4.14 1.33-1.175.919-1.738 2.095-1.738 3.577v15.025c0 .665-.204 1.227-.51 1.585-.358.409-.87.613-1.534.613s-1.124-.204-1.482-.613c-.358-.358-.562-.92-.562-1.585V144.43c0-.665.204-1.227.562-1.636.358-.358.818-.562 1.482-.562.613 0 1.124.153 1.482.511.307.358.511.869.562 1.482v.818h.256c.46-.716 1.329-1.431 2.606-2.147 1.227-.664 2.556-1.022 3.936-1.022 1.329 0 2.657.307 3.935.92 1.278.665 2.3 1.533 3.015 2.607.818-1.074 1.892-1.891 3.271-2.556 1.38-.664 2.914-.97 4.702-.97zM252.458 168.144c-2.505 0-4.753-.562-6.747-1.738a12.226 12.226 0 01-4.702-4.702c-1.124-1.993-1.686-4.19-1.686-6.695 0-2.504.562-4.753 1.686-6.746 1.125-1.993 2.71-3.527 4.702-4.702 1.994-1.125 4.242-1.687 6.747-1.687 2.504 0 4.702.562 6.746 1.687 1.942 1.175 3.526 2.709 4.65 4.702 1.125 1.993 1.687 4.242 1.687 6.746 0 2.504-.562 4.702-1.686 6.695a12.45 12.45 0 01-4.651 4.702c-2.044 1.176-4.242 1.738-6.746 1.738zm0-3.884c1.737 0 3.27-.41 4.65-1.227 1.38-.767 2.403-1.891 3.17-3.27.766-1.38 1.124-2.965 1.124-4.754 0-1.789-.358-3.373-1.125-4.753-.766-1.38-1.789-2.504-3.168-3.322-1.38-.767-2.914-1.176-4.651-1.176-1.738 0-3.271.41-4.651 1.176-1.38.818-2.402 1.942-3.169 3.322-.767 1.38-1.124 2.964-1.124 4.753 0 1.789.357 3.373 1.124 4.753.767 1.38 1.789 2.504 3.169 3.271 1.38.818 2.913 1.227 4.65 1.227zM273.719 137.07c-.767 0-1.38-.255-1.84-.767-.511-.46-.767-1.073-.767-1.84 0-.766.256-1.43.767-1.89.46-.46 1.073-.716 1.84-.716.766 0 1.43.256 1.942.716.46.46.715 1.124.715 1.89 0 .767-.255 1.432-.715 1.892-.511.46-1.176.715-1.942.715zm0 5.162c.664 0 1.175.204 1.533.562.358.41.562.971.562 1.636v21.158c0 .665-.204 1.227-.562 1.585-.358.409-.869.613-1.533.613-.614 0-1.125-.204-1.483-.613-.357-.41-.562-.92-.562-1.585V144.43c0-.665.205-1.176.562-1.585.358-.409.87-.613 1.483-.613zM291.888 167.022a.71.71 0 01-.241.557.71.71 0 01-.557.241.796.796 0 01-.588-.24.75.75 0 01-.226-.558c0-.226.076-.407.226-.573a.844.844 0 01.588-.226.75.75 0 01.557.226.763.763 0 01.24.573zM286.254 159.174c-.572.543-.858 1.175-.858 1.898 0 .512.12.964.361 1.371.241.407.573.708.98.934.406.24.873.346 1.385.346s.98-.105 1.386-.346c.407-.226.738-.527.98-.934a2.61 2.61 0 00.36-1.356c0-.768-.316-1.43-.933-1.988-.136-.135-.211-.286-.211-.422 0-.12.06-.256.196-.406.135-.151.286-.226.452-.226.15 0 .286.06.406.18.829.754 1.235 1.703 1.235 2.847 0 .738-.165 1.416-.512 2.004a3.603 3.603 0 01-1.386 1.385c-.587.332-1.235.498-1.973.498s-1.4-.166-1.988-.498a3.708 3.708 0 01-1.386-1.385c-.331-.588-.497-1.266-.497-2.004 0-1.1.392-2.018 1.16-2.771.105-.106.21-.166.346-.166.166 0 .317.075.467.226.136.136.211.286.211.437 0 .135-.06.256-.18.376zM291.993 152.862c0 .739-.165 1.401-.512 1.989a3.603 3.603 0 01-1.386 1.386c-.587.33-1.235.497-1.973.497s-1.4-.166-1.988-.497a3.708 3.708 0 01-1.386-1.386c-.331-.588-.497-1.25-.497-1.989 0-.738.166-1.385.497-1.988a3.78 3.78 0 011.386-1.37c.587-.332 1.25-.498 1.988-.498s1.386.166 1.973.497a3.67 3.67 0 011.386 1.371c.347.603.512 1.25.512 1.988zm-1.144 0c0-.512-.12-.964-.362-1.37a2.397 2.397 0 00-.964-.934c-.407-.226-.874-.332-1.4-.332-.528 0-.995.106-1.402.332a2.535 2.535 0 00-.979.934 2.765 2.765 0 00-.346 1.37c0 .513.12.964.346 1.371.241.407.573.708.98.934.406.226.873.331 1.4.331.527 0 .994-.105 1.401-.331.407-.226.738-.527.964-.934.241-.407.362-.858.362-1.37zM284.251 139.713c0-.497.106-.934.301-1.325a2.3 2.3 0 01.844-.934 2.432 2.432 0 011.28-.347h4.564c.196 0 .347.06.467.166.12.105.18.256.18.437 0 .196-.06.346-.18.452-.105.105-.271.165-.467.165h-4.413c-.467 0-.829.136-1.085.407-.256.286-.376.663-.376 1.145 0 .467.12.873.361 1.22.241.346.573.512 1.01.512h4.503c.196 0 .362.045.467.15.12.121.18.257.18.453 0 .195-.06.346-.18.451-.105.106-.271.166-.467.166h-4.413c-.467 0-.829.15-1.085.437-.256.286-.376.663-.376 1.115 0 .467.135.873.391 1.22.271.346.618.512 1.055.512h4.428c.196 0 .362.06.467.15.12.106.18.257.18.452 0 .196-.06.332-.18.437-.105.106-.271.166-.467.166h-6.236a.719.719 0 01-.482-.166.579.579 0 01-.165-.437c0-.18.045-.331.15-.437a.764.764 0 01.437-.165h.241v-.076c-.21-.135-.422-.391-.633-.768a2.42 2.42 0 01-.3-1.16c0-.391.09-.783.27-1.16a2.34 2.34 0 01.768-.888c-.316-.241-.557-.557-.753-.964-.196-.407-.286-.859-.286-1.386z" fill-rule="nonzero"/></svg>