<svg viewBox="0 0 300 300" xmlns="http://www.w3.org/2000/svg" fill-rule="evenodd" clip-rule="evenodd" stroke-linejoin="round" stroke-miterlimit="2"><path d="M93.169 187.81l-3.334-30.006c-.152-2.273-.455-4.546-.607-6.971-.151-2.425-.303-4.547-.454-6.971a70.244 70.244 0 01-1.364 6.97c-.606 2.426-1.213 5.002-2.122 7.73L76.65 187.81H60.586l-8.638-29.098c-.91-2.728-1.516-5.304-2.122-7.729-.606-2.424-.91-4.698-1.364-6.97-.152 2.272-.303 4.697-.606 6.97-.303 2.274-.455 4.547-.606 6.82l-3.183 30.007H17.395l12.881-75.774h28.037l5.304 18.792c.151.606.454 1.515.758 2.727 1.97 6.365 3.334 12.882 4.243 19.55h.455c.454-3.182 1.06-6.668 1.818-10.305.758-3.637 1.97-7.73 3.334-12.276l5.607-18.488h28.037l11.972 75.774H93.17zM127.267 187.81v-75.773h21.974c5.91 0 11.973.303 17.883 1.212 4.243.606 8.335 1.819 12.124 3.637 6.213 3.031 11.366 7.88 15.003 13.64 3.486 5.91 5.304 12.578 5.153 19.55.151 6.819-1.667 13.487-5.153 19.397-3.637 5.76-8.941 10.609-15.003 13.64-3.789 1.818-7.88 3.03-12.124 3.637-6.516.909-13.185 1.212-19.701 1.212l-20.156-.151zm26.976-23.186c6.061 0 10.608-1.213 13.336-3.637 2.88-2.425 4.243-6.062 4.243-11.063 0-5.002-1.364-8.639-4.092-11.063-2.728-2.425-6.82-3.638-12.427-3.638h-1.212l.152 29.4zM198.95 187.81l26.975-75.773h30.158l26.52 75.774h-29.248l-2.425-9.548h-20.459l-2.273 9.548h-29.249zm36.068-27.581h11.214l-2.273-8.638c-1.06-4.395-1.97-7.73-2.273-10.003-.455-2.121-.606-4.394-.758-6.668h-.455c-.151 2.274-.303 4.395-.757 6.668-.455 2.274-1.213 5.608-2.274 10.003l-2.424 8.638z" fill="#e30613" fill-rule="nonzero"/></svg>