<svg viewBox="0 0 300 300" xmlns="http://www.w3.org/2000/svg" fill-rule="evenodd" clip-rule="evenodd" stroke-linejoin="round" stroke-miterlimit="2"><g fill-rule="nonzero"><path d="M25.422 125.001a35.45 35.45 0 00-10.337 24.997c0 9.36 3.714 18.34 10.336 24.996a35.127 35.127 0 0011.436 7.664 35.304 35.304 0 0027.046 0 35.127 35.127 0 0011.436-7.664 35.45 35.45 0 0010.336-24.996A35.44 35.44 0 0075.339 125a35.117 35.117 0 00-11.432-7.656 35.299 35.299 0 00-27.036 0A35.122 35.122 0 0025.438 125h-.017.001z" fill="#05171d"/><path d="M50.393 188.072a37.84 37.84 0 01-14.593-2.881 37.679 37.679 0 01-12.332-8.277A38.159 38.159 0 0112.335 150a38.159 38.159 0 0111.133-26.914 37.856 37.856 0 0112.327-8.257 38.06 38.06 0 0129.15 0 37.856 37.856 0 0112.327 8.257A38.155 38.155 0 0188.406 150a38.155 38.155 0 01-11.134 26.914 37.68 37.68 0 01-12.31 8.267 37.858 37.858 0 01-14.569 2.891zm0-70.703c-4.28-.009-8.52.833-12.471 2.473a32.226 32.226 0 00-10.539 7.08A32.74 32.74 0 0017.843 150c0 8.64 3.427 16.934 9.538 23.078a32.37 32.37 0 0010.544 7.067 32.549 32.549 0 0024.939 0 32.37 32.37 0 0010.544-7.067A32.726 32.726 0 0082.954 150c0-8.643-3.43-16.936-9.546-23.078a32.22 32.22 0 00-10.538-7.082 32.365 32.365 0 00-12.477-2.472z"/><path d="M20 149.998c0-16.803 13.604-30.427 30.379-30.427 16.776 0 30.382 13.624 30.382 30.427 0 16.804-13.602 30.428-30.368 30.428-16.764 0-30.393-13.62-30.393-30.428z" fill="#fab31e"/><path d="M50.393 182.242c-17.756 0-32.205-14.463-32.205-32.244s14.435-32.244 32.205-32.244c17.772 0 32.207 14.463 32.207 32.24 0 17.778-14.463 32.248-32.208 32.248h.001zm0-60.855c-15.742 0-28.55 12.846-28.55 28.61 0 15.767 12.808 28.612 28.55 28.612s28.555-12.845 28.555-28.611c0-15.764-12.823-28.61-28.555-28.61z" fill="#fff"/><path d="M63.257 168.782a2.364 2.364 0 01-.967 2.454 2.396 2.396 0 01-3.551-.993 2.365 2.365 0 01.46-2.595 2.39 2.39 0 012.14-.696c.623.109 1.18.461 1.544.979.18.256.307.545.374.851z" fill="#05171d"/><path d="M60.923 172.4a3.073 3.073 0 01-2.365-5.056 3.118 3.118 0 014.223-.47 3.07 3.07 0 01.704 4.167 3.093 3.093 0 01-2.562 1.359zm0-4.782c-.12 0-.24.013-.36.04a1.703 1.703 0 00.36 3.365 1.702 1.702 0 000-3.403v-.002zm20.058-1.898H55.87a1.384 1.384 0 01-1.347-1.924 1.386 1.386 0 011.348-.834H80.98a1.382 1.382 0 010 2.758z"/><path d="M63.99 165.72a1.397 1.397 0 01-1.283-.853 1.374 1.374 0 01-.103-.528v-20.357a1.539 1.539 0 00-.96-1.425 1.566 1.566 0 00-2.025.834 1.532 1.532 0 00-.118.59v20.358c0 .366-.146.716-.406.974a1.397 1.397 0 01-1.959 0 1.37 1.37 0 01-.406-.974v-20.357c0-1.14.455-2.233 1.267-3.04 1.68-1.67 4.434-1.67 6.115 0a4.284 4.284 0 011.266 3.04v20.357c0 .366-.147.717-.407.976a1.398 1.398 0 01-.983.405h.002z"/><path d="M59.541 151.654v-7.744c0-.47.668-1.07 1.494-1.07.822 0 1.493.6 1.493 1.07v7.744" fill="#05171d"/><path d="M63.914 151.654h-2.775v-7.415a.356.356 0 00-.212 0v7.415h-2.775v-7.744c0-1.301 1.346-2.447 2.872-2.447 1.526 0 2.872 1.146 2.872 2.447v7.744h.018z"/><path d="M57.932 142.84l-20.581-10.12v16.992l-10.74 15.801 8.974 5.275c.866-1.278.52-3.48-1.436-5.047l7.27-10.469 3.723 15.402 9.879-3.297c-.444-1.478-2.37-2.595-4.825-2.053l-3.751-15.612v-4.877l8.712 3.836c.813.412 1.75.507 2.629.267a3.65 3.65 0 002.122-1.567c.896-1.565-.112-3.428-1.976-4.531z" fill="#fab31e"/><path d="M36.134 173.221l-12.12-7.137 11.488-16.935v-19.351l23.335 11.479c2.873 1.691 3.981 4.639 2.639 6.973a5.425 5.425 0 01-2.002 1.933 5.46 5.46 0 01-2.705.693 5.384 5.384 0 01-2.415-.568l-6.104-2.683v1.888l3.329 13.873c2.49.058 4.559 1.427 5.169 3.486l.503 1.681-13.441 4.483-3.23-13.378-4.109 5.898c1.548 1.955 1.846 4.44.604 6.262l-.962 1.427.021-.024zm6.103-22.317l4.208 17.418 2.395-.8-.428-1.784-3.794-15.83v-7.86l11.388 5.016c.238.124.505.186.774.183a1.804 1.804 0 001.533-.79c.334-.584-.38-1.48-1.274-2.025l-17.878-8.79v14.63l-9.948 14.66 3.77 2.216-1.314-1.046 10.575-15.198h-.007z" fill="#fab31e"/><path d="M41.746 132.648a4.188 4.188 0 002.27-.786 4.136 4.136 0 00.434-6.364 4.208 4.208 0 00-4.531-.818 4.17 4.17 0 00-1.846 1.532 4.128 4.128 0 00-.69 2.29 4.237 4.237 0 001.319 2.97 4.285 4.285 0 003.044 1.176zm16.14 10.174l-20.582-10.116v16.992l-10.73 15.797 8.975 5.275c.868-1.275.52-3.48-1.436-5.042l7.289-10.47 3.718 15.398 9.87-3.302c-.443-1.48-2.37-2.597-4.826-2.05l-3.748-15.62v-4.863l8.712 3.836a3.685 3.685 0 002.632.256 3.655 3.655 0 002.114-1.575c.88-1.547-.114-3.408-1.988-4.515v-.001z"/><path d="M50.393 182.242c-17.756 0-32.205-14.463-32.205-32.244s14.435-32.244 32.205-32.244c17.772 0 32.207 14.463 32.207 32.24 0 17.778-14.463 32.248-32.208 32.248h.001zm0-60.855c-15.742 0-28.55 12.846-28.55 28.61 0 15.767 12.808 28.612 28.55 28.612s28.555-12.845 28.555-28.611c0-15.764-12.823-28.61-28.555-28.61z" fill="#fff"/><path d="M142.208 147.064h-19.716v-25.798h9.46v19.104h10.256v6.694zm24.84-16.418h-12.206v5.968h12.205v-5.968zm1.54-9.51h-13.746v6.277h13.746v-6.276zm-15.503 0h-9.498v25.8h9.498v-25.8zm15.922 19.267h-14.165v6.533h14.165v-6.533zm-50.314-9.627H106.51v5.97h12.184v-5.97zm1.537-9.51h-13.72v6.277h13.72v-6.277zm.42 19.265h-14.14v6.53h14.14v-6.531.001zm-15.904-19.265h-9.512v25.796h9.513v-25.797l-.001.001zm166.548 19.821c-3.421-.33-5.47-2.889-5.47-6.997 0-4.239 1.963-6.78 5.47-7.112v-6.461c-9.173.33-15.078 5.566-15.078 13.537 0 9.882 7.611 13.311 15.078 13.503v-6.47zm1.726-20.571V127c3.128.395 5.027 2.882 5.027 6.703 0 4.426-1.752 6.966-5.027 7.363v6.476c8.878-.414 14.644-5.663 14.644-13.528 0-7.804-5.937-13.182-14.644-13.498v-.001zm-35.95.613h-9.589v25.797h9.589v-25.798.001zM256.1 146.69c-.28-.357-.462-1.17-.603-2.565l-.093-.928-.14-.89c-.04-.757-.15-1.51-.327-2.247-.276-1.278-.65-2.284-1.207-2.979a5.663 5.663 0 00-3.061-2.095c2.786-1.05 4.544-3.486 4.544-6.266s-1.576-5.05-4.308-6.356c-1.856-.887-3.898-1.235-7.579-1.235h-4.404v5.97h2.682c3.033 0 4.48.81 4.48 2.585 0 1.774-1.307 2.664-3.967 2.664h-3.195v5.467h2.028c3.687 0 4.757 1.071 5.227 5.225.36 3.212.36 3.136.693 3.889h9.424l-.194-.24v.001zm-72.202-5.606c-2.94-.356-4.907-3.019-4.907-7.109 0-3.999 1.952-6.61 4.907-6.986v-6.473c-8.35.317-14.518 5.913-14.518 13.538 0 7.723 6.006 13.122 14.518 13.492v-6.462zm1.755-14.12c2.234.144 3.806 1.427 4.287 3.725h9.272c-.455-5.787-6.225-9.991-13.559-10.187v6.462zm4.287 9.796c-.439 2.686-1.992 4.164-4.287 4.335v6.476c7.647-.113 13.24-4.403 13.746-10.812h-9.459zm36.28-15.484H199.34v6.695h26.882v-6.695zm-8.709 8.592h-9.46v17.207h9.46v-17.207zm-63.988 42.386h-15.423v6.598h15.423v-6.598zm-1.972-9.855h-13.45v6.026h13.45v-6.026zm1.548-9.606H138.1v6.337H153.1v-6.338.001zm-16.736 0h-9.317v26.055h9.317v-26.055zm-31.808-.008h-9.428v26.063h9.428v-26.063zm4.567 0h-2.83v6.598h1.103c5.087 0 7.837 2.269 7.837 6.533 0 4.068-2.47 6.338-6.904 6.338h-2.036v6.594h2.643c5.41 0 8.738-.895 11.506-3.083 3.051-2.42 4.462-5.624 4.462-10.046 0-7.977-6.103-12.934-15.781-12.934zm90.173 20.187c-3.7-.157-5.94-2.781-5.94-7.095 0-4.453 2.153-7.04 5.94-7.211v-6.517c-9.48.183-15.609 5.515-15.609 13.69 0 8.074 6.355 13.59 15.61 13.655v-6.522zm1.735-20.79v6.608c2.872.567 4.627 3.03 4.627 6.709 0 4.282-1.605 6.812-4.627 7.38v6.58c8.687-.564 14.295-5.832 14.295-13.646 0-7.765-5.773-13.153-14.295-13.63v-.001zm41 .543h-27.047v6.76h27.048v-6.76zm-8.762 8.678h-9.517v17.378h9.517v-17.378zm-67.899-8.61h-9.495v26.049h9.495v-26.049zm13.187 1.566c-2.155-1.175-4.527-1.567-9.579-1.567h-1.91v6.356h2.718c2.664 0 4.068.97 4.068 2.836 0 1.866-1.217 2.715-3.88 2.715h-2.905v6.081h4.261c4.064 0 6.677-.714 8.684-2.384a8.082 8.082 0 003.038-6.51 8.44 8.44 0 00-1.194-4.384 8.508 8.508 0 00-3.301-3.143z"/></g></svg>