<svg viewBox="0 0 300 300" xmlns="http://www.w3.org/2000/svg" fill-rule="evenodd" clip-rule="evenodd" stroke-linejoin="round" stroke-miterlimit="2"><path d="M170.985 171.277c-10.46-.066-27.925.131-30.786 0-2.27-.33-.033-2.73-.033-2.73.855-.954 4.276-4.868 6.118-6.809.756-.756.756-1.02.164-1.02-4.276 0-6.742-.164-7.137.691-4.177 3.881-7.433 9.835-9.67 9.868-3.256.032-13.19 0-13.288 0 1.645-1.777 3.388-4.178 13.387-15.097.033-.033 27.595 0 29.075 0 2.105 0 5.887-.263 4.934 1.118-.856 1.085-4.868 5.46-7.598 8.519-1.184 1.48-1.283 2.302-.296 2.302 2.27 0 15.162.033 18.057 0l-2.927 3.158z" fill="#e72d2f" fill-rule="nonzero"/><path d="M117.735 171.277H90.37c-.888 0-3.618-.658.296-4.178 3.848-4.44 9.965-10.92 9.965-10.92h13.354c-1.25 1.876-9.308 9.473-8.88 10.986.296 1.546 12.893.855 15.59.921l-2.96 3.19z" fill="#e72d2f" fill-rule="nonzero"/><path d="M103.953 152.036c-.065-1.744 2.993-3.29 6.809-3.421 3.815-.132 6.973 1.184 7.038 2.927.066 1.743-2.993 3.29-6.808 3.42-3.848.132-6.973-1.183-7.039-2.926z" fill="#e72d2f"/><path d="M49.618 151.115l-18.846 20.194H14.886l30.127-32.759 15.722.033-6.48 7.368s-.789.559.658.559c6.348-.197 12.104 0 18.353-1.743 2.369-.658 4.835-1.974 6.875-3.29 2.17-1.414 2.73-2.17 1.677-3.88-8.19-8.42-58.874 1.71-72.491 3.75-.395-1.12-.69-1.777-1.085-3.06 13.057-3.355 104.69-19.997 103.046-.822-.625 2.927-5.559 5.953-13.222 9.144-16.05 4.769-31.871 4.473-48.448 4.506zM248.113 171.277s-26.247.065-27.266 0c-2.467-.132-5.526-.527-3.52-3.75.921-1.085 6.052-6.48 5.822-6.808h-15.064l3.585-4.54h13.255c1.316 0 2.927-.723 3.585-1.315 1.217-1.316 2.763-2.96 4.638-5.197.099-.131 12.597.066 12.597-.033 0 .066-4.967 5.559-4.967 5.559-.098.099-.953.987.198.987h5.032c.066 0-3.98 4.539-3.881 4.539h-6.282c-1.447 1.874-2.894 3.453-3.42 4.078-.922 1.053-2.6 2.631-.659 3.322h19.274l-2.927 3.158z" fill="#e72d2f" fill-rule="nonzero"/><path d="M262.42 149.7c.066 0 13.321.033 13.288-.033-.296.165-4.9 5.427-4.9 5.427-1.217 1.086.822 1.086.822 1.086 1.973 0 10.064-.066 12.202 0s3.06.954 2.204 2.006c-2.763 3.388-6.25 7.17-7.4 8.552-.165.197-1.875 1.381.329 1.381h7.005c0 .066-2.697 3.092-2.795 3.223-.527.625-13.387-.033-14.308 0-5.624.198-2.434-3.059-2.434-3.059.987-.986 6.381-7.4 6.381-7.4.69-1.316-.69-.987-.56-1.052-4.834-.165-5.722.394-7.038 1.513-3.355 3.519-4.308 4.802-8.979 9.9h-13.025c.1.033 18.485-21.083 19.209-21.544z" fill="#e72d2f" fill-rule="nonzero"/><path d="M212.098 159.962c-3.026 3.42-6.282 6.973-7.532 8.486-1.743 2.105-2.927 2.829-5.592 2.829H169.9c-4.177 0-3.75-1.744-2.006-3.651 1.973-2.171 5.197-6.25 9.11-10.328 1.185-1.25 1.645-1.151 9.243-1.151l25.128.033c-.066.033 4.506-.56.724 3.782zm-15.788.757c1.612 0 1.152.394.494 1.052-2.04 2.302-4.473 5-5.164 5.756-.329.395-.724.592-1.875.592-1.809.066-3.059 0-4.802 0-3.486 0-2.631-.69-2.17-1.184.394-.428 4.11-4.605 4.966-5.526.888-.953 2.138-.657 2.138-.657 2.368-.033 4.111-.033 6.413-.033z" fill="#e72d2f"/><path d="M92.409 156.213c-.362-.033-15.92 0-24.306 0-.888 0-2.336 1.513-4.934 4.539-5.855 6.347-9.67 10.557-9.67 10.557h15.722c3.75-4.21 6.414-7.795 8.716-9.735 1.348-1.513 7.433-.757 10.492-.822 1.743-.066 3.98-4.54 3.98-4.54z" fill="#e72d2f" fill-rule="nonzero"/><path d="M116.88 153.713h-.033" fill="none"/><path d="M69.681 156.18h33.22l-1.81 2.927H69.55l.131-2.927z" fill="#e72d2f"/><path d="M289.095 147.365c.625 0 1.184.23 1.612.658.427.427.657.987.657 1.611 0 .625-.23 1.185-.657 1.612-.428.46-.987.658-1.612.658-.625 0-1.151-.23-1.612-.658-.427-.46-.658-.987-.658-1.612 0-.624.23-1.15.658-1.611.46-.428.987-.658 1.612-.658zm2.664 2.27c0-.724-.263-1.349-.79-1.875-.526-.527-1.15-.757-1.874-.757-.724 0-1.349.263-1.875.757-.526.526-.756 1.118-.756 1.874 0 .724.263 1.349.756 1.875.526.527 1.151.79 1.875.79.723 0 1.348-.263 1.875-.79.526-.526.789-1.15.789-1.875zm-1.94-.56c0 .23-.1.362-.297.46a1.602 1.602 0 01-.493.067h-.46v-1.053h.427c.296 0 .494.033.625.099.132.066.197.197.197.427zm-1.777-.888v2.895h.527v-1.151h.394c.263 0 .46.032.56.098.197.099.263.33.263.658v.395h.493v-.033c0-.033-.033-.066-.033-.165v-.427c0-.132-.066-.296-.164-.46-.1-.132-.264-.23-.494-.264.198-.033.33-.066.428-.131a.646.646 0 00.296-.56c0-.361-.165-.624-.46-.723-.165-.066-.428-.099-.79-.099h-1.02v-.033z" fill="#e72d2f" fill-rule="nonzero"/></svg>