<svg viewBox="0 0 300 300" xmlns="http://www.w3.org/2000/svg" fill-rule="evenodd" clip-rule="evenodd" stroke-linejoin="round" stroke-miterlimit="2"><path d="M162.565 86.95v-.011h-35.93V64.517c-10.774 5.779-18.1 17.15-18.1 30.229v26.486c0 18.942 15.367 34.293 34.314 34.293h19.716v-.011c18.717-.27 33.815-15.51 33.815-34.282S181.282 87.22 162.565 86.95" fill="#fff" fill-rule="nonzero"/><path d="M162.061 105.107h-35.284v16.125c0 8.902 7.23 16.12 16.13 16.12h19.154c8.912 0 16.135-7.218 16.135-16.12 0-8.907-7.223-16.125-16.135-16.125" fill="#f15a22" fill-rule="nonzero"/><path d="M162.565 155.514v.01H142.85c-18.947 0-34.315-15.354-34.315-34.292V94.746c0-13.079 7.327-24.447 18.102-30.233V86.94h35.93v.01c18.716.271 33.814 15.507 33.814 34.283 0 18.771-15.098 34.011-33.815 34.282m9.937-91.005h-45.826c-29.248 0-52.961 23.695-52.961 52.924s23.713 52.927 52.96 52.927h45.827c29.248 0 52.957-23.698 52.957-52.927 0-29.23-23.71-52.924-52.957-52.924M246.852 201.908c-7.669 0-12.63 5.795-12.63 12.75 0 7.664 5.348 12.686 13.016 12.686h15.594v-6.566h-15.335c-3.224 0-5.22-1.288-5.993-3.477h21.392v-4.189c0-6.887-4.96-11.204-11.855-11.204h-4.19.001zm0 6.12h4.19c3.48 0 4.96 1.61 4.96 3.54h-14.498c.837-2.253 2.576-3.54 5.348-3.54zm-34.472-6.12c-7.025 0-12.758 4.381-12.758 11.4 0 7.081 5.733 11.462 12.758 11.462h10.697v2.32c0 1.351-.97 2.252-2.322 2.252h-13.53v6.442h13.207c6.252 0 9.666-3.09 9.666-8.693v-25.183H212.38zm.836 6.7h9.86v9.463h-9.86c-3.286 0-5.991-1.415-5.991-4.763 0-3.286 2.705-4.7 5.991-4.7zm-154.321-6.7c-7.023 0-12.758 5.731-12.758 12.75 0 7.02 5.735 12.686 12.758 12.686h7.154c7.023 0 12.758-5.667 12.758-12.686s-5.735-12.75-12.758-12.75h-7.154zm.514 6.7h6.125c3.283 0 5.991 2.766 5.991 6.05s-2.708 5.991-5.991 5.991h-6.125c-3.285 0-5.99-2.707-5.99-5.99 0-3.285 2.705-6.051 5.99-6.051zm-47.358-15.071v21.768c0 6.634 5.608 12.04 12.502 12.04h5.476c7.023 0 12.758-5.668 12.758-12.687 0-7.019-5.735-12.75-12.758-12.75H19.074v-8.37h-7.023v-.001zm7.023 15.071h10.44c3.286 0 5.991 2.766 5.991 6.05s-2.77 5.927-5.991 5.927h-4.445c-3.865 0-5.995-2.643-5.995-5.927v-6.05zm124.254-6.706c-7.017 0-12.749 5.726-12.749 12.736 0 7.014 5.732 12.678 12.749 12.678h16.796v-25.414h-16.796zm.516 6.69h9.262v11.967h-9.262c-3.284 0-5.988-2.638-5.988-5.92 0-3.28 2.704-6.047 5.988-6.047zm143.281-6.682v6.698h-6.702c-3.285 0-5.99 2.702-5.99 5.988v12.75h-7.025v-12.75c0-7.662 5.09-12.686 12.758-12.686h6.96-.001zm-91.76 12.686v12.75h-7.021v-12.75c0-3.286-2.707-5.988-5.995-5.988h-9.985v18.738h-7.025V201.91h17.268c7.025 0 12.758 5.667 12.758 12.686m-75.898-21.06v33.808h7.025v-33.808h-7.025zM83.062 214.66v-12.75h7.022v12.75c0 3.284 2.705 5.99 5.993 5.99h9.987v-18.74h7.025v25.436H95.82c-7.67 0-12.758-5.023-12.758-12.686" fill="#f15a22" fill-rule="nonzero"/><path fill="none" d="M12 64h275.075v171.273H12z"/></svg>