<svg viewBox="0 0 300 300" xmlns="http://www.w3.org/2000/svg" fill-rule="evenodd" clip-rule="evenodd" stroke-linejoin="round" stroke-miterlimit="2"><path d="M107.966 174.18c-.917-.278-2.292-1.694-2.591-2.69-.12-.459-.24-1.874-.24-3.13 0-2.253.02-2.332.46-2.432.238-.06 2.052-.08 4.026-.06l3.588.06.06 2.492c.06 2.93-.18 3.787-1.356 4.864-1.136 1.016-2.472 1.315-3.947.897zM135.296 173.902c-.638-.32-1.216-.818-1.575-1.336l-.578-.817-.06-10.047-.06-10.027H113.31v3.588l-4.027-.04-4.047-.06-.06-3.787c-.06-4.226.04-4.924 1.017-6.02 1.136-1.296.638-1.256 14.393-1.256h12.458v-7.734c0-7.735 0-7.755.459-8.632 1.774-3.329 6.718-2.611 7.515 1.097.16.717.2 7.176.16 21.748l-.06 20.731-.439.837c-.717 1.336-2.252 2.253-3.747 2.253-.34 0-1.077-.22-1.635-.498zM166.393 165.43c-11.422-1.197-19.974-8.393-20.532-17.243-.279-4.446 1.575-8.771 5.263-12.28 4.425-4.186 10.186-6.439 17.103-6.698 5.203-.18 9.13.578 13.376 2.632 2.651 1.255 4.226 2.292 5.96 3.927 5.86 5.462 7.077 13.296 3.05 19.555-3.25 5.043-9.09 8.592-16.067 9.788-2.232.398-6.06.538-8.153.319zm8.113-8.074c3.947-1.076 7.256-3.23 8.811-5.78 1.396-2.253 1.535-5.124.399-7.536-1.475-3.17-4.924-5.601-9.568-6.757-1.416-.36-2.293-.439-4.825-.439-2.69.02-3.348.08-5.063.538-3.09.837-5.103 1.914-7.017 3.828-2.392 2.352-3.229 4.505-2.83 7.276.239 1.833 1.016 3.289 2.631 4.903 2.073 2.073 4.824 3.449 8.273 4.187 1.854.378 7.435.239 9.19-.22zM195.816 164.772c-1.216-.658-2.013-1.834-2.133-3.19-.08-1.016.24-2.013 5.063-15.409 3.887-10.824 5.283-14.472 5.721-14.97.997-1.137 2.671-1.356 3.907-.479.32.24 3.509 4.924 7.516 11.084 3.827 5.86 6.996 10.664 7.056 10.644.06 0 3.23-4.804 7.057-10.664 7.515-11.542 7.435-11.442 9.21-11.442.837 0 2.152.677 2.57 1.315.16.24 2.592 6.838 5.403 14.672 4.724 13.156 5.103 14.292 5.023 15.27-.259 2.95-3.647 4.604-6.12 2.97-.438-.3-.956-.758-1.116-1.017-.179-.28-1.834-4.605-3.667-9.628-1.834-5.024-3.41-9.11-3.509-9.11-.1.02-2.97 4.325-6.379 9.568-4.345 6.678-6.399 9.688-6.877 10.007-.897.598-2.292.598-3.21-.02-.478-.319-2.451-3.19-6.877-10.007-3.408-5.262-6.299-9.568-6.379-9.608-.1-.02-1.654 4.047-3.468 9.05-1.874 5.183-3.509 9.409-3.828 9.827-1.076 1.515-3.269 2.014-4.963 1.137zM257.632 164.433v-34.087h14.85c16.307 0 15.569-.06 16.785 1.216 1.495 1.594 1.435 3.787-.16 5.302-.378.339-.936.738-1.235.837-.38.14-4.226.22-11.323.22h-10.744v5.98h9.03c5.661 0 9.289.08 9.767.219.937.26 2.113 1.256 2.452 2.113.16.359.28 1.057.28 1.555s-.12 1.196-.28 1.555c-.339.857-1.515 1.854-2.452 2.113-.478.14-4.106.219-9.767.219h-9.03v5.183h21.847l.917.578c2.592 1.654 2.213 5.482-.677 6.698-.658.259-2.632.299-15.51.299h-14.75zM9.651 164.034v-33.29h10.825c6.259 0 11.521.08 12.498.2 3.848.478 6.3 1.495 8.173 3.368 1.416 1.416 1.994 2.811 2.133 5.223.12 1.954-.16 3.09-1.156 4.665l-.618.957.678.518c4.206 3.269 5.262 9.17 2.352 13.216-.797 1.116-2.631 2.671-3.987 3.35-1.216.617-3.887 1.375-5.601 1.594-.997.12-6.479.2-13.476.2H9.652zm25.217-6.997c2.87-.538 4.266-2.192 3.688-4.345-.3-1.117-.997-1.874-2.233-2.432l-1.056-.479-9.21-.06-9.23-.06v7.596h8.433c5.242 0 8.89-.08 9.608-.22zm-.658-14.572c1.196-.538 1.555-1.036 1.555-2.113 0-1.216-.319-1.654-1.635-2.252-1.056-.479-1.096-.479-9.17-.538l-8.132-.06v5.422l8.332-.06c7.236-.06 8.412-.1 9.05-.399zM53.706 164.034v-33.29h14.512c13.675 0 14.532.02 15.31.379.956.439 1.594 1.176 1.913 2.233.418 1.455-.419 3.11-1.914 3.787-.757.339-1.535.379-11.621.379H61.08v6.977h19.277l.677.458c.858.578 1.575 1.834 1.575 2.791 0 .977-.618 2.173-1.435 2.77l-.658.46-9.808.06-9.827.059v6.16h10.964c8.81 0 11.103.06 11.621.279.838.339 1.655 1.315 1.954 2.272.478 1.595-.658 3.548-2.313 4.007-.538.14-5.342.22-15.09.22H53.706z" fill-rule="nonzero"/><path d="M93.773 149.143c0-9.787.08-15.17.22-15.668.1-.418.478-1.076.837-1.475 1.794-2.053 4.744-1.535 5.94 1.037.339.737.379 1.535.379 12.518v11.702h12.678c14.093 0 13.515-.06 14.572 1.335 1.156 1.495.737 3.728-.877 4.844l-.738.498-16.505.06-16.506.04v-14.89z" fill-rule="nonzero"/></svg>