<svg viewBox="0 0 971 229" xmlns="http://www.w3.org/2000/svg" fill-rule="evenodd" clip-rule="evenodd" stroke-linejoin="round" stroke-miterlimit="2"><g transform="translate(-26.685 -397.616)"><path fill="none" d="M26.685 397.616h970.629v228.768H26.685z"/><clipPath id="a"><path d="M26.685 397.616h970.629v228.768H26.685z"/></clipPath><g clip-path="url(#a)"><path d="M98.86 455.424v57.192c0 23.691 19.208 42.891 42.892 42.891 18.675 0 34.558-11.933 40.45-28.591a42.983 42.983 0 002.45-14.3h-28.6c0 7.9-6.4 14.3-14.3 14.3-7.892 0-14.292-6.4-14.292-14.3v-57.192h-28.6z" fill="#ef8731" fill-rule="nonzero"/><path d="M211.413 562.659c-8.958 12.441-21.15 22.391-35.367 28.591a85.42 85.42 0 01-34.291 7.15c-47.384 0-85.792-38.408-85.792-85.783v-57.192H27.371v57.192C27.371 575.784 78.58 627 141.755 627c29.008 0 55.483-10.8 75.65-28.6 2.575-2.266 5.05-4.65 7.408-7.15a114.423 114.423 0 0019.817-28.591h-33.217z" fill="#ef8731" fill-rule="nonzero"/><path d="M191.796 512.616c0 4.966-.733 9.766-2.083 14.3-3.592 12.066-11.609 22.225-22.175 28.591-7.534 4.542-16.35 7.15-25.784 7.15-27.641 0-50.041-22.408-50.041-50.041V398.232h-28.6v114.384c0 43.433 35.208 78.641 78.641 78.641 24.417 0 46.242-11.133 60.667-28.6a78.92 78.92 0 005.225-7.15 78.027 78.027 0 0011.425-28.591c.85-4.642 1.325-9.417 1.325-14.3h-28.6z" fill="#ef8731" fill-rule="nonzero"/><path fill="#ef8731" d="M98.94 419.572h28.517v28.517H98.94z"/><path d="M312.793 485.434h-23.992v83.733h63.484v-20.625h-39.492v-63.108z" fill="#303588" fill-rule="nonzero"/><path fill="#303588" d="M361.398 485.572h23.992v83.608h-23.992z"/><path d="M438.634 535.424l-20.242-49.991h-26.75l35.117 83.733h23.625l35.117-83.733h-26.742l-20.125 49.991z" fill="#303588" fill-rule="nonzero"/><path fill="#303588" d="M491.74 485.572h23.992v83.608H491.74z"/><path d="M585.722 530.051l-38.492-44.616h-19.75v83.733h24v-43.117l38.492 43.117h19.867v-83.733h-24.117v44.616zM700.451 506.056h26.242v63.108h24.125v-63.108h26.241v-20.625h-76.608v20.625zM885.905 485.434h-23.992v83.733h63.484v-20.625h-39.492v-63.108zM958.508 548.547v-63.109h-23.992v83.734H998v-20.625h-39.492zM804.471 527.923v-6.25c0-6.658 5.417-12.075 12.075-12.075 6.667 0 12.083 5.417 12.083 12.075v6.25h-24.158zm12.075-42.491c-20.008 0-36.242 16.225-36.242 36.241v47.492h24.167v-20.617h24.158v20.617h24.167v-47.492c0-20.016-16.225-36.241-36.25-36.241" fill="#303588" fill-rule="nonzero"/><path fill="#303588" d="M361.457 454.755h24.183v24.184h-24.183zM492.115 454.755h24.183v24.184h-24.183z"/><path d="M643.742 485.434h-.025c-10.333.009-19.267 5.892-23.75 14.484a27.42 27.42 0 00-2.275 6.008c-.508 2.075-.808 4.242-.808 6.475 0 .925.05 1.842.141 2.742 0 .033.009.066.009.1 1.258 12.016 10.383 21.666 22.108 23.708 1.5.258 3.033.408 4.6.408h22.992a4.592 4.592 0 01-.1 9.184h-49.75v20.408h49.725c.008 0 .016.008.025.008.008 0 .016-.008.033-.008 12.592-.008 23.125-8.7 26.017-20.408.366-1.484.575-3.025.691-4.592.042-.617.117-1.225.117-1.85 0-.925-.05-1.842-.142-2.742-1.216-12.016-10.358-21.675-22.116-23.708a26.98 26.98 0 00-4.6-.408h-22.992c-2.492-.059-4.5-2.192-4.5-4.7 0-2.55 2.058-4.617 4.6-4.617h49.75v-20.492H643.75" fill="#303588" fill-rule="nonzero"/></g></g></svg>