<?xml version="1.0" encoding="UTF-8" standalone="no"?>
<!DOCTYPE svg PUBLIC "-//W3C//DTD SVG 1.1//EN" "http://www.w3.org/Graphics/SVG/1.1/DTD/svg11.dtd">
<svg width="100%" height="100%" viewBox="0 0 1001 779" version="1.1" xmlns="http://www.w3.org/2000/svg" xmlns:xlink="http://www.w3.org/1999/xlink" xml:space="preserve" xmlns:serif="http://www.serif.com/" style="fill-rule:evenodd;clip-rule:evenodd;stroke-linejoin:round;stroke-miterlimit:2;">
    <g id="Artboard1" transform="matrix(1,0,0,1,350.425,239.349)">
        <rect x="-350.425" y="-239.349" width="1000.85" height="778.698" style="fill:none;"/>
        <clipPath id="_clip1">
            <rect x="-350.425" y="-239.349" width="1000.85" height="778.698"/>
        </clipPath>
        <g clip-path="url(#_clip1)">
            <g transform="matrix(8.33333,0,0,8.33333,90.0333,-15.5967)">
                <path d="M0,-14.607L0,-2.442C0,2.597 4.085,6.681 9.124,6.681C13.096,6.681 16.473,4.142 17.726,0.599C18.062,-0.352 18.247,-1.375 18.247,-2.442L12.165,-2.442C12.165,-0.763 10.803,0.599 9.124,0.599C7.444,0.599 6.082,-0.763 6.082,-2.442L6.082,-14.607L0,-14.607Z" style="fill:rgb(239,135,49);fill-rule:nonzero;"/>
            </g>
            <g transform="matrix(8.33333,0,0,8.33333,289.535,-23.27)">
                <path d="M0,9.123C-1.905,11.77 -4.499,13.885 -7.522,15.205C-9.757,16.181 -12.223,16.726 -14.817,16.726C-24.894,16.726 -33.064,8.557 -33.064,-1.521L-33.064,-13.686L-39.146,-13.686L-39.146,-1.521C-39.146,11.916 -28.254,22.809 -14.817,22.809C-8.647,22.809 -3.015,20.511 1.274,16.726C1.822,16.243 2.348,15.736 2.85,15.205C4.547,13.414 5.973,11.365 7.066,9.123L0,9.123Z" style="fill:rgb(239,135,49);fill-rule:nonzero;"/>
            </g>
            <g transform="matrix(8.33333,0,0,8.33333,254.764,-99.3058)">
                <path d="M0,7.603C0,8.66 -0.156,9.68 -0.443,10.644C-1.207,13.211 -2.912,15.373 -5.16,16.727C-6.762,17.692 -8.638,18.247 -10.644,18.247C-16.523,18.247 -21.288,13.482 -21.288,7.603L-21.288,-16.727L-27.371,-16.727L-27.371,7.603C-27.371,16.841 -19.882,24.33 -10.644,24.33C-5.45,24.33 -0.809,21.962 2.259,18.247C2.659,17.763 3.028,17.254 3.372,16.727C4.556,14.912 5.395,12.855 5.802,10.644C5.983,9.658 6.082,8.642 6.082,7.603L0,7.603Z" style="fill:rgb(239,135,49);fill-rule:nonzero;"/>
            </g>
            <g transform="matrix(8.33333,0,0,8.33333,-3392.72,-1829.87)">
                <rect x="417.948" y="195.495" width="6.065" height="6.065" style="fill:rgb(239,135,49);"/>
            </g>
            <g transform="matrix(8.33333,0,0,8.33333,-186.549,447.167)">
                <path d="M0,3.932L-2.905,3.932L-2.905,0L-1.937,0L-1.937,3.087L0,3.087L0,3.932Z" style="fill:white;fill-rule:nonzero;"/>
            </g>
            <g transform="matrix(8.33333,0,0,8.33333,-3392.72,-551.812)">
                <rect x="385.574" y="119.878" width="0.968" height="3.932" style="fill:white;"/>
            </g>
            <g transform="matrix(8.33333,0,0,8.33333,-144.19,447.167)">
                <path d="M0,3.932L-0.933,3.932L-2.606,0L-1.538,0L-0.469,2.606L0.605,0L1.673,0L0,3.932Z" style="fill:white;fill-rule:nonzero;"/>
            </g>
            <g transform="matrix(8.33333,0,0,8.33333,-108.923,465.17)">
                <path d="M0,-0.388C0.172,-0.388 0.31,-0.431 0.414,-0.517C0.517,-0.603 0.569,-0.719 0.569,-0.863C0.569,-1.004 0.517,-1.118 0.414,-1.204C0.31,-1.29 0.172,-1.333 0,-1.333L-0.915,-1.333L-0.915,-0.388L0,-0.388ZM0.552,1.772L-0.634,0.422L-0.915,0.422L-0.915,1.772L-1.884,1.772L-1.884,-2.16L0.106,-2.16C0.532,-2.16 0.874,-2.042 1.133,-1.805C1.391,-1.568 1.52,-1.259 1.52,-0.875C1.52,-0.554 1.428,-0.283 1.244,-0.062C1.06,0.159 0.808,0.305 0.487,0.375L1.719,1.772L0.552,1.772Z" style="fill:white;fill-rule:nonzero;"/>
            </g>
            <g transform="matrix(8.33333,0,0,8.33333,-73.6108,470.837)">
                <path d="M0,-1.749L-0.499,-0.458L0.505,-0.458L0,-1.749ZM1.103,1.091L0.828,0.375L-0.827,0.375L-1.103,1.091L-2.142,1.091L-0.499,-2.84L0.493,-2.84L2.136,1.091L1.103,1.091Z" style="fill:white;fill-rule:nonzero;"/>
            </g>
            <g transform="matrix(8.33333,0,0,8.33333,-3392.72,-551.812)">
                <rect x="401.064" y="119.878" width="0.968" height="3.932" style="fill:white;"/>
            </g>
            <g transform="matrix(8.33333,0,0,8.33333,-12.4717,478.152)">
                <path d="M0,-3.504C0.29,-3.302 0.472,-3.024 0.546,-2.668L-0.405,-2.474C-0.44,-2.65 -0.522,-2.786 -0.651,-2.882C-0.781,-2.978 -0.927,-3.026 -1.092,-3.026C-1.248,-3.026 -1.375,-2.987 -1.473,-2.911C-1.571,-2.835 -1.62,-2.74 -1.62,-2.627C-1.62,-2.455 -1.514,-2.345 -1.303,-2.298L-0.487,-2.116C0.233,-1.955 0.593,-1.574 0.593,-0.972C0.593,-0.569 0.438,-0.256 0.129,-0.033C-0.18,0.19 -0.565,0.302 -1.027,0.302C-1.485,0.302 -1.873,0.197 -2.192,-0.012C-2.511,-0.221 -2.696,-0.514 -2.746,-0.89L-1.749,-1.083C-1.655,-0.696 -1.397,-0.502 -0.974,-0.502C-0.794,-0.502 -0.652,-0.539 -0.549,-0.614C-0.445,-0.688 -0.393,-0.786 -0.393,-0.907C-0.393,-1.001 -0.42,-1.075 -0.472,-1.13C-0.525,-1.185 -0.62,-1.226 -0.757,-1.253L-1.579,-1.429C-2.283,-1.59 -2.635,-1.969 -2.635,-2.568C-2.635,-2.947 -2.492,-3.249 -2.206,-3.472C-1.921,-3.695 -1.545,-3.806 -1.08,-3.806C-0.649,-3.806 -0.29,-3.706 0,-3.504" style="fill:white;fill-rule:nonzero;"/>
            </g>
            <g transform="matrix(8.33333,0,0,8.33333,22.4033,456.585)">
                <path d="M0,1.672C0.215,1.451 0.323,1.174 0.323,0.842C0.323,0.505 0.215,0.226 0,0.003C-0.215,-0.221 -0.483,-0.332 -0.804,-0.332C-1.125,-0.332 -1.393,-0.221 -1.608,0.003C-1.823,0.226 -1.931,0.505 -1.931,0.842C-1.931,1.174 -1.823,1.451 -1.608,1.672C-1.393,1.893 -1.125,2.003 -0.804,2.003C-0.483,2.003 -0.215,1.893 0,1.672M0.684,-0.62C1.089,-0.221 1.291,0.267 1.291,0.842C1.291,1.413 1.089,1.897 0.684,2.294C0.279,2.691 -0.217,2.89 -0.804,2.89C-1.391,2.89 -1.887,2.691 -2.292,2.294C-2.697,1.897 -2.899,1.413 -2.899,0.842C-2.899,0.267 -2.697,-0.221 -2.292,-0.62C-1.887,-1.019 -1.391,-1.218 -0.804,-1.218C-0.217,-1.218 0.279,-1.019 0.684,-0.62" style="fill:white;fill-rule:nonzero;"/>
            </g>
            <g transform="matrix(8.33333,0,0,8.33333,71.4617,447.167)">
                <path d="M0,3.932L-0.798,3.932L-2.788,1.655L-2.788,3.932L-3.756,3.932L-3.756,0L-2.952,0L-0.962,2.348L-0.962,0L0,0L0,3.932Z" style="fill:white;fill-rule:nonzero;"/>
            </g>
            <g transform="matrix(8.33333,0,0,8.33333,110.153,454.653)">
                <path d="M0,2.212L-0.91,1.42C-1.098,1.537 -1.191,1.682 -1.191,1.854C-1.191,2.006 -1.13,2.13 -1.006,2.224C-0.883,2.318 -0.718,2.365 -0.511,2.365C-0.327,2.365 -0.157,2.314 0,2.212M0.628,2.758C0.299,3 -0.092,3.122 -0.546,3.122C-1.011,3.122 -1.389,3.009 -1.678,2.784C-1.968,2.559 -2.113,2.261 -2.113,1.889C-2.113,1.463 -1.892,1.128 -1.45,0.886C-1.633,0.643 -1.725,0.385 -1.725,0.111C-1.725,-0.214 -1.603,-0.478 -1.359,-0.681C-1.114,-0.885 -0.802,-0.986 -0.423,-0.986C-0.039,-0.986 0.262,-0.885 0.481,-0.681C0.7,-0.478 0.835,-0.208 0.886,0.129L0.018,0.281C-0.01,-0.063 -0.157,-0.235 -0.423,-0.235C-0.54,-0.235 -0.636,-0.203 -0.71,-0.138C-0.784,-0.074 -0.822,0.017 -0.822,0.135C-0.822,0.24 -0.79,0.342 -0.728,0.44C-0.665,0.538 -0.55,0.661 -0.382,0.809L0.452,1.531C0.475,1.429 0.487,1.316 0.487,1.191L0.487,0.927L1.338,0.927L1.338,1.191C1.338,1.543 1.274,1.858 1.144,2.136L1.673,2.593L1.127,3.198L0.628,2.758Z" style="fill:white;fill-rule:nonzero;"/>
            </g>
            <g transform="matrix(8.33333,0,0,8.33333,-3392.72,-551.812)">
                <rect x="424.383" y="119.878" width="0.968" height="3.932" style="fill:white;"/>
            </g>
            <g transform="matrix(8.33333,0,0,8.33333,191.295,447.167)">
                <path d="M0,3.932L-0.798,3.932L-2.787,1.655L-2.787,3.932L-3.756,3.932L-3.756,0L-2.952,0L-0.962,2.348L-0.962,0L0,0L0,3.932Z" style="fill:white;fill-rule:nonzero;"/>
            </g>
            <g transform="matrix(8.33333,0,0,8.33333,221.33,478.152)">
                <path d="M0,-3.504C0.29,-3.302 0.471,-3.024 0.546,-2.668L-0.405,-2.474C-0.44,-2.65 -0.522,-2.786 -0.652,-2.882C-0.781,-2.978 -0.927,-3.026 -1.091,-3.026C-1.248,-3.026 -1.375,-2.987 -1.473,-2.911C-1.571,-2.835 -1.62,-2.74 -1.62,-2.627C-1.62,-2.455 -1.514,-2.345 -1.303,-2.298L-0.487,-2.116C0.233,-1.955 0.593,-1.574 0.593,-0.972C0.593,-0.569 0.438,-0.256 0.129,-0.033C-0.18,0.19 -0.566,0.302 -1.027,0.302C-1.485,0.302 -1.873,0.197 -2.192,-0.012C-2.511,-0.221 -2.695,-0.514 -2.746,-0.89L-1.749,-1.083C-1.655,-0.696 -1.397,-0.502 -0.974,-0.502C-0.794,-0.502 -0.652,-0.539 -0.549,-0.614C-0.445,-0.688 -0.393,-0.786 -0.393,-0.907C-0.393,-1.001 -0.42,-1.075 -0.472,-1.13C-0.525,-1.185 -0.62,-1.226 -0.757,-1.253L-1.579,-1.429C-2.283,-1.59 -2.635,-1.969 -2.635,-2.568C-2.635,-2.947 -2.492,-3.249 -2.207,-3.472C-1.921,-3.695 -1.545,-3.806 -1.08,-3.806C-0.649,-3.806 -0.29,-3.706 0,-3.504" style="fill:white;fill-rule:nonzero;"/>
            </g>
            <g transform="matrix(8.33333,0,0,8.33333,249.502,472.893)">
                <path d="M0,-2.242L0,0.845L-0.962,0.845L-0.962,-2.242L-2.236,-2.242L-2.236,-3.087L1.274,-3.087L1.274,-2.242L0,-2.242Z" style="fill:white;fill-rule:nonzero;"/>
            </g>
            <g transform="matrix(8.33333,0,0,8.33333,277.972,470.837)">
                <path d="M0,-1.749L-0.499,-0.458L0.505,-0.458L0,-1.749ZM1.103,1.091L0.827,0.375L-0.828,0.375L-1.103,1.091L-2.142,1.091L-0.499,-2.84L0.493,-2.84L2.136,1.091L1.103,1.091Z" style="fill:white;fill-rule:nonzero;"/>
            </g>
            <g transform="matrix(8.33333,0,0,8.33333,325.269,447.167)">
                <path d="M0,3.932L-2.905,3.932L-2.905,0L-1.936,0L-1.936,3.087L0,3.087L0,3.932Z" style="fill:white;fill-rule:nonzero;"/>
            </g>
            <g transform="matrix(8.33333,0,0,8.33333,356.425,447.167)">
                <path d="M0,3.932L-2.905,3.932L-2.905,0L-1.936,0L-1.936,3.087L0,3.087L0,3.932Z" style="fill:white;fill-rule:nonzero;"/>
            </g>
            <g transform="matrix(8.33333,0,0,8.33333,378.387,470.837)">
                <path d="M0,-1.749L-0.499,-0.458L0.505,-0.458L0,-1.749ZM1.103,1.091L0.827,0.375L-0.828,0.375L-1.103,1.091L-2.142,1.091L-0.499,-2.84L0.493,-2.84L2.136,1.091L1.103,1.091Z" style="fill:white;fill-rule:nonzero;"/>
            </g>
            <g transform="matrix(8.33333,0,0,8.33333,414.827,472.893)">
                <path d="M0,-2.242L0,0.845L-0.962,0.845L-0.962,-2.242L-2.236,-2.242L-2.236,-3.087L1.274,-3.087L1.274,-2.242L0,-2.242Z" style="fill:white;fill-rule:nonzero;"/>
            </g>
            <g transform="matrix(8.33333,0,0,8.33333,-3392.72,-551.812)">
                <rect x="458.931" y="119.878" width="0.969" height="3.932" style="fill:white;"/>
            </g>
            <g transform="matrix(8.33333,0,0,8.33333,470.927,456.585)">
                <path d="M0,1.672C0.215,1.451 0.323,1.174 0.323,0.842C0.323,0.505 0.215,0.226 0,0.003C-0.215,-0.221 -0.483,-0.332 -0.804,-0.332C-1.125,-0.332 -1.393,-0.221 -1.608,0.003C-1.823,0.226 -1.931,0.505 -1.931,0.842C-1.931,1.174 -1.823,1.451 -1.608,1.672C-1.393,1.893 -1.125,2.003 -0.804,2.003C-0.483,2.003 -0.215,1.893 0,1.672M0.684,-0.62C1.089,-0.221 1.291,0.267 1.291,0.842C1.291,1.413 1.089,1.897 0.684,2.294C0.279,2.691 -0.217,2.89 -0.804,2.89C-1.391,2.89 -1.887,2.691 -2.292,2.294C-2.696,1.897 -2.899,1.413 -2.899,0.842C-2.899,0.267 -2.696,-0.221 -2.292,-0.62C-1.887,-1.019 -1.391,-1.218 -0.804,-1.218C-0.217,-1.218 0.279,-1.019 0.684,-0.62" style="fill:white;fill-rule:nonzero;"/>
            </g>
            <g transform="matrix(8.33333,0,0,8.33333,519.984,447.167)">
                <path d="M0,3.932L-0.798,3.932L-2.787,1.655L-2.787,3.932L-3.756,3.932L-3.756,0L-2.952,0L-0.962,2.348L-0.962,0L0,0L0,3.932Z" style="fill:white;fill-rule:nonzero;"/>
            </g>
            <g transform="matrix(8.33333,0,0,8.33333,-312.352,512.852)">
                <path d="M0,2.254C0.368,2.254 0.662,2.151 0.883,1.946C1.104,1.741 1.215,1.468 1.215,1.127C1.215,0.787 1.104,0.514 0.883,0.309C0.662,0.103 0.368,0.001 0,0.001L-0.552,0.001L-0.552,2.254L0,2.254ZM0.035,-0.839C0.681,-0.839 1.201,-0.658 1.596,-0.296C1.991,0.066 2.189,0.541 2.189,1.127C2.189,1.714 1.991,2.189 1.596,2.55C1.201,2.912 0.681,3.093 0.035,3.093L-1.52,3.093L-1.52,-0.839L0.035,-0.839Z" style="fill:white;fill-rule:nonzero;"/>
            </g>
            <g transform="matrix(8.33333,0,0,8.33333,-287.6,505.865)">
                <path d="M0,1.69L0.346,0L1.385,0L1.385,0.023L0.71,1.69L0,1.69Z" style="fill:white;fill-rule:nonzero;"/>
            </g>
            <g transform="matrix(8.33333,0,0,8.33333,-259.477,531.192)">
                <path d="M0,-3.421L0.417,-4.313L1.532,-4.313L0.833,-3.421L0,-3.421ZM1.89,0.892L-1.174,0.892L-1.174,-3.039L1.872,-3.039L1.872,-2.206L-0.206,-2.206L-0.206,-1.467L1.702,-1.467L1.702,-0.68L-0.206,-0.68L-0.206,0.059L1.89,0.059L1.89,0.892Z" style="fill:white;fill-rule:nonzero;"/>
            </g>
            <g transform="matrix(8.33333,0,0,8.33333,-212.033,505.862)">
                <path d="M0,3.932L-2.905,3.932L-2.905,0L-1.937,0L-1.937,3.087L0,3.087L0,3.932Z" style="fill:white;fill-rule:nonzero;"/>
            </g>
            <g transform="matrix(8.33333,0,0,8.33333,-179.556,505.862)">
                <path d="M0,3.932L-3.063,3.932L-3.063,0L-0.018,0L-0.018,0.834L-2.095,0.834L-2.095,1.573L-0.188,1.573L-0.188,2.359L-2.095,2.359L-2.095,3.099L0,3.099L0,3.932Z" style="fill:white;fill-rule:nonzero;"/>
            </g>
            <g transform="matrix(8.33333,0,0,8.33333,-139.743,518.137)">
                <path d="M0,0.986C-0.09,1.471 -0.315,1.853 -0.675,2.13C-1.035,2.408 -1.471,2.547 -1.983,2.547C-2.566,2.547 -3.06,2.349 -3.465,1.954C-3.87,1.559 -4.073,1.072 -4.073,0.493C-4.073,-0.082 -3.87,-0.568 -3.465,-0.965C-3.06,-1.362 -2.566,-1.561 -1.983,-1.561C-1.491,-1.561 -1.061,-1.424 -0.695,-1.15C-0.33,-0.876 -0.1,-0.51 -0.006,-0.052L-0.957,0.17C-1.015,-0.108 -1.136,-0.318 -1.318,-0.46C-1.499,-0.603 -1.721,-0.675 -1.983,-0.675C-2.296,-0.675 -2.562,-0.563 -2.779,-0.34C-2.996,-0.117 -3.104,0.161 -3.104,0.493C-3.104,0.826 -2.996,1.104 -2.779,1.329C-2.562,1.554 -2.296,1.667 -1.983,1.667C-1.725,1.667 -1.505,1.593 -1.323,1.447C-1.142,1.3 -1.017,1.084 -0.951,0.798L0,0.986Z" style="fill:white;fill-rule:nonzero;"/>
            </g>
            <g transform="matrix(8.33333,0,0,8.33333,-117.288,531.589)">
                <path d="M0,-2.242L0,0.845L-0.962,0.845L-0.962,-2.242L-2.236,-2.242L-2.236,-3.087L1.274,-3.087L1.274,-2.242L0,-2.242Z" style="fill:white;fill-rule:nonzero;"/>
            </g>
            <g transform="matrix(8.33333,0,0,8.33333,-84.7133,523.866)">
                <path d="M0,-0.388C0.172,-0.388 0.31,-0.431 0.414,-0.517C0.517,-0.603 0.569,-0.719 0.569,-0.863C0.569,-1.004 0.517,-1.118 0.414,-1.204C0.31,-1.29 0.172,-1.333 0,-1.333L-0.915,-1.333L-0.915,-0.388L0,-0.388ZM0.552,1.772L-0.634,0.422L-0.915,0.422L-0.915,1.772L-1.884,1.772L-1.884,-2.16L0.106,-2.16C0.532,-2.16 0.874,-2.042 1.133,-1.805C1.391,-1.568 1.52,-1.259 1.52,-0.875C1.52,-0.554 1.428,-0.283 1.244,-0.062C1.06,0.159 0.808,0.305 0.487,0.375L1.719,1.772L0.552,1.772Z" style="fill:white;fill-rule:nonzero;"/>
            </g>
            <g transform="matrix(8.33333,0,0,8.33333,-42.21,515.281)">
                <path d="M0,1.672C0.215,1.451 0.323,1.174 0.323,0.842C0.323,0.505 0.215,0.226 0,0.003C-0.215,-0.221 -0.483,-0.332 -0.804,-0.332C-1.125,-0.332 -1.393,-0.221 -1.608,0.003C-1.823,0.226 -1.931,0.505 -1.931,0.842C-1.931,1.174 -1.823,1.451 -1.608,1.672C-1.393,1.893 -1.125,2.004 -0.804,2.004C-0.483,2.004 -0.215,1.893 0,1.672M0.684,-0.62C1.089,-0.221 1.291,0.267 1.291,0.842C1.291,1.413 1.089,1.897 0.684,2.294C0.279,2.691 -0.217,2.89 -0.804,2.89C-1.391,2.89 -1.887,2.691 -2.292,2.294C-2.697,1.897 -2.899,1.413 -2.899,0.842C-2.899,0.267 -2.697,-0.221 -2.292,-0.62C-1.887,-1.019 -1.391,-1.218 -0.804,-1.218C-0.217,-1.218 0.279,-1.019 0.684,-0.62" style="fill:white;fill-rule:nonzero;"/>
            </g>
            <g transform="matrix(8.33333,0,0,8.33333,13.3517,505.862)">
                <path d="M0,3.932L-0.939,3.932L-0.939,1.972L-1.966,3.932L-2.564,3.932L-3.597,1.96L-3.597,3.932L-4.536,3.932L-4.536,0L-3.586,0L-2.265,2.435L-0.945,0L0,0L0,3.932Z" style="fill:white;fill-rule:nonzero;"/>
            </g>
            <g transform="matrix(8.33333,0,0,8.33333,31.2592,531.192)">
                <path d="M0,-3.421L0.417,-4.313L1.532,-4.313L0.833,-3.421L0,-3.421ZM1.89,0.892L-1.174,0.892L-1.174,-3.039L1.872,-3.039L1.872,-2.206L-0.206,-2.206L-0.206,-1.467L1.702,-1.467L1.702,-0.68L-0.206,-0.68L-0.206,0.059L1.89,0.059L1.89,0.892Z" style="fill:white;fill-rule:nonzero;"/>
            </g>
            <g transform="matrix(8.33333,0,0,8.33333,85.7933,505.862)">
                <path d="M0,3.932L-0.798,3.932L-2.788,1.655L-2.788,3.932L-3.756,3.932L-3.756,0L-2.952,0L-0.962,2.348L-0.962,0L0,0L0,3.932Z" style="fill:white;fill-rule:nonzero;"/>
            </g>
            <g transform="matrix(8.33333,0,0,8.33333,108.783,529.534)">
                <path d="M0,-1.749L-0.499,-0.458L0.505,-0.458L0,-1.749ZM1.103,1.091L0.828,0.375L-0.827,0.375L-1.103,1.091L-2.142,1.091L-0.499,-2.84L0.493,-2.84L2.136,1.091L1.103,1.091Z" style="fill:white;fill-rule:nonzero;"/>
            </g>
            <g transform="matrix(8.33333,0,0,8.33333,163.905,525.178)">
                <path d="M0,-0.704C0.016,-0.579 0.024,-0.459 0.024,-0.346C0.024,0.249 -0.168,0.739 -0.552,1.124C-0.935,1.509 -1.422,1.702 -2.013,1.702C-2.608,1.702 -3.109,1.505 -3.518,1.109C-3.927,0.714 -4.131,0.227 -4.131,-0.352C-4.131,-0.927 -3.929,-1.413 -3.524,-1.81C-3.119,-2.207 -2.621,-2.406 -2.03,-2.406C-1.58,-2.406 -1.181,-2.303 -0.833,-2.098C-0.485,-1.892 -0.245,-1.602 -0.112,-1.226L-1.044,-0.956C-1.236,-1.332 -1.565,-1.52 -2.03,-1.52C-2.351,-1.52 -2.619,-1.408 -2.834,-1.185C-3.05,-0.962 -3.157,-0.684 -3.157,-0.352C-3.157,-0.019 -3.047,0.259 -2.826,0.484C-2.605,0.709 -2.33,0.822 -2.001,0.822C-1.747,0.822 -1.529,0.759 -1.347,0.634C-1.165,0.509 -1.037,0.337 -0.962,0.118L-2.165,0.118L-2.165,-0.704L0,-0.704Z" style="fill:white;fill-rule:nonzero;"/>
            </g>
            <g transform="matrix(8.33333,0,0,8.33333,196.63,505.862)">
                <path d="M0,3.932L-3.064,3.932L-3.064,0L-0.018,0L-0.018,0.834L-2.095,0.834L-2.095,1.573L-0.188,1.573L-0.188,2.359L-2.095,2.359L-2.095,3.099L0,3.099L0,3.932Z" style="fill:white;fill-rule:nonzero;"/>
            </g>
            <g transform="matrix(8.33333,0,0,8.33333,219.817,523.866)">
                <path d="M0,-0.388C0.172,-0.388 0.31,-0.431 0.414,-0.517C0.517,-0.603 0.569,-0.719 0.569,-0.863C0.569,-1.004 0.517,-1.118 0.414,-1.204C0.31,-1.29 0.172,-1.333 0,-1.333L-0.915,-1.333L-0.915,-0.388L0,-0.388ZM0.552,1.772L-0.634,0.422L-0.915,0.422L-0.915,1.772L-1.884,1.772L-1.884,-2.16L0.106,-2.16C0.532,-2.16 0.874,-2.042 1.133,-1.805C1.391,-1.568 1.52,-1.259 1.52,-0.875C1.52,-0.554 1.428,-0.283 1.244,-0.062C1.06,0.159 0.808,0.305 0.487,0.375L1.719,1.772L0.552,1.772Z" style="fill:white;fill-rule:nonzero;"/>
            </g>
            <g transform="matrix(8.33333,0,0,8.33333,270.292,513.35)">
                <path d="M0,2.212L-0.91,1.42C-1.098,1.537 -1.191,1.682 -1.191,1.854C-1.191,2.006 -1.13,2.13 -1.007,2.224C-0.883,2.318 -0.718,2.365 -0.511,2.365C-0.327,2.365 -0.156,2.314 0,2.212M0.628,2.758C0.299,3 -0.092,3.122 -0.546,3.122C-1.011,3.122 -1.389,3.009 -1.678,2.784C-1.968,2.559 -2.113,2.261 -2.113,1.889C-2.113,1.463 -1.892,1.128 -1.45,0.886C-1.633,0.643 -1.725,0.385 -1.725,0.111C-1.725,-0.214 -1.603,-0.478 -1.359,-0.681C-1.114,-0.885 -0.802,-0.986 -0.423,-0.986C-0.039,-0.986 0.262,-0.885 0.481,-0.681C0.7,-0.478 0.835,-0.208 0.886,0.129L0.017,0.281C-0.01,-0.063 -0.156,-0.235 -0.423,-0.235C-0.54,-0.235 -0.636,-0.203 -0.71,-0.138C-0.784,-0.074 -0.822,0.017 -0.822,0.135C-0.822,0.24 -0.79,0.342 -0.728,0.44C-0.665,0.538 -0.55,0.661 -0.381,0.809L0.452,1.531C0.475,1.429 0.487,1.316 0.487,1.191L0.487,0.927L1.338,0.927L1.338,1.191C1.338,1.543 1.274,1.858 1.144,2.136L1.673,2.593L1.127,3.198L0.628,2.758Z" style="fill:white;fill-rule:nonzero;"/>
            </g>
            <g transform="matrix(8.33333,0,0,8.33333,316.613,512.852)">
                <path d="M0,2.254C0.368,2.254 0.662,2.151 0.883,1.946C1.104,1.741 1.215,1.468 1.215,1.127C1.215,0.787 1.104,0.514 0.883,0.309C0.662,0.103 0.368,0.001 0,0.001L-0.552,0.001L-0.552,2.254L0,2.254ZM0.035,-0.839C0.681,-0.839 1.201,-0.658 1.596,-0.296C1.991,0.066 2.189,0.541 2.189,1.127C2.189,1.714 1.991,2.189 1.596,2.55C1.201,2.912 0.681,3.093 0.035,3.093L-1.52,3.093L-1.52,-0.839L0.035,-0.839Z" style="fill:white;fill-rule:nonzero;"/>
            </g>
            <g transform="matrix(8.33333,0,0,8.33333,367.383,505.862)">
                <path d="M0,3.932L-3.064,3.932L-3.064,0L-0.018,0L-0.018,0.834L-2.095,0.834L-2.095,1.573L-0.188,1.573L-0.188,2.359L-2.095,2.359L-2.095,3.099L0,3.099L0,3.932Z" style="fill:white;fill-rule:nonzero;"/>
            </g>
            <g transform="matrix(8.33333,0,0,8.33333,426.467,505.862)">
                <path d="M0,3.932L-0.939,3.932L-0.939,1.972L-1.966,3.932L-2.565,3.932L-3.598,1.96L-3.598,3.932L-4.536,3.932L-4.536,0L-3.586,0L-2.265,2.435L-0.945,0L0,0L0,3.932Z" style="fill:white;fill-rule:nonzero;"/>
            </g>
            <g transform="matrix(8.33333,0,0,8.33333,457.626,515.281)">
                <path d="M0,1.672C0.215,1.451 0.323,1.174 0.323,0.842C0.323,0.505 0.215,0.226 0,0.003C-0.215,-0.221 -0.483,-0.332 -0.804,-0.332C-1.125,-0.332 -1.393,-0.221 -1.608,0.003C-1.823,0.226 -1.931,0.505 -1.931,0.842C-1.931,1.174 -1.823,1.451 -1.608,1.672C-1.393,1.893 -1.125,2.004 -0.804,2.004C-0.483,2.004 -0.215,1.893 0,1.672M0.684,-0.62C1.089,-0.221 1.291,0.267 1.291,0.842C1.291,1.413 1.089,1.897 0.684,2.294C0.279,2.691 -0.217,2.89 -0.804,2.89C-1.391,2.89 -1.887,2.691 -2.292,2.294C-2.696,1.897 -2.899,1.413 -2.899,0.842C-2.899,0.267 -2.696,-0.221 -2.292,-0.62C-1.887,-1.019 -1.391,-1.218 -0.804,-1.218C-0.217,-1.218 0.279,-1.019 0.684,-0.62" style="fill:white;fill-rule:nonzero;"/>
            </g>
            <g transform="matrix(8.33333,0,0,8.33333,490.986,512.375)">
                <path d="M0,2.37C0.153,2.37 0.271,2.331 0.355,2.253C0.439,2.174 0.481,2.067 0.481,1.93C0.481,1.801 0.438,1.698 0.352,1.622C0.266,1.546 0.155,1.507 0.017,1.507L-0.904,1.507L-0.904,2.37L0,2.37ZM-0.904,0.844L-0.059,0.844C0.086,0.844 0.202,0.804 0.288,0.724C0.374,0.644 0.417,0.537 0.417,0.404C0.417,0.283 0.375,0.185 0.29,0.111C0.206,0.036 0.102,-0.001 -0.024,-0.001L-0.904,-0.001L-0.904,0.844ZM0.71,1.143C0.914,1.159 1.09,1.245 1.241,1.402C1.392,1.558 1.467,1.774 1.467,2.047C1.467,2.384 1.356,2.652 1.133,2.851C0.91,3.051 0.589,3.151 0.17,3.151L-1.872,3.151L-1.872,-0.781L0.164,-0.781C0.524,-0.781 0.813,-0.684 1.03,-0.488C1.247,-0.292 1.356,-0.032 1.356,0.293C1.356,0.539 1.287,0.735 1.15,0.879C1.013,1.024 0.867,1.104 0.71,1.12L0.71,1.143Z" style="fill:white;fill-rule:nonzero;"/>
            </g>
            <g transform="matrix(8.33333,0,0,8.33333,-3392.72,-434.428)">
                <rect x="468.351" y="112.835" width="0.969" height="3.932" style="fill:white;"/>
            </g>
            <g transform="matrix(8.33333,0,0,8.33333,550.608,505.862)">
                <path d="M0,3.932L-2.905,3.932L-2.905,0L-1.936,0L-1.936,3.087L0,3.087L0,3.932Z" style="fill:white;fill-rule:nonzero;"/>
            </g>
            <g transform="matrix(8.33333,0,0,8.33333,-3392.72,-434.428)">
                <rect x="474.033" y="112.835" width="0.969" height="3.932" style="fill:white;"/>
            </g>
            <g transform="matrix(8.33333,0,0,8.33333,599.274,505.862)">
                <path d="M0,3.932L-3.064,3.932L-3.064,0L-0.018,0L-0.018,0.834L-2.095,0.834L-2.095,1.573L-0.188,1.573L-0.188,2.359L-2.095,2.359L-2.095,3.099L0,3.099L0,3.932Z" style="fill:white;fill-rule:nonzero;"/>
            </g>
            <g transform="matrix(8.33333,0,0,8.33333,622.462,523.866)">
                <path d="M0,-0.388C0.172,-0.388 0.31,-0.431 0.414,-0.517C0.517,-0.603 0.569,-0.719 0.569,-0.863C0.569,-1.004 0.517,-1.118 0.414,-1.204C0.31,-1.29 0.172,-1.333 0,-1.333L-0.915,-1.333L-0.915,-0.388L0,-0.388ZM0.552,1.772L-0.634,0.422L-0.915,0.422L-0.915,1.772L-1.884,1.772L-1.884,-2.16L0.106,-2.16C0.532,-2.16 0.874,-2.042 1.133,-1.805C1.391,-1.568 1.52,-1.259 1.52,-0.875C1.52,-0.554 1.428,-0.283 1.244,-0.062C1.06,0.159 0.808,0.305 0.487,0.375L1.719,1.772L0.552,1.772Z" style="fill:white;fill-rule:nonzero;"/>
            </g>
            <g transform="matrix(8.33333,0,0,8.33333,-315.984,404.833)">
                <path d="M0,-14.18L-4.064,-14.18L-4.064,0L6.688,0L6.688,-3.492L0,-3.492L0,-14.18Z" style="fill:white;fill-rule:nonzero;"/>
            </g>
            <g transform="matrix(8.33333,0,0,8.33333,-3392.72,-787.237)">
                <rect x="377.439" y="128.89" width="4.064" height="14.159" style="fill:white;"/>
            </g>
            <g transform="matrix(8.33333,0,0,8.33333,-138.394,334.282)">
                <path d="M0,2.752L-3.428,-5.714L-7.957,-5.714L-2.01,8.466L1.99,8.466L7.937,-5.714L3.408,-5.714L0,2.752Z" style="fill:white;fill-rule:nonzero;"/>
            </g>
            <g transform="matrix(8.33333,0,0,8.33333,-3392.72,-787.237)">
                <rect x="399.512" y="128.89" width="4.064" height="14.159" style="fill:white;"/>
            </g>
            <g transform="matrix(8.33333,0,0,8.33333,69.18,341.866)">
                <path d="M0,0.932L-6.519,-6.624L-9.863,-6.624L-9.863,7.556L-5.799,7.556L-5.799,0.255L0.719,7.556L4.085,7.556L4.085,-6.624L0,-6.624L0,0.932Z" style="fill:white;fill-rule:nonzero;"/>
            </g>
            <g transform="matrix(8.33333,0,0,8.33333,231.088,375.737)">
                <path d="M0,-7.196L4.444,-7.196L4.444,3.492L8.529,3.492L8.529,-7.196L12.974,-7.196L12.974,-10.688L0,-10.688L0,-7.196Z" style="fill:white;fill-rule:nonzero;"/>
            </g>
            <g transform="matrix(8.33333,0,0,8.33333,492.806,404.833)">
                <path d="M0,-14.18L-4.064,-14.18L-4.064,0L6.688,0L6.688,-3.492L0,-3.492L0,-14.18Z" style="fill:white;fill-rule:nonzero;"/>
            </g>
            <g transform="matrix(8.33333,0,0,8.33333,595.267,315.766)">
                <path d="M0,7.196L0,-3.492L-4.064,-3.492L-4.064,10.688L6.688,10.688L6.688,7.196L0,7.196Z" style="fill:white;fill-rule:nonzero;"/>
            </g>
            <g transform="matrix(8.33333,0,0,8.33333,377.884,344.872)">
                <path d="M0,0.211L0,-0.847C0,-1.975 0.918,-2.892 2.045,-2.892C3.173,-2.892 4.091,-1.975 4.091,-0.847L4.091,0.211L0,0.211ZM2.045,-6.985C-1.344,-6.985 -4.092,-4.237 -4.092,-0.847L-4.092,7.196L0,7.196L0,3.703L4.091,3.703L4.091,7.196L8.183,7.196L8.183,-0.847C8.183,-4.237 5.435,-6.985 2.045,-6.985" style="fill:white;fill-rule:nonzero;"/>
            </g>
            <g transform="matrix(8.33333,0,0,8.33333,-3392.72,-957.837)">
                <rect x="377.449" y="144.158" width="4.095" height="4.095" style="fill:white;"/>
            </g>
            <g transform="matrix(8.33333,0,0,8.33333,-3392.72,-957.837)">
                <rect x="399.576" y="144.158" width="4.095" height="4.095" style="fill:white;"/>
            </g>
            <g transform="matrix(8.33333,0,0,8.33333,151.058,404.533)">
                <path d="M0,-14.144L-0.004,-14.144C-1.754,-14.142 -3.268,-13.146 -4.026,-11.691C-4.192,-11.372 -4.323,-11.032 -4.411,-10.674C-4.497,-10.322 -4.548,-9.956 -4.548,-9.578C-4.548,-9.421 -4.54,-9.265 -4.525,-9.112C-4.524,-9.107 -4.523,-9.101 -4.523,-9.096C-4.31,-7.061 -2.764,-5.426 -0.779,-5.081C-0.525,-5.037 -0.266,-5.012 0,-5.012L3.894,-5.012C4.316,-5.002 4.656,-4.659 4.656,-4.235C4.656,-3.805 4.307,-3.456 3.877,-3.456L-4.548,-3.456L-4.548,0L3.882,0C6.014,-0.002 7.798,-1.474 8.288,-3.456C8.35,-3.708 8.385,-3.969 8.405,-4.235C8.412,-4.339 8.425,-4.442 8.425,-4.548C8.425,-4.704 8.417,-4.859 8.402,-5.012C8.196,-7.047 6.647,-8.683 4.656,-9.027C4.402,-9.07 4.143,-9.096 3.877,-9.096L-0.017,-9.096C-0.439,-9.106 -0.779,-9.466 -0.779,-9.892C-0.779,-10.324 -0.43,-10.674 0,-10.674L8.425,-10.674L8.425,-14.144L0,-14.144" style="fill:white;fill-rule:nonzero;"/>
            </g>
        </g>
    </g>
</svg>
