<svg viewBox="0 0 134 134" xmlns="http://www.w3.org/2000/svg" fill-rule="evenodd" clip-rule="evenodd" stroke-linejoin="round" stroke-miterlimit="2"><g fill-rule="nonzero"><path d="M74.367 4.695H33.182c-5.59 0-10.122 4.532-10.122 10.122v109.07a4.983 4.983 0 004.984 4.982h51.462a4.982 4.982 0 004.983-4.982V14.817c0-5.59-4.532-10.122-10.122-10.122" fill="#18154d"/><path d="M74.696 14.839c0-5.603-4.541-10.144-10.143-10.144H23.41c-5.602 0-10.143 4.541-10.143 10.144v34.272h61.429V14.839zM13.267 49.111v74.775a4.984 4.984 0 004.983 4.984h51.462a4.984 4.984 0 004.984-4.984V49.111H13.267z" fill="#ffcb6c"/><path d="M62.72 45.772H47.515a1.818 1.818 0 010-3.636H62.72a1.818 1.818 0 010 3.636M62.72 56.909H47.515a1.818 1.818 0 010-3.636H62.72a1.818 1.818 0 010 3.636" fill="#ff8b62"/><path d="M71.168 49.487H11.774a.376.376 0 110-.753h59.394a.376.376 0 110 .753M54.272 68.657h-41.28a5.436 5.436 0 00-5.437 5.435v50.34a4.438 4.438 0 004.438 4.438h43.278a4.437 4.437 0 004.437-4.438v-50.34a5.435 5.435 0 00-5.436-5.435" fill="#18154d"/><path d="M54.677 74.093a5.436 5.436 0 00-5.436-5.436H7.96a5.436 5.436 0 00-5.436 5.436v6.923h52.153v-6.923z" fill="#ff8b62"/><path d="M2.524 81.016v43.417a4.438 4.438 0 004.437 4.437H50.24a4.438 4.438 0 004.437-4.437V81.016H2.524z" fill="#ff8b62"/><path d="M34.7 77.208H21.16a1.617 1.617 0 110-3.237H34.7a1.618 1.618 0 010 3.237" fill="#ffcb6c"/><path d="M27.595 88.889c-6.941 0-12.762 4.786-14.35 11.237h-1.438c-.933 0-1.689.756-1.689 1.689v3.706c0 .933.756 1.689 1.689 1.689h1.438c1.588 6.452 7.409 11.237 14.35 11.237 8.162 0 14.779-6.616 14.779-14.779s-6.617-14.779-14.779-14.779" fill="#fff"/><path d="M36.318 103.668a8.723 8.723 0 11-17.447 0 8.723 8.723 0 018.724-8.723 8.722 8.722 0 018.723 8.723" fill="#ffcb6c"/><path d="M49.559 75.373a3.136 3.136 0 11-6.272 0 3.136 3.136 0 016.272 0" fill="#fff"/><path d="M53.349 82.844H2.398a.376.376 0 110-.753h50.951a.376.376 0 110 .753M126.691 80.562l-19.029-37.718a10.46 10.46 0 00-9.384-5.776c-5.796 0-10.511 4.716-10.511 10.512V63.1h-.012v65.498h3.79V63.1h-.011V47.58a6.751 6.751 0 016.744-6.745 6.71 6.71 0 016.021 3.706l19.029 37.717c3.129 6.203 3.649 13.534 1.425 20.115l3.569 1.206c2.544-7.53 1.95-15.921-1.631-23.017" fill="#18154d"/><path d="M84.01 122.884h3.746v-9.626h3.789v9.626h3.745a5.715 5.715 0 015.715 5.714H78.296a5.714 5.714 0 015.714-5.714" fill="#4f8af7"/><path d="M131.544 100.953a4.857 4.857 0 11-9.713 0 4.857 4.857 0 019.713 0" fill="#18154d"/><path d="M102.809 119.635v-20.6c0-6.035 4.893-10.928 10.928-10.928a10.93 10.93 0 0110.006 6.53l6.141 13.973c4.14 9.42-2.759 19.988-13.049 19.988h-5.062a8.964 8.964 0 01-8.964-8.963" fill="#4f8af7"/><path d="M118.709 120.649a7.95 7.95 0 11-15.899 0 7.95 7.95 0 0115.899 0M126.688 119.433a.376.376 0 01-.336-.208l-15.93-31.639a.378.378 0 01.674-.339l15.928 31.64a.375.375 0 01-.336.546" fill="#18154d"/></g></svg>