<svg viewBox="0 0 134 134" xmlns="http://www.w3.org/2000/svg" fill-rule="evenodd" clip-rule="evenodd" stroke-linejoin="round" stroke-miterlimit="2"><path d="M68.573 94.953H22.038l-2.151-39.532a5.42 5.42 0 015.421-5.42h39.995a5.42 5.42 0 015.421 5.42l-2.151 39.532z" fill="#4f8af7" fill-rule="nonzero"/><path fill="#4f8af7" d="M11.283 97.513h68.046v13.036H11.283z"/><path d="M78.873 75.528h-3.722a3.712 3.712 0 00-3.712 3.713v31.309h11.147V79.241a3.713 3.713 0 00-3.713-3.713M15.46 75.528h-3.723a3.712 3.712 0 00-3.711 3.713v31.309h11.146V79.241a3.712 3.712 0 00-3.712-3.713" fill="#4f8af7" fill-rule="nonzero"/><path d="M37.267 64.853a2.3 2.3 0 11-4.602 0 2.3 2.3 0 014.602 0M57.946 64.853a2.301 2.301 0 11-4.603 0 2.301 2.301 0 014.603 0M37.267 79.465a2.3 2.3 0 11-4.602 0 2.3 2.3 0 014.602 0M57.946 79.465a2.301 2.301 0 11-4.603 0 2.301 2.301 0 014.603 0" fill="#fff" fill-rule="nonzero"/><path d="M79.329 113.847H11.283a.452.452 0 110-.906h68.046a.452.452 0 010 .906" fill="#18154d" fill-rule="nonzero"/><path d="M14.558 131.185a.453.453 0 01-.399-.665l9.227-17.339a.453.453 0 11.799.426l-9.226 17.339a.454.454 0 01-.401.239M76.053 131.185a.451.451 0 01-.4-.239l-9.227-17.339a.452.452 0 11.799-.426l9.227 17.339a.452.452 0 01-.399.665" fill="#18154d" fill-rule="nonzero"/><path d="M120.263 1.908H71.11l-5.278 31.373h59.708l-5.277-31.373z" fill="#ffcb6c" fill-rule="nonzero"/><path d="M107.841 1.908h-23.43l-5.2 31.373h33.83l-5.2-31.373z" fill="#fcdba7" fill-rule="nonzero"/><path d="M95.686 131.657a.44.44 0 01-.439-.44V33.281a.44.44 0 11.879 0v97.936a.44.44 0 01-.44.44" fill="#18154d" fill-rule="nonzero"/><path d="M101.889 131.657H89.483a.439.439 0 01-.438-.44c0-.243.196-.44.438-.44h12.406a.44.44 0 010 .88" fill="#18154d" fill-rule="nonzero"/><path fill="#ff8b62" d="M105.79 33.282h.88v10.47h-.88z"/><path d="M107.538 43.752a1.308 1.308 0 11-2.617-.001 1.308 1.308 0 012.617.001" fill="#ff8b62" fill-rule="nonzero"/></svg>