<svg viewBox="0 0 134 134" xmlns="http://www.w3.org/2000/svg" fill-rule="evenodd" clip-rule="evenodd" stroke-linejoin="round" stroke-miterlimit="2"><path d="M97.483 59.827S87.006 25.876 113.832 5.548c0 0 5.236 38.98-16.349 54.279" fill="#ff8b62" fill-rule="nonzero"/><path d="M95.408 75.325l-.038-.001a.423.423 0 01-.383-.459c.026-.288 2.702-29.149 12.31-53.97a.422.422 0 11.788.305c-9.565 24.711-12.23 53.453-12.256 53.741a.423.423 0 01-.421.384" fill="#18154d" fill-rule="nonzero"/><path fill="#18154d" d="M85.429 90.095h37.85v20.147h-37.85z"/><path fill="#4f8af7" d="M76.541 90.095h37.85v20.147h-37.85z"/><path fill="#18154d" d="M93.463 90.095h3.934v6.925h-3.934zM78.982 110.837h37.85v20.147h-37.85z"/><path fill="#4f8af7" d="M70.094 110.837h37.85v20.147h-37.85z"/><path fill="#18154d" d="M87.016 110.837h3.934v6.925h-3.934z"/><path d="M59.726 127.956a.526.526 0 01-.124-.015l-21.344-5.379-23.264 5.381a.505.505 0 01-.527-.781l7.559-10.816a.505.505 0 11.827.579l-6.807 9.739 22.104-5.113a.523.523 0 01.236.002l21.463 5.409a.502.502 0 01.365.612.503.503 0 01-.488.382" fill="#18154d" fill-rule="nonzero"/><path d="M47.455 84.22c-.682-5.365 1.474-10.383 5.225-13.328-1.567-9.749-9.787-16.88-19.396-17.317l-6.761-36.756-.121-7.621 4.138-.526.192 1.517c.041.316.329.54.645.5l1.061-.136a.574.574 0 00.499-.644l-.606-4.775a.576.576 0 00-.645-.499l-1.062.134a.579.579 0 00-.499.645l.179 1.401-3.932.5-.074-4.734-3.023.384-3.021.385 1.112 4.601-3.932.499-.177-1.4a.578.578 0 00-.646-.499l-1.06.134a.576.576 0 00-.499.645l.606 4.776c.04.315.328.539.645.499l1.061-.136a.575.575 0 00.499-.644l-.192-1.517 4.137-.526 1.79 7.41 2.648 37.278c-9.194 2.826-15.369 11.786-14.445 21.618 4.367 1.913 7.71 6.233 8.392 11.596.931 7.322-3.422 14.001-9.907 15.637l.432 3.391c1.778 13.993 14.563 23.895 28.556 22.116 13.993-1.778 23.894-14.563 22.116-28.556l-.432-3.392c-6.686.038-12.573-5.339-13.503-12.66" fill="#ffcb6c" fill-rule="nonzero"/><path d="M35.588 99.831l-3.891.495 5.874 30.658 3.891-.495-1.982-31.153-3.892.495zM34.713 68.491l-8.532-51.578-2.228.284 4.642 52.072 6.118-.778z" fill="#18154d" fill-rule="nonzero"/><path d="M32.096 67.978l4.179 32.879-1.001.128-4.179-32.88 1.001-.127zM34.08 67.726l4.179 32.88-1.002.127-4.179-32.88 1.002-.127zM30.112 68.23l4.179 32.88-1.001.127-4.179-32.879 1.001-.128z" fill="#18154d"/><path d="M14.88 127.956a.504.504 0 01-.413-.794l7.559-10.816a.505.505 0 11.827.579l-7.559 10.816a.505.505 0 01-.414.215M59.726 127.956a.505.505 0 01-.414-.215l-7.559-10.816a.506.506 0 01.124-.704.506.506 0 01.703.125l7.559 10.816a.505.505 0 01-.413.794M105.261 89.977H81.644l-2.535-15.074h28.688l-2.536 15.074z" fill="#18154d" fill-rule="nonzero"/><path d="M99.293 89.977H88.034l-2.497-15.074h16.253l-2.497 15.074z" fill="#454179" fill-rule="nonzero"/><path d="M93.239 65.136s3.232-3.375 4.312-10.203c1.079-6.829-2.922-4.745-4.73-11.967-1.807-7.221-7.079-19.455-11.435-17.836-4.355 1.618 7.099 20.091 3.713 27.719-2.291 5.157 4.92 9.923 8.14 12.287" fill="#ffcb6c" fill-rule="nonzero"/><path d="M94.145 75.065a.422.422 0 01-.422-.414c-.002-.122-.315-12.38-5.079-29.035a.424.424 0 01.814-.232c4.794 16.767 5.107 29.127 5.11 29.249a.423.423 0 01-.414.432h-.009z" fill="#18154d" fill-rule="nonzero"/></svg>