<svg xmlns="http://www.w3.org/2000/svg" viewBox="0 0 595.3 841.9"><linearGradient id="a" gradientUnits="userSpaceOnUse" x1="-264.67" y1="547.046" x2="-218.07" y2="547.046" gradientTransform="matrix(-12.7743 0 0 12.7743 -2785.675 -6567.154)"><stop offset="0" stop-color="#facb03"/><stop offset=".485" stop-color="#fab205"/><stop offset="1" stop-color="#ef8731"/></linearGradient><path fill="url(#a)" d="M297.6 718.6c164.8 0 297.6-132.9 297.6-297.6s-134-297.7-297.6-297.7C132.9 123.3 0 256.2 0 420.9c0 163.6 132.9 297.7 297.6 297.7zm0-544.2c135.4 0 246.5 109.9 246.5 246.5 0 135.4-109.9 246.5-246.5 246.5S51.1 556.4 51.1 420.9c0-136.6 109.9-246.5 246.5-246.5z"/><g><path fill="#0189F6" d="M364.3 484.9c44.9 3.6 88.9 10.7 130.2 29.8 3.2 1.5 6.4 3.1 9.5 4.9 2.9 1.7 5.1 4.3 8.2 5.5-.4 3.1-1.9 5.3-3 7.7-8.7 18.7-18.9 36.4-32.2 52.3-4.5 5.4-8.7 11.1-14 15.8-4.1-2.7-8.2-5.4-12.3-8-1.9-1.2-3.8-2-5.8 0-2.1 2-1.7 4.1-.5 6.3 2.3 4.2 5.4 7.8 8.2 11.7-15.9 16.3-35 27.9-55.1 38.3-22 11.4-45.3 18.4-69.7 21.8-41.9 5.7-82.6.8-121.4-15.7-11.7-5-23.6-10.6-34-18.3 3.4-6.5 6.8-13 10.2-19.6 1.3-2.5 1.9-5.1-.4-7.2-2.4-2.2-4.9-1-7.1.7-6.3 4.9-12.1 10.3-17.6 16-11.4-8.9-22.5-18.3-32.3-28.9-11.4-12.4-21.3-26-30.1-40.3-1.2-1.9-2-4.1-3-6.1.5-2.1 2.4-2.6 3.7-3.4 12.7-8.1 26.1-14.6 39.6-21.2 33.6-16.4 69.2-25.9 105.7-32.7.6 5.3 0 10.5-.4 15.7-.6 8-1.5 15.8 3.1 23.3 6.1 9.9 14.7 17.1 24.3 22.8 13.7 8.2 29.2 9.6 44.8 7.4 14.3-2 25.2-10.6 34.9-20.3 7.9-7.8 15.6-15.9 14.1-29.4-1.2-9.3 1.4-19.2 2.4-28.9z"/><path fill="#FDA484" d="M364.3 484.9c-1 9.7-3.6 19.5-2.5 28.9 1.6 13.5-6.1 21.6-14.1 29.4-9.8 9.6-20.6 18.3-34.9 20.3-15.7 2.1-31.1.7-44.8-7.4-9.6-5.7-18.3-12.9-24.3-22.8-4.6-7.5-3.8-15.3-3.1-23.3.4-5.2 1-10.4.4-15.7.6-2.8-.5-5.7.7-8.5 2.5 0 5 .3 7.4-.2 18.7-3.6 36-10.6 52-20.9 2.3-1.5 4-3.3 2.7-6-1.1-2.4-3.4-2.4-6-1.9-11.3 2.2-22.7 4.3-34.2 3.9-6.4-.2-12.7-1-19-1.6-1.6 2.4.3 5.3-1.8 7.2.5-6.6-4.2-7.7-9.1-9.4-17.9-6.4-31.2-17.8-34.4-39.4-1.7-11.6 1.1-22.7 1.6-34 .5-12.3 2.2-24.5 3.3-36.8 1.4-15.5 2.9-31 4.3-46.4.2-2.6.2-5.2.3-7.9 3.3-2.4 5.2-5.7 5.3-9.8.1-3.6.6-7.1.9-10.6 1.1-10.9 3.8-13.1 14.7-11.4.6.1 1.2.3 1.8.4 11 2.4 22.2 4 33.5 3.2 9.6-.7 19.2-3.1 25.8-10 13.7-14.3 30.3-21.8 49.6-24.2 11.6-1.4 16 2 18.9 13.2 4.9 18.9 4 37.9 1.9 57-1 9.2-2.6 18.3-2.2 27.6.5 10.5 7.4 17.4 16.5 16.2 4.1-.6 6.6-3.8 10-5.6 7.6 1.6 14.6 4.7 19.3 11 6.9 9.3 10.2 19.6 6.4 31.3-3.5 10.9-10.7 17.4-21.9 19.4-5.8 1-11.3-.1-16.8-2.2-2.5 5.1-1.6 10.6-2.1 15.7-1.7 16.5-2.7 33.2-4.1 49.7-.9 7.2-2 14.4-2 21.6zm-96.6-177.7c.1-3.7-1.2-5.7-3.2-5.8-2.4-.2-3.5 1.3-4.1 3.5-3.7 12.2-7.2 24.6-13.2 35.9-2.8 5.2-2.3 9.6 1.5 13.8 2.9 3.3 6.8 5.2 11 4.9 4.7-.3 7.6-3.7 9.7-7.7.8-1.6.6-3.3-.8-4.7-1.5-1.6-3.1-1.1-4.6-.2-.8.5-1.5 1.1-2.2 1.7-1.9 1.6-3.9 2.4-6.3.8-2.5-1.7-1.5-3.7-.7-5.7 2.4-6.3 5-12.6 7.3-18.9 2.1-6.2 4-12.4 5.6-17.6zm57.9-26.2c2.6 0 5.3 0 5.9-3.2.7-3.6-2.3-4.2-4.8-4.9-.6-.2-1.2-.2-1.8-.3-8.1-1.1-16.1-2-24.2-3.2-2.8-.4-5.1-.1-5.7 2.9-.6 3.1 1.4 4.4 4.2 4.9 8.8 1.2 17.6 2.5 26.4 3.8zm-48.2 110.1c6.4.1 12.6-4.5 15.5-11 1.1-2.5.8-4.7-1.4-6-2.3-1.4-4.4-.2-5.8 2-4.2 6.4-5.4 6.9-12.4 4.7-2.6-.8-4.7-.6-5.8 2-1.1 2.6 0 4.8 2.4 6.2 2.4 1.4 5.2 1.7 7.5 2.1zm40.2-79.6c3.4.1 4.7-1.8 3.6-5.3-2.8-9.3-13.4-15.4-23-13.2-2.2.5-4.3 1.8-4.1 4.3.2 2.6 2.5 3.4 4.8 3 7.3-1.1 12.2 1.7 15 8.5.7 1.7 1.9 2.8 3.7 2.7zm-84.6-26c-3.6-.5-6.9.7-9.8 3.4-2 1.9-2.5 3.9-.9 6.1 1.6 2.2 3.6 1.5 5.3.1 2.2-1.8 4.6-1.7 7-1.4 2.5.4 4.2 2.4 6.2 3.8 1.8 1.2 3.9 1.4 5.6 0 1.5-1.2 1.6-3.5.3-4.6-3.9-3.2-7.1-8.1-13.7-7.4zm-4.4-10.3c5.2-1.2 11-.8 16.6-1.1 1.2-.1 2.5-.5 3.5-1.1 1.4-.8 2.4-2.2 1.8-3.9-.6-1.6-1.9-3.1-3.8-2.8-6.8 1.3-13.8-.1-20.7 1.5-1.8.4-3.3.8-3.5 2.9-.2 2.3 1 3.5 3 4 .9.3 1.8.3 3.1.5zm80.1 42.6c0-4.7-2.2-7.2-6.4-7.3-4.4-.1-6.7 2.6-6.6 7.5.1 4.8 2.2 7.3 6.4 7.3 4.3.1 6.6-2.5 6.6-7.5zm-83.6-7.8c.1 3.9 2.6 6.6 5.4 6.7 3 .1 5.7-2.8 5.7-6.1 0-3.4-2.5-5.9-5.9-5.6-3.4.3-5 2.4-5.2 5z"/><path fill="#747474" d="M385.2 338.4c-3.3 1.9-5.9 5.1-10 5.6-9 1.2-16-5.6-16.5-16.2-.4-9.3 1.2-18.4 2.2-27.6 2.1-19.1 3-38.1-1.9-57-2.9-11.2-7.4-14.6-18.9-13.2-19.2 2.3-35.9 9.9-49.6 24.2-6.6 6.9-16.2 9.3-25.8 10-11.3.8-22.5-.9-33.5-3.2-.6-.1-1.2-.3-1.8-.4-10.9-1.7-13.5.5-14.7 11.4-.4 3.5-.8 7-.9 10.6-.1 4.1-2 7.4-5.3 9.8-9.8 1-19.5.2-28.7-2.9-16.5-5.7-22.8-25.3-13.3-40.3 3.1-4.9 7.4-9 9.6-14.5 1.2 0 2.5 0 3.7-.1 3.3-.3 5-3 2.9-5.4-5.8-6.6-7-15-9.2-22.9-2.2-8.1-2.9-16.5 2.8-23.5 6.8-8.5 16-13.4 26.8-15.2 9-1.5 18.1-1.9 27.2-.8 9 1 17.7 3.2 26.6 7-1.3.8-1.9 1.3-2.6 1.6-7.9 3.2-15.7 6.4-23.6 9.6-3.2 1.3-6.4 3.2-5.1 7 1.5 4.2 5 2.7 8.2 1.5 9.6-3.4 18.6-8.2 27.7-12.7 29.3-14.6 59.8-20.8 92.5-16 11.9 1.7 17.6 9.1 15.2 21-.7 3.3-1.5 6.6-2.1 9.9-.3 1.9 0 3.8 2 4.7 2.2 1 3.7-.5 4.5-2.1 1.1-2 2.7-2.7 4.7-3.2 7.2-1.9 14.5-2.9 22-2.5 17.7.9 29.9 11.6 33.8 28.8 2.9 12.5 1.4 24.6-1.9 36.5-6.2 22.6-17.7 42.3-33 59.9-3.4 4-8.9 7.1-8.2 13.8-1.8 2.3-3.8 4.6-5.8 6.8z"/><path fill="#C5C8CC" d="M391.1 331.7c-.7-6.6 4.8-9.8 8.2-13.8 15.3-17.7 26.8-37.4 33-59.9 3.3-12 4.8-24 1.9-36.5-4-17.2-16.1-27.9-33.8-28.8-7.5-.4-14.8.6-22 2.5-2 .5-3.7 1.2-4.7 3.2-.9 1.6-2.3 3.1-4.5 2.1-2-.9-2.3-2.8-2-4.7.6-3.3 1.5-6.6 2.1-9.9 2.4-12-3.3-19.3-15.2-21-32.6-4.8-63.2 1.4-92.5 16-9.1 4.5-18 9.3-27.7 12.7-3.2 1.1-6.8 2.6-8.2-1.5-1.3-3.7 1.9-5.7 5.1-7 7.9-3.2 15.7-6.4 23.6-9.6.7-.3 1.3-.8 2.6-1.6-9-3.8-17.6-6-26.6-7-9.1-1-18.2-.7-27.2.8-10.8 1.8-20 6.7-26.8 15.2-5.6 7-4.9 15.4-2.8 23.5 2.2 8 3.4 16.3 9.2 22.9 2.1 2.4.4 5.1-2.9 5.4-1.2.1-2.5.1-3.7.1-5-8.7-8.2-18.2-10.5-28-4.5-19.2 2-29.9 17-39.9 8.9-6 19.1-7.5 29.4-8.2 16.2-1.1 32.1.9 47.1 7.3 8.3 3.5 15.6.7 23.1-2.1 12.8-4.8 25.8-7.7 39.6-8.2 9.2-.3 18.4-1.8 27.6 0 5.2 1 10.6 1.4 15.5 4.3 7.9 4.7 12.6 11.2 12.2 20.7 0 1.2.1 2.5.2 3.7 0 .3.3.5.6 1 3.7.7 7.5-.6 11.2-1.2 23.2-3.5 47.2 9.7 52.7 33.8 4 17.5 3.4 34.6-3.9 51.9-8.4 19.8-19.4 37.8-32.5 54.6-1.9 2.4-4.3 4.5-6.4 6.7-2.5 2.2-5.1 2.4-8 .5z"/><path fill="#DD6942" d="M242.6 466.3c2.1-1.9.2-4.8 1.8-7.2 6.3.5 12.7 1.3 19 1.6 11.6.4 22.9-1.7 34.2-3.9 2.6-.5 4.8-.5 6 1.9 1.3 2.7-.4 4.5-2.7 6-16 10.3-33.3 17.3-52 20.9-2.4.5-4.9.1-7.4.2 0-.9.1-1.8.1-2.8 1.4-1.4 1.3-3 .4-4.6.3-4 .4-8 .6-12.1z"/><path fill="#2747A0" d="M157.3 626.9c5.5-5.7 11.3-11.1 17.6-16 2.2-1.7 4.7-2.9 7.1-.7 2.3 2.1 1.7 4.7.4 7.2-3.4 6.5-6.8 13.1-10.2 19.6-5.3-2.7-10.4-6-14.9-10.1zM452.5 611c-2.8-3.8-6-7.4-8.2-11.7-1.2-2.2-1.5-4.2.5-6.3 2-2 4-1.2 5.8 0 4.2 2.6 8.2 5.3 12.3 8-2.9 3.9-6.4 7.2-10.4 10z"/><path fill="#FDA484" d="M242.1 478.4c.9 1.6 1 3.2-.4 4.6-.9-1.6-.9-3.1.4-4.6z"/><path fill="#DD6942" d="M267.7 307.2c-1.7 5.2-3.5 11.4-5.7 17.5-2.3 6.4-4.9 12.6-7.3 18.9-.8 2-1.7 4 .7 5.7 2.4 1.6 4.3.8 6.3-.8.7-.6 1.4-1.2 2.2-1.7 1.5-.9 3.1-1.4 4.6.2 1.4 1.4 1.6 3.1.8 4.7-2 4-5 7.4-9.7 7.7-4.2.3-8.1-1.5-11-4.9-3.8-4.3-4.3-8.6-1.5-13.8 6.1-11.3 9.5-23.7 13.2-35.9.7-2.2 1.7-3.6 4.1-3.5 2.1.2 3.4 2.2 3.3 5.9z"/><path fill="#747474" d="M325.6 281c-8.8-1.3-17.6-2.5-26.4-3.8-2.8-.4-4.8-1.8-4.2-4.9.6-3.1 3-3.3 5.7-2.9 8 1.2 16.1 2.1 24.2 3.2l1.8.3c2.6.7 5.5 1.3 4.8 4.9-.6 3.2-3.3 3.2-5.9 3.2z"/><path fill="#DD6942" d="M277.4 391.1c-2.2-.4-5-.7-7.5-2.1-2.4-1.4-3.4-3.6-2.4-6.2s3.1-2.8 5.8-2c7 2.2 8.2 1.6 12.4-4.7 1.5-2.2 3.5-3.4 5.8-2 2.2 1.3 2.5 3.5 1.4 6-2.9 6.5-9.1 11.1-15.5 11zM317.6 311.5c-1.8.1-3-.9-3.7-2.7-2.7-6.8-7.7-9.6-15-8.5-2.4.4-4.6-.4-4.8-3-.2-2.4 1.8-3.8 4.1-4.3 9.6-2.2 20.2 3.9 23 13.2 1.1 3.5-.2 5.4-3.6 5.3zM233 285.5c6.6-.7 9.9 4.2 13.8 7.6 1.3 1.1 1.2 3.3-.3 4.6-1.7 1.4-3.8 1.2-5.6 0-2-1.4-3.7-3.4-6.2-3.8-2.4-.4-4.9-.4-7 1.4-1.7 1.3-3.7 2.1-5.3-.1-1.6-2.2-1.1-4.3.9-6.1 2.8-2.9 6.1-4.1 9.7-3.6z"/><path fill="#747474" d="M228.6 275.2c-1.3-.2-2.2-.2-3.1-.4-2-.6-3.2-1.8-3-4 .2-2.2 1.7-2.5 3.5-2.9 6.8-1.5 13.8-.2 20.7-1.5 1.9-.3 3.2 1.2 3.8 2.8.6 1.6-.4 3.1-1.8 3.9-1 .6-2.3 1-3.5 1.1-5.6.2-11.3-.2-16.6 1z"/><path fill="#DD6942" d="M308.7 317.8c0 5-2.3 7.6-6.7 7.5-4.2-.1-6.3-2.5-6.4-7.3-.1-5 2.3-7.6 6.6-7.5 4.2.1 6.4 2.6 6.5 7.3zM225.1 310c.1-2.6 1.8-4.7 5.3-5 3.4-.3 5.9 2.2 5.9 5.6 0 3.3-2.7 6.2-5.7 6.1-2.9-.1-5.4-2.8-5.5-6.7z"/></g></svg>