<svg xmlns="http://www.w3.org/2000/svg" viewBox="0 0 595.3 841.9"><linearGradient id="a" gradientUnits="userSpaceOnUse" x1="-395.863" y1="547.046" x2="-349.263" y2="547.046" gradientTransform="matrix(-12.7743 0 0 12.7743 -4461.568 -6567.154)"><stop offset="0" stop-color="#facb03"/><stop offset=".485" stop-color="#fab205"/><stop offset="1" stop-color="#ef8731"/></linearGradient><path fill="url(#a)" d="M297.6 718.6c164.8 0 297.6-132.9 297.6-297.6s-134-297.7-297.6-297.7C132.9 123.3 0 256.2 0 420.9c0 163.6 132.9 297.7 297.6 297.7zm0-544.2c135.4 0 246.5 109.9 246.5 246.5 0 135.4-109.9 246.5-246.5 246.5S51.1 556.4 51.1 420.9c0-136.6 109.9-246.5 246.5-246.5z"/><g><path fill="#28439B" d="M239.1 467.6c-4.3-1.9-9.1-2.2-13.3-4.4-14.6-7.9-22.2-20.7-26.2-36.1-.7-2.5-1.6-3.9-4.1-4.9-8.7-3.6-12.3-11.7-15.6-19.6-3.7-8.9-3.7-18.3-.4-27.5 7.4-20.3 4.3-17.8-6.3-30.1-5.8-6.7-12-13.1-18.4-19.3-12.1-11.8-19.5-33.9-5.2-54.4 3.8-5.4 9.8-8.3 15.4-11.4 6.8-3.9 10.5-9.6 11-17.3.6-8.3.8-16.7 1.5-25 1.2-15 9.8-24.6 23.7-30 13-5.1 26-4.7 39.1-2.8 8.8 1.3 16.9 5.4 25.1 8.7 22.1 8.9 45 13.8 68.9 12.9 14.3-.5 28.5-.3 41.8 5.8 14.5 6.7 25.2 16.8 29.7 32.9 3.1 11.2 2.7 22.6 3.8 33.9 1.2 11.8 2.1 23.7 9.5 33.8 5.1 7 13 10.7 19.8 15.7 8.1 5.9 16.6 11.3 22.7 19.5 4.2 5.5 5.9 11.8 5.9 18.5.1 8-5.1 12.9-11.3 16.6-7 4.1-14.5 7.6-23 7.2-14.1-.7-26.8 10.3-28.8 25.9-.6 4.8-2 9.4-4.7 13.6-3.6 5.7-9.4 7.9-15.9 6.4-4.7-1.1-9.2-2.8-13.7-4.6v-23.7c-2.2 1.1-2.6 2.6-3.3 3.8-8.1 13.4-17.5 25.9-28.8 36.5-19 17.9-42.5 24.3-68.1 22.7-10.1-1-20.5-1.4-30.8-3.3zm-3.3-196.2h-5.1c-1.9-.1-3 .5-3 2.5-8.4 0-16.9.1-25.3.1-2.4 0-4.9-.2-5.3 3-.3 2.9 1.6 3.7 4.2 4.3 3 .8 5.9 1.6 9 1.3 0 .3.1.6.1 1-1.4 11.3-3 22.6-4.2 33.9-1.5 14-4.6 27.4 3.4 41.5 7.2 12.7 24.5 21.3 37 16.5 5-2 9.9-4.3 14.7-6.6 8.6-4 17.2-4.3 26.3-1.4 9.3 3 18.1 7.2 27.4 10.4 10.2 3.4 19.5 1 26.4-7.2 7.4-8.9 9.4-19.5 10.3-30.6 1.4-17.9-3.3-34.7-8.5-51.4-2.8-9-4.2-18.2-3.9-27.6.6 0 1.2-.1 1.8-.1 2.2 0 4.8.4 5.1-2.6.3-2.7-1.4-3.9-4.1-4.7-7.5-2.2-14.7-5-22.2-7.3-2.9-.9-4.7-2-4.1-5.4.3-2.2-.3-4.2-3-4.5-2.5-.3-3.6 1.3-4.3 3.5-1.1 3.4-2.9 6.4-6.1 8.2-3.4 2-6.8 3.9-10.2 5.8-10 5.2-20.8 8.8-31.6 12-8.1 2.2-16.4 4.3-24.8 5.4zm167.1 90.1c.1-13.6-8.8-23.9-19.3-24-5-.1-7.4 1.5-8.7 6.2-.8 2.8-1.2 5.7-1.7 8.6-2.1 11.5-1.4 22.7 3.9 33.3 1.5 3 4.3 3.9 7 1.9 1.2-.9 2.5-1.4 3.8-2.2 9.7-5.7 15.1-14 15-23.8zm-140.5 40.9c9.2 0 16.9-4.8 19.5-12.2.9-2.7 2.1-6.2-1.4-7.7-3.5-1.4-4.7 1.7-5.6 4.4-1.2 3.5-3.6 5.6-7.1 7.2-4.9 2.2-9.2.3-13.6-1.1-2.8-1-4.9-1.2-6.2 1.7-1.4 3.2 1.2 4.7 3.5 5.5 3.6 1.2 7.4 2.6 10.9 2.2z"/><path fill="#747474" d="M362.6 497.3c24 5.5 47.1 13.8 69.6 23.7 23.2 10.2 44.6 23.6 65.6 37.6 2.5 1.7 3.1 3.3 1.1 6-13.9 18.3-28.8 35.7-47 50-6.2 4.8-11.9 10.2-18.9 14-4.4-4.4-10-7.5-14-12.4-1.4-1.8-3.5-3-5.4-4.4-1.6-1.2-3.5-1.7-5.3-.6-1.7 1-2 2.7-1.9 4.6.1 2.9 1.3 5.3 2.7 7.8 2.7 4.8 6.1 9.3 7.9 14.5-1.1 1.5-2.9 1.9-4.4 2.7-38.6 21.8-80.5 30.1-124.4 28.6-31.2-1-61.1-8.2-89.7-20.8-3.3-1.4-6.2-3.7-9.3-5.5.4-2.6.5-5.2 1.2-7.7.9-3.2.6-6.1-2.4-7.5-3-1.3-6.1-.9-8.7 1.9-1.6 1.8-2.8 4.1-5.5 4.6-1.7.4-2.7-.9-3.9-1.6-19.1-11.4-35.7-25.9-50.9-42-7.2-7.6-14.1-15.6-20.1-24.7 5-5.4 10.2-10.7 16-15.2 8.4-6.6 17.5-12.3 26.2-18.5 15.6-11.1 33-18.2 50.7-25.2 13.6-5.4 27.4-9.8 41.7-12.4.8-.2 1.7-.2 2.6-.2-1.5 16.7 5.5 30 16.5 41.7 10.5 11.2 24.3 15 39 16.4 13.8 1.3 27-1.6 40-5.6 9.7-2.9 17.7-8.4 22.6-18 4.9-10 7.4-20.6 8.4-31.8z"/><path fill="#E49478" d="M362.6 497.3c-1 11.1-3.5 21.8-8.7 31.9-4.9 9.5-12.9 15-22.6 18-13 3.9-26.2 6.9-40 5.6-14.7-1.4-28.5-5.1-39-16.4-11-11.7-17.9-25.1-16.5-41.7 3.2-3.2 1.3-7.4 2.1-11.1 1.2-5.1.8-10.6 1.1-15.9 10.2 1.9 20.6 2.2 30.9 2.9 25.6 1.6 49.1-4.8 68.1-22.7 11.3-10.6 20.7-23.1 28.8-36.5.7-1.2 1.1-2.7 3.3-3.8v23.7c-2 3.1-1.4 6.8-1.5 10.1-.5 11.5-1.9 22.8-3 34.2-.5 5.4-1.7 10.8-2.9 16.2-.2 1.8-.3 3.6-.1 5.5z"/><path fill="#3A3A3A" d="M416.9 638c-1.8-5.3-5.2-9.8-7.9-14.5-1.4-2.4-2.6-4.9-2.7-7.8-.1-1.8.2-3.6 1.9-4.6 1.9-1 3.7-.6 5.3.6 1.9 1.4 4 2.6 5.4 4.4 4 4.9 9.6 8 14 12.4-4.9 3.8-10.3 7.1-16 9.5zM173.7 634.5c2.7-.5 3.9-2.9 5.5-4.6 2.5-2.8 5.7-3.2 8.7-1.9 3 1.3 3.3 4.3 2.4 7.5-.7 2.5-.8 5.1-1.2 7.7-5.5-2.3-11-4.7-15.4-8.7z"/><path fill="#E49478" d="M339.3 260.9c-.3 9.4 1.1 18.6 3.9 27.6 5.2 16.7 10 33.6 8.5 51.4-.9 11.1-2.9 21.7-10.3 30.6-6.8 8.2-16.2 10.7-26.4 7.2-9.2-3.1-18-7.4-27.4-10.4-9.1-2.9-17.7-2.6-26.3 1.4-4.9 2.3-9.7 4.6-14.7 6.6-12.5 4.9-29.8-3.8-37-16.5-8-14.1-4.9-27.5-3.4-41.5 1.2-11.3 2.8-22.6 4.2-33.9l.6-.9h.1c3.5 0 7 .1 10.5.1.1.3.2.7.3 1-.2.2-.3.4-.3.7-1.6.7-2 2.1-1.5 3.6.7 2 2.6 2.3 4.3 2.3 6.7-.1 13.4-.4 20-.5 2.5-.1 5.4.1 5.3-3.5 0-3.4-2.6-3.7-5.3-3.6h-1.7c-4.6-.7-9.4.8-14-.8 3.7-1.9 8-.9 11.8-2.2 9.2-3.1 18.7-4.5 27.9-8.2 13.8-5.6 28.1-10 40.3-19.1 1.6-1.2 3.4-1 5-.5 8.6 3.2 17.1 6.2 25.6 9.1zM250 354.4c-.4-2.8-.6-5.6.2-8.2 4.3-13.2 11.5-24.5 22.1-33.6 2-1.7 4.1-3.5 2-6.1-2.2-2.8-4.8-1.3-6.9.5-13.2 11.2-22.4 25.1-25.5 42.3-1.3 7.3 0 12.7 8.1 13.5 2.8.3 5.5.7 8.2.9 2.7.2 5.9.4 6.1-3.2.2-3.6-2.9-4.5-5.8-4.6-2.6-.2-5.4-.8-8.5-1.5zm69.5-57.4c1.2 0 2.3-.1 3.5 0 2.4.1 4.6-.3 4.8-3.1.1-3-2-3.7-4.6-4-7.5-.9-15-1.9-22.5-3-2.8-.4-5.6-.5-6.1 3.1s2.3 4.6 5 4.7c6.6.1 13.2 1.9 19.9 2.3zm-86.4.8c-3.2-.4-6.2.2-8.9 1.8-2 1.2-3.1 3.3-2.1 5.6 1 2.4 2.9 2.1 5.1 1.3 4.7-1.6 9.4-1.9 13.2 2.4 1.1 1.3 2.5 2.8 4.4 1.2 1.9-1.5 2.1-3.5.8-5.5-3-4.4-6.8-7.6-12.5-6.8zm71.2 7.8c-2.8-.1-5.6.3-7.8 2.2-1.8 1.4-2.7 3.3-1.3 5.3 1.3 1.9 3.5 1.6 5 .2 2.5-2.2 4.8-1.4 7.2 0 1.8 1.1 3.2 2.5 4.3 4.3 1.2 2 3.2 2.8 5.2 1.8 2.4-1.2 1.9-3.6.7-5.3-3.1-4.8-7-8.6-13.3-8.5zm-67.7 9.6c-.1-3.1-2.2-5.1-5.2-5.2-3.1 0-5.4 2.5-5.3 6.1.1 3.4 1.9 5.4 5.4 5.4 3.1 0 5.2-2.7 5.1-6.3zm71.2 9.6c0-3.4-3-6.1-5.8-5.9-3.5.3-4.5 2.9-4.7 5.8-.3 3.8 2.4 4.7 5.4 4.7 3.4 0 4.8-2.2 5.1-4.6z"/><path fill="#0786F1" d="M339.3 260.9c-8.5-3-17-6-25.5-8.8-1.6-.5-3.4-.7-5 .5-12.1 9.1-26.5 13.4-40.3 19.1-9.1 3.7-18.7 5.2-27.9 8.2-3.8 1.3-8.1.3-11.8 2.2-1.2-.1-2.4-.2-3.7-.4-4.7-1.1-9.4-1.3-14 .3v.7h-.1c-.2-.1-.5-.1-.7-.1-3.1.3-6-.5-9-1.3-2.7-.7-4.5-1.4-4.2-4.3.3-3.2 2.9-3 5.3-3 8.4 0 16.9-.1 25.3-.1 2.9-.2 5.9.3 8-2.5 8.5-1.1 16.7-3.2 24.9-5.6 10.8-3.2 21.5-6.7 31.6-12 3.5-1.8 6.8-3.8 10.2-5.8 3.2-1.8 5-4.8 6.1-8.2.7-2.2 1.7-3.8 4.3-3.5 2.7.3 3.3 2.2 3 4.5-.5 3.4 1.2 4.5 4.1 5.4 7.4 2.3 14.7 5.1 22.2 7.3 2.7.8 4.4 2 4.1 4.7-.4 3.1-3 2.7-5.1 2.6-.6.1-1.2.1-1.8.1z"/><path fill="#E49478" d="M402.9 361.5c.1 9.8-5.3 18.1-15 23.7-1.2.7-2.6 1.3-3.8 2.2-2.7 2-5.5 1.1-7-1.9-5.3-10.6-6-21.8-3.9-33.3.5-2.9.9-5.8 1.7-8.6 1.3-4.7 3.7-6.2 8.7-6.2 10.5.2 19.4 10.5 19.3 24.1zM262.4 402.4c-3.5.4-7.2-1-10.9-2.3-2.3-.8-4.9-2.3-3.5-5.5 1.3-2.8 3.4-2.6 6.2-1.7 4.3 1.5 8.7 3.3 13.6 1.1 3.4-1.5 5.9-3.7 7.1-7.2.9-2.8 2.1-5.9 5.6-4.4 3.5 1.5 2.4 5 1.4 7.7-2.6 7.5-10.3 12.3-19.5 12.3z"/><path fill="#0F5BBC" d="M235.8 271.4c-2.1 2.8-5.1 2.3-8 2.5-.1-2.1 1.1-2.6 3-2.5h5z"/><path fill="#3F76B3" d="M210.3 282.6c.3 0 .5 0 .7.1l-.6.9c0-.3 0-.6-.1-1z"/><path fill="#DC6942" d="M250 354.4c3 .6 5.8 1.3 8.8 1.4 2.9.1 6 1 5.8 4.6-.2 3.7-3.4 3.4-6.1 3.2-2.8-.2-5.5-.6-8.2-.9-8.1-.8-9.4-6.2-8.1-13.5 3.1-17.2 12.2-31.1 25.5-42.3 2.1-1.8 4.7-3.3 6.9-.5 2.1 2.6 0 4.4-2 6.1-10.6 9-17.8 20.4-22.1 33.6-1.1 2.7-.9 5.5-.5 8.3z"/><path fill="#28439B" d="M319.5 297c-6.7-.4-13.2-2.2-20-2.4-2.7-.1-5.5-1.1-5-4.7s3.3-3.5 6.1-3.1c7.5 1 15 2.1 22.5 3 2.6.3 4.8 1.1 4.6 4-.1 2.9-2.4 3.3-4.8 3.1-1.1 0-2.3.1-3.4.1z"/><path fill="#DC6942" d="M233.1 297.8c5.8-.8 9.6 2.3 12.5 6.9 1.3 1.9 1.1 3.9-.8 5.5-1.9 1.6-3.3.2-4.4-1.2-3.8-4.4-8.5-4.1-13.2-2.4-2.3.8-4.1 1.1-5.1-1.3-1-2.3.1-4.4 2.1-5.6 2.6-1.7 5.6-2.3 8.9-1.9zM304.3 305.6c6.2 0 10.2 3.7 13.3 8.5 1.2 1.7 1.6 4.1-.7 5.3-2 1.1-4 .3-5.2-1.8-1.1-1.8-2.4-3.2-4.3-4.3-2.4-1.4-4.7-2.2-7.2 0-1.6 1.4-3.7 1.6-5-.2-1.4-2-.5-3.9 1.3-5.3 2.3-1.9 5-2.3 7.8-2.2z"/><path fill="#28439B" d="M242.8 282.9h1.7c2.7-.1 5.3.1 5.3 3.6 0 3.6-2.8 3.4-5.3 3.5-6.7.2-13.4.4-20 .5-1.7 0-3.6-.3-4.3-2.3-.5-1.5-.2-2.9 1.5-3.6 3.4 0 6.7.2 10.1 0 3.4-.2 6.9 1 10.2-.9.2-.3.5-.6.8-.8z"/><path fill="#DC6942" d="M236.6 315.2c.1 3.6-2 6.3-5.1 6.3-3.5 0-5.3-1.9-5.4-5.4-.1-3.6 2.2-6.1 5.3-6.1 3 0 5.1 2.1 5.2 5.2zM307.8 324.8c-.3 2.4-1.7 4.6-5.1 4.6-3 0-5.7-.8-5.4-4.7.2-2.9 1.2-5.5 4.7-5.8 2.9-.2 5.8 2.5 5.8 5.9z"/><path fill="#988BB2" d="M242.8 282.9c-.3.2-.6.5-1 .7-6.6.1-13.3.2-19.9.2-.1-.3-.2-.7-.3-1 .9-.2 2 .2 2.5-1 .3-.1.7-.1 1-.2 1.2.1 2.4.2 3.7.4 4.6 1.7 9.4.2 14 .9z"/><path fill="#50416B" d="M222 283.8c6.6-.1 13.3-.2 19.9-.2-3.2 1.9-6.8.7-10.2.9-3.3.2-6.7 0-10.1 0 .1-.2.2-.5.4-.7z"/><path fill="#659FDE" d="M224.2 281.9c-.6 1.1-1.7.7-2.5 1-3.5 0-7-.1-10.5-.1v-.7c4.3-.1 8.6-.2 13-.2z"/><path fill="#3F76B3" d="M224.2 281.9c-4.3 0-8.7.1-13 .1 4.7-1.5 9.3-1.4 14-.3-.3.1-.7.1-1 .2z"/></g></svg>