<svg xmlns="http://www.w3.org/2000/svg" viewBox="0 0 595.3 841.9"><linearGradient id="a" gradientUnits="userSpaceOnUse" x1="-527.056" y1="547.046" x2="-480.456" y2="547.046" gradientTransform="matrix(-12.7743 0 0 12.7743 -6137.46 -6567.154)"><stop offset="0" stop-color="#facb03"/><stop offset=".485" stop-color="#fab205"/><stop offset="1" stop-color="#ef8731"/></linearGradient><path fill="url(#a)" d="M297.6 718.6c164.8 0 297.6-132.9 297.6-297.6s-134-297.7-297.6-297.7C132.9 123.3 0 256.2 0 420.9c0 163.6 132.9 297.7 297.6 297.7zm0-544.2c135.4 0 246.5 109.9 246.5 246.5 0 135.4-109.9 246.5-246.5 246.5S51.1 556.4 51.1 420.9c0-136.6 109.9-246.5 246.5-246.5z"/><g><path fill="#FE9F3B" d="M120 524c-4.9-3.8-7.4-9.3-10.2-14.5-4.4-8.2-8.7-16.6-12.2-25.3-3.7-9.2-4.1-19.1-4.3-29.1-.3-16.9 3-33.2 8.5-49 6.1-17.5 14.7-33.7 26.8-47.8 5.6-6.6 11.4-13.2 18.9-17.7 3.5-2.1 2.7-4.5 1.8-7.5-6.1-19.7-7.8-39.9-4.9-60.2 4.4-30.4 17-57.3 37.3-80.3 22.6-25.6 50.7-42.3 83.8-50.1 30.7-7.2 60.8-4.5 89.9 7.9 23.9 10.2 43.3 26.1 58.2 47.2 12.4 17.6 20.5 37.3 24.1 58.6 1.4 7.9 3.1 16 3 24-.1 13.2-.9 26.5-7 38.7-.9 1.9-.7 3.7 1.5 5.4 19.3 14.8 34.2 33.3 44.3 55.4 6.3 13.8 9.6 28.6 12.1 43.4 3.4 20 5 40.3 4 60.6-.5 10.2-1.6 20.3-3.1 30.4-.7 4.9-4.3 4.6-7.5 5.5-19.3-15.5-40.7-26.1-66-28.4-.1 1.4-.3 2-.2 2.6 3.6 18.1 1.7 35.8-4.2 53.2-4.5 13.2-10.2 25.8-19.9 36.2-7.2 7.6-15.7 13.3-26.2 14.6-15.7 1.9-26.9-6.1-36.3-17.6-6.1-7.5-9.6-16.4-13.2-25.2.8-2.8-1.6-4.7-2.1-7.2-1-5.7-.9-11.7-2.2-17.3-3.8-15.8-.4-31 3.1-45.9 3.5-15.5 10.8-29.8 21.3-42.2 1.9-2.2 1.8-4 .5-6.5-3.9-8-7.2-16.3-8.6-25.1-2.1-13.2-3.2-26.6-1.4-40.1 2-15.5 5-30.5 12.2-44.5 1-2 1.7-4-1.3-5.6-11.8-6-19.4-16-25.3-27.4-.9-1.8-2.4-3.4-2-5.8.8-4.1-2.1-5.4-5.1-5.6-10.1-.6-19.7-3.2-29.3-6-11.9-3.4-22.3-9-30.4-18.8-2.8-3.4-5.5-6.8-8.1-10.2-1.6-2.1-3.7-4-6.4-1.1-9 10-21 15.1-33 20.1-2.1.9-5.3-1.1-6.5 1.8-.9 2.2-1.2 4.7-1.3 7.1-.7 18.6-1 37.3-1.8 55.9-.7 15.4-.5 30.9 0 46.3.3 10 .8 20.1 3 29.9 1.3 5.6 2.8 11.4 7.1 15.7 11.4 11.3 25.1 18.1 40.8 21 1.7.3 2.5 1.2 3.6 2.1 0 5.3 0 10.6-.1 15.9-.1 2.8-2 5.6 0 8.4-1.5 1.4-.6 3.4-1.1 5.1-2.4-.1-4.9-.5-7.3-.2-14.2 1.9-28.5 3.3-42.4 7.4-10.4 3.1-20.6 6.4-30.4 11-16.2 8-31.2 18.1-44.5 30.8zm80-267.8c-.3-2-2-1.6-3.3-1.6-1.6 0-2.5.8-2.2 2.4.3 1.8 1.8 1.5 3.1 1.5 1.3-.1 2.5-.4 2.4-2.3z"/><path fill="#216ACC" d="M319.2 555.2c3.6 8.8 7.1 17.7 13.2 25.2 9.3 11.5 20.6 19.5 36.3 17.6 10.6-1.3 19.1-6.9 26.2-14.6 9.7-10.3 15.4-22.9 19.9-36.2 5.9-17.4 7.8-35.1 4.2-53.2-.1-.6.1-1.3.2-2.6 25.2 2.4 46.6 12.9 66 28.4 5.1 5.8 10.9 10.9 15.5 17.2 8.7 11.9 8.9 12.2.8 24-14.2 20.7-31.1 38.8-50.8 54.3-1.1.9-2.4 1.6-3.6 2.4-4-.2-6.3-3.6-9.6-5.1-2.1-1-4.4-1.7-6.1.5-1.4 1.9-2.6 3.9-.7 6.5 1.6 2.2 2.9 4.6 5.2 6.2-22.7 16-47.6 27.3-74.5 34.1-70.7 18.1-136.9 7.3-198.6-31.6-1.4-.9-2.6-1.9-3.9-2.9.6-4.6 4.5-7.3 6.2-11.4.8-2 .9-3.8-.9-5.2-1.9-1.5-3.6-1.4-5.6.3-3.5 2.8-6.4 6.4-10.4 8.6-12.8-8.8-23.7-19.6-34.1-31-6.1-6.6-11.5-13.6-16.9-20.8-1.5-2-1.8-3.6-.8-6.1 5-12 12-22.6 20.8-32 1-1.1 2.7-1.9 2.7-3.9 13.2-12.7 28.2-22.8 44.7-30.5 9.7-4.5 20-7.9 30.4-11 13.9-4.1 28.1-5.5 42.4-7.4 2.4-.3 4.9.1 7.3.2.2 1.6 1.8 2.8 1.2 4.6-2.4 7.3-1.9 15-2.7 22.6-1.2 11.5-.3 22.7 6.5 32.6 5.8 8.3 14.1 13.2 23.2 17.1 15.3 6.4 30.4 10.5 46.3 3.1z"/><path fill="#2848A0" d="M148.4 617.7c4-2.2 6.9-5.7 10.4-8.6 2-1.6 3.7-1.7 5.6-.3 1.8 1.4 1.7 3.2.9 5.2-1.6 4-5.5 6.8-6.2 11.4-4-1.9-7.6-4.5-10.7-7.7zM436 625.9c-2.3-1.6-3.5-4-5.2-6.2-2-2.6-.7-4.6.7-6.5 1.6-2.2 3.9-1.6 6.1-.5 3.3 1.6 5.6 4.9 9.6 5.1-3.4 3.3-7.2 5.8-11.2 8.1z"/><path fill="#FDA583" d="M319.2 555.2c-15.9 7.5-31 3.3-46.1-3.1-9.2-3.9-17.5-8.8-23.2-17.1-6.9-9.9-7.7-21.1-6.5-32.6.8-7.5.2-15.2 2.7-22.6.6-1.8-1-3-1.2-4.6.5-1.7-.4-3.6 1.1-5.1 2.1 1.3 4.1 1.2 6.5.3 10.8-4.4 21.6-8.7 32.4-13 6.2-2.5 12.3-4.9 18.4-7.6 2.4-1 4.8-2.6 4.1-5.8-.7-3.3-3.6-3.3-6.2-3.2-.8 0-1.6 0-2.4.1-15.4 2-30.8 3.6-46.4 2.8-2.4-.1-4.5.4-6.2 2.1-1.1-.9-2-1.8-3.6-2.1-15.7-2.8-29.5-9.7-40.8-21-4.3-4.3-5.9-10.1-7.1-15.7-2.2-9.8-2.7-19.9-3-29.9-.5-15.4-.7-30.9 0-46.3.8-18.6 1.2-37.3 1.8-55.9.1-2.4.4-4.9 1.3-7.1 1.3-2.9 4.4-1 6.5-1.8 12-5 24-10.1 33-20.1 2.7-3 4.8-1 6.4 1.1l8.1 10.2c8 9.8 18.4 15.4 30.4 18.8 9.6 2.8 19.2 5.4 29.3 6 3 .2 5.9 1.5 5.1 5.6-.5 2.4 1 4 2 5.8 5.9 11.4 13.5 21.4 25.3 27.4 3 1.6 2.3 3.6 1.3 5.6-7.2 14-10.1 29-12.2 44.5-1.8 13.5-.6 26.9 1.4 40.1 1.4 8.7 4.7 17.1 8.6 25.1 1.2 2.5 1.3 4.3-.5 6.5-10.4 12.4-17.7 26.7-21.3 42.2-3.4 14.9-6.9 30.2-3.1 45.9 1.3 5.5 1.2 11.5 2.2 17.3.3 2.5 2.8 4.4 1.9 7.2zm-84.9-201.5c4.7-4.7 7.5-9.8 10.4-14.8 3.7-6.4 6-13.3 7.9-20.4.5-2 .7-4.4-2.1-5.2-2.4-.7-4.1.3-5 2.6-.6 1.7-1 3.4-1.7 5.1-4.4 11-8.7 22.1-18.7 29.5-2.7 2-2.4 5.8.4 7.9 3.6 2.6 7.6 4.5 11.9 5.2 5.4.9 11 1.7 15.7-2.5 1.8-1.6 2.3-3.8 1.1-5.7-1.2-2-3.3-2.6-5.5-1.2-4.7 3.3-9.1 1.8-14.4-.5zm8.4-70.7c.4-5-1.1-7-5.7-6.9-7.7 0-15.3 2.5-23.1 2-2.2-.1-3.9 1.7-3.9 4.2.1 2.5 1.6 3.7 4.2 3.5 9.5-.7 19.1 1.6 28.5-2.8zm9.5 108.2c6.9 0 15.6-7.4 18.3-15.1.9-2.7 1.5-5.3-1.7-6.6-3.2-1.3-4.5 1.1-5.5 3.7-2.1 5.5-5.9 9.2-11.9 10.1-2.3.3-4.3 1.3-3.9 3.9.1 2.8 1.9 4.4 4.7 4zm48.2-107.3c-6.3-.4-11.3 1.5-16.3 3.6-2.6 1.1-3.5 3-2.6 5.4 1.1 2.7 3.7 3.3 6.1 2.3 5.5-2.2 11.2-3.5 17.2-3.7 3.1-.1 3.7-1.8 2.9-4.6-1.2-4.8-5.2-2.4-7.3-3zm-6.5 19.4c-2.6.5-6.1.3-8.7 3.1-1.4 1.5-1.6 3.2-.9 4.9.6 1.6 2.3 2.2 3.6 1.5 6.5-3.6 11.4-1.2 15.8 3.7 1.3 1.5 3.1 1.9 4.8.5 1.6-1.4 2.2-3.3.9-5.2-3.6-4.9-8.1-8.6-15.5-8.5zm-75.4-9.7c-3.2-.4-6.1.7-8.5 2.7-2.3 1.9-2.7 4.5-.6 6.8 1.8 2 4 1.8 5.9-.1 2.4-2.5 4.8-2 7.2-.1.9.7 1.6 1.6 2.6 2.2 2 1.2 4.2 2.3 6.1.1 1.9-2.2.7-4.3-.9-6.1-3-3.6-6.7-6-11.8-5.5zm7 25.7c.1-4.3-2.2-7-6.1-7.2-4.1-.2-8.5 4.2-8.4 8.5.1 3.7 3.3 7 6.8 7 4.3-.1 7.7-3.7 7.7-8.3zm65.3 1.6c-3.5.6-5 3.1-4.9 7.1.1 4.4 3.1 7.6 7.1 7.5 3.7-.1 6.8-3.6 6.7-7.5-.1-4-3.8-7.2-8.9-7.1z"/><path fill="#DC6942" d="M246.1 445.9c1.7-1.7 3.8-2.2 6.2-2.1 15.6.8 31-.8 46.4-2.8.8-.1 1.6-.1 2.4-.1 2.7-.1 5.5-.1 6.2 3.2.7 3.2-1.7 4.8-4.1 5.8-6.1 2.6-12.2 5.1-18.4 7.6-10.8 4.3-21.6 8.6-32.4 13-2.3.9-4.4 1-6.5-.3-1.9-2.8 0-5.6 0-8.4.2-5.3.1-10.6.2-15.9z"/><path fill="#FDA583" d="M200 256.2c.1 1.9-1 2.3-2.5 2.3-1.2 0-2.8.3-3.1-1.5-.3-1.6.6-2.4 2.2-2.4 1.4 0 3.1-.5 3.4 1.6z"/><path fill="#DC6942" d="M234.3 353.7c5.2 2.3 9.7 3.8 14.4.6 2.2-1.5 4.3-.8 5.5 1.2 1.2 2 .7 4.1-1.1 5.7-4.7 4.2-10.3 3.4-15.7 2.5-4.3-.7-8.4-2.6-11.9-5.2-2.8-2.1-3.1-5.9-.4-7.9 10-7.5 14.3-18.6 18.7-29.5.7-1.6 1.1-3.4 1.7-5.1.9-2.4 2.6-3.3 5-2.6 2.8.8 2.6 3.3 2.1 5.2-1.9 7.1-4.3 14-7.9 20.4-2.9 4.9-5.7 10-10.4 14.7z"/><path fill="#FE9F3B" d="M242.7 283c-9.4 4.4-19 2.1-28.4 2.7-2.6.2-4.2-1-4.2-3.5-.1-2.4 1.7-4.3 3.9-4.2 7.8.4 15.4-2 23.1-2 4.5.1 6 2 5.6 7z"/><path fill="#DC6942" d="M252.2 391.2c-2.7.4-4.5-1.2-4.9-3.9-.3-2.6 1.6-3.6 3.9-3.9 6.1-.9 9.9-4.6 11.9-10.1 1-2.7 2.3-5 5.5-3.7 3.2 1.2 2.7 3.9 1.7 6.6-2.5 7.6-11.2 15-18.1 15z"/><path fill="#FE9F3B" d="M300.4 283.9c2.1.6 6.1-1.9 7.3 3 .7 2.8.2 4.5-2.9 4.6-5.9.2-11.6 1.4-17.2 3.7-2.4 1-5.1.4-6.1-2.3-.9-2.4 0-4.3 2.6-5.4 5-2 10-4 16.3-3.6z"/><path fill="#DC6942" d="M293.9 303.3c7.4-.1 11.9 3.6 15.5 8.7 1.4 1.9.7 3.8-.9 5.2-1.6 1.4-3.4.9-4.8-.5-4.4-4.9-9.3-7.4-15.8-3.7-1.3.7-3 .1-3.6-1.5-.7-1.8-.5-3.5.9-4.9 2.6-2.9 6.1-2.8 8.7-3.3zM218.5 293.6c5.1-.5 8.8 2 11.9 5.5 1.5 1.8 2.8 3.9.9 6.1-1.9 2.2-4.1 1.1-6.1-.1-.9-.6-1.7-1.5-2.6-2.2-2.4-1.9-4.8-2.4-7.2.1-1.9 2-4.1 2.1-5.9.1-2.1-2.3-1.7-4.9.6-6.8 2.3-2.1 5.2-3.1 8.4-2.7zM225.5 319.3c-.1 4.7-3.4 8.2-7.7 8.3-3.4.1-6.7-3.3-6.8-7-.1-4.2 4.2-8.7 8.4-8.5 3.9.2 6.2 2.9 6.1 7.2zM290.8 320.9c5.1 0 8.8 3.2 8.9 7.1.1 3.8-3 7.3-6.7 7.5-4 .1-7-3.1-7.1-7.5-.1-4 1.4-6.5 4.9-7.1z"/></g></svg>