<svg xmlns="http://www.w3.org/2000/svg" viewBox="0 0 595.3 841.9"><linearGradient id="a" gradientUnits="userSpaceOnUse" x1="-2.284" y1="547.046" x2="44.316" y2="547.046" gradientTransform="matrix(-12.7743 0 0 12.7743 566.11 -6567.154)"><stop offset="0" stop-color="#facb03"/><stop offset=".485" stop-color="#fab205"/><stop offset="1" stop-color="#ef8731"/></linearGradient><path fill="url(#a)" d="M297.6 718.6c164.8 0 297.6-132.9 297.6-297.6s-134-297.7-297.6-297.7C132.9 123.3 0 256.2 0 420.9c0 163.6 132.9 297.7 297.6 297.7zm0-544.2c135.4 0 246.5 109.9 246.5 246.5 0 135.4-109.9 246.5-246.5 246.5S51.1 556.4 51.1 420.9c0-136.6 109.9-246.5 246.5-246.5z"/><g><path fill="#FA8A20" d="M389.4 484.8l1.8.3c.9 2.1 3.1 1.7 4.7 2.1 31.2 8.2 59.9 21.5 86 40.7 1.7 1.2 2.9 3.2 5.4 2.9l1 1c.5 2.2 1.8 3.5 4 3.8 4.7 4.9 9.4 9.9 14.2 14.8 1.4 1.4 1.5 2.6.4 4.3-12 18.3-25.6 35.3-42.3 49.6-1.6.1-2.7-.7-3.9-1.6-10.1-7.3-20.4-14.5-30.6-21.8-2.1-1.5-4.2-1.7-6.2.1-2.2 2-.9 3.9.4 5.6 1.7 2.2 3.7 4.1 5.4 6.3 6.5 8.1 13.2 16 20.6 23.3-16.3 13.6-34.5 23.9-53.8 32.3-26.3 11.4-53.8 17.9-82.6 19.8-49.5 3.3-95.6-7.7-138.9-31.7-.8-.5-1.6-1.1-2.3-1.7 4.7-11.8 11.2-22.7 17-34 1.3-2.4 3.1-5 .2-7.4-3.1-2.5-5.3.2-7.3 1.7-6.7 5.4-13.3 10.9-19.7 16.6-3.6 3.2-8.2 5.4-10.9 9.6-19.4-13.3-35.9-29.6-50.1-48.3-5.3-7-4.7-10.4 1-17.9 20.1-26.1 46.3-44.1 76.1-57.4 20.5-9.2 42.1-14.7 64.3-17.6-1.2 5.7-.6 11.3 0 16.9.5 4.8 1.8 9.2 5.1 12.9 12.4 13.7 27.1 23.4 45.9 25.2 10.9 1 22.3.6 31.3-6.7 10.7-8.6 19.2-18.9 20.8-33.5.6-5.6.2-11.1.7-16.6 2.2.4 4.4.7 6.6 1.1.6 1 1.3 1.4 2.1.3 2.3 0 4.5-.1 6.7.7.6.9 1.3 1.4 2.1.3 1.6.2 3.2.4 4.7.6.6 1 1.2 1.6 2.1.4 1.6.2 3.1.5 4.7.7.6 1 1.2 1.5 2.1.3 1.2.2 2.5.4 3.7.7.6.9 1.2 1.5 2.1.4.9.2 1.8.4 2.8.5 1 .8 1.6 1.5 2.6.4z"/><path fill="#25216F" d="M466.8 438.4c-2.4.9-4.9.5-7.3.4-36-1.3-72.1-2.6-108.1-3.9-1.9-.1-3.9.2-5.8.3-7.6-1-15.2-1.4-22.9-1.3-3.1 0-5.2-.9-5.9-4.4-5.8-29.9 1.4-57.1 16.5-82.8 2.3-3.9 5.2-4.8 9.5-3.5 13.7 4 29.1-5.4 32-19.4 1.6-7.3-2.5-13-10-13.7-6.3-.6-12.1 1.5-16.8 5.5-3.7 3.1-6.9 3.1-10.5.6.2-2.8-.8-5-2.6-7.1-13.2-15.9-21.7-33.5-20-54.9.3-4 1.2-7.1 5.1-9.6 6.7-4.2 13-9.2 19.2-14.1 1.7-1.3 4.6-3.1 2-5.9-2.2-2.4-4.9-2.1-7.4-.3-2.7 2-5.4 4.2-8.2 6.1-11.1 7.6-22 15.6-35.4 19-15 3.8-30.4 3.2-45.6 2.8-2.8-.1-6 0-9.1-1.8 2.7-3.5 6.2-5.9 8-9.5 1.2-2.3 1.8-4.9-.7-6.5-2.2-1.4-4.4-.4-6 1.6l-1.2 1.5c-5.7 7.3-12.5 13.2-21 17-27.3 12.2-54.6-5.8-53.4-35.7.5-13.2 6-24.6 15.2-34 7.9-8.1 17.5-13.7 29-14.6 14.5-1.2 26.6 3.4 34.6 16.3 1.6 2.5 4.1 4.6 6.9 2.6 2.8-1.9 1.7-5.1.2-7.5-2.8-4.2-6-8.1-10.1-11.2-1.2-.9-2.4-1.6-2.5-3.3 31-20 64.6-31.3 101.8-28 45.7 4.1 79 34.7 88.4 79.9 6.4 30.5 2.5 60.3-7.2 89.6-.6 1.8-2 3.5-.5 5.5h-11.7c-2.6 0-5.2-.1-5.1 3.6.1 3.1 2 4.3 4.8 4.3 5.2 0 10.4.9 15.4 2 26.4 5.8 45.8 19.8 53.6 46.8 5.6 19.4 1.6 38-6.3 55.9-1.7 3.9-2.5 7.6-.9 11.7z"/><path fill="#FDA584" d="M337.5 316.2c3.7 2.5 6.9 2.5 10.5-.6 4.7-4 10.4-6.1 16.8-5.5 7.5.7 11.6 6.4 10 13.7-3 14-18.3 23.4-32 19.4-4.2-1.2-7.2-.3-9.5 3.5-15.1 25.7-22.3 52.9-16.5 82.8.7 3.5 2.8 4.4 5.9 4.4 7.7-.1 15.3.3 22.9 1.3.6 14.4 1.1 28.8 1.7 43.2-.5 5.5-.1 11-.7 16.6-1.6 14.6-10.2 24.9-20.8 33.5-9 7.3-20.3 7.8-31.3 6.7-18.8-1.8-33.5-11.6-45.9-25.2-3.4-3.7-4.6-8.1-5.1-12.9-.6-5.6-1.3-11.3 0-16.9.1-2.1.2-4.3.3-6.4 7-1.2 12.9-5.1 19.3-7.9 12.6-5.6 25-11.8 34.8-22.1 2.4-2.5 3.4-4.8 1.1-7.7-1.7-2.2-4.2-1.5-6.4-1.1-11.2 1.9-22.3 4.3-33.5 6-5.5.9-11.4-.5-16.6 2.6-11-2.3-21.9-4.7-31.4-11.3-5-3.5-8.7-8.2-11.5-13.6-.9-1.7-2-3.3-3-4.9-4.7-11.3-3.4-23.3-3.7-35.1-.6-29.7-1-59.3-1.4-89 0-2.3.2-4.6-.7-6.8 0-5.4-.1-10.8-.1-16.2 12.7.9 24.6-1.4 35.5-8.4 1.4-.9 2.7-.7 4.2-.3 18.2 4 36.6 3.4 54.9 1.1 7.6-1 14.8-3.2 22.1-6.7.1 1.6.2 2.4.1 3.2-2 23.3 7.5 42.5 21.8 59.9 2.2 2.7 5 4.5 8.2.7zM240 346.4c-.6-2.9-.3-4.9.1-7.1 1.9-11.4 5.3-22.4 8.6-33.5.8-2.7.8-5-2-6.1-3.2-1.2-4.4 1.4-5.2 3.7-1.5 4.3-2.9 8.6-4.1 13-2.6 9.9-5.8 19.6-5.7 30 0 5.4 2.3 7.7 7.7 7.8 4.1.1 8.1 0 12.2 0 3 0 5.5-.8 5.4-4.1-.1-3.4-2.8-3.9-5.6-3.8-3.8.2-7.5.1-11.4.1zm33.8-67v.1c6.8-.6 13.6-1.1 20.4-1.7 2.8-.3 5.3-1.4 4.9-4.8-.4-3.3-3.2-3.7-5.9-3.6-3.4.2-6.8.4-10.2.7-4.7.4-9.4.7-14.1 1.2-2.5.3-4.3 1.7-4.2 4.5.2 2.9 2.2 3.8 4.7 3.8 1.5.1 3-.1 4.4-.2zm-56.9-7.6c-5.3.4-9.8.8-14.4 1.2-2.4.2-4 1.4-4.1 4-.1 2.6 1.6 4.1 3.9 4.1 7.6-.2 15.3-.6 22.9-1.1 2.3-.2 3.8-1.8 3.6-4.4-.2-2.7-2-3.6-4.4-3.7-2.6-.2-5.4-.1-7.5-.1zm81.3 27.4c0-3.8-5.6-9.2-11.3-10.9-5.5-1.6-12.9-.1-14.9 3.1-.8 1.3-1.5 2.6-.5 4.1 1 1.5 2.5 2.5 4.1 1.8 6.6-3 11.9-2.3 15.8 4.3.8 1.3 2.6 1.9 4.4 1 1.5-.7 2.5-1.7 2.4-3.4zm-82-10.5c-6.5 0-9.2.9-11 3.6-1.3 2.1-1.7 4.5.1 6.3 1.7 1.7 3.7 1 5.6-.6 3.5-3 9-2.1 12.2 2 1.6 2 3.3 3.4 5.7 1.7 2.6-1.8 2.1-4.2.6-6.4-3.2-4.9-7.8-7.2-13.2-6.6zm54.7 72.1c-.1-3 .6-7-3.7-7.2-4.4-.2-4.2 3.8-4.1 6.8.2 5-2.9 6.8-7.1 7.7-2.4.5-5.1 1.2-4.6 4.5.6 3.4 3.3 3.5 6.1 3.3 8.1-.7 13.4-6.8 13.4-15.1zm7-50.1c0 3.9 3.3 7.4 7.1 7.3 3.3 0 6.5-3.7 6.4-7.4-.1-3.7-3.4-7.1-6.8-7.1s-6.7 3.5-6.7 7.2zm-67.7.1c-.2 4.1 2.3 6.3 5.7 6.8 3.1.5 5.6-1.3 6.1-4.8.6-4-1.6-7.1-5-7.5-4.2-.4-5.9 2.1-6.8 5.5z"/><path fill="#29469F" d="M190.7 282.8c.9 2.2.7 4.5.7 6.8.5 29.7.8 59.3 1.4 89 .3 11.8-1 23.7 3.7 35.1-15.5-.7-31 .3-46.5.5-11.1.2-22.2.4-33.3.5-4.5 0-7.3-2.6-7.5-7.3-.2-7.8 1.3-15.4 5.9-21.8 7.2-9.9 16.2-17.6 28.6-19.9 4.9-.9 4-4.5 4.4-7.3 1.9-15.5 5.6-30.5 12.1-44.7 4.3-9.4 9.6-18.2 17.8-24.8 3.8-3.1 7.8-5.6 12.7-6.1zM337.5 316.2c-3.3 3.8-6 2-8.4-1-14.3-17.4-23.8-36.6-21.8-59.9.1-.8-.1-1.6-.1-3.2-7.3 3.5-14.5 5.8-22.1 6.7-18.4 2.3-36.7 2.9-54.9-1.1-1.5-.3-2.8-.6-4.2.3-10.8 7-22.8 9.3-35.5 8.4-14-2.8-25.1-9.9-32.3-22.5-.3-.5-.6-.9-.9-1.4-.1-.8-.1-1.7-.3-2.4-5.6-14-4.9-27.9.8-41.8.7-1.6 1.6-3.2 1.2-5.1l-.1.2c2.3-.3 2.2-2.1 2.4-3.7.3-.4.6-.7 1-1.1l-.1.1c.3-.4.7-.8 1-1.2l-.2.2c.4-.6.8-1.2 1.2-1.7 14.5-19.2 41.6-32.1 66.6-19.3 1.3.6 2.5.7 3.8.5.1 1.7 1.3 2.4 2.5 3.3 4.1 3.1 7.3 7 10.1 11.2 1.5 2.4 2.6 5.5-.2 7.5-2.8 2-5.3-.1-6.9-2.6-8-13-20.1-17.6-34.6-16.3-11.5 1-21.1 6.5-29 14.6-9.2 9.4-14.7 20.8-15.2 34-1.1 29.8 26.1 47.9 53.4 35.7 8.5-3.8 15.4-9.7 21-17l1.2-1.5c1.6-2 3.8-3.1 6-1.6 2.5 1.6 1.9 4.2.7 6.5-1.9 3.7-5.3 6.1-8 9.5 3 1.8 6.3 1.7 9.1 1.8 15.3.4 30.6 1 45.6-2.8 13.4-3.4 24.3-11.4 35.4-19 2.8-1.9 5.4-4.1 8.2-6.1 2.5-1.9 5.3-2.2 7.4.3 2.6 2.8-.3 4.6-2 5.9-6.3 4.9-12.5 9.9-19.2 14.1-3.9 2.5-4.8 5.6-5.1 9.6-1.7 21.4 6.8 39 20 54.9 1.7 2 2.8 4.2 2.5 7zM466.8 438.4c-1.7-4.1-.8-7.7.9-11.7 7.9-17.9 11.9-36.5 6.3-55.9-7.8-27-27.2-41-53.6-46.8-5.1-1.1-10.2-2-15.4-2-2.8 0-4.7-1.2-4.8-4.3-.1-3.7 2.5-3.6 5.1-3.6H417c11.6 3.1 23.3 6 33.6 12.6 22 14.1 33.2 34.1 34 60.2.4 16-3.3 30.9-9.9 45.4-1.6 3.6-3.7 6-7.9 6.1z"/><path fill="#DD6941" d="M242.4 443.5c5.2-3.1 11.1-1.7 16.6-2.6 11.2-1.8 22.3-4.1 33.5-6 2.2-.4 4.7-1 6.4 1.1 2.3 2.9 1.3 5.2-1.1 7.7-9.8 10.3-22.2 16.4-34.8 22.1-6.3 2.8-12.3 6.7-19.3 7.9-.4-10.1-.8-20.2-1.3-30.2zM152.1 621.2c2.7-4.2 7.3-6.4 10.9-9.6 6.4-5.7 13-11.2 19.7-16.6 2-1.6 4.2-4.3 7.3-1.7 3 2.5 1.1 5-.2 7.4-5.8 11.3-12.3 22.2-17 34-7.4-3.7-14.3-8.2-20.7-13.5zM450.4 616c-7.4-7.3-14.2-15.2-20.6-23.3-1.7-2.2-3.7-4.1-5.4-6.3-1.3-1.7-2.6-3.6-.4-5.6 2-1.8 4-1.7 6.2-.1 10.2 7.3 20.4 14.5 30.6 21.8 1.2.9 2.3 1.8 3.9 1.6-4.4 4.5-9.1 8.5-14.3 11.9z"/><path fill="#FEBA64" d="M487.2 530.7c-2.5.3-3.8-1.7-5.4-2.9-26-19.1-54.8-32.4-86-40.7-1.6-.4-3.8.1-4.7-2.1 7.8.7 15.3 3.1 22.7 5.5 24.8 8 48.5 18.3 68.6 35.4 1.8 1.5 3.9 2.6 4.8 4.8z"/><path fill="#25216F" d="M159 193.3c.3 1.9-.6 3.5-1.2 5.1-5.7 13.8-6.3 27.7-.8 41.8.3.7.2 1.6.3 2.4-9.3-13.9-8.6-36.1 1.7-49.3z"/><path fill="#FEBA64" d="M492.3 535.5c-2.3-.3-3.6-1.6-4-3.8 2.1.4 3.3 1.8 4 3.8z"/><path fill="#25216F" d="M161.2 189.7c-.1 1.7-.1 3.4-2.4 3.7.3-1.5 1.3-2.6 2.4-3.7z"/><path fill="#FEBA64" d="M356.1 479.7c-.9 1.2-1.5.7-2.1-.3.8-.5 1.5-.3 2.1.3zM364.9 480.7c-.9 1.1-1.5.7-2.1-.3.8-.5 1.5-.3 2.1.3zM371.8 481.7c-.9 1.2-1.6.6-2.1-.4.8-.5 1.5-.3 2.1.4zM378.6 482.7c-.9 1.1-1.6.6-2.1-.3.8-.5 1.5-.3 2.1.3zM384.5 483.8c-.9 1.1-1.6.5-2.1-.4.8-.5 1.5-.3 2.1.4zM389.4 484.8c-1 1.1-1.6.5-2.1-.5.8-.5 1.5-.3 2.1.5z"/><path fill="#25216F" d="M164.2 186c-.4.6-.8 1.2-1.2 1.7 0-.7.4-1.4 1.2-1.7zM163.1 187.6c-.3.4-.7.8-1 1.2.3-.4.7-.8 1-1.2zM162.2 188.6c-.3.4-.6.7-1 1.1.3-.3.6-.7 1-1.1zM157.3 242.6c.3.5.6.9.9 1.4-.3-.4-.6-.9-.9-1.4z"/><path fill="#DD6941" d="M240 346.4c3.9 0 7.6.1 11.3 0 2.9-.1 5.6.4 5.6 3.8.1 3.4-2.4 4.2-5.4 4.1-4.1-.1-8.1.1-12.2 0-5.4-.1-7.7-2.4-7.7-7.8-.1-10.4 3.1-20.2 5.7-30 1.2-4.4 2.6-8.7 4.1-13 .8-2.3 2-4.9 5.2-3.7 2.9 1.1 2.8 3.4 2 6.1-3.3 11-6.7 22-8.6 33.5-.3 2.1-.6 4.1 0 7z"/><path fill="#25216F" d="M273.8 279.4c-1.5.1-2.9.2-4.4.3-2.6 0-4.6-.9-4.7-3.8-.2-2.8 1.6-4.2 4.2-4.5 4.7-.5 9.4-.9 14.1-1.2 3.4-.3 6.8-.5 10.2-.7 2.8-.2 5.5.2 5.9 3.6.5 3.4-2 4.5-4.9 4.8-6.8.6-13.6 1.1-20.4 1.7v-.2zM216.9 271.8c2.1 0 4.8-.1 7.6 0 2.3.1 4.2 1 4.4 3.7.2 2.6-1.3 4.3-3.6 4.4-7.6.6-15.3 1-22.9 1.1-2.3.1-4-1.4-3.9-4.1.1-2.6 1.7-3.8 4.1-4 4.5-.3 9.1-.7 14.3-1.1z"/><path fill="#DD6941" d="M298.2 299.2c.1 1.7-.9 2.6-2.3 3.4-1.8.9-3.6.3-4.4-1-4-6.6-9.3-7.3-15.8-4.3-1.7.8-3.1-.3-4.1-1.8-1-1.5-.3-2.8.5-4.1 2-3.2 9.4-4.7 14.9-3.1 5.6 1.7 11.2 7.1 11.2 10.9zM216.2 288.7c5.4-.6 10 1.7 13.3 6.6 1.5 2.2 2 4.6-.6 6.4-2.5 1.7-4.2.3-5.7-1.7-3.3-4-8.7-5-12.2-2-1.9 1.6-3.9 2.2-5.6.6-1.9-1.8-1.4-4.2-.1-6.3 1.7-2.8 4.4-3.7 10.9-3.6zM270.9 360.8c0 8.4-5.4 14.4-13.4 15.1-2.7.2-5.5.1-6.1-3.3-.5-3.3 2.2-4 4.6-4.5 4.2-.9 7.3-2.6 7.1-7.7-.1-3.1-.3-7 4.1-6.8 4.3.2 3.6 4.2 3.7 7.2zM277.9 310.7c0-3.7 3.2-7.2 6.7-7.2 3.4 0 6.7 3.4 6.8 7.1.1 3.7-3.1 7.4-6.4 7.4-3.7.1-7.1-3.4-7.1-7.3zM210.2 310.8c.9-3.4 2.6-5.9 6.7-5.4 3.5.4 5.6 3.5 5 7.5-.5 3.5-3 5.3-6.1 4.8-3.3-.6-5.8-2.8-5.6-6.9z"/></g></svg>