<svg xmlns="http://www.w3.org/2000/svg" viewBox="0 0 595.3 841.9"><linearGradient id="a" gradientUnits="userSpaceOnUse" x1="128.91" y1="547.046" x2="175.51" y2="547.046" gradientTransform="matrix(-12.7743 0 0 12.7743 2242.003 -6567.154)"><stop offset="0" stop-color="#facb03"/><stop offset=".485" stop-color="#fab205"/><stop offset="1" stop-color="#ef8731"/></linearGradient><path fill="url(#a)" d="M297.6 718.6c164.8 0 297.6-132.9 297.6-297.6s-134-297.7-297.6-297.7C132.9 123.3 0 256.2 0 420.9c0 163.6 132.9 297.7 297.6 297.7zm0-544.2c135.4 0 246.5 109.9 246.5 246.5 0 135.4-109.9 246.5-246.5 246.5S51.1 556.4 51.1 420.9c0-136.6 109.9-246.5 246.5-246.5z"/><g><path fill="#FECA6C" d="M238 503.4c-7.4 1.6-14.7 4-22.4 3.5-1.5-.1-2.7.3-3.2 2.1-1 3.3-3.9 3.7-6.6 3.1-23.4-5.5-42.6-16.6-52.3-40.1-1.3-3.3-2-6.7-2.6-10.1-.4-2.6-1.7-3.8-4.5-3.8-5.7 0-11.4-.1-17-1.5-25.5-6.3-43.3-28.4-44.1-54.1-.5-15.8 2.3-30.6 9.5-44.6 1.8-3.5 1.1-5.8-1.2-8.5-4.5-5.2-8.2-10.7-10.7-17.2-3.2-8.3.8-17.1 6.6-22.8 4.5-4.4 10.3-6.8 15.9-9.5 8.9-4.3 17.5-9 25.4-14.9 1.5-1.1 2.3-2.3 2.5-4.2 2.1-19 9.6-36 19.4-52.2 15.8-26.1 37.9-44.9 65.7-57 8.5-3.7 17.3-6.1 26.6-6.9 2.9-.2 5.1-2 8.1-2 12.6-.4 24.4 3.2 35.9 7.6 6.7 2.6 11.5 7.9 15.7 13.5 2.4 3.3 4.7 4.7 9.4 4 25.2-3.8 47.3 4.1 66.5 20.1 12.9 10.8 22.4 24.1 26.3 40.8.2 1 .7 2.2 1.5 2.9 20.7 18.7 38.5 40 54.4 62.6 16.9 24 23.1 51.4 15 80.4-3.8 13.5-12.6 23.9-25.5 29.8-5.8 2.7-7.9 5.8-8 12.4-.4 17.9-6.5 33.7-20.9 45.3-14.3 11.5-30.8 15-48.8 12.5-7.6-1.1-14.7-3.8-21.7-6.7-7.2-4.5-14.6-9-20.5-15.1-7.9-8.3-14-17.9-17.7-28.9-7.8-22.7-5.8-44.1 8.5-63.9 1-1.4 2.1-2.9 4.1-3 8-.5 12.9-5.4 16.5-11.9 5.1-9.1-.8-19.1-11.3-19.6-5.1-.2-9.1 2.4-13.5 3.9-5.2 1.8-9.1-.6-9.6-6.1-1.6-16.5-2.8-33-2.9-49.6-.1-4.9-.6-9.8-1-14.6-.1-1.8-.7-3.1-3-2.5-10.3 2.7-20.4.6-30.4-1.6-16.4-3.8-31.8-9.6-43.4-22.8-8.6-9.9-15.1-20.9-18.2-34.3-3.8 2.2-5.6 5.9-8.2 8.7-6.3 6.8-13.4 13.4-17.1 22-7.6 17.5-12.4 35.8-12.1 55.1-1.3.2-1.7 1-1.8 2.3-.6 6.8 1.2 13.5 1.1 20.2 0 .9.9 1.2 1.7 1.4-.1 13.8 1.9 27.4 3.2 41 1.2 13.5 4.4 26.8 7.3 40 2.6 11.7 7.5 22.5 14.7 31.6 6.8 8.6 16.5 14.7 28.1 15.8 3.4.3 6.5 1.4 9.7 2.1-.8 12 1.6 23.9.9 35.9-.1 1 .6 2.1.9 3.1.1 2.2-.3 4.2-.9 6.3z"/><path fill="#28449D" d="M410.3 511.7l1.8.3c.7 1.5 1.7 1.7 3 .6.9.2 1.8.3 2.7.5.8 1.4 1.8 1.6 3 .5l1.8.3c.7 1.5 1.7 1.8 3 .6l1.8.3c.7 1.5 1.7 1.7 3 .6.6.2 1.2.3 1.8.5.5 1 1.1 1.5 2 .4.6.1 1.2.3 1.8.4.5 1.1 1 1.6 2 .5.6.1 1.2.3 1.8.4.4 1.1 1 1.7 2 .6.6.1 1.2.3 1.8.4.5 1 1 1.6 2 .5 1.5.5 3.1.9 4.6 1.4 1.3 1.6 2.8 2.4 4.9 1.5 1.5.5 3.1 1 4.6 1.4.6 1.1 1.4 1.3 2.5.8l5.1 1.8c1.3 2 3.2 2.3 5.3 2 .8.3 1.5.6 2.3.9.4 1.2 1.3 1.5 2.5 1.1 1.4.6 2.8 1.2 4.2 1.7.9 1.8 2.4 2.4 4.4 2.1 1.1.5 2.2 1.1 3.3 1.6 1.3 2.4 3.6 3.1 6.1 3.3 6.1 3 7.8 9.3 6.9 15.4-2.3 15-12.9 24.5-21.7 35.3-6.4 7.8-13.5 15.1-21.5 21.3-8.3-5.2-17.5-8.4-26.3-12.5-2-.9-4.5-.4-5.7 2-1.1 2.3-.3 4.2 1.4 5.9 5.5 5.5 10.8 11 16.2 16.6-.7 2.8-3.3 3.7-5.3 5.1-31.7 22.3-66.7 36.4-105.2 41.9-47 6.8-92-.1-135.2-19.5-.8-.4-1.6-1-2.4-1.5 4.2-5.2 6.2-11.7 9.4-17.4 1.8-3.3 2.9-7.2 0-10.1-3.2-3.2-6.6-.2-9.4 1.5-7.3 4.6-14.4 9.6-21.6 14.5-11.8-5.7-21.2-14.8-31.1-23-13.3-11.1-25.2-23.6-36-37.8 3.5-.9 5.2-3.7 7.1-6.1 11.8-14.7 27.9-23.2 44.4-31.1 25.2-12.1 51.9-19.4 79.3-24.7.1 3.5.3 6.9.4 10.4 0 2.3.6 4.3 2 6.2 5.5 7.6 12.4 13.6 20.8 17.7 16.8 8.2 34.6 11.2 53.1 8.2 14.9-2.5 28.4-7.8 36.8-21.6 1.2-.3 1.6-1.1 1.2-2.3.3-.8.6-1.6.9-2.5.9-.4 1.6-.9.6-2 .1-.6.3-1.2.4-1.9 1.7-1.7 1.7-3.3.1-5l-.6-1.8c1-1.9 1.3-3.8-.4-5.6-.2-2.3-.3-4.5-.5-6.8.8-.6.8-1.5.8-2.4 1.2.1 2.4.2 3.5.3 2.5 2 5.1 1.5 7.8.5 2.5.1 5 .3 7.5.4 1.4 1.9 3.1 1.6 4.9.5 1.9.1 3.7.3 5.6.4 1.7 2.4 9.6 3.7 13.5 2.3l2.7.6c1.1 1.7 2.4 1.7 3.9.6.9.1 1.8.3 2.7.4 1 1.7 2.4 1.6 3.9.6z"/><path fill="#FEA584" d="M353.7 530.7c-.3.8-.6 1.6-.9 2.5-.9.5-1.4 1.2-1.2 2.3-8.4 13.8-21.9 19.1-36.8 21.6-18.5 3-36.2.1-53.1-8.2-8.4-4.1-15.2-10.1-20.8-17.7-1.4-1.9-1.9-3.9-2-6.2 0-3.5-.2-7-.4-10.4-.2-3.7-.4-7.4-.7-11.2.7-2 1-4.1.9-6.2 2.6 1.1 4.8.4 6.9-1.5 3.4-3 7.2-5.7 10.7-8.7 13.7-11.8 24.9-25.5 34-41.1 1.7-3 0-5.6-3.5-5.9-1.7-.1-3.1.5-4.6 1.1-12.9 4.6-25.4 10.4-38.8 13.6-2.6.6-4.7 1.7-6.6 3.4-3.2-.8-6.3-1.8-9.7-2.1-11.6-1.1-21.3-7.2-28.1-15.8-7.2-9.1-12.1-19.9-14.7-31.6-2.9-13.3-6.1-26.5-7.3-40-1.2-13.7-3.3-27.3-3.2-41 .7-8-1.1-15.9-1-23.9-.3-19.3 4.5-37.6 12.1-55.1 3.7-8.6 10.8-15.1 17.1-22 2.6-2.8 4.4-6.5 8.2-8.7 3.2 13.4 9.6 24.4 18.2 34.3 11.5 13.2 27 19 43.4 22.8 9.9 2.3 20.1 4.3 30.4 1.6 2.3-.6 2.9.7 3 2.5.4 4.9.9 9.8 1 14.6.2 16.6 1.3 33.1 2.9 49.6.5 5.5 4.4 7.9 9.6 6.1 4.4-1.5 8.4-4.2 13.5-3.9 10.5.5 16.4 10.4 11.3 19.6-3.6 6.5-8.5 11.4-16.5 11.9-2 .1-3.1 1.6-4.1 3-14.3 19.8-16.3 41.2-8.5 63.9 3.7 11 9.8 20.6 17.7 28.9 5.9 6.2 13.3 10.6 20.5 15.1.1 5.6.3 11.1.4 16.7-.8 1-1.1 1.9.1 2.8.2 2.3.3 4.5.5 6.8-.8 1.9-1.1 3.8.4 5.6l.6 1.8c-.6 1.7-.7 3.4-.1 5-.1.6-.3 1.2-.4 1.8-.5.8-.7 1.4-.4 2.3zM231.1 356.3c-.1 2.5 0 5 2.6 6.1 5.4 2.3 11 4.1 16.2 6.7 2 1 4.1.4 5.4-1.6 1.3-2.2.2-4-1.5-5.3-3.2-2.5-6.9-3.9-10.7-5-2.8-.8-3.8-2.2-2.8-5.2 4.2-12.9 6-26.5 9.6-39.5.7-2.7 1.3-6.3-2.3-7.3-3.7-1-4.6 2.4-5.3 5.2-2.1 8.4-4.5 16.8-6.1 25.3-1.3 7-4 13.6-5.1 20.6zm17.6 27.8c-4-.7-6.1.3-6.6 3.1-.6 3.1 1.9 4.1 4.2 4.8 1.6.5 3.4.6 5.1.8 7.5 1 16.4-4.4 18.5-11.3.6-2.1.7-4-1.6-5.4-2.3-1.4-4.2-.8-5.3 1.2-3.6 6.3-8.6 8.8-14.3 6.8zm-46-90.9c4.6-1.6 10.8-.4 16.9-1.7 2.6-.6 4.9-1 4.8-4-.1-3.3-2.7-3.9-5.5-3.7-6 .3-12 .6-17.9 1-2.9.2-6.1.5-5.9 4.5.1 3.9 3.1 4.2 7.6 3.9zm84 2v.2c3.6-.2 7.3-.2 10.9-.6 2.2-.3 4.5-1.1 4.1-4.2-.3-3-2.2-3.8-4.9-4-6.5-.5-12.9 1.2-19.4 1-2.4-.1-4.1 1.2-4.1 3.7 0 2.7 1.8 3.9 4.4 3.9h9zm-68.9 12.4c2.3.1 3.8 0 4.5-1.6.7-1.7.5-3.4-.9-4.8-5.4-5.7-17-5-21.7 1.3-1.3 1.8-2.8 3.8-.4 5.9 2.2 1.9 4.4 1.6 6.3-.5 2.7-3 5.8-2.7 9.1-1.4 1.2.4 2.6.9 3.1 1.1zm71.9-6.6c-5.6-.3-9.1 1-12.3 3.2-1.9 1.3-3 3.5-1.8 5.8 1 1.8 3 2.8 4.8 1.4 4.8-3.6 9.6-3.3 14.6-.6 1.9 1.1 3.7.6 5-1.3 1.3-1.9.6-3.6-1-5-3-3-7-3.2-9.3-3.5zm-3 17c-4.2 0-6.8 2.3-6.8 6.1-.1 3.7 2.9 6.8 6.5 6.9 3.6.1 6.6-3 6.7-6.6.1-4.1-2.1-6.3-6.4-6.4zm-79.4 1.9c-.1 3.8 1.4 6.6 5.6 6.8 3.8.1 5.8-2.1 5.9-5.9.1-4.4-2.1-7.3-5.6-7.4-3.6-.2-5.8 2.3-5.9 6.5z"/><path fill="#226ACB" d="M174.9 637.3c7.2-4.9 14.2-9.9 21.6-14.5 2.8-1.7 6.2-4.7 9.4-1.5 2.9 2.9 1.9 6.8 0 10.1-3.2 5.8-5.2 12.2-9.4 17.4-7.6-2.9-14.7-6.9-21.6-11.5zM444.7 622.9c-5.4-5.5-10.7-11.1-16.2-16.6-1.8-1.8-2.6-3.7-1.4-5.9 1.2-2.4 3.7-2.9 5.7-2 8.8 4 18 7.3 26.3 12.5-4.4 4.5-9.3 8.4-14.4 12z"/><path fill="#6D79B1" d="M397 509.5c-3.9 1.5-11.8.1-13.5-2.3 4.7-.2 9.2.3 13.5 2.3zM365.5 505.9c-2.7 1-5.3 1.5-7.8-.5 2.7-.6 5.3-.3 7.8.5zM495.4 538.8c-2.5-.2-4.8-.9-6.1-3.3 2.4.6 4.5 1.5 6.1 3.3zM377.9 506.8c-1.8 1-3.4 1.4-4.9-.5 1.7-.5 3.3-.3 4.9.5zM472.7 528.1c-2.1.2-4.1 0-5.3-2 1.9.2 3.8.7 5.3 2zM455.1 522.1c-2.1.9-3.6.1-4.9-1.5 1.8-.1 3.5.3 4.9 1.5zM486 533.9c-2 .4-3.4-.2-4.4-2.1 1.8.1 3.2.8 4.4 2.1zM410.3 511.7c-1.5 1.1-2.8 1.1-3.9-.6 1.4-.4 2.7-.2 3.9.6zM403.6 510.7c-1.5 1.1-2.8 1.2-3.9-.6 1.4-.4 2.7-.2 3.9.6zM430.3 515.5c-1.3 1.1-2.2.8-3-.6 1.1-.4 2.1-.2 3 .6zM425.5 514.5c-1.3 1.1-2.3.9-3-.6 1.2-.4 2.2-.1 3 .6zM353.4 507.6c-1.2-.9-.8-1.9-.1-2.8.3.1.6.3.9.4 0 .8 0 1.8-.8 2.4zM420.8 513.5c-1.2 1.1-2.2.9-3-.5 1.1-.4 2.1-.2 3 .5zM415.1 512.5c-1.3 1.2-2.2.9-3-.6 1.1-.3 2.1-.1 3 .6zM434.1 516.4c-1 1.1-1.5.5-2-.4.8-.4 1.4-.2 2 .4zM437.9 517.3c-1 1.1-1.6.5-2-.5.8-.4 1.5-.1 2 .5zM441.7 518.3c-1 1.1-1.6.5-2-.6.8-.3 1.5 0 2 .6zM445.6 519.2c-1 1.1-1.6.5-2-.5.7-.3 1.4-.1 2 .5zM462.2 524.3c-1.1.5-2 .3-2.5-.8 1-.3 1.8.1 2.5.8zM477.4 530.1c-1.2.5-2 .2-2.5-1.1 1.1-.1 1.9.3 2.5 1.1z"/><path fill="#DD6A41" d="M237 458.2c1.9-1.7 4-2.8 6.6-3.4 13.4-3.2 25.9-9.1 38.8-13.6 1.5-.5 2.9-1.2 4.6-1.1 3.5.3 5.2 2.9 3.5 5.9-9.1 15.6-20.3 29.3-34 41.1-3.5 3-7.2 5.6-10.7 8.7-2.1 1.9-4.3 2.6-6.9 1.5-.3-1-1-2.1-.9-3.1.5-12.1-1.8-24-1-36z"/><path fill="#FEC994" d="M173.1 303.7c-.1 8 1.7 15.9 1 23.9-.8-.2-1.7-.5-1.7-1.4.1-6.8-1.7-13.4-1.1-20.2 0-1.2.4-2 1.8-2.3z"/><path fill="#6D79B1" d="M354.2 520c-1.5-1.8-1.1-3.7-.4-5.6 1.7 1.7 1.4 3.6.4 5.6zM354.8 526.8c-.6-1.7-.6-3.4.1-5 1.6 1.7 1.6 3.4-.1 5zM353.7 530.7c-.4-.8-.2-1.5.6-2 1.1 1 .3 1.5-.6 2zM351.6 535.4c-.2-1.1.3-1.8 1.2-2.3.4 1.2 0 1.9-1.2 2.3z"/><path fill="#DD6A41" d="M231.1 356.3c1-7 3.8-13.6 5.1-20.6 1.6-8.5 4-16.9 6.1-25.3.7-2.8 1.6-6.2 5.3-5.2 3.6 1 3.1 4.6 2.3 7.3-3.7 13.1-5.4 26.6-9.6 39.5-1 3-.1 4.4 2.8 5.2 3.8 1.1 7.5 2.5 10.7 5 1.7 1.4 2.9 3.1 1.5 5.3-1.3 2.1-3.4 2.6-5.4 1.6-5.2-2.7-10.8-4.4-16.2-6.7-2.6-1.1-2.7-3.6-2.6-6.1zM248.7 384.1c5.7 2 10.7-.5 14.3-6.7 1.1-2 3-2.6 5.3-1.2 2.3 1.4 2.2 3.3 1.6 5.4-2 6.9-10.9 12.3-18.5 11.3-1.7-.2-3.5-.3-5.1-.8-2.3-.7-4.8-1.7-4.2-4.8.5-2.9 2.6-3.9 6.6-3.2z"/><path fill="#FECA6C" d="M202.7 293.2c-4.5.2-7.5 0-7.6-4-.1-4 3-4.3 5.9-4.5 6-.4 12-.7 17.9-1 2.8-.1 5.4.4 5.5 3.7.1 3-2.3 3.4-4.8 4-6.1 1.4-12.4.2-16.9 1.8zM286.7 295.2h-9c-2.6 0-4.4-1.2-4.4-3.9 0-2.4 1.7-3.7 4.1-3.7 6.5.1 12.9-1.5 19.4-1 2.7.2 4.6 1 4.9 4 .4 3.1-1.9 3.9-4.1 4.2-3.6.4-7.3.4-10.9.6v-.2z"/><path fill="#DD6A41" d="M217.8 307.6c-.6-.2-1.9-.7-3.2-1.2-3.3-1.3-6.4-1.6-9.1 1.4-1.8 2.1-4.1 2.4-6.3.5-2.3-2-.9-4.1.4-5.9 4.7-6.3 16.3-7 21.7-1.3 1.4 1.5 1.6 3.1.9 4.8-.5 1.7-2.1 1.8-4.4 1.7zM289.7 301c2.3.3 6.3.5 9.4 3.5 1.5 1.5 2.3 3.1 1 5-1.2 1.8-3 2.3-5 1.3-5-2.8-9.8-3-14.6.6-1.9 1.4-3.9.4-4.8-1.4-1.3-2.3-.1-4.5 1.8-5.8 3.1-2.1 6.6-3.5 12.2-3.2zM286.7 318c4.3 0 6.5 2.3 6.4 6.4-.1 3.6-3.2 6.6-6.7 6.6-3.6-.1-6.6-3.2-6.5-6.9 0-3.8 2.6-6.1 6.8-6.1zM207.3 319.9c.1-4.2 2.2-6.6 5.9-6.5 3.5.1 5.7 3 5.6 7.4-.1 3.8-2.1 6.1-5.9 5.9-4.2-.2-5.6-3-5.6-6.8z"/></g></svg>