<svg xmlns="http://www.w3.org/2000/svg" viewBox="0 0 595.3 841.9"><linearGradient id="a" gradientUnits="userSpaceOnUse" x1="-658.249" y1="547.046" x2="-611.649" y2="547.046" gradientTransform="matrix(-12.7743 0 0 12.7743 -7813.353 -6567.154)"><stop offset="0" stop-color="#facb03"/><stop offset=".485" stop-color="#fab205"/><stop offset="1" stop-color="#ef8731"/></linearGradient><path fill="url(#a)" d="M297.6 718.6c164.8 0 297.6-132.9 297.6-297.6s-134-297.7-297.6-297.7C132.9 123.3 0 256.2 0 420.9c0 163.6 132.9 297.7 297.6 297.7zm0-544.2c135.4 0 246.5 109.9 246.5 246.5 0 135.4-109.9 246.5-246.5 246.5S51.1 556.4 51.1 420.9c0-136.6 109.9-246.5 246.5-246.5z"/><g><path fill="#C6C9CE" d="M352.3 458.5c9.9.9 19.4 3.5 28.9 6.2 15.7 4.4 31.1 9.7 45.1 18.1 13.5 8.1 26.9 16.5 38.7 27.3 10.8 10 20.2 21.2 28.4 33.3 3.3 4.8 6 10 8.4 15.4 1 2.2.6 3.6-.7 5.5-11.9 16.2-25 31.2-40.6 43.9-3.5 2.8-5.9 7.1-10.7 8.2-3.1-1.2-5.8-3.2-7.9-5.5-3.7-3.9-8.1-6.6-12.5-9.3-2.4-1.5-5-1.9-7.3 0-2.4 2-1.5 4.4-.3 6.7 1.1 2.2 2.3 4.3 3.4 6.5 2.4 4.5 5.7 8.4 7.5 13.2-2.4 4.2-7.1 5.2-10.7 7.6-19.8 12.6-41.6 20.6-64.3 26.1-13.5 3.3-27.3 5.2-41.3 6.2-45.2 3.3-87.9-5.2-128.5-25.1-9-4.4-17.4-10.2-26-15.3-1-.6-1.8-1.3-1.9-2.5 1.1-3.2 2.5-6.3 3.2-9.6.6-2.8.6-6.1-2.4-7.8-2.4-1.4-5.1-.7-6.9 1.2-2.5 2.6-5.6 4.4-8.2 6.7-6.8-4.1-11.9-10.3-17.8-15.4-11.5-9.8-20.8-21.7-30-33.7-2.2-2.9-2.3-5.1-.2-8.2 9.8-15 22.4-27.4 35.3-39.7 7.6-7.2 15.9-13.1 24.3-19.1 4-2.8 8.4-5.2 12.5-7.8 18.7-11.7 38.8-20.1 60.1-25.9.4-.1.8-.4 1.3-.6 0 2.6.3 5.3-.1 7.9-1.6 10.6 5.1 16.8 12.1 22.5 12.6 10.2 28.1 11.1 43.3 13.3 3.7.6 6.9-1.8 10.4-1.7 7.1.1 13.9-1.4 20.5-3.9 13-4.9 25.5-10.6 32.7-23.6 2-3.5 4.3-7.2 3.4-11.1-1.1-3.3-1.2-6.6-1.2-10z"/><path fill="#FDA584" d="M352.3 458.5c0 3.4.1 6.7.8 10.1.9 3.9-1.5 7.6-3.4 11.1-7.2 13-19.7 18.7-32.7 23.6-6.6 2.5-13.4 4-20.5 3.9-3.5 0-6.6 2.3-10.4 1.7-15.1-2.3-30.7-3.2-43.3-13.3-7-5.7-13.8-11.9-12.1-22.5.4-2.6.1-5.3.1-7.9 1.8-2 .4-4.4.9-6.5 4.4-.6 6.9-4.5 10.6-6.4 9.3-4.7 17.5-11.3 26.4-16.5 2.6-1.5 2.8-4.1 2-6.6-.7-2.1-2.7-2.5-4.6-2-11.9 3.6-23.8 6.7-35.4 11-16.4.6-32.1-1.6-44.7-13.6-9-8.6-14-19.3-13.8-31.7.3-16.1 1.7-32.1 2.5-48.2.3-5.7.5-11.4.8-17.1 1-17 1.2-34.1 2.2-51.1.3-4.6.5-9.3.8-13.9 3.1 1.6 7.1.8 9.7 3.8-1 2.1-3.3 4-1.6 6.7 1.8 2.8 4.4 1 6.8 1.1 3.8 0 7.7-.2 11.5.1 4.1.4 6.1-1.2 6.3-5.2 1.2-.1 2.4-.1 3.7-.2 3.7-.1 7.1-1.7 10.5-2.3 12.7-2.1 24.6-6.3 36.1-11.7 9.5-4.4 18.4-9.8 26.3-16.6 4.1-3.6 7.6-7.7 13-9.5 6.7-1.1 9 .6 10.5 7.5 1.4 6.6 2 13.2 2.4 19.9 1 15.2 1.5 30.5 6.4 45.1 2.3 6.9 6 13.1 13.9 14 7.3.9 11.2-4.6 14.3-10.1 3-5.2 6.5-9.7 12.2-12 2.9.3 4.5-1.1 5-3.9 10.6 5.5 14.9 15.2 17.1 26 2.1 9.9-6.7 24.1-17.4 29.2-4.5 2.2-9.3 3.1-14.3 2.8-3.2-.1-4.7 1-4.4 4.2 1.5 17.4 1 34.9 2.6 52.3.2 2.5.2 5 .2 7.4-.1 14.7 1.5 29.3 1.9 44 .2 1.3.8 2.3 1.1 3.3zm-90.4-196.8c-.4.3-.7.5-1.1.8-3.2 1.1-2.4 3.6-1.9 5.8.5 2.2 2.4 2.6 4.4 2.6 8.4-.2 16.7-.2 25.1-.5 5-.2 6.4-3.1 4-7.9-.4-2.6-2.5-1.9-4-1.9-7.7 0-15.4 0-23.1.1-1.3 0-2.6-.4-3.4 1zm-3.2 124c6.3.1 8.8-2.1 8.2-7.4-.7-6.1-.4-12.1-.5-18.1-.1-3.3-1.8-4.6-4.7-4.2-2.7.4-5.5.8-7.5 3.2-3.4 4.2-7.9 7.1-12.4 10.1-2.4 1.6-4.7 3.6-6.7 5.7-2.4 2.4-1.5 6.1 1.7 7 7.5 2 15.5 1.8 21.9 3.7zm-35.2-42.5c0-1.1-.2-2.2 0-3.2 2.5-12.3 5.3-24.5 9.5-36.4 1-2.9 1.8-5.9 2.4-9 .4-1.7-.3-3-2-3.7-1.6-.6-2.6.1-3.7 1.1-1.2 1.1-1.7 2.6-2.2 4-2.1 6.6-4.4 13.2-6.2 20-2.6 9.7-5 19.5-7.2 29.3-1.2 5.6.4 7.4 6 6.7 5.4-.8 10.8-.6 16.2-1 2.9-.2 5.4-1.6 5.2-4.8-.2-3.1-2.7-3.5-5.5-3.6-4-.1-8.1 2-12.5.6zm-23.3-56.5c-4.3-.4-8.1 1.6-11.5 4.4-1.4 1.2-2.2 3.1-.8 5 1.4 1.8 3.1 2 4.9.7 4.6-3.4 9-3.6 13.5.3 1.5 1.3 3.6 1.5 5-.2 1.5-1.8 1-3.8-.6-5.4-2.7-2.9-5.9-4.9-10.5-4.8zm70.9-4.6c-4 .6-8.1 1.3-11.4 4.2-1.8 1.6-2.7 3.7-1.3 5.7 1.5 2.2 3.7 1.5 5.7.2 4-2.6 8-3.8 12.2-.1 1.5 1.3 3.4 1.6 4.9-.3 1.4-1.8 1.4-3.7-.1-5.5-2.5-3-6-3.9-10-4.2zm-2.3 14c-3.5.1-6.3 3.8-6.3 8.4 0 3.6 2.5 5.8 6.4 5.7 3.8-.1 6.8-3.7 6.7-8 0-3.5-3.1-6.2-6.8-6.1zm-64.1 8.5c.1-3.6-2.4-6.6-5.6-6.7-3.7-.1-6.6 2.6-6.6 6.3 0 3.7 1.9 5.7 5.6 5.9 3.9.3 6.5-2 6.6-5.5z"/><path fill="#27459F" d="M360.6 293.3c-5.7 2.3-9.2 6.7-12.2 12-3.1 5.5-7 11-14.3 10.1-7.9-1-11.6-7.1-13.9-14-4.9-14.6-5.4-29.9-6.4-45.1-.4-6.7-1-13.3-2.4-19.9-1.5-6.9-3.8-8.6-10.5-7.5-2.2.1-1.5-1.1-.8-1.9 1-1.2 2.4-2 3.3-3.3 1.6-2.2 3.8-4.7.9-7.3-3-2.7-5.1-.4-7 1.7-6.9 8-15.6 14-23.7 20.6-5.1 4.2-11.5 6.9-17.7 9.7-21.5 10.1-43.6 14.2-67 8.6-19.9-4.8-32.7-16.9-38.5-36.6-3.8-13.2-.9-25.6 3.1-38.1 2.4-7.5 7.2-12.3 13.8-15.3 13.6-6.2 28.7-.3 38 8.3 5.2 4.9 10.1 10.1 15.1 15.2 1.9 2 4.3 3 6.6 1.2 1.8-1.4 1.6-4 .4-5.5-4-4.9-8.4-9.4-12.5-14.3-3-3.5-8.3-4.4-10.3-9 14.3-3.7 27.7-9.6 41.8-14 8.3-2.6 16.5-6 25.5-5.9h18.7c21.3 1.2 39.8 21 40.2 42.9-.8 0-1.6.1-2.3 0-2.8-.1-5.2.7-5.1 4 .1 2.9 2.4 3.6 5 3.5 1.9-.1 3.8-.2 5.6 0 6.8 1 14.3 5.8 16.2 12.2 3.5 11.4 5 23.3 5.5 35 .7 15.3 1.5 30.6 2 45.8.1 2.9.5 5.3 2.9 6.9z"/><path fill="#256ACA" d="M204.6 162.9c1.9 4.7 7.3 5.5 10.3 9 4.1 4.8 8.5 9.4 12.5 14.3 1.3 1.5 1.4 4.2-.4 5.5-2.3 1.8-4.7.7-6.6-1.2-5-5.1-9.8-10.3-15.1-15.2-9.2-8.6-24.4-14.5-38-8.3-6.6 3-11.4 7.8-13.8 15.3-4.1 12.6-6.9 25-3.1 38.1 5.7 19.7 18.6 31.8 38.5 36.6 23.4 5.6 45.5 1.5 67-8.6 6.1-2.9 12.5-5.5 17.7-9.7 8.1-6.6 16.7-12.6 23.7-20.6 1.9-2.2 4-4.5 7-1.7 2.9 2.6.7 5.1-.9 7.3-.9 1.2-2.3 2.1-3.3 3.3-.8.9-1.4 2.1.8 1.9-5.3 1.8-8.9 5.9-13 9.5-7.9 6.9-16.8 12.3-26.3 16.6-11.6 5.3-23.4 9.5-36.1 11.7-3.5.6-6.8 2.2-10.5 2.3-.5-2.2-2.3-1.7-3.8-1.7-4.7-.1-9.3 0-14 0-.4-.7-1.1-.8-1.9-.8h-1c-2 0-4.1.1-6.1.1-2.6-3-6.6-2.2-9.7-3.8-2.5-2.5-5.9-3.2-8.9-4.9-23.3-13.2-31.9-39.2-27.2-64 1.2-6.2 2.4-12.6 4.8-18.4 3.5-8.2 11-12.9 19-16.1 10.9-4.3 21.7-2.6 32 2.3 2.2.8 4.2 1.2 6.4 1.2zM360.6 293.3c-2.4-1.6-2.9-4-2.9-6.8-.5-15.3-1.4-30.6-2-45.8-.5-11.8-2-23.6-5.5-35-1.9-6.4-9.3-11.1-16.2-12.2-1.8-.3-3.7-.1-5.6 0-2.6.1-4.9-.6-5-3.5-.1-3.2 2.3-4 5.1-4h2.3c16.6 1.5 25.1 9.3 28.5 25.6 2.6 12.7 3.7 25.5 4.2 38.4.5 13.2 1.4 26.4 2.1 39.5-.5 2.7-2.1 4.1-5 3.8z"/><path fill="#DD6A43" d="M230.6 438.1c11.6-4.3 23.6-7.5 35.4-11 1.9-.6 4-.2 4.6 2 .8 2.5.6 5.1-2 6.6-9 5.3-17.1 11.9-26.4 16.5-3.7 1.9-6.2 5.7-10.6 6.4-1.2-4.8-.3-9.7-.5-14.6 0-2 .2-4-.5-5.9z"/><path fill="#767777" d="M432.4 627.9c-1.8-4.8-5.1-8.8-7.5-13.2-1.2-2.2-2.3-4.3-3.4-6.5-1.2-2.3-2.1-4.8.3-6.7 2.3-1.9 4.9-1.4 7.3 0 4.5 2.7 8.9 5.4 12.5 9.3 2.1 2.3 4.8 4.3 7.9 5.5-4.6 5.4-10.2 9.5-17.1 11.6zM145.3 615.4c2.6-2.4 5.8-4.1 8.2-6.7 1.7-1.9 4.5-2.6 6.9-1.2 3 1.7 3 5 2.4 7.8-.7 3.3-2.1 6.4-3.2 9.6-5.8-1.4-9.9-5.7-14.3-9.5z"/><path fill="#4A5D8F" d="M290.6 143h-18.7c6.2-1.5 12.4-1.5 18.7 0z"/><path fill="#E5E8EF" d="M258.7 385.7c-6.4-1.9-14.4-1.7-22-3.8-3.2-.9-4.2-4.6-1.7-7 2.1-2.1 4.3-4.1 6.7-5.7 4.5-2.9 9-5.9 12.4-10.1 2-2.4 4.8-2.8 7.5-3.2 2.9-.4 4.6.9 4.7 4.2.2 6-.2 12.1.5 18.1.7 5.4-1.8 7.6-8.1 7.5z"/><path fill="#DD6A43" d="M223.5 343.2c4.4 1.4 8.5-.7 12.6-.5 2.8.1 5.3.5 5.5 3.6.2 3.2-2.3 4.6-5.2 4.8-5.4.3-10.8.2-16.2 1-5.6.8-7.2-1.1-6-6.7 2.2-9.8 4.6-19.6 7.2-29.3 1.8-6.7 4.1-13.3 6.2-20 .5-1.5.9-3 2.2-4 1.1-1 2.1-1.7 3.7-1.1 1.8.7 2.4 2.1 2 3.7-.7 3-1.4 6-2.4 9-4.2 11.8-7 24.1-9.5 36.4-.3.9-.1 2-.1 3.1z"/><path fill="#27459F" d="M292.3 262.5c2.4 4.8 1 7.7-4 7.9-8.3.3-16.7.3-25.1.5-2 0-3.9-.4-4.4-2.6-.5-2.2-1.3-4.7 1.9-5.8h30.7l.4.1.5-.1z"/><path fill="#DD6A43" d="M200.2 286.7c4.6-.1 7.8 1.9 10.6 4.8 1.6 1.7 2.1 3.7.6 5.4-1.4 1.7-3.5 1.5-5 .2-4.5-3.9-8.9-3.7-13.5-.3-1.8 1.3-3.5 1.1-4.9-.7-1.5-1.9-.6-3.7.8-5 3.3-2.8 7.1-4.8 11.4-4.4zM271.1 282.1c3.9.3 7.4 1.2 10 4.3 1.4 1.8 1.5 3.7.1 5.5-1.5 1.9-3.4 1.6-4.9.3-4.2-3.7-8.2-2.6-12.2.1-2 1.3-4.2 2-5.7-.2-1.4-2-.5-4.1 1.3-5.7 3.3-3 7.4-3.7 11.4-4.3z"/><path fill="#27459F" d="M188.3 266.4c2 0 4.1-.1 6.1-.1.3.5.6.5 1 0 .8 0 1.4.1 1.9.8.3 2.3 2 1.9 3.5 1.9 3.5.1 7.1 0 10.6.1-.2 4.1-2.3 5.6-6.3 5.2-3.8-.3-7.7-.1-11.5-.1-2.3 0-5 1.8-6.8-1.1-1.8-2.7.5-4.6 1.5-6.7z"/><path fill="#DD6A43" d="M268.8 296.1c3.7-.1 6.7 2.6 6.8 6.1.1 4.3-2.9 7.9-6.7 8-4 .1-6.4-2.1-6.4-5.7.1-4.7 2.8-8.4 6.3-8.4zM204.7 304.6c-.1 3.5-2.7 5.7-6.6 5.5-3.7-.2-5.7-2.2-5.6-5.9 0-3.7 3-6.4 6.6-6.3 3.1.1 5.7 3.2 5.6 6.7z"/><path fill="#1F52B1" d="M211.3 269.1c-3.5 0-7.1 0-10.6-.1-1.5 0-3.2.4-3.5-1.9h14c1.5 0 3.3-.5 3.8 1.7-1.3.2-2.5.2-3.7.3z"/><path fill="#C0A1BE" d="M292.3 262.5h-.4l-.4-.1c-1.3-1.6-3.1-1-4.7-1-8.3 0-16.6.1-24.9.2.8-1.4 2.1-1 3.3-1 7.7-.1 15.4-.1 23.1-.1 1.6.1 3.6-.6 4 2z"/><path fill="#6D4D68" d="M261.9 261.7c8.3-.1 16.6-.2 24.9-.2 1.6 0 3.4-.7 4.7 1h-30.7c.4-.3.7-.5 1.1-.8z"/><path fill="#1F52B1" d="M195.3 266.3c-.3.5-.7.5-1 0h1z"/></g></svg>