<svg xmlns="http://www.w3.org/2000/svg" viewBox="658.3 173 669.7 467.5"><g fill="#FFCB6C"><path d="M1205.3 237.1h-1.3c-2.2-.9-3.5-3.1-3.1-5.3l9.3-30.1c.9-2.2 3.1-3.5 5.3-3.1 2.2.9 3.5 3.1 3.1 5.3l-9.3 30.1c0 1.8-1.8 3.1-4 3.1zM1238 249.5c-.9 0-1.8-.4-2.7-.9-1.8-1.3-2.2-4.4-.9-6.2l31.9-41.6c1.3-1.8 4.4-2.2 6.2-.9s2.2 4.4.9 6.2l-31.9 41.6c-.8 1.4-2.1 1.8-3.5 1.8zM1256.6 277.9c-1.3 0-2.7-.9-3.5-1.8-1.3-2.2-.9-4.9 1.3-6.2l29.7-19.5c2.2-1.3 4.9-.9 6.2 1.3 1.3 2.2.9 4.9-1.3 6.2l-29.7 19.5c-.9.5-1.8.5-2.7.5z"/></g><linearGradient id="a" gradientUnits="userSpaceOnUse" x1="259.021" y1="842.651" x2="259.021" y2="787.614" gradientTransform="matrix(4.4292 0 0 -4.4292 0 3931.237)"><stop offset="0" stop-color="#facb03"/><stop offset=".485" stop-color="#fab205"/><stop offset="1" stop-color="#ef8731"/></linearGradient><path fill="url(#a)" d="M1218.6 448l-145.3 23.4 5.7-197.1 142.2-17.2z"/><g fill="#FFF"><path d="M1176.9 436.4c-.9 0-2.2-.9-2.2-1.8 0-1.3.4-2.2 1.8-2.7l24.4-4 .4-24.8c0-1.3.9-2.2 2.2-2.2 1.3 0 2.2.9 2.2 2.2l-.4 26.6c0 .9-.9 1.8-1.8 2.2l-26.6 4.5c.5 0 0 0 0 0zM1088.8 450.6c-.4 0-.9 0-1.3-.4s-.9-.9-.9-1.8l.9-26.6c0-1.3 1.3-2.2 2.2-2.2 1.3 0 2.2.9 2.2 2.2l-.9 23.9 23.5-4c1.3 0 2.2.4 2.7 1.8 0 1.3-.4 2.2-1.8 2.7l-26.6 4.4c.4 0 .4 0 0 0zM1090.6 390.4c-1.3 0-2.2-.9-2.2-2.2l.9-34.1c0-1.3 1.3-2.2 2.2-2.2 1.3 0 2.2.9 2.2 2.2l-.9 34.1c0 1.3-.9 2.2-2.2 2.2zM1092.8 322.6c-1.3 0-2.2-.9-2.2-2.2l.9-26.6c0-.9.9-2.2 1.8-2.2l26.6-3.1c1.3 0 2.2.9 2.7 1.8 0 1.3-.9 2.2-1.8 2.7l-24.4 3.1-.9 24.8c-.5.8-1.8 1.7-2.7 1.7zM1205.3 308.9c-1.3 0-2.2-.9-2.2-2.2l.4-23.9-23.9 3.1c-1.3 0-2.2-.9-2.7-1.8 0-1.3.9-2.2 1.8-2.7l26.6-3.1c.4 0 1.3 0 1.8.4.4.4.9.9.9 1.8l-.4 26.6c-.1.5-1.4 1.8-2.3 1.8zM1203.9 373.6c-1.3 0-2.2-.9-2.2-2.2l.4-32.3c0-1.3.9-2.2 2.2-2.2 1.3 0 2.2.9 2.2 2.2l-.4 32.3c.1 1.3-.8 2.2-2.2 2.2z"/></g><path fill="#0189F7" d="M1021.6 350.8l31.8-1.5c6.8-.3 13.6-.7 20.4-1 .4 0 .8.1 1.3.1-.2 4.8-.4 9.6-.7 14.3-.7 10.7-.8 21.5-1.1 32.3 0 1.8-.6 2.5-2.3 2.7-3.4.5-6.7 1.2-10 1.8-.4-2-1.6-2.4-3.4-2.1-14 2.7-28 5.5-42.1 8.2-4.9.9-9.8 1.8-14.7 2.8-.6-.8-.7-1.6-.8-2.4-.4-3.9-.9-7.7-.8-11.6 0-1.5-.2-3-2.1-3-1.8 0-2.1 1.5-2 2.9 0 2.1.2 4.2.3 6.4.3 5.7 1.2 11.4 2.9 16.9 2 6.7 5 13.1 6.2 20 1.2 6.6.4 12.8-3.3 18.5-1.9 2.8-3.8 5.6-5.7 8.5-5.4 8.3-6.4 17-3.1 26.3.2.6.8 1.2.1 2.1-1.7-.9-3.3-1.8-5-2.6-11.7-6-23.5-12-35.2-18-6.1-3.1-12.3-6.2-18.4-9.3-1.2-.6-2.4-.9-3.1.6-.8 1.5.5 2.1 1.6 2.7 1.2.7 2.4 1.3 3.6 1.9 16.7 8.5 33.4 17.1 50.2 25.6l13.2 6.9c.8.4 1.5.8 1 1.9-3 7.2-5.7 14.5-9 21.6-1.4-.5-2.3-1.6-3.3-2.6-3.2-3.7-6.4-7.4-9.5-11.1-4-4.7-7.4-9.8-12.1-13.9-9.4-8.1-19.7-15-30.4-21.1-.1-1.2-1-1.7-1.8-2.2-14.4-7.9-28.5-7.6-42.2 1.8-4.6 3.2-8.3 7.3-11.9 11.5-2.8-7-3.9-14.3-4.5-21.7-1.2-14.8-.4-29.5 0-44.3V419c.3-2.1.6-4.2.8-6.3 1-8 1.9-15.9 3.9-23.8 1.9-7.6 5-14.7 9.8-20.7 6.9-8.4 16.2-12.9 26.8-15.2 4.8-1 9.5-2.1 14.1-3.7 1.7-.6 2.9-2.3 4.9-2.3.6 0 1.2.2 1.4.8.4 1.9 1.9 2.5 3.4 3.2 5.6 2.6 11.5 4.3 17.5 5.5 5.6 1.2 11.3 2.2 17 1.7 2.8-.3 5.4-1.1 6.4-4.3.2-.3.3-.5.5-.8 12.9-.8 26.2-1.6 39.4-2.3zm-97 107c-2.6.6-4.6 1.1-6.6 1.4-1.2.2-2.2.5-2.2 1.8.1 1.5 1.3 1.9 2.5 1.6 3.1-.6 6.2-1.3 9.3-2.1 1.1-.3 1.5-1.1 1.2-2.1-.3-1-1-1.3-2-1.2-.7.1-1.3.5-2 .1.2-.9.5-1.8.6-2.7 1.3-9.2 2-18.4 2.4-27.7.3-8.8.4-17.6-.3-26.3-.6-8.1-1.6-16.2-3.9-24-1.3-4.4-3-8.6-6-12.1-2.6-3-5.7-4.9-9.9-4.3-1.2.2-2.6.6-2.4 2.1.2 1.6 1.5 1.7 2.8 1.5 2.5-.3 4.5.7 6.2 2.5 2.9 3.1 4.4 6.9 5.6 10.9 3 9.9 4 20.1 4.3 30.4.3 10.8.1 21.7-.8 32.5-.4 4.6-.8 9.3-1.5 13.9-.2 2.1 0 3.4 2.7 3.8z"/><path fill="#FECA6C" d="M935.8 475.4c10.8 6.1 21.1 13 30.4 21.1 4.7 4.1 8.1 9.2 12.1 13.9 3.2 3.7 6.3 7.4 9.5 11.1.9 1.1 1.9 2.1 3.3 2.6 0 1.3-.5 2.8 1.2 3.5 1.2.5 1.8-.4 2.4-1.2 1.1.4 2.1.8 3.2 1.2 4.4 1.7 8.1 4.6 12 7.1 1.2.8 2 1.9 2.3 3.4 1 4.3 1.3 8.6 1.3 13 .1 3.9.8 7.6 3.6 10.6 1.9 2 4 3.7 6.1 5.6 3.1 2.7 6.9 4.2 10.3 6.3 4.7 3 7.8.7 8.5-3.9.6-3.9 1.3-7.8 1.8-11.7 1-8.1 2.3-16.2 2-24.4-.2-6.2-1.9-11.6-6.5-16-1.8-1.7-3.3-3.7-5-5.5 1-2 2.6-3.3 4.7-4.4 12.3-6.2 24.6-12.5 36.9-18.8.5 2.1 1.6 2.7 3.5 1.7 4.4-2.1 8.4-4.9 12.9-6.9 7.9-3.5 16.2-5.8 24.8-6.6 5.8-.5 11.7-.4 17.4 1.3 5.7 1.6 10.8 4.2 14.5 9 1.8 2.4 2.4 5.4 4.1 7.9-3.7.3-7.4.7-11.1.9-7.7.5-15.5.9-23.2 1.3-.9 0-1.6.5-2.3.9-.4 0-.7-.1-1.1 0-8.6.7-17.1 1.4-25.7 2.1-7.2.5-14.3 1.2-21.4 2.6-3.1.6-6.3 1.3-8.1 4.1-2.3 3.7-4 7.7-4.3 12.1-.3 1.1-.6 2.2-.8 3.3-1.1 8.1-2.1 16.2-3.2 24.3-1.1 7.9-2.1 15.8-3.2 23.7-.5 3.5-.8 7.1-1.6 10.6-5.6.8-11.2 1.7-16.7 2.5-8.8 1.3-17.6 2.6-26.3 4-4.9.8-9.9 1.3-14.8 2.4-.4 0-.8.1-1.3 0-5.3-.8-6.9.5-7.3 5.8 0 .4 0 .8-.4 1.1-.3 0-.6-.1-.9-.1 1.2-2.6 1.1-2.8-1.2-4.6-6.2-4.8-12.4-9.7-18.7-14.6-9.2-7.2-18.3-14.4-27.4-21.6-7.6-6-15.2-12-22.8-17.9-3.8-3-7.7-6-11.5-9-1.3-1-3.8-.9-4.4.3-.8 1.6.3 2.4 1.4 3.3 3.1 2.4 6.2 4.9 9.3 7.3 15.7 12.2 31.3 24.3 47 36.5 2.1 1.7 4.5 3.1 6.3 5.3-.6.3-1.3.6-1.8 1-5.2 3.9-9.7 8.4-11.8 14.7-13.8-.1-27.4-1.4-40.7-4.8-6.1-1.5-12.3-3-18-5.6-11.5-5.2-18.7-14-21.6-26.4-3.4-14.7-3.3-29.1 2.3-43.3.2-.4.2-1 .7-1.3 1.5 0 2.8-.1 3.3-1.9 1.7-5.4 4.1-10.5 6.8-15.5 4.9-9.4 11.2-17.5 20.5-22.9 7.3-4.2 15-5.9 23.4-4.1 4.3.9 8.3 2.6 12.2 4.7 1.5 1 2.7.8 3.1-1.1z"/><path fill="#C6C9CD" d="M1056.1 519.4c.3-4.4 2-8.4 4.3-12.1 1.8-2.8 5-3.5 8.1-4.1 7.1-1.4 14.2-2.1 21.4-2.6 8.6-.6 17.1-1.4 25.7-2.1h1.1c-.1 2.4.4 3 2.7 2.9 4.4-.2 8.9-.6 13.3-.9 8.6-.6 17.2-1.1 25.8-1.7 12.3-.8 24.7-1.5 37-2.2 2.4-.1 3.1-.8 3-3.3 2.8.7 4.9 3.1 4.3 6.2-2.3 12-4.5 24.1-6.7 36.2-2.6 14.6-5.2 29.1-7.8 43.7-.9 4.8-1.9 9.5-2.7 14.3-.3 1.9-1.2 2.8-3.1 2.5-1-2.4-1.5-2.5-5.2-2-6.4.8-12.8 1.4-19.2 2-6.3.6-12.7 1.2-19 1.8-6.9.7-13.8 1.4-20.7 2l-18.6 1.8c-8.1.8-16.2 1.6-24.2 2.4-6.5.7-12.9 1.4-19.4 1.9-2.7.2-5.4.9-8.4.5 0-.8-.1-1.5 0-2.1.9-6.6 1.8-13.3 2.7-19.9 1.1-7.7 2.1-15.4 3.2-23.1 1.1-7.9 2.1-15.8 3.2-23.7.7-5.4 1.6-10.7 2.3-16.1.6-2.6-.6-3.4-3.1-2.3zm64.7 45.8c6.8 0 12.5-2.5 17.2-7.3 2.5-2.6 4-5.6 2.9-9.2-1.1-3.8-4.2-5.1-7.9-5.7-5.3-.7-10.1.7-14.6 3.2-3.6 2-6.7 4.7-8 8.9-1.1 3.7.4 7.2 3.7 8.9 2.2 1.1 4.4 1.3 6.7 1.2z"/><path fill="#28459F" d="M935.7 346.9c-2 0-3.2 1.7-4.9 2.3-4.6 1.6-9.3 2.7-14.1 3.7-10.5 2.3-19.9 6.8-26.8 15.2-4.9 6-8 13.1-9.8 20.7-1.9 7.8-2.9 15.8-3.9 23.8-.3 2.1-.6 4.2-.8 6.3-14.4-2.9-24.1-14.6-23.7-28.7.3-9 4.3-16.2 11.2-21.7.4-.4.9-.7 1.4-1.1-2.1-2.5-3.3-5.5-4.2-8.5-2.3-7.4-.3-13.6 6.1-18 3.6-2.5 7.4-4.7 11.2-7 5.9-3.5 11-7.9 15.5-13.1 2.7-3.1 4.2-6.8 5.8-10.6.4-.2.5-.5.4-1 1.3-2.3 2.3-4.6 3-7.1 1.1-1.9 1.4-4.1 1.7-6.3-.6 1.4-1.3 2.7-1.9 4.1-4.2 7.4-9 14.2-15.6 19.7-4.6 3.7-9.6 6.5-15.4 7.8-1.3.3-2.5.1-2.8-1.4-.3-1.4.6-2.1 1.9-2.4 9.5-2.2 16.4-8.1 22.1-15.6 8.9-11.6 13.8-25 16.5-39.2 1.3-7 2-14.2 5.3-20.7 11-21.8 28.6-33.8 53.2-34.3 5-.1 9.3-.8 13.7-2.8 9.2-4.1 18.8-6.3 28.9-5.6 12.7.8 22.5 6.7 29.1 17.6 4.7 7.7 6.9 16.3 7.9 25.1.7 6.3.8 12.6.2 18.9-.1.8-.5 1.3-1.1 1.7-1.7 1.1-3.3 2.2-5 3.2-7.1 3.7-14.6 4.9-22.5 3.9-6.2-.8-12.1-2.6-17.3-5.9-6.6-4.1-12-9.6-15-17-.7-1.6-1.7-1.8-3.1-.6-1.2 1-1.6 2.5-2.7 3.5-5.6 5.5-11.9 9.3-20.2 8-.9-.1-1.9-.1-2.1 1.2-.1 1.1 0 2 1.3 2.2.4.1.8.2 1.2.4-.6 5.4-.1 11-1.9 16.6-1.4-2.1-2.1-4.2-3.6-5.8-3.6-3.8-7.8-3.9-11.5-.3-2.6 2.6-4.2 5.9-4.6 9.6-.5 3.7-.2 7.4.2 11 .9 8.6 2.1 17.1 1.1 25.8-.6 5.1-.9 10.1-2.5 15-.8 2.4-1.9 4.8-1.9 7.4zm38.9-131.1c-.4 1.2-2.2 1.7-1.6 3.5 2.3 7.1 4.5 14.3 6.8 21.4.4 1.1 1.2 2.1 2.6 1.6 1.2-.5 1.2-1.5.9-2.7-2.5-7.4-4.8-14.7-7.2-22.1-.5-.7-.6-1.4-1.5-1.7z"/><path fill="#FECA6C" d="M800.4 444.7c-.2.1-.4.1-.6.3-3.8 3.7-7.8 1.7-9.9-2.1-2.4-4.3-3.9-8.8-4.7-13.6-2.7-15.8-8.5-30.5-15.9-44.6-2.9-5.5-7.1-10.2-10.6-15.4-3.3-4.9-6.7-9.7-7.6-15.7-1.1-7.7.8-14.9 4.7-21.5 3-5.1 7-9.3 12.3-12 7.1-3.6 20-2.2 26.2 5.9 5.4 7.1 8.4 15 8.9 23.7.6 9.6 3.5 18.5 7 27.2 2.5 6.3 4.4 12.7 4.5 19.5 0 5.5-.9 11-2 16.4-1.7 8.2-3.4 16.4-7.1 23.9-.5 1-.9 2.1-1.8 2.8-.1-.3-.2-.5-.2-.8-.8-10.4-2.1-20.8-4-31.1-1.9-10.4-4-20.7-8.1-30.5-1.5-3.6-3.3-7.1-6.2-9.8-1-1-2.2-1.3-3.2-.2s-.5 2.2.6 3.1c1.5 1.2 2.6 2.8 3.5 4.5 2.3 4.2 3.9 8.6 5.2 13.2 3.6 12.3 5.6 25 7.2 37.7.9 6.2 1.6 12.6 1.8 19.1z"/><path fill="#0189F7" d="M767.3 533.7c-3.6-.5-3.8-.9-3.2-4.5.7-4 1.3-8.1 1.9-12.2.2-1.8 1.1-2.3 2.9-2.3 8 0 16-.1 24-.2 1.2.2 2.4.2 3.6 0 1.3.2 2.5.2 3.8 0 1.3.2 2.5.2 3.8 0 1.3.2 2.7.2 4 0 1.2.2 2.4.2 3.6 0 4.7 0 9.5.1 14.2.1 3 0 3.7.7 3 3.6-3.8 17.1-6.4 34.5-9.1 51.8-.4 2.3-1.8 3.1-5 3-6.5-.2-13-.5-19.5-.7-4.4-.2-8.8-.3-13.2-.4-1.8 0-2.8-.7-3.4-2.5-2.1-6.8-4.2-13.5-6.4-20.2 15.8-5.4 32.1-8.9 47.9-14.3 1.1-.4 2.3-.5 2-2.1-.3-1.5-1.4-1.6-2.6-1.5l-10.8.3c-7.1.3-14.1.5-21.2.9-5.9.3-11.9.3-17.8.5-.9-.1-1.9-.4-2.5.7z"/><path fill="#FDA585" d="M1034.5 512.1c1.6 1.8 3.2 3.8 5 5.5 4.6 4.4 6.3 9.8 6.5 16 .2 8.2-1 16.3-2 24.4-.5 3.9-1.2 7.8-1.8 11.7-.7 4.6-3.8 6.9-8.5 3.9-3.4-2.2-7.2-3.6-10.3-6.3-2.1-1.8-4.2-3.6-6.1-5.6-2.7-2.9-3.5-6.7-3.6-10.6-.1-4.4-.4-8.7-1.3-13-.3-1.5-1.1-2.6-2.3-3.4-3.9-2.5-7.6-5.4-12-7.1-1.1-.4-2.1-.8-3.2-1.2 3.3-7.6 6.5-15.2 9.8-22.7.6-1.3 1.2-2.6.7-4 4.6 1.4 8.9 3.5 13.2 5.5 4.2 1.8 8.4 3.6 12.4 6 1 .6 2.2.9 3.5.9z"/><path fill="#28459F" d="M1021.6 350.8c-13.2.7-26.5 1.5-39.7 2.2-.6-.1-1.3-.1-1.3-1 0-2.6 2.1-5.1 4.5-5.3 3.3.1 6.6-.3 9.4-1.9 6.1-3.5 10.4-8.5 12.6-15.3 2-6.1 2.9-12.4 4.5-18.6 2.7-10.3 5-20.8 6.2-31.4 2.5-.2 5 .2 7.5.1 5.1-.2 9.8-1.3 14.5-3.2 2.2-.9 4.1-2.5 6.3-3.3-.8 10.1-3 19.8-5.7 29.5-4.5 16-10.6 31.3-18.1 46.1-.1.7-.4 1.4-.7 2.1z"/><path fill="#FECA6C" d="M714.2 438.5c3.9-4.6 8.5-8.4 14.2-10.5 9.4-3.5 19-4.2 28.8-2 8 1.8 14.2 5.9 18.5 13 3.8 6.2 6.6 12.5 6.5 19.9 0 1.1-.1 2.1-.7 3.1-3.3-6.5-7-12.7-11.6-18.4-.6-.7-1.1-1.5-1.8-2.1-.7-.6-1.5-.7-2.3-.1-.9.7-.9 1.6-.4 2.5.3.5.8 1 1.2 1.5 4.8 5.9 8.8 12.4 12 19.4-2 1.6-4.5 1.8-6.8 1.7-4.3-.2-8.6-.4-12.7-2.1-1.6-.7-3.4-1-5.1-1.5-.1-.6-.7-.7-1.1-.9-3-1.8-6-3.8-8.2-6.6-3.4-4.3-7.2-8.1-11.1-11.9-3-2.9-6.3-5.1-10.6-5.7-2.8-.5-5.8.3-8.8.7z"/><path fill="#797979" d="M1056.1 519.4c2.5-1 3.7-.2 3.4 2.5-.7 5.4-1.6 10.8-2.3 16.1-1.1 7.9-2.1 15.8-3.2 23.7-1 7.7-2.1 15.4-3.2 23.1-.9 6.6-1.8 13.3-2.7 19.9-.1.7 0 1.4 0 2.1 3 .4 5.7-.3 8.4-.5 6.5-.6 12.9-1.3 19.4-1.9 8.1-.8 16.2-1.6 24.2-2.4l18.6-1.8c6.9-.7 13.8-1.4 20.7-2 6.3-.6 12.7-1.2 19-1.8 6.4-.6 12.8-1.2 19.2-2 3.6-.4 4.1-.4 5.2 2-.6 1.2-1.6 1.4-2.8 1.5-14.2 1.4-28.3 2.8-42.5 4.2-16.8 1.7-33.5 3.3-50.3 5-12 1.2-24.1 2-36.1 3.6-8.9 1.2-17.5-.5-26.2-1.2-12.3-1-24.5-2.4-36.8-3.6-1.1-.1-2.1.1-3.1.5-.1-.2-.2-.6-.4-.7-3.2-1.7-4.6-4.3-3.9-7.9v-.6c.4-.3.4-.7.4-1.1.4-5.3 2-6.6 7.3-5.8.4.1.8 0 1.3 0 18.6 2 37.3 3.9 56 5.9.6-5.1 1.6-10 1.8-14.9.9-3.5 1.1-7.1 1.6-10.6 1.1-7.9 2.2-15.8 3.2-23.7 1.1-8.1 2.1-16.2 3.2-24.3 0-1.2.3-2.2.6-3.3zm-11.4 80.3c-5.8-.6-11.5-1.2-17.1-1.8-9-.9-18-1.9-27-2.8-4.7-.5-9.4-1-14.1-1.4-.7-.1-1.7-.4-1.8.8-.3 2.4-.7 4.7-.2 7.4 19.8 1.9 39.4 3.8 59.3 5.8.4-2.7 1-5.1.9-8z"/><path fill="#FECA6C" d="M813.5 468.4c-3.6-2.7-4.7-6.6-4.8-10.7-.2-10.7 3.9-19.8 10.5-28.2 4.2-5.2 9.4-7.2 15.7-7.3 6.1-.1 11.8.7 16.8 4.6 2 1.6 4.5 2.6 6.3 4.7.9 1 1.9 1.9 2.2 3.3-3.1 1-5.4 3-6.9 5.8-1.9 3.5-4.4 6.5-6.9 9.6-1.7 2.2-3.6 4.3-4.7 6.9-1.8-.3-3.1.8-4.3 1.9-2.3 2.2-4.8 4.4-7.3 6.4-3.8 3.1-8.1 4.8-13.1 4.3 2.8-11.9 6.8-23.2 14.5-32.9 2.2-2.7 4.8-5 8-6.5 1.2-.6 2.3-1.3 1.5-2.7-.7-1.4-2-1-3.2-.5-2.1.9-3.9 2.2-5.6 3.7-6.1 5.5-9.9 12.5-13.1 19.9-2.2 5.9-3.9 11.8-5.6 17.7z"/><path fill="#272878" d="M1005.3 499.7c.6 1.5-.1 2.7-.7 4-3.3 7.6-6.5 15.2-9.8 22.7-.6.7-1.2 1.7-2.4 1.2-1.7-.7-1.2-2.2-1.2-3.5 3.3-7.1 6-14.4 9-21.6.5-1.2-.2-1.5-1-1.9l-13.2-6.9c-16.7-8.6-33.4-17.1-50.2-25.6-1.2-.6-2.4-1.2-3.6-1.9-1-.6-2.3-1.2-1.6-2.7.7-1.4 1.9-1.2 3.1-.6 6.1 3.1 12.3 6.2 18.4 9.3 11.7 6 23.5 12 35.2 18 1.7.9 3.4 1.8 5 2.6.7-.9.1-1.5-.1-2.1-3.3-9.3-2.3-18.1 3.1-26.3 1.9-2.8 3.8-5.6 5.7-8.5 3.7-5.7 4.5-11.9 3.3-18.5-1.3-6.9-4.2-13.4-6.2-20-1.7-5.5-2.6-11.1-2.9-16.9-.1-2.1-.2-4.2-.3-6.4 0-1.4.3-2.9 2-2.9 1.9 0 2.2 1.5 2.1 3-.1 3.9.4 7.8.8 11.6.1.8.2 1.5.8 2.4 4.8-.9 9.8-1.8 14.7-2.8 14-2.7 28-5.4 42.1-8.2 1.8-.4 3.1.1 3.4 2.1-.4 1.4-1.5 1.9-2.9 2.1-18.1 3.5-36.1 7-54.2 10.4-2 .4-2.3 1.2-2 2.8.5 2.5 1.4 4.9 2.3 7.3 3 7.1 5.1 14.4 5.1 22.2 0 5.6-1.8 10.5-5.1 15-3.9 5.2-7.7 10.5-8.7 17.3-.7 4.4-.5 8.5.7 12.9 1.7 5.3 5.2 8 9.3 10.4z"/><path fill="#FDA585" d="M1231.2 335.9c.5 6-.4 12-.5 18 0 4.2-.5 8.3-.6 12.5 0 1.5-.6 2.1-2.1 2.3-10.7 1.8-21.4 3.7-32.1 5.7-1.9.4-2.5-.3-2.7-1.8-1.1-6.5-2.3-12.9-3.4-19.4-.2-1.1-.4-2.3 1-2.9l16.5-6.6c.2-.1.4 0 .6 0 .1.7.4.8 1 .5 2-1 4.6-.9 6.2-2.9.3-.1.5-.1.8-.2 1.1.1 2-.5 3-.8 4.1-1.5 8.1-3.3 12.3-4.4z"/><path fill="#28459F" d="M980.4 597.2v.6c-.6 3.6.7 6.2 3.9 7.9.2.1.3.5.4.7-9.4 4.1-19 6.4-29.3 4.9-1-.1-1.9-.4-2.9-.7-6.6-2-8.9-5.4-8.7-13 2.1-6.4 6.6-10.8 11.8-14.7.6-.4 1.2-.7 1.8-1 1.1.2 2.1.8 3 1.5 4.2 3.2 8.4 6.4 12.7 9.6 2 1.5 3.7 3.5 6.4 4 .3.1.6.1.9.2z"/><path fill="#FBA141" d="M714.2 438.5c3-.3 5.9-1.2 9-.8 4.3.6 7.6 2.9 10.6 5.7 3.9 3.8 7.8 7.6 11.1 11.9 2.2 2.8 5.1 4.8 8.2 6.6.4.2.9.4 1.1.9-3.8-.8-7.6-1.7-11.5-2-5.3-.3-10.6.1-15.7 1.7-2.6.8-5.3 1.6-8 2.1-7.2 1.2-12.6-3.4-12.5-10.6 0-1.6.4-3.1.9-4.6 1.4-4.1 3.7-7.7 6.8-10.9z"/><path fill="#090807" d="M803.9 514.5c-1.3.2-2.5.2-3.8 0 1.5-14.6 1.9-29.3 1.6-44-.2-8.6-.4-17.3-1.3-25.8-.2-6.4-1-12.8-1.7-19.2-1.5-12.7-3.5-25.4-7.2-37.7-1.3-4.6-2.9-9-5.2-13.2-.9-1.7-2-3.3-3.5-4.5-1.1-.9-1.6-2-.6-3.1s2.2-.7 3.2.2c2.9 2.7 4.7 6.2 6.2 9.8 4.1 9.8 6.2 20.1 8.1 30.5 1.9 10.3 3.2 20.7 4 31.1 0 .3.2.5.2.8.4 8.6 1 17.2 1.2 25.8.4 13.1.3 26.2-.6 39.2-.1 3.5-.3 6.8-.6 10.1z"/><path fill="#206BCD" d="M767.3 533.7c.6-1 1.6-.7 2.5-.8 5.9-.2 11.9-.2 17.8-.5 7.1-.4 14.1-.6 21.2-.9 3.6-.2 7.2-.2 10.8-.3 1.2 0 2.3.1 2.6 1.5.3 1.6-.9 1.7-2 2.1-15.8 5.4-32.1 9-47.9 14.3-1.8-5.1-3.5-10.2-5-15.4z"/><path fill="#FBA141" d="M841.7 457.3c1.1-2.6 3-4.8 4.7-6.9 2.5-3.1 5-6.1 6.9-9.6 1.5-2.9 3.8-4.8 6.9-5.8.4.4.8.8 1.1 1.3 4.3 9 4.9 18.2.4 27.3-2.8 5.7-8.2 5.1-12.1 2.8-2.6-1.6-4.3-4.1-6-6.5-.6-1-1.3-1.8-1.9-2.6z"/><path fill="#272878" d="M1046.3 273c-2.3.8-4.1 2.4-6.3 3.3-4.7 1.9-9.5 2.9-14.5 3.2-2.5.1-5-.3-7.5-.1-.8-.2-1.7-.3-2.5-.5-13.2-2.6-23.9-8.9-30.9-20.7-.2-.3-.3-.8-.8-.8-6.4 6.6-13.8 10.8-23.3 10.2-.4-.1-.8-.3-1.2-.4-1.3-.2-1.4-1.2-1.3-2.2.1-1.3 1.1-1.4 2.1-1.2 8.3 1.2 14.6-2.5 20.2-8 1.1-1 1.5-2.6 2.7-3.5 1.4-1.1 2.4-1 3.1.6 3 7.4 8.4 12.9 15 17 5.3 3.3 11.1 5.1 17.3 5.9 8 1 15.5-.2 22.5-3.9 1.7-.9 3.3-2.1 5-3.2.6-.4 1-1 1.1-1.7 1 .2 1.5-.7 2-1.3 2.2-2.5 3.9-5.2 5-8.3 0-.1.1-.3.1-.4.5-1.2.9-2.9 2.7-2.3 2 .7 1.2 2.3.7 3.6-1.6 4.8-4.5 8.8-8.2 12.2-1 .7-2.3 1.3-3 2.5z"/><path fill="#090807" d="M813.5 468.4c1.8-5.9 3.4-11.8 5.9-17.5 3.2-7.4 6.9-14.4 13.1-19.9 1.7-1.5 3.5-2.8 5.6-3.7 1.2-.5 2.5-.9 3.2.5.7 1.4-.3 2.2-1.5 2.7-3.2 1.5-5.9 3.7-8 6.5-7.8 9.7-11.7 21-14.5 32.9-2.1 7.1-3.1 14.3-4 21.6-1 7.6-1.4 15.3-1.5 23-1.2.2-2.4.2-3.6 0 .3-15.1 1.8-30.1 5.3-44.9-.1-.3-.1-.8 0-1.2z"/><path fill="#FBA141" d="M935.8 475.4c-.5 1.9-1.6 2.2-3.2 1.3-3.9-2.1-7.9-3.8-12.2-4.7-8.4-1.8-16.1-.1-23.4 4.1-9.3 5.4-15.6 13.5-20.5 22.9-2.6 5-5.1 10.1-6.8 15.5-.6 1.8-1.9 1.9-3.3 1.9-.7-1.3-.5-2.5 0-3.8 3.4-9.2 7.7-18 13.4-25.9 3.6-4.2 7.3-8.3 11.9-11.5 13.7-9.5 27.8-9.7 42.2-1.8 1 .3 1.9.8 1.9 2zM1153.3 495.4c-1.7-2.4-2.2-5.5-4.1-7.9-3.7-4.8-8.8-7.4-14.5-9-5.7-1.6-11.6-1.8-17.4-1.3-8.6.8-16.9 3.1-24.8 6.6-4.5 2-8.5 4.7-12.9 6.9-1.9.9-3 .4-3.5-1.7 0-.7.5-1.1 1.1-1.5 14.4-8.2 29.3-14.4 46.3-14.1 8.7.1 17 1.7 24.2 7.2 3.7 2.8 6.3 6.4 7.9 10.8.6 1.7.5 3.1-1.3 3.9-.4.1-.7.1-1 .1z"/><path fill="#797979" d="M1153.3 495.4c.3 0 .6 0 .9.1 5.8-.4 11.6-.9 17.3-1.3 5.8-.5 11.7-.9 17.5-1.5 2.3-.2 4.5-.3 6.7-.1 1 .1 2 .2 2.8.8 0 2.5-.6 3.1-3 3.3-12.3.7-24.7 1.5-37 2.2-8.6.5-17.2 1.1-25.8 1.7-4.4.3-8.9.6-13.3.9-2.3.1-2.8-.4-2.7-2.9.7-.5 1.4-.9 2.3-.9 7.7-.4 15.5-.8 23.2-1.3 3.6-.3 7.3-.7 11.1-1z"/><path fill="#090807" d="M778.7 464.7c-3.2-7-7.1-13.4-12-19.4l-1.2-1.5c-.6-.9-.5-1.8.4-2.5.8-.6 1.6-.5 2.3.1.7.6 1.2 1.4 1.8 2.1 4.5 5.7 8.2 12 11.6 18.4 6.2 12.7 10.8 26 13.3 39.9.8 4.2 1.4 8.4 1.6 12.6-1.2.2-2.4.2-3.6 0-.8-11.7-3.6-23-7.5-34.1-1.9-5.2-4-10.6-6.7-15.6z"/><path fill="#DC6941" d="M1231.2 335.9c-4.2 1.1-8.2 2.9-12.3 4.3-1 .4-1.9.9-3 .8.3-7.9.7-15.8 1-23.8 0-1.4.5-2.2 1.8-2.6 1.4-.4 2.8-1 4.2-1.4 2.7-.8 3.9.2 3.4 3-.8 4.7-1.8 9.5-2.6 14.2-.1.8-.4 1.5-.2 2.4 1.4.3 2.7-.4 4.1-.6 4.1-.9 4.4-.5 3.6 3.7z"/><path fill="#FECA6C" d="M1212.8 429.6c0 2.6-1.1 2.9-6 2.2 2.1-.8 3.9-1.5 6-2.2z"/><path fill="#E58D61" d="M1215.1 341.2c-1.5 2.1-4.1 2-6.2 2.9-.6.3-.9.2-1-.5.4-.2.8-.3 1.2-.5.4.1.7 0 .9-.3.2-.1.5-.1.7-.2.2-.1.4-.2.5-.3 1.4-.5 2.4-1.5 3.9-1.1z"/><path fill="#E4EAF0" d="M902 299.9c.6-1.4 1.3-2.7 1.9-4.1-.2 2.2-.6 4.4-1.7 6.3-.4-.7 1.1-1.7-.2-2.2zM899.2 309.2c.1.4-.1.7-.4 1-.1-.5 0-.9.4-1z"/><path fill="#FDA585" d="M1210.1 342.9c-.2.3-.5.4-.9.3.2-.3.5-.5.9-.3zM1211.3 342.4c-.2.1-.4.2-.5.3.2-.1.4-.2.5-.3zM960.4 267.5c9.5.7 16.9-3.5 23.3-10.2.5 0 .6.5.8.8 7 11.9 17.7 18.1 30.9 20.7.8.2 1.7.3 2.5.5-1.2 10.6-3.5 21.1-6.2 31.4-1.6 6.2-2.5 12.5-4.5 18.6-2.2 6.8-6.5 11.9-12.6 15.3-2.9 1.6-6.1 2.1-9.4 1.9-1-.4-2-.9-3.1-1.3-10.1-3.8-19.6-8.7-27.5-16.3-.5-.5-1-.9-1.7-.5-.7.5-1.3 1-1.4 2-.1 1.6.3 3.1 1 4.5 4.4 8.6 11.5 14.2 19.9 18.7 3.2 1.7 6 2.2 9 .1-1 3.2-3.6 4-6.4 4.3-5.8.5-11.4-.5-17-1.7-6-1.3-11.9-2.9-17.5-5.5-1.5-.7-3-1.3-3.4-3.2-.1-.6-.8-.8-1.4-.8 0-2.6 1.1-5 1.9-7.4 1.6-4.9 1.9-10 2.5-15 1-8.7-.2-17.2-1.1-25.8-.4-3.6-.7-7.3-.2-11 .5-3.7 2-7 4.6-9.6 3.7-3.7 7.9-3.5 11.5.3 1.5 1.6 2.2 3.7 3.6 5.8 1.8-5.6 1.4-11.1 1.9-16.6zm35.3 38.9l-.9-13.5c-.1-1-.4-2.1-.7-3.1-.2-.8-.8-1.2-1.6-1-.8.2-1 .7-1 1.4 0 .6 0 1.1.1 1.7.7 5.2 1.2 10.4 1.2 15.6 0 3.4 0 3.4-3.3 3.8-.2 0-.4 0-.6.1-.6.3-1.1.7-1.1 1.4.1.8.7 1 1.4 1 .8.1 1.5.2 2.3.3 2.1.3 3.6-.8 3.9-3 .1-1.5.5-3.1.3-4.7zm-18.7 6.9c0 4.7 3.2 7.7 8 7.4.9 0 1.8-.1 1.8-1.3s-.8-1.3-1.7-1.3c-4.5-.4-5.9-2.2-5.2-6.6.1-.9.1-1.6-.9-1.8-.9-.2-1.6.3-1.8 1.1-.2.8-.2 1.6-.2 2.5z"/><path fill="#272878" d="M924.6 457.8c-2.8-.4-2.9-1.8-2.7-3.7.6-4.6 1.1-9.3 1.5-13.9.9-10.8 1.1-21.6.8-32.5-.3-10.3-1.3-20.5-4.3-30.4-1.2-3.9-2.7-7.8-5.6-10.9-1.7-1.8-3.7-2.8-6.2-2.5-1.3.1-2.6.1-2.8-1.5-.2-1.6 1.2-2 2.4-2.1 4.2-.6 7.3 1.2 9.9 4.3 3 3.5 4.7 7.7 6 12.1 2.3 7.8 3.3 15.9 3.9 24 .7 8.8.6 17.6.3 26.3-.3 9.3-1.1 18.5-2.4 27.7-.1.9-.4 1.8-.6 2.7.7.4 1.3-.1 2-.1 1-.1 1.7.2 2 1.2.3 1-.1 1.8-1.2 2.1-3.1.7-6.2 1.5-9.3 2.1-1.2.2-2.4-.2-2.5-1.6-.1-1.3 1-1.6 2.2-1.8 2.1-.4 4-.9 6.6-1.5z"/><path fill="#DC6941" d="M981.4 353.8c-3 2.1-5.8 1.7-9-.1-8.3-4.5-15.5-10.1-19.9-18.7-.7-1.4-1.1-2.9-1-4.5.1-1 .7-1.5 1.4-2 .7-.4 1.2 0 1.7.5 7.9 7.6 17.4 12.5 27.5 16.3 1 .4 2.1.9 3.1 1.3-2.5.2-4.6 2.7-4.5 5.3 0 .9.7.9 1.3 1-.3.4-.4.6-.6.9z"/><path fill="#FBA141" d="M979.5 597.1c-2.6-.5-4.4-2.5-6.4-4-4.3-3.2-8.5-6.4-12.7-9.6-.9-.7-1.9-1.3-3-1.5-1.8-2.1-4.1-3.6-6.3-5.3-15.6-12.2-31.3-24.3-47-36.5-3.1-2.4-6.2-4.9-9.3-7.3-1.1-.9-2.2-1.7-1.4-3.3.6-1.2 3.1-1.3 4.4-.3 3.9 3 7.7 6 11.5 9 7.6 6 15.2 12 22.8 17.9 9.1 7.2 18.3 14.4 27.4 21.6 6.2 4.9 12.4 9.8 18.7 14.6 2.5 1.8 2.6 2 1.3 4.7z"/><path fill="#E4EAF0" d="M1047.3 581.2c-.2 4.9-1.3 9.8-1.8 14.9-18.8-2-37.4-4-56-5.9 4.9-1.2 9.9-1.6 14.8-2.4 8.8-1.4 17.6-2.7 26.3-4 5.5-.9 11.1-1.7 16.7-2.6zM1120.8 565.2c-2.3.1-4.5-.1-6.6-1.2-3.4-1.7-4.9-5.2-3.7-8.9 1.3-4.2 4.4-6.9 8-8.9 4.5-2.5 9.3-3.9 14.6-3.2 3.7.5 6.8 1.8 7.9 5.7 1 3.6-.5 6.7-2.9 9.2-4.8 4.9-10.5 7.4-17.3 7.3z"/><path fill="#272878" d="M974.6 215.8c.9.4 1.1 1 1.3 1.7 2.4 7.4 4.8 14.8 7.2 22.1.4 1.2.4 2.2-.9 2.7-1.4.5-2.2-.5-2.6-1.6-2.3-7.1-4.5-14.2-6.8-21.4-.5-1.8 1.3-2.3 1.8-3.5z"/><path fill="#C6C9CD" d="M1044.7 599.7c.1 2.8-.5 5.3-.9 7.9-19.9-1.9-39.6-3.9-59.3-5.8-.4-2.6 0-5 .2-7.4.1-1.2 1.1-.9 1.8-.8 4.7.5 9.4.9 14.1 1.4 9 .9 18 1.9 27 2.8 5.6.7 11.2 1.3 17.1 1.9z"/><path fill="#DC6941" d="M995.7 306.4c.2 1.6-.2 3.2-.4 4.8-.3 2.1-1.8 3.2-3.9 3-.8-.1-1.5-.2-2.3-.3-.7-.1-1.3-.2-1.4-1-.1-.7.5-1.1 1.1-1.4.2-.1.4-.1.6-.1 3.3-.4 3.3-.4 3.3-3.8 0-5.2-.5-10.4-1.2-15.6-.1-.6-.1-1.1-.1-1.7 0-.7.2-1.3 1-1.4.8-.2 1.4.2 1.6 1 .3 1 .6 2 .7 3.1.4 4.4.7 8.9 1 13.4zM977 313.3c.1-.8 0-1.7.2-2.5s.9-1.3 1.8-1.1c1 .2 1 .9.9 1.8-.8 4.4.6 6.2 5.2 6.6.9.1 1.8.2 1.7 1.3 0 1.2-.9 1.2-1.8 1.3-4.8.2-8-2.7-8-7.4z"/></svg>