<svg xmlns="http://www.w3.org/2000/svg" viewBox="-37.2 173.4 669.7 467.5"><g fill="#FFCB6C"><path d="M513 252.1h-1.3c-2.1-.9-3.4-3-3-5.1l9-29c.9-2.1 3-3.4 5.1-3 2.1.9 3.4 3 3 5.1l-9 29c-.4 1.7-2.1 3-3.8 3zM544.1 264.4c-.9 0-1.7-.4-2.6-.9-1.7-1.3-2.1-4.3-.9-6l30.7-40.1c1.3-1.7 4.3-2.1 6-.9s2.1 4.3.9 6l-30.7 40.1c-.8 1-2.1 1.8-3.4 1.8zM562.4 291.7c-1.3 0-2.6-.9-3.4-1.7-1.3-2.1-.9-4.7 1.3-6l28.6-18.8c2.1-1.3 4.7-.9 6 1.3 1.3 2.1.9 4.7-1.3 6L565 291.3c-.8 0-1.7.4-2.6.4z"/></g><path fill="#EF8731" d="M2.1 430.8c-.9 0-1.7-.4-2.1-1.3-.4-1.3.4-2.1 1.3-2.6l162-54.2c1.3-.4 2.1.4 2.6 1.3.4 1.3-.4 2.1-1.3 2.6l-162 54.2h-.5zM394.9 422.7c-13.2 0-21.7-3.8-25.6-9.8-7.2-10.2-.9-26.9 16.2-41.8 11.5-10.7 11.9-15.4 11.1-17.1-3.4-6.8-29-5.5-44.3-3-1.3 0-2.1-.4-2.6-1.7-.4-1.3.4-2.1 1.7-2.6 7.2-1.3 43.1-6.4 49 5.5 2.6 5.5-1.3 12.8-11.9 22.2-15.4 13.6-21.3 27.7-15.4 36.2 8.1 11.9 41.4 13.6 108.7-20 .9-.4 2.1 0 3 .9.4.9 0 2.1-.9 3-41.3 20.5-70.3 28.2-89 28.2z"/><linearGradient id="a" gradientUnits="userSpaceOnUse" x1="117.5" y1="841.264" x2="117.5" y2="786.227" gradientTransform="matrix(4.2642 0 0 -4.2642 0 3804.532)"><stop offset="0" stop-color="#facb03"/><stop offset=".485" stop-color="#fab205"/><stop offset="1" stop-color="#ef8731"/></linearGradient><path fill="url(#a)" d="M501 260.6c-26.4 0-48.2 21.7-48.2 48.2 0 8.5 3.8 17.9 4.3 18.3 1.3 3 3.8 7.7 5.5 10.2l32.8 49.9c1.3 2.1 3.4 3.4 5.5 3.4s4.3-1.3 5.5-3.4l32.8-49.9c1.7-2.6 4.3-7.2 5.5-10.2 0-.4 4.3-9.8 4.3-18.3-.2-26.4-21.5-48.2-48-48.2zm0 73.4c-14.1 0-25.6-11.5-25.6-25.6s11.5-25.6 25.6-25.6c14.1 0 25.6 11.5 25.6 25.6S514.7 334 501 334z"/><g><path fill="#0189F7" d="M196.9 493.1c-3.1-8.7-4.2-17.7-4.6-26.8-.4-8.7.2-17.3.1-26 0-3.2.2-6.4.3-9.6.5-1.4.2-2.8.5-4.3 1.5-9.4 1.9-19 5.5-28 2.3-5.8 4.9-11.5 9.3-16.1 6.5-6.8 14.7-10.4 23.7-12.4 4.5-1 8.9-1.9 13.1-3.7 1.3-.5 2.1-1.8 3.6-1.9.6.3 1.7.4 1.8.9.7 2.2 2.7 2.7 4.5 3.5 3.9 1.8 8 3 12.2 4 5.7 1.3 11.5 2.4 17.4 2.3 1.4 0 2.9.1 3.8-1.5h1.4c1.5 4.3 4.3 7.7 7.7 10.6 2.6 2.3 5.4 4.5 8.1 6.7 2.1 1.8 4.2 3.7 6.6 5.1 1.7 2 3.4 4.1 5.1 6.1-1 1-.8 1.9.1 2.9 2.6 2.8 4.6 6 6.1 9.5 3.6 8.1 4.5 16.7 5.4 25.3.8 8.1.4 16.3.4 24.4 0 .9-.2 1.8-.2 2.7 0 1.1.4 2 1.6 2.1 1.2 0 1.6-.9 1.7-1.9.1-.8 0-1.6.1-2.3.1-1.7-.3-3.4.3-5 .1 3.7.3 7.5.4 11.2-2.6.5-4.9 2-7.5 2.8-.6.2-1.2.6-1.7 1-.6.5-.9 1.2-.5 1.9s1.1 1 1.8.7c2.8-1.4 6-1.9 8.5-3.8.2.2.4.4.5.6-.5 1.4 0 2.3 1.2 3.1l30.9 23.1c1.2.9 2.3 1.7 3.8 1.5 0 .6-.6.6-.9.8-6.6 3.8-13.1 7.7-20.1 10.7-3.3 1.4-6.6 3-10 4.2-.8.1-1.4-.5-2.1-.8-6.4-3.4-12.9-6.6-19.5-9.7-1.3-.6-2.8-1.2-4.2-.1-.1-1.3-.6-2.3-1.9-2.7-4.4-1.3-6.4-4.4-6.8-8.7 0-.4-.3-.9-.4-1.3-1.5-5.7-1.8-11.4 1.5-16.6 1.8-2.9 3.8-5.8 5.7-8.6 3.7-5.4 5.5-11.4 4.9-17.9-.4-4.8-1.5-9.5-3-14.1-1.9-6-3.4-12-5.2-18-.3-1.2-.8-2.6-2.5-2.1-1.5.5-1.1 1.9-.8 3 .6 2.5 1.4 4.9 2 7.4 1.7 7 4.6 13.7 5.7 20.9 1.1 7.3-.2 13.8-4.6 19.8-2.5 3.3-4.8 6.8-6.8 10.5s-1.9 7.8-1.4 11.8c.4 3 1.2 5.9 2.3 8.8l-.2.2c-.6.1-1.1-.2-1.7-.5-10.6-5.4-21.2-10.9-31.9-16.3-7-3.6-14.1-7.1-21.1-10.6-1.1-.6-2.5-1.2-3.2.4-.8 1.6.6 2.2 1.7 2.7 1.9.9 3.8 1.7 5.6 2.7 12.5 6.4 24.9 12.8 37.4 19.2 6.3 3.2 12.6 6.3 18.9 9.5.8.4 1.5.7 1 1.9-2.9 6.6-5.1 13.5-8.6 19.8-1.1-.5-2-1.3-2.7-2.1-3.7-4.4-7.5-8.7-11.1-13.1-3-3.6-5.7-7.4-9.2-10.4-8.1-6.8-16.8-12.8-25.9-18.2-.6-.4-1.3-.7-2-.8-.5-1.1-1.3-1.9-2.3-2.5-13.5-7.6-28.2-6.4-40.3 3.2-3.2 2.3-6 5.9-9.3 8.9zm41.9-27c.2-.9.5-1.6.6-2.4 1.4-11.2 2.2-22.4 2.3-33.7.1-10.2-.4-20.3-2.2-30.3-1.2-6.4-2.8-12.6-6.7-18-2.4-3.3-5.5-5.4-9.8-4.7-1.1.2-2.1.6-2.1 1.9.1 1.3 1.1 1.7 2.3 1.5 3-.6 5 .9 6.7 3 1.3 1.6 2.2 3.3 3 5.2 3.9 9.9 4.9 20.4 5.3 30.8.3 8 .2 16-.3 24-.4 6.5-1 13-1.8 19.4-.2 1.4-.3 2.7 1.7 3.6-2.1.5-3.8 1.1-5.5 1.2-1.1.1-1.8.6-1.7 1.7.1 1.1 1 1.7 2 1.5 3-.6 6-1.3 9-2 .9-.2 1.3-.9 1.1-1.8-.2-.9-.9-1.2-1.7-1.3-.8.3-1.5.8-2.2.4z"/><path fill="#FECA6C" d="M249.2 483c.7.1 1.4.4 2 .8 9.1 5.3 17.8 11.3 25.9 18.2 3.6 3 6.3 6.8 9.2 10.4 3.7 4.4 7.4 8.8 11.1 13.1.8.9 1.6 1.7 2.7 2.1 0 1 0 2 1.1 2.4 1.2.4 2-.2 2.6-1.2.4.1.9.1 1.3.4 2.5 1.4 5.2 2.6 7.9 3.6 2.5.9 4.7 2.3 7.4 2.8 0 .9.1 1.8-.1 2.7-.6 2.9-.3 5.8-.3 8.7 0 2.2.8 4 2.3 5.6 4.1 4.2 9.2 5.8 14.9 6.2-.4 2.8-.8 5.6-1.2 8.5-.8.5-1.3 1.1-1.1 2.1.2 1.1 1.1 1.2 1.9 1.4 2 .4 4.1.6 6.2.9 1.9.3 3.2-.5 4-2.3 1.6-3.2 2.8-6.4 4-9.7 1.8-4.8 3.2-9.7 3.1-14.9 0-1.2-.7-2.2-.8-3.3-.6-5.4-2.3-10.5-5.4-15.1-.5-.8-1-1.3-2-1.4-.4-1.2-1.3-2.1-2.1-3-1.4-1.7-3.4-2.8-4.6-4.7 3.4-1.2 6.7-2.8 10-4.2 7-3 13.5-6.9 20.1-10.7.4-.2.9-.3.9-.8.5.2.7-.1 1-.4 3.1-1.2 5.7-3.3 8.5-4.9.7-.4 1.2-1 2-1 1.2.9 2.2.8 3.5 0 2.5-1.5 5.1-2.9 7.7-4.1 11.5-5.2 23.5-7.9 36.3-6.1 10 1.4 17.3 6 20.5 16-2.4.5-4.8.4-7.2.6-7.8.5-15.5 1-23.3 1.4-1 .1-1.9.3-2.7.9-2.3.1-4.7.1-7 .3-7.6.6-15.2 1.3-22.8 1.9-5.6.4-11.1 1.1-16.5 2.4-2 .5-4.2 1.1-5.4 2.9-2.4 3.5-3.8 7.5-4.4 11.7-.2 1.4-.5 2.8-.6 4.2-1.2 9.1-2.6 18.2-3.7 27.3-1.1 8.5-2.7 16.9-4 25.4-4.2.6-8.3 1.2-12.5 1.8-9 1.4-18.1 2.8-27.1 4.2-4.7.7-9.3 1.5-14 2.3-.7.1-1.4-.1-2.1-.2-3.5-.6-5.7 1.2-5.8 4.8 0 .8.1 1.8-1 2-.4-.4-.9-.7-1.3-1.1 1-1.8-.2-2.9-1.4-3.9-6.6-5.2-13.2-10.3-19.8-15.5-8.7-6.7-17.5-13.3-26.1-20-9.2-7.1-18.3-14.2-27.4-21.3-1.1-.8-2.4-2.1-3.5-.7-1.3 1.6.4 2.6 1.5 3.4 7.8 6.1 15.6 12.1 23.4 18.1 5.5 4.2 10.8 8.6 16.4 12.5 3.8 2.6 7.3 5.6 10.9 8.5 2.3 1.9 4.9 3.4 6.9 5.6-.5.3-1.1.5-1.5.8-4.9 3.6-9.1 7.7-11 13.7-7.2 0-14.3-.3-21.4-1.3-11.6-1.6-23-4-33.8-8.6-10.1-4.4-16.4-12-19.1-22.7-3.6-14.2-3.4-28.1 2-41.8.1-.2.2-.3.3-.4 1.7.2 2.6-.5 3.2-2.1 1.2-3.2 2.5-6.3 3.8-9.4 2.6-6.3 6.7-11.7 11.1-16.8 3.7-4.3 8.2-7.9 13.4-10.2 9.9-4.4 19.7-3.3 29 1.7 1.6.9 2.8.9 4-.5z"/><path fill="#C6C9CD" d="M360.5 523.2c.6-4.2 2-8.2 4.4-11.7 1.2-1.8 3.4-2.4 5.4-2.9 5.4-1.3 10.9-2 16.5-2.4 7.6-.6 15.2-1.3 22.8-1.9 2.3-.2 4.7-.2 7-.3-.1 2.2.3 2.7 2.5 2.6 6.4-.4 12.7-.8 19.1-1.2 7.1-.4 14.2-.8 21.2-1.2 9.9-.6 19.9-1.3 29.8-1.9 2.4-.1 2.8-.6 2.6-3 2.8.4 4.5 2.8 4.1 5.3-2.7 14.8-5.3 29.6-8 44.4-1.7 9.6-3.5 19.1-5.3 28.7-.8 4.6-1.8 9.2-2.4 13.8-.3 2-1 2.8-3 2.6-.3-1.7-1.3-2.2-2.9-2-3.2.4-6.3.6-9.5.9l-18 1.8c-5.9.6-11.9 1.1-17.9 1.7l-18 1.8c-4.7.5-9.3.8-14 1.3-5.9.6-11.8 1.2-17.6 1.8-6.1.6-12.3 1.3-18.4 1.8-2.7.2-5.4.8-8.1.5-.4-.9-.2-1.6 0-2.4.5-2.3.9-4.6 1.2-6.8 1.4-8.7 2.5-17.5 3.7-26.3 1.2-9.1 2.5-18.3 3.8-27.4.7-5.2 1.5-10.4 2.1-15.7.2-2.5-.9-3-3.1-1.9zm60 42.1c6.5 0 11.8-2.7 16.1-7.5 3.2-3.5 2.9-8.7-.4-11.3-2-1.6-4.6-2.1-7-1.9-6.3.4-11.7 2.8-15.9 7.6-3.6 4.1-3.2 9.7 1.2 12 1.8 1 3.9 1.3 6 1.1z"/><path fill="#28459F" d="M248.5 364.4c-1.5.1-2.3 1.4-3.6 1.9-4.2 1.8-8.7 2.7-13.1 3.7-9 2-17.2 5.6-23.7 12.4-4.4 4.6-6.9 10.3-9.3 16.1-3.6 9-4 18.6-5.5 28-.2 1.4 0 2.9-.5 4.3-10.5-2.3-17.9-8.3-20.8-18.8-3.2-11.7 1-21.2 10.5-28.7-1.7-2.2-2.8-4.7-3.6-7.4-2.2-7-.7-12.4 5.2-16.7 4.3-3.1 9-5.7 13.5-8.6 5.7-3.6 10.8-8 14.1-14 2.8-5.2 5.6-10.5 7-16.3.6-.9.6-2 .9-3.1-.6 1.1-1.2 2-1.5 3-3.4 6.1-7.2 11.9-12.3 16.8-4.4 4.3-9.6 7.3-15.5 9.1-.6.2-1.3.3-1.9.4-1.1.2-2.2 0-2.4-1.3-.2-1.3.5-1.9 1.7-2.2 3.2-.7 6.1-2.1 9-3.7 4.4-2.4 7.8-5.8 10.9-9.7 7.9-9.9 12.4-21.3 15.3-33.5 1.1-4.7 1.4-9.5 2.6-14.2 3.6-13.6 11.4-24.2 23.4-31.6 9.8-6 20.4-9.6 32.2-8.3 2.3.3 4.1-.4 6.1-1.3 8.7-4 17.7-6.6 27.3-6.6 15.2 0 25.8 7.2 32.1 20.8 3.5 7.6 4.9 15.7 5.3 24.1.2 4 0 8.1-.1 12.1-.8 1.4-2.2 2.1-3.5 3-7.6 4.9-15.9 5.9-24.5 4.5-12.6-2.1-22.3-8.5-28.2-20.1-.4-.8-.6-1.8-1.8-1.8-1.3 0-1.8.9-2.3 1.8-.8 1.3-1.6 2.6-2.7 3.5-4.7 3.8-9.8 6.6-16.2 6.1-1.2-.1-2.8-.5-3.1 1.1-.3 1.4 1.3 1.7 2.2 2.4 0 0 .1.1.1.2 0 4.9 0 9.9-1.6 15.1-.9-1.6-1.5-2.9-2.3-4.1-3.7-5.2-8.8-5.3-12.7-.2-2.6 3.3-3.4 7.1-3.3 11.2.1 5.7 1 11.4 1.5 17.1.7 8.3-.1 16.5-1.7 24.6-.9 3-2.7 5.7-3.2 8.9zm36.3-120.6c-.4 1.4-1.9 2-1.3 3.8 2 5.9 3.8 12 5.7 18 .4 1.3.7 3.4 2.5 2.7 1.8-.6 1.1-2.5.6-3.9-2-5.4-3.5-10.8-5.3-16.3-.5-1.4-.8-3-2.2-4.3z"/><path fill="#FECA6C" d="M123.5 454.4c-.1.1-.3.1-.4.2-4.2 3-7 2.3-9.5-2.4-2.7-4.9-3.8-10.4-4.8-15.8-2.3-12.8-7.4-24.6-13.2-36-2.4-4.6-5.7-8.7-8.9-12.8-2.2-2.8-4.1-5.7-5.8-8.8-4.7-8-4-16.1-.6-24.2 2.1-5.2 5.6-9.3 9.9-12.9 6.5-5.3 21.2-5 27.6 3 5.3 6.7 7.9 14.1 8.5 22.3.6 7.9 2.7 15.4 5.6 22.7 2.4 6.1 4.7 12.3 5 19 .2 4.1-.4 8.1-1 12-1.1 6.8-2.5 13.5-4.7 19.9-1.1 3.1-1.9 6.4-4.2 8.9-.1-.4-.2-.7-.3-1.1-1.2-13.8-3-27.5-6.2-40.9-1.7-7-3.7-13.9-7.3-20.2-.9-1.7-2.1-3.1-3.6-4.4-.8-.7-1.9-.8-2.6.1-.8.9-.5 1.8.4 2.5 2 1.6 3.2 3.8 4.3 6 2.2 4.5 3.7 9.3 5 14.2 2.9 11.2 4.7 22.7 5.9 34.2.2 4.9.9 9.7.9 14.5z"/><path fill="#28459F" d="M311.9 395.8c-2.4-1.4-4.5-3.3-6.6-5.1-2.7-2.2-5.4-4.4-8.1-6.7-3.4-2.9-6.2-6.3-7.7-10.6l1.5-6c.4-1.9 1.4-3.3 3.6-3.1 5.1.1 9.5-1.4 13.4-4.8 4.5-3.9 6.9-8.8 8.1-14.4 3.2-14.1 7.1-28.1 9-42.5 1 0 2-.1 2.9 0 6.2.3 12.1-.8 17.9-3.2 1.9-.8 3.3-2.2 5.3-2.7-1.8 17-6.5 33.2-12.8 49-6.9 17.7-15.8 34.4-26.5 50.1z"/><path fill="#0189F7" d="M119.9 518.6c1.2.1 2.3.2 3.5 0 1.1.2 2.3.2 3.4 0 1.2.1 2.5.2 3.7 0 1.1.2 2.2.2 3.3 0 4.5 0 9 .1 13.5.1 2.7 0 3.1.6 2.8 3.3-.7 5.6-2.3 10.9-3.5 16.4-2.2 10-3.3 20.2-5.2 30.2-.6 3.1-1.4 3.9-4.7 3.8-6.1-.2-12.1-.4-18.2-.7-4-.1-8-.3-11.9-.4-1.7 0-2.6-.7-3.1-2.4-1.9-6.2-4.2-12.3-5.8-18.6 14.5-4.9 29.4-8.2 43.9-13.1 1-.3 2.2-.3 1.9-1.9-.2-1.5-1.4-1.5-2.5-1.5-3.2.1-6.4.1-9.6.3-6.6.3-13.1.5-19.7.8-5.7.3-11.4.3-17.2.4-.7 0-1.5-.1-1.9.7-3.2-.3-3.5-.8-3-3.9.6-3.7 1.2-7.4 1.7-11.2.2-1.7.9-2.3 2.7-2.3 7.5 0 15-.1 22.4-.2 1.2.4 2.4.4 3.5.2z"/><path fill="#FECA6C" d="M103.6 473.2c-5.9 2.2-11.7 1.3-17.5-.4-1.9-.6-3.7-1.1-5.6-1.6-.1-.6-.7-.7-1.1-1-2.5-1.6-5.1-3.2-6.9-5.6-3.2-4.1-6.9-7.7-10.7-11.4-3.9-3.8-8.5-6.2-14.2-5-1.1.2-2.3.3-3.5.4 3.3-4 7.2-7.3 12.1-9.2 9.3-3.6 18.8-4.4 28.5-1.8 7.3 1.9 13 5.9 16.8 12.6 3.2 5.5 5.6 11.2 5.3 17.7 0 .8 0 1.7-.6 2.4-2.6-4.7-5.2-9.5-8.4-13.9-1.3-1.7-2.4-3.5-4.2-4.8-.8-.6-1.6-.8-2.4-.1-.7.7-.7 1.5-.1 2.3 1 1.3 2 2.6 3.1 3.8 4.1 4.6 6.9 10 9.4 15.6z"/><path fill="#787878" d="M360.5 523.2c2.3-1.1 3.4-.5 3.1 1.9-.6 5.2-1.4 10.4-2.1 15.7-1.3 9.1-2.5 18.3-3.8 27.4-1.2 8.8-2.2 17.5-3.7 26.3-.4 2.3-.8 4.6-1.2 6.8-.2.8-.3 1.5 0 2.4 2.7.4 5.4-.3 8.1-.5 6.1-.5 12.3-1.2 18.4-1.8 5.9-.6 11.8-1.2 17.6-1.8 4.7-.5 9.3-.8 14-1.3l18-1.8c5.9-.6 11.9-1.1 17.9-1.7l18-1.8c3.2-.3 6.3-.6 9.5-.9 1.6-.2 2.7.3 2.9 2-.4 1.1-1.3 1.3-2.3 1.4-13.2 1.3-26.5 2.6-39.7 3.9-15.4 1.5-30.7 3-46.1 4.6-12.1 1.2-24.3 2.4-36.4 3.7-5.9.6-11.6-.5-17.4-1-11.7-1-23.3-2.2-35-3.4-1.9-.2-3.7-.6-5.6-.2-.2-.1-.4-.3-.6-.4-2.2-1.2-4.3-2.3-3.7-5.4.2-.8-.1-1.5-.7-2.1 1.2-.2 1-1.2 1-2 .1-3.6 2.3-5.4 5.8-4.8.7.1 1.4.3 2.1.2 17.2 1.8 34.5 3.6 51.9 5.4.6-4.7 1.2-9.2 1.7-13.7 1.3-8.5 2.9-16.9 4-25.4 1.1-9.1 2.5-18.2 3.7-27.3.1-1.6.3-3 .6-4.4zM293.9 599c18.4 1.8 36.6 3.6 55 5.3.3-2.5 1-4.8.9-7.3-6.5-.7-12.8-1.3-19.1-2-8.3-.9-16.6-1.8-24.9-2.6-3.4-.3-6.7-.6-10.1-1-.9-.1-1.8 0-1.8 1.2v6.4z"/><path fill="#FECA6C" d="M135.5 476.2c-1.3-.4-1.8-1.6-2.4-2.7-1.8-3.6-2.3-7.3-1.9-11.3.8-7.5 3.9-13.9 8.1-20 5.3-7.7 12.7-9.1 21.2-8.2 7.3.8 12.7 4.8 17.5 10 .5.5.7 1.2 1.1 1.8-2.3 0-4 1.1-5.2 2.9-2.6 3.8-5 7.7-8 11.2-1.6 1.8-3.3 3.7-4.2 6.1-2-.1-3.3 1.2-4.5 2.4-2 1.9-4.1 3.6-6.2 5.4-3.6 3-7.7 4.2-12.3 3.9 2-9.2 5.2-18 10.5-25.8 2.9-4.3 6.1-8.3 11-10.5.9-.4 1.5-1.1 1.1-2.2-.4-1.2-1.5-1.2-2.5-.8-1.4.5-2.7 1.3-3.9 2.2-6.4 5.1-10.7 11.6-13.9 19-2.2 5.3-3.8 11-5.5 16.6z"/><path fill="#28459F" d="M289.6 594.9c.6.6.8 1.3.7 2.1-.6 3.1 1.5 4.3 3.7 5.4.2.1.4.3.6.4-9.6 4.3-19.5 6.8-30.1 4.2-4.4-1.1-7.6-3.7-8.1-8.6-.1-1.1.1-2.2.1-3.3 1.9-6 6.2-10.1 11-13.7.5-.3 1-.5 1.5-.8 1.2.3 2.1 1 3 1.6 5.4 3.8 10.7 7.7 16.1 11.5.7.5 1.1.9 1.5 1.2z"/><path fill="#FEA03E" d="M44 448.6c1.2-.1 2.3-.2 3.5-.4 5.8-1.2 10.3 1.2 14.2 5 3.7 3.6 7.5 7.2 10.7 11.4 1.8 2.4 4.4 4 6.9 5.6.4.3 1 .4 1.1 1-5.3-1.2-10.6-2.2-16-1.8-3.8.3-7.4 1.1-11.1 2.3-3.1 1-6.3 1.8-9.6 1.1-5.9-1.3-8.6-5.6-7.3-11.5 1.2-5.1 3.5-9.5 7.6-12.7z"/><path fill="#0C0B08" d="M126.7 518.6c-1.1.2-2.2.2-3.4 0 .7-7 1-14 1.2-21.1.4-14.4.2-28.8-1.1-43.2 0-4.8-.6-9.6-1.2-14.4-1.3-11.5-3-23-5.9-34.2-1.3-4.9-2.8-9.7-5-14.2-1.1-2.2-2.3-4.4-4.3-6-.9-.7-1.2-1.6-.4-2.5.8-.9 1.8-.8 2.6-.1 1.5 1.2 2.6 2.7 3.6 4.4 3.6 6.3 5.6 13.2 7.3 20.2 3.2 13.5 5 27.2 6.2 40.9 0 .4.2.8.3 1.1.4 8 .9 16 1.1 24 .3 12 .3 24-.6 35.9 0 3.1-.2 6.2-.4 9.2z"/><path fill="#206BCD" d="M92.6 536.2c.5-.8 1.2-.6 1.9-.7 5.7-.1 11.5-.1 17.2-.4 6.6-.3 13.1-.5 19.7-.8 3.2-.2 6.4-.2 9.6-.3 1.2 0 2.3 0 2.5 1.5.3 1.5-1 1.5-1.9 1.9-14.5 5-29.4 8.3-43.9 13.1-1.5-4.9-3.9-9.4-5.1-14.3z"/><path fill="#FEA03E" d="M161.8 466c.9-2.3 2.6-4.2 4.2-6.1 3.1-3.5 5.4-7.4 8-11.2 1.3-1.8 2.9-2.9 5.2-2.9 3.3 4.9 4.1 10.5 3.7 16.2-.2 3.4-.9 6.7-2.7 9.7-2.6 4.5-6.7 5.5-11.1 2.7-2.4-1.5-4-3.7-5.5-6-.5-.8-1.2-1.6-1.8-2.4z"/><path fill="#252678" d="M351.3 296.7c-2 .5-3.5 2-5.3 2.7-5.7 2.4-11.7 3.5-17.9 3.2-1-.1-2 0-2.9 0-.6-.2-1.1-.3-1.7-.5-12.5-2.4-22.8-8.1-29.5-19.4-.2-.3-.3-.6-.8-.6-3.1 3.6-6.9 6.2-11.4 7.9-3.3 1.3-6.7 1.5-10.1 1.6 0-.1-.1-.1-.1-.2-.9-.6-2.5-.9-2.2-2.4.4-1.6 2-1.2 3.1-1.1 6.4.5 11.5-2.2 16.2-6.1 1.2-.9 2-2.2 2.7-3.5.5-.9 1.1-1.8 2.3-1.8 1.2 0 1.4 1 1.8 1.8 5.9 11.6 15.6 18 28.2 20.1 8.6 1.4 17 .4 24.5-4.5 1.3-.8 2.7-1.6 3.5-3 3.4-2 5.2-5.3 6.7-8.8.2-.6.4-1.2.7-1.8.4-.9 1.1-1.3 2.1-1 .9.3 1.1 1.1 1 1.9-.3 1.5-.9 3-1.6 4.4-1.9 3.5-4.1 6.8-7.6 9-.7.8-1.5 1.2-1.7 2.1z"/><path fill="#0C0B08" d="M135.5 476.2c1.7-5.7 3.3-11.4 5.7-16.8 3.2-7.4 7.5-13.9 13.9-19 1.2-.9 2.5-1.7 3.9-2.2 1-.4 2-.4 2.5.8.4 1-.2 1.8-1.1 2.2-4.9 2.2-8.1 6.2-11 10.5-5.3 7.9-8.5 16.6-10.5 25.8-1.9 6.5-2.9 13.1-3.7 19.8-.9 7.1-1.3 14.1-1.4 21.3-1.1.2-2.2.2-3.3 0 .2-13.9 1.6-27.7 4.9-41.2 0-.4 0-.8.1-1.2z"/><path fill="#FEA03E" d="M249.2 483c-1.2 1.4-2.4 1.3-4.1.4-9.4-5.1-19.1-6.1-29-1.7-5.2 2.3-9.7 5.9-13.4 10.2-4.4 5.1-8.5 10.5-11.1 16.8-1.3 3.1-2.6 6.2-3.8 9.4-.6 1.6-1.5 2.4-3.2 2.1-.5-1.3-.3-2.5.2-3.8 3-8.4 6.9-16.2 12.2-23.4 3.3-3 6-6.6 9.6-9.4 12.2-9.6 26.8-10.8 40.3-3.2 1 .7 1.8 1.6 2.3 2.6zM449.8 501c-3.2-10-10.6-14.6-20.5-16-12.7-1.8-24.7.9-36.3 6.1-2.7 1.2-5.3 2.6-7.7 4.1-1.3.8-2.3.9-3.5 0 0-1.5.8-2.4 2.1-3.2 9.8-5.8 20.3-9.5 31.6-10.7 8.8-.9 17.5-.4 25.5 3.8 5.3 2.8 9.1 6.8 11.1 12.6.5 1.4.3 2.5-1 3.4-.5-.1-.9-.1-1.3-.1z"/><path fill="#787878" d="M449.8 501h1.2c7.5-.5 15-1.1 22.6-1.6l15-.9c1.2-.1 2.3.2 3.4.7.2 2.4-.2 2.8-2.6 3-9.9.6-19.9 1.3-29.8 1.9-7.1.4-14.2.8-21.2 1.2-6.4.4-12.7.8-19.1 1.2-2.2.1-2.6-.4-2.5-2.6.8-.6 1.7-.9 2.7-.9 7.8-.4 15.5-1 23.3-1.4 2.2-.2 4.6-.1 7-.6z"/><path fill="#0C0B08" d="M103.6 473.2c-2.4-5.6-5.3-11-9.4-15.6-1.1-1.2-2.1-2.5-3.1-3.8-.6-.8-.6-1.6.1-2.3.8-.8 1.6-.6 2.4.1 1.7 1.3 2.9 3.1 4.2 4.8 3.2 4.4 5.8 9.1 8.4 13.9 3.5 7.5 6.7 15.3 9 23.3 2.3 8.2 4.1 16.5 4.7 25.1-1.1.2-2.2.2-3.3 0-.7-10.8-3.4-21.2-6.9-31.4-1.4-4.2-3.1-8.3-5-12.3-.3-.6-.5-1.4-1.1-1.8z"/><path fill="#252678" d="M332.6 459.5c-.6 1.6-.2 3.3-.3 5-.1.8 0 1.6-.1 2.3-.1 1.1-.5 2-1.7 1.9-1.2 0-1.6-1-1.6-2.1 0-.9.2-1.8.2-2.7 0-8.1.4-16.3-.4-24.4-.9-8.6-1.8-17.2-5.4-25.3-1.5-3.5-3.5-6.7-6.1-9.5-.9-1-1.1-1.9-.1-2.9 1.2-.2 1.9.4 2.7 1.2 4.5 4.8 7.2 10.5 8.9 16.7 2.9 10.6 3.7 21.5 3.8 32.5 0 2.6 0 4.9.1 7.3zM370.2 501.5c-1.6.2-2.7-.6-3.8-1.5l-30.9-23.1c-1.2-.9-1.6-1.8-1.2-3.1 1.2-.7 2.2-.3 3.2.4 4.5 3.4 8.9 7 13.6 10.2 6.1 4.3 12 8.9 18 13.4.9.7 1.7 1.4 1.6 2.7-.2.4-.3.7-.5 1zM333.8 473.2c-2.6 1.9-5.7 2.4-8.5 3.8-.7.4-1.4 0-1.8-.7-.4-.7-.2-1.4.5-1.9.5-.4 1.1-.8 1.7-1 2.5-.8 4.8-2.3 7.5-2.8.7.7.9 1.6.6 2.6z"/><path fill="#E4EAF1" d="M218.2 320.2c.3-1.1.9-2 1.5-3-.3 1.1-.3 2.2-.9 3.1-.2-.1-.4-.1-.6-.1z"/><path fill="#0189F7" d="M370.2 501.5c.2-.3.3-.6.5-1 .2.2.3.4.5.6-.3.3-.5.7-1 .4z"/><path fill="#FDA585" d="M271.6 291.8c3.4-.1 6.9-.3 10.1-1.6 4.4-1.8 8.3-4.3 11.4-7.9.5 0 .6.3.8.6 6.7 11.3 17 17 29.5 19.4.6.1 1.1.3 1.7.5-1.8 14.4-5.8 28.4-9 42.5-1.2 5.5-3.7 10.5-8.1 14.4-3.9 3.4-8.4 4.8-13.4 4.8-5-2.2-10.2-4-14.9-6.7-4.6-2.6-8.9-5.4-12.7-8.9-.6-.6-1.1-1.4-2.1-1-1 .4-1.2 1.3-1.2 2.2 0 3.1 1.6 5.5 3.3 7.8 5.1 6.9 11.9 11.6 19.7 14.9.5.2 1.1.4 1.4.9-.8 1.5-2.4 1.4-3.8 1.5-5.9.1-11.6-1-17.4-2.3-4.2-1-8.3-2.2-12.2-4-1.7-.8-3.7-1.2-4.5-3.5-.1-.4-1.2-.6-1.8-.9.5-3.2 2.4-5.9 3-9 1.7-8.1 2.5-16.3 1.7-24.6-.5-5.7-1.4-11.4-1.5-17.1-.1-4.1.8-7.9 3.3-11.2 3.9-5 9.1-5 12.7.2.8 1.2 1.4 2.5 2.3 4.1 1.7-5.2 1.7-10.2 1.7-15.1zm32.8 34.6c.3-3.1-.3-6.3-.5-9.6-.1-1.6-.1-3.3-.7-4.8-.3-.7-.8-1.2-1.6-1.1-1 .1-1.1.8-1.1 1.6s.1 1.5.2 2.3c.4 4.2 1 8.3 1.3 12.5.1 1.3.5 2.7-.4 4-.9 1.3-2.3.6-3.5.7-.7.1-1.1.4-1.2 1.1 0 .8.4 1.2 1.2 1.2h2.9c2 0 3.1-1 3.3-3.1.2-1.5.1-3.1.1-4.8zm-17.3 7.2c0 4.5 3.1 7.3 7.5 7 .9-.1 1.6-.2 1.6-1.3s-.7-1.4-1.6-1.4c-4.4-.3-5.4-1.6-4.7-6 .1-.9-.2-1.5-.9-1.7-.9-.3-1.4.3-1.6 1.1-.3.7-.2 1.5-.3 2.3zM320.5 535.6c-2.6-.4-4.9-1.8-7.4-2.8-2.7-1-5.4-2.2-7.9-3.6-.4-.2-.9-.2-1.3-.4.3-.7.5-1.5.8-2.2 2.8-6.5 5.7-13.1 8.5-19.6.1-.2.1-.3.2-.5 1.4-1.1 2.9-.5 4.2.1 6.6 3.1 13.1 6.3 19.5 9.7.7.4 1.3.9 2.1.8 1.2 1.8 3.2 3 4.6 4.7.8.9 1.7 1.8 2.1 3-1.9.7-1.4 2-.6 3.1 1.9 2.6 3 5.5 3.8 8.5 1.1 4.2 1.8 8.5 1.2 12.9-.8 6.1-3.4 11.6-5.8 17.1-.6 1.4-1.4 1.6-2.7 1.4-1.9-.3-3.9-.5-5.8-.7.4-2.8.8-5.6 1.2-8.5.6 0 1.2-.1 1.7 0 1.8.2 3.4-.4 3.3-1.5-.3-1.6-1.6-1.9-3-1.8h-1c-3.5-.2-7-.9-10.1-2.6-3.3-1.8-5.3-4.2-5.1-8.4.1-4.6 1-9 .9-13.6 0-.9.1-2-1.3-2-1.1 0-1.5.8-1.5 1.9 0 1.8-.1 3.4-.6 5z"/><path fill="#252678" d="M313.2 507c-2.8 6.5-5.7 13.1-8.5 19.6-.3.7-.5 1.5-.8 2.2-.6.9-1.4 1.5-2.6 1.2-1.2-.4-1.2-1.4-1.1-2.4 3.6-6.3 5.8-13.2 8.6-19.8.5-1.2-.2-1.5-1-1.9-6.3-3.1-12.6-6.3-18.9-9.5-12.5-6.4-24.9-12.8-37.4-19.2-1.9-.9-3.8-1.8-5.6-2.7-1.1-.5-2.5-1.1-1.7-2.7s2.1-.9 3.2-.4c7.1 3.5 14.1 7 21.1 10.6 10.6 5.4 21.2 10.9 31.9 16.3.5.3 1 .6 1.7.5.1 0 .2.1.3.1 0-.1-.1-.2-.1-.3-1.1-2.8-1.9-5.7-2.3-8.8-.5-4.1-.6-8.2 1.4-11.8 2-3.6 4.3-7.1 6.8-10.5 4.4-6 5.7-12.5 4.6-19.8-1.1-7.2-4-13.9-5.7-20.9-.6-2.5-1.3-4.9-2-7.4-.3-1.1-.8-2.5.8-3 1.7-.5 2.1.9 2.5 2.1 1.8 6 3.3 12.1 5.2 18 1.5 4.6 2.6 9.3 3 14.1.6 6.5-1.2 12.5-4.9 17.9-2 2.8-3.9 5.7-5.7 8.6-3.3 5.3-3 10.9-1.5 16.6.1.4.3.9.4 1.3.5 4.3 2.5 7.4 6.8 8.7 1.3.4 1.8 1.4 1.9 2.7-.5.2-.4.4-.4.6zM238.8 466.1c.8.4 1.4-.1 2-.1.8 0 1.6.3 1.7 1.3.2.9-.2 1.6-1.1 1.8-3 .7-6 1.4-9 2-.9.2-1.8-.4-2-1.5-.1-1.1.6-1.6 1.7-1.7 1.8-.1 3.4-.7 5.5-1.2-2-.9-1.8-2.2-1.7-3.6.8-6.5 1.4-12.9 1.8-19.4.5-8 .6-16 .3-24-.4-10.5-1.4-20.9-5.3-30.8-.8-1.9-1.7-3.7-3-5.2-1.7-2.1-3.8-3.6-6.7-3-1.1.2-2.2-.2-2.3-1.5-.1-1.3.9-1.7 2.1-1.9 4.3-.6 7.4 1.4 9.8 4.7 3.9 5.4 5.5 11.6 6.7 18 1.9 10 2.3 20.2 2.2 30.3-.1 11.3-.9 22.5-2.3 33.7.1.5-.2 1.2-.4 2.1z"/><path fill="#DC6942" d="M288.1 373.5c-.3-.5-.9-.7-1.4-.9-7.8-3.3-14.6-8-19.7-14.9-1.7-2.3-3.3-4.7-3.3-7.8 0-1 .2-1.8 1.2-2.2 1-.4 1.5.4 2.1 1 3.9 3.5 8.2 6.4 12.7 8.9 4.8 2.7 9.9 4.5 14.9 6.7-2.3-.2-3.2 1.2-3.6 3.1l-1.5 6c-.4 0-.9.1-1.4.1z"/><path fill="#E4EAF1" d="M352.2 580.1c-.6 4.5-1.1 9-1.7 13.7-17.4-1.8-34.6-3.6-51.9-5.4 4.7-.8 9.3-1.5 14-2.3 9-1.4 18.1-2.8 27.1-4.2 4.1-.7 8.3-1.3 12.5-1.8z"/><path fill="#FEA03E" d="M288.3 593.8c-5.4-3.8-10.7-7.7-16.1-11.5-.9-.7-1.9-1.4-3-1.6-2-2.2-4.6-3.7-6.9-5.6-3.6-2.9-7.1-5.9-10.9-8.5-5.7-3.9-11-8.3-16.4-12.5-7.8-6-15.6-12-23.4-18.1-1.1-.8-2.8-1.9-1.5-3.4 1.1-1.4 2.5-.1 3.5.7 9.1 7.1 18.2 14.2 27.4 21.3 8.7 6.7 17.5 13.3 26.1 20 6.6 5.1 13.2 10.3 19.8 15.5 1.3.8 2.5 1.9 1.4 3.7z"/><path fill="#DC6942" d="M336.1 567.2c1.9.2 3.9.4 5.8.7 1.3.2 2.1 0 2.7-1.4 2.4-5.6 4.9-11 5.8-17.1.6-4.4-.1-8.7-1.2-12.9-.8-3-1.9-5.9-3.8-8.5-.8-1.1-1.4-2.4.6-3.1.9 0 1.5.6 2 1.4 3.1 4.6 4.8 9.6 5.4 15.1.1 1.2.8 2.1.8 3.3.1 5.2-1.2 10.1-3.1 14.9-1.3 3.3-2.5 6.6-4 9.7-.9 1.8-2.1 2.6-4 2.3-2.1-.3-4.1-.5-6.2-.9-.8-.1-1.7-.2-1.9-1.4-.2-1 .3-1.6 1.1-2.1z"/><path fill="#DC6942" d="M320.5 535.6c.5-1.5.6-3.2.7-4.8.1-1 .4-1.9 1.5-1.9 1.3 0 1.2 1.1 1.3 2 .1 4.6-.8 9-.9 13.6-.1 4.2 1.8 6.6 5.1 8.4 3.1 1.7 6.6 2.4 10.1 2.6h1c1.4-.1 2.7.1 3 1.8.2 1.1-1.4 1.7-3.3 1.5-.6-.1-1.2 0-1.7 0-5.7-.3-10.8-2-14.9-6.2-1.5-1.6-2.4-3.4-2.3-5.6 0-2.9-.3-5.8.3-8.7.2-.9.1-1.8.1-2.7z"/><path fill="#E4EAF1" d="M420.5 565.3c-2.1.2-4.2-.1-6.1-1.1-4.4-2.4-4.8-7.9-1.2-12 4.3-4.8 9.7-7.2 15.9-7.6 2.4-.2 5 .3 7 1.9 3.4 2.6 3.6 7.8.4 11.3-4.2 4.8-9.5 7.5-16 7.5z"/><path fill="#252678" d="M284.8 243.8c1.4 1.3 1.7 2.9 2.2 4.3 1.8 5.4 3.3 10.9 5.3 16.3.5 1.4 1.3 3.3-.6 3.9-1.8.6-2.1-1.4-2.5-2.7-1.9-6-3.7-12-5.7-18-.6-1.8.9-2.4 1.3-3.8z"/><path fill="#C6C9CD" d="M293.9 599v-6.4c0-1.2.9-1.3 1.8-1.2 3.4.3 6.7.6 10.1 1 8.3.9 16.6 1.7 24.9 2.6 6.3.7 12.6 1.3 19.1 2 .1 2.5-.5 4.9-.9 7.3-18.4-1.7-36.6-3.5-55-5.3z"/><path fill="#DC6942" d="M304.4 326.4c0 1.8.1 3.3 0 4.9-.1 2-1.2 3-3.3 3.1h-2.9c-.8 0-1.2-.4-1.2-1.2 0-.7.5-1 1.2-1.1 1.2-.2 2.6.5 3.5-.7.9-1.2.5-2.7.4-4-.3-4.2-.8-8.3-1.3-12.5-.1-.8-.2-1.5-.2-2.3 0-.8.1-1.5 1.1-1.6.8-.1 1.3.4 1.6 1.1.6 1.5.6 3.2.7 4.8.1 3.2.7 6.4.4 9.5zM287.1 333.6c0-.8 0-1.6.2-2.3.2-.7.7-1.3 1.6-1.1.8.2 1 .8.9 1.7-.7 4.4.4 5.7 4.7 6 1 .1 1.7.3 1.6 1.4 0 1-.7 1.2-1.6 1.3-4.3.3-7.3-2.6-7.4-7z"/><path fill="#0189F7" d="M313.2 507c-.1-.2-.1-.4.2-.5 0 .2-.1.4-.2.5zM302.2 498.6c0 .1.1.2.1.3-.1 0-.2-.1-.3-.1.1 0 .1-.1.2-.2z"/></g></svg>