<svg xmlns="http://www.w3.org/2000/svg" viewBox="658.3 698.2 669.7 467.5"><g fill="#FFCB6C"><path d="M1205.6 762.5h-1.3c-2.2-.9-3.5-3.1-3.1-5.3l9.3-30c.9-2.2 3.1-3.5 5.3-3.1 2.2.9 3.5 3.1 3.1 5.3l-9.3 30c-.5 1.7-2.2 3.1-4 3.1zM1237.8 775.3c-.9 0-1.8-.4-2.6-.9-1.8-1.3-2.2-4.4-.9-6.2l31.8-41.5c1.3-1.8 4.4-2.2 6.2-.9 1.8 1.3 2.2 4.4.9 6.2l-31.8 41.5c-1 .9-2.3 1.8-3.6 1.8zM1256.8 803.5c-1.3 0-2.6-.9-3.5-1.8-1.3-2.2-.9-4.9 1.3-6.2l29.6-19.4c2.2-1.3 4.9-.9 6.2 1.3s.9 4.9-1.3 6.2l-29.6 19.4c-1 .1-1.8.5-2.7.5z"/></g><path fill="#018AF7" d="M996.3 897.1c1.7 2 3.5 4.1 5.2 6.1-1.1 1.2-.7 2.2.3 3.3 2.2 2.3 3.9 4.9 5.3 7.7 4.3 8.7 5.3 18.1 6.3 27.4.9 8.2.4 16.5.4 24.8 0 1.2-.5 2.4-.1 3.6.2.8.5 1.5 1.5 1.5s1.6-.6 1.8-1.5c.2-.7-.1-1.5.7-2 1.1 1.6.2 3.4.7 5.1-7.4 1.7-14.7 3.4-22.1 5.1 0-1.7-.1-3.4-1.7-4.5.1-.3.2-.5.3-.7.3-.4.6-.9.9-1.3 3.8-5.5 5.8-11.4 5.3-18.2-.4-4.8-1.3-9.5-2.8-14-2.2-6.4-3.7-13-5.6-19.6-.4-1.3-1.2-2.2-2.6-1.8-1.6.4-1.5 1.7-1.1 2.9.5 1.4 1.2 2.8 1.6 4.2 1.5 6 3.4 11.9 5.2 17.8 1 3.5 1.6 7.1 1.9 10.8.6 7.8-2.9 14-7.5 19.8-1 1.3-2.2 2-3.8 2.5-10.8 3-21.7 6-32.5 9.1l-30.9 8.7c-1.3.4-2.6.8-2.1 2.5.5 1.6 1.9 1.2 3 .9 13.3-3.7 26.5-7.4 39.8-11.1 8.3-2.3 16.5-4.7 24.8-7 1.4-.4 2.7-.9 4.2-.8.4.8.2 1.5.2 2.3-.1 8.9-.3 17.7-.4 26.6 0 4.2-.3 8.4.2 12.6-2.8.7-5.6 1.6-8.5 2.2-8.3 1.7-16.5 3.7-24.9 5-8.9 1.4-17.8 3.4-26.9 3.9-7.4.4-14.7 1.4-22 2.3-9.6 1.2-19.2 1.7-28.8-.1-6.4-1.2-12.3-3.1-16-8.9-3-5.5-2.6-11.4-2.3-17.3.4-6.4.4-12.7 1-19.1.8-9.1 2.2-18 3.4-27.1 1.2-9.2 2.5-18.4 4.2-27.6.1-.3 0-.7 0-1 .7-1.5.7-3.2 1-4.8 1.6-9.5 4.2-18.7 7.3-27.8 2.1-6.1 4.9-11.8 9.4-16.5 6.3-6.5 14.2-10.1 22.9-12.2 6.4-1.5 12.9-2.4 18.6-6.1.5.3 1.4.2 1.6 1 .2 1.1 1 1.6 1.9 2.1 3.5 1.9 7.2 3.2 11 4.3 7.6 2.1 15.3 3.8 23.2 3.5 1.4-.1 2.7-.3 3.4-1.6.4 0 .8 0 1.2.1 1.1 2.6 2.3 5.2 4.3 7.3 5.7 5.8 12 10.9 18.6 15.6zm-77.9 92.4c-.7-1.3.4-2.3.6-3.4.9-6.5 2-12.9 2.8-19.3 1.1-8.2 1.7-16.4 2.1-24.7.6-12.6.4-25.2-1.4-37.7-1-6.9-2.5-13.7-6-19.8-2.5-4.2-5.6-7.5-11.1-7-1.4.1-2.9.3-2.9 2 .1 1.8 1.6 1.6 2.9 1.5 2.9-.3 5 1 6.7 3.2 1.9 2.5 3.2 5.4 4.2 8.4 2.9 8.9 3.9 18.1 4.3 27.3.5 12.6.2 25.3-1.2 37.9-1.1 9.5-2.5 19-4 28.4-.3 1.7-.2 3.1 1.6 4.2-1.5.8-2.8 1.4-4 2-1 .6-1.7 1.4-1 2.6.6 1.1 1.7 1 2.6.6 3-1.5 5.9-3 8.9-4.6 1-.5 1.6-1.4 1-2.5-.5-1.1-1.5-1.1-2.6-.6-1.2.5-2.2 1.3-3.5 1.5z"/><path fill="#C6C9CD" d="M1181.2 1002.5c3.2.7 4.7 3 4.1 6.3-2.8 15.2-5.6 30.3-8.3 45.5-2.6 14.1-5.1 28.3-7.6 42.4-.3 2-1.3 2.8-3.1 2.8 0-2-1.1-2.7-3-2.4-1.2.2-2.5.3-3.8.4-4.6.4-9.2.9-13.9 1.3-6.3.6-12.5 1.3-18.8 1.9-4.6.5-9.2.9-13.9 1.3-6.3.6-12.5 1.3-18.8 1.9-4.6.4-9.1.9-13.7 1.3-6.3.6-12.5 1.3-18.8 1.9-4.9.5-9.8 1.1-14.6 1.5-2.9.2-5.8.9-8.8.4.4-2.5.7-5 1.1-7.4 1.2-8.6 2.2-17.2 3.5-25.8 1.1-7.3 1.9-14.5 3.2-21.8 1.6-8.2 2.4-16.5 3.6-24.8.1-1 0-1.9-.9-2.5-1-.7-1.7-.2-2.5.4.3-3.3 1.7-6.2 2.9-9.3 1.2-3.1 3.6-4.8 6.8-5.6 6.9-1.7 13.8-2.4 20.9-2.9 3.9-.3 7.8-.5 11.7-.9 5.2-.5 10.3-.9 15.5-1.1 0 2 .8 2.9 2.5 2.7 1.8-.3 3.6-.2 5.4-.4 7.4-.5 14.7-1 22.1-1.5 5.4-.3 10.8-.6 16.1-.9 9.5-.6 19.1-1.3 28.6-1.9 2.4.1 2.9-.3 2.5-2.8zm-73.4 67.8c6.3-.3 11.7-2.6 16.1-7.2 2.4-2.5 3.5-5.6 2.3-9-1-2.9-3.5-4.2-6.5-4.8-3.7-.7-7.2 0-10.5 1.4-4.5 1.9-8.9 4.1-10.9 9-1.5 3.6-.6 7.7 2.7 9.1 2.2 1 4.4 1.7 6.8 1.5z"/><path fill="#28459F" d="M931.1 864.7c-5.7 3.7-12.2 4.6-18.6 6.1-8.7 2-16.7 5.6-22.9 12.2-4.5 4.7-7.3 10.5-9.4 16.5-3.1 9.1-5.7 18.3-7.3 27.8-.3 1.6-.3 3.3-1 4.8-9.9-2.8-16.7-9-19.3-19-3.1-12 1.3-21.5 10.9-29.1-1.9-2.3-3-5-3.8-7.8-2.2-7-.3-13 5.8-17.1 4.2-2.8 8.6-5.2 12.9-7.9 6.2-3.9 11.8-8.7 15.4-15.4 2.2-4 4.1-8.1 5.7-12.3.5-1.2.8-2.5.8-4-1.1.4-1 1.3-1.4 2-4.6 8.3-10.3 15.6-18.4 20.7-3.3 2.1-7 3.5-10.9 4.4-1.2.2-2.2 0-2.5-1.3-.3-1.3.4-2 1.6-2.3 11.9-2.8 19.5-10.9 25.5-20.9 5.6-9.3 8.9-19.4 11.3-30 1.5-6.8 2.2-13.7 5.3-20.1 5-10.2 12.1-18.5 21.9-24.2 8.8-5.1 18.3-8.4 28.6-8.1h.6c4.3 1.1 8.1-.5 12-2.2 8.9-4 18.2-6 27.9-5.5 5.1.2 9.8 1.6 14.4 3.8 11 5.5 16.2 15.2 19.2 26.4 2.4 9.1 2.7 18.4 2.1 27.8 0 .7-.5 1.1-.9 1.4-5.1 3.9-10.9 6.4-17.3 6.9-11.2 1-21.3-2.2-30.2-9-4.2-3.2-7.1-7.3-9.3-12-1.3-2.7-2.5-2.7-4.2-.3-5.1 7.1-11.8 10.9-20.8 9.8-1-.1-1.7.2-2 1.2-.3.9 0 1.7 1 2.1.4.1.9.2 1.3.3-.7 5.1 0 10.4-1.9 15.6-1.2-2.1-2-4-3.4-5.5-3.1-3.2-6.6-3.6-10.1-.7-2.9 2.5-4.5 5.7-5 9.5-.5 3.5-.2 7.1.2 10.5 1 8.3 2 16.5 1 24.8-.4 3.5-.2 7.1-1.6 10.4-1.3 3.3-2.2 6.5-3.2 9.7zm37.4-123.3c.2 1.8-2 1.9-1.4 3.8 2.2 6.5 4.2 13.1 6.2 19.7.4 1.2 1 2.2 2.4 1.7 1.4-.5 1.3-1.6.9-2.8-2.2-6.5-4.3-13-6.4-19.5-.2-.8-.5-1.7-1.7-2.9z"/><path fill="#FECA6C" d="M865.4 1024.2c3.7 5.9 9.6 7.7 16 8.9 9.6 1.8 19.2 1.3 28.8.1 7.3-.9 14.7-1.9 22-2.3 9.1-.5 17.9-2.5 26.9-3.9 8.4-1.3 16.6-3.3 24.9-5 2.8-.6 5.6-1.5 8.5-2.2.7.2 1.3.4 2 .6 2.7 6.3 5.3 12.6 8 18.8-1.2.9-.9 2-.4 3.2 3.4 7.1 6.7 14.2 10 21.3.4.9.9 1.8 1.8 2.3.3.6.3 1.3.4 1.9.4 4.2 1.5 8.1 3.9 11.7 1.7 2.5 3.7 4.8 4.9 7.6-1.9.5-3.8.6-5.7.9-7.5 1.1-15.1 2.3-22.6 3.5-3.9.7-7.9.8-11.7 1.9h-1.8c-4.8-.5-6.3.7-6.6 5.4 0 .4-.1.8-.4 1.1-.8-.1-1.6.1-2-.9 1.1-2.1-.4-3.2-1.8-4.2-3.6-2.8-7.3-5.5-11-8.2-12.6-9.6-25.2-19.3-37.7-28.9-9.1-7-18.2-14-27.3-20.9-.9-.7-2-1.4-3-.2-.9 1.2-.3 2.1.8 3 5.2 4 10.4 8 15.7 11.9 6.5 4.8 12.8 9.9 19.2 14.9 7.2 5.5 14.4 10.8 21.6 16.3 1.2.9 2.7 1.5 3.2 3.1-5.6 3.7-10.3 8.2-12.5 14.8-17.9-.1-35.4-2.7-52.4-8.4-14.5-4.9-22.7-15.1-25.3-30.1-1.1-6.5-1.5-13.1-1.1-19.7.5-6.4 2.1-12.5 4.7-18.3zM802.7 957c-.2.1-.4.1-.5.2-3.6 3.8-8 .8-9.8-2.4-3-5.2-4.1-11-5.2-16.7-2.4-13.1-7.7-25-13.6-36.8-2.7-5.4-6.7-9.9-10.3-14.6-3.2-4.1-6-8.5-7.3-13.6-2-8.1.1-15.5 4.3-22.5 3.4-5.8 8.2-10.3 14.8-11.9 6.4-1.6 12.6-.8 18.2 3.3 5.7 4.1 8.5 10 10.5 16.5 1.5 4.7 1.7 9.7 2.2 14.5.7 6.6 3.1 12.7 5.5 18.7 2.9 7.4 5.4 15 4.6 23.1-.7 7.6-2.2 15.1-4.1 22.5-1.1 4.5-2.7 8.8-4.7 12.9-.3.7-.5 1.5-1.3 1.9-.1-.3-.2-.5-.2-.8-1.2-14.3-3.1-28.4-6.4-42.4-1.7-7.2-3.7-14.4-7.9-20.7-1-1.5-2-3-3.4-4.2-1-.9-2.1-1.1-3 0-.9 1-.4 2 .6 2.8 1.6 1.3 2.6 3 3.6 4.7 2.4 4.2 4 8.8 5.4 13.4 3.7 12.1 5.4 24.7 6.8 37.3.5 4.8 1.2 9.8 1.2 14.8z"/><path fill="#28459F" d="M996.3 897.1c-6.6-4.7-12.9-9.9-18.6-15.8-2-2.1-3.2-4.7-4.3-7.3.6-2.2 1.1-4.4 1.7-6.5.5-1.8 1.4-3.1 3.5-2.8 5 .3 9.4-1.5 13.3-4.5 3.8-3 6.2-7 7.8-11.6 1.8-5.4 2.6-11 4-16.5 2.6-10.1 4.9-20.2 6.1-30.5 5 .5 9.9.2 14.8-.8 4.5-.9 8.5-3 12.4-5.2-.9 10.1-3.1 20-6 29.7-3.2 11.1-7.1 21.9-12.2 32.2-6.8 13.6-13.8 27.1-22.5 39.6z"/><path fill="#018AF7" d="M770.1 1023.9c.5-1 1.4-1.2 2.5-1.2 7.5 0 15-.1 22.5-.1h.6c1.1.2 2.2.2 3.3 0 1.2.2 2.3.2 3.5 0 1.1.2 2.3.2 3.4 0 1.3.2 2.5.2 3.8 0 1.1.2 2.3.2 3.4 0 4.6 0 9.2.1 13.8.1 2.7 0 3.3.7 2.7 3.3-3 13.8-5.3 27.8-7.5 41.8-.4 2.4-1 4.8-1.5 7.2-.4 1.8-1.7 2.6-4.4 2.5-4.8-.1-9.6-.3-14.4-.4-5.3-.2-10.6-.4-16-.6-3.2-.1-3.3-.1-4.3-3.3-2-6.1-4.1-12.1-5.7-18.3l1.8-.3c5.9-1.6 11.6-3.8 17.5-5.2 9.1-2.2 18-5.2 26.9-7.8.9-.3 1.3-.8 1.3-1.7 0-.9-.5-1.4-1.2-1.6-.6-.2-1.3-.3-2-.2-3.9.8-8 .4-11.9.6-8.1.4-16.2.8-24.3.9-4 .1-7.9.7-11.9.4-.4 0-.8 0-1.1.4-1.2 0-2.4.2-3.1-1.2.2-.7.2-1.3 0-2 .1-.4.2-.8.3-1.3.4-.3.3-.7.1-1.1.1-.6.2-1.1.3-1.7.3-.3.3-.7.1-1.1.1-.4.2-.8.2-1.3.4-.5.4-1 .2-1.5.1-.4.2-.8.2-1.3.4-.5.3-1 .2-1.5.1-.3.1-.6.2-.9.6-.5.5-1 .5-1.6z"/><path fill="#FECA6C" d="M1104 1007.5c-5.2.2-10.3.6-15.5 1.1-3.9.4-7.8.6-11.7.9-7 .5-14 1.2-20.9 2.9-3.1.8-5.6 2.4-6.8 5.6-1.2 3-2.6 6-2.9 9.3-1.1 2.2-1 4.7-1.4 7.1l-4.8 34.8c-.5-1.3-.3-2.6-.2-3.8.3-2.9.9-5.8.6-8.8 1-1.4.4-2.8 0-4.2-1.6-6.6-3.3-13.1-4.9-19.7-1.2-5.1-2.3-10.2-3.4-15.3 4.1-2.9 8.6-5.3 13-7.7 5.5-2.9 10.8-6.2 16.3-9.2l1.8-.9c.2 2.8.9 3.3 3.3 1.8 3.1-1.9 6.2-3.5 9.4-5.1 8.4-4.3 17.2-7.4 26.6-8.3 7.7-.7 15.2-.6 22.5 2.5 5.7 2.4 10.3 5.9 12.1 12.1.5 1.5 1.6 1.6 2.8 1.5l-.3.6-6.3.6c-7.5.5-15.1.7-22.6 1.4-2.1-.1-4.6-.9-6.7.8z"/><path fill="#018AF7" d="M1032.3 1017.2c1.1 5.1 2.2 10.2 3.4 15.3 1.6 6.6 3.3 13.1 4.9 19.7.3 1.4 1 2.8 0 4.2-2.7 1-5.5 2-8.2 3-.7-1.1-1.5-1.3-2.7-.9-4.1 1.1-8.3 2.1-12.3 3.3-1.8.6-2.6.1-3.3-1.6-3-6.5-6-12.9-9-19.3-.5-1.1-1.1-2-2.5-1.8-2.7-6.3-5.3-12.6-8-18.8.7-.6 1.1-1.3 1.1-2.2.1-2 .2-3.9.3-5.9h1.6c8.2-.8 16.4-1.7 24.7-2.5 2.1-.2 4.4.1 6-1.8 1.1.4 1.5 1.4 1.8 2.4.6 2.3.8 4.8 2.2 6.9z"/><path fill="#FECA6C" d="M720.6 951.1c3.6-4.5 8.1-8.1 13.6-9.9 10.7-3.7 21.6-4.1 32.4-.2 5.9 2.1 9.8 6.3 13 11.5 3.1 5 5.2 10.3 5.7 16.2.1 1.7 0 3.3-.7 4.9-3.1-6.6-7-12.7-11.5-18.4-.8-1.1-1.8-2.4-3.3-1.2-1.6 1.3-.3 2.5.6 3.5.1.2.3.3.4.5 4.5 5.6 8.2 11.6 11.1 18.2-5.6 2.2-11.2 1.4-16.8.1-2.5-.6-4.9-1.4-7.4-2.1-.2-.9-1-1.2-1.7-1.6-2.5-1.5-4.6-3.4-6.5-5.6-4-4.7-7.9-9.3-12.9-12.9-2.9-2.1-5.9-3.5-9.5-3.5-2.1-.4-4.3.3-6.5.5z"/><path fill="#FDA585" d="M1028.1 1007.9c-1.6 1.9-3.9 1.6-6 1.8-8.2.8-16.4 1.7-24.7 2.5-.5.1-1.1 0-1.6 0v-20.1c0-4.6 0-9.3.3-13.9 7.4-1.7 14.7-3.4 22.1-5.1 1 0 1.9.1 2.8-.4 1.8.7 1.8 1.9 1 3.3-1.3 2.2-2.6 4.4-3.6 6.9 1.1.4 2 .1 2.9 0 6.3-.8 12.5-1.6 18.8-2.4 1.6-.2 3.3 0 4.2 1.2 1 1.4-.5 2.5-1.1 3.7-1.4 2.4-3.5 4.3-4.4 7.1-1.8 1.3-2.7 3.4-3.9 5.2-2.3 3.3-4.5 6.8-6.8 10.2z"/><path fill="#7A7A7A" d="M1040.1 1069.1l4.8-34.8c.3-2.4.2-4.9 1.4-7.1.7-.6 1.5-1.2 2.5-.4.8.6 1 1.5.9 2.5-1.2 8.3-2 16.6-3.6 24.8-1.4 7.2-2.2 14.5-3.2 21.8-1.3 8.6-2.3 17.2-3.5 25.8-.3 2.4-.7 4.8-1.1 7.4 3.1.5 5.9-.2 8.8-.4 4.9-.3 9.8-1 14.6-1.5 6.3-.6 12.5-1.3 18.8-1.9 4.6-.4 9.1-.9 13.7-1.3 6.3-.6 12.5-1.3 18.8-1.9 4.6-.5 9.2-.9 13.9-1.3 6.3-.6 12.5-1.3 18.8-1.9 4.6-.5 9.2-.9 13.9-1.3 1.3-.1 2.5-.2 3.8-.4 1.9-.3 2.9.4 3 2.4-1.2 1.7-3.2 1.2-4.8 1.4-13.6 1.4-27.1 2.7-40.7 4-10.1 1-20.2 1.9-30.4 2.9-11.5 1.1-23 2.3-34.5 3.5-6.1.6-12.2 1-18.2 1.8s-11.9-.6-17.8-1.1c-7.7-.5-15.3-1.4-23-2.2-5-.5-10.1-.9-15.1-1.5-1.1-.1-2.1 0-3.2.2-.1-.2-.2-.4-.3-.5-2.6-1.2-4.7-2.7-4.1-6.1.1-.6 0-1.3 0-2 .4-.3.4-.7.4-1.1.4-4.7 1.8-5.9 6.6-5.4.6.1 1.2 0 1.8 0 7.7.8 15.3 1.7 23 2.5 7.1.7 14.1 1.5 21.2 2.2 2.9.3 5.8 1 8.8.6 1.1 0 .9-.7 1-1.4.9-9.5 1.9-18.9 3-28.3zm-4.7 33.4c-3.3-.4-6.4-.7-9.5-1-7.1-.7-14.3-1.3-21.4-2.1l-24.9-2.7c-.7-.1-1.5-.1-1.4.9.2 2.2-.7 4.3-.2 6.8 18.8 1.8 37.5 3.6 56.5 5.4.3-2.4.9-4.7.9-7.3z"/><path fill="#FECA6C" d="M814.9 979.2c-2.8-1.9-3.6-4.9-4.2-7.9-1.1-5.5.3-10.8 2.1-16 2.2-6 5.7-11.2 10.4-15.6 2.8-2.6 6.3-3.5 9.9-3.8 5.8-.5 11.6-.1 16.8 3.1 3.8 2.4 7.9 4.4 10 8.8-2.4.1-4.3 1.4-5.4 3.3-3 5.3-7.5 9.4-10.8 14.4-.7 1-2 1.6-1.9 3.1-1.7-.2-2.9.8-4 1.8-2.3 2.1-4.6 4.2-7 6.2-3.6 3-7.8 4.4-12.5 4 1.4-7.9 4.7-15 8.3-22.1 3.2-6.3 7.1-12.1 13.8-15.2 1-.4 1.5-1.2 1-2.3-.5-1.1-1.4-1.1-2.4-.8-2.4.8-4.3 2.3-6.2 3.9-5.5 4.8-8.7 11.3-12 17.6-2.9 5.6-4.1 11.7-5.9 17.5z"/><path fill="#28459F" d="M1038.9 992.5c.9-2.7 3-4.7 4.4-7.1.7-1.2 2.2-2.3 1.1-3.7-.9-1.2-2.5-1.5-4.2-1.2-6.3.9-12.5 1.6-18.8 2.4-.9.1-1.8.4-2.9 0 1-2.5 2.3-4.7 3.6-6.9.9-1.5.8-2.6-1-3.3 1.4-2.7 2.8-5.4 4.2-8.2.5-1 1.2-1.4 2.4-1.4l32.7.9c2.1.1 4.1.1 6.2.2 2.3.1 3 1.3 1.9 3.3-4.4 7.8-8.8 15.5-13.2 23.3-.8 1.4-1.9 1.7-3.3 1.7h-13.1zm15.2-15.8c2.1.9 3.8.6 5.1-1 1.1-1.3 1.4-3.6.5-4.8-1.3-1.7-2.9-1.9-4.8-1.1-.4-.3-.8-.7-1.3-1-1.6-.9-3.7-.5-5.1.9-1.5 1.5-2 3.5-1.1 5.2.9 1.9 2.5 2.4 4.5 2.1.8 0 1.5-.2 2.2-.3zM974.2 1100c0 .7.1 1.3 0 2-.6 3.4 1.5 4.9 4.1 6.1.1.1.2.3.3.5-8.9 4.1-18.2 6.2-28.1 4.9-1.6-.2-3.1-.7-4.6-1.3-4.9-2-6.7-5.2-6.5-11.5 2.2-6.6 6.9-11.1 12.5-14.8 1 .1 1.9.4 2.7 1 5.4 3.8 10.8 7.6 16.2 11.5.4.3.9.5 1.4.8.3.8 1.2.7 2 .8z"/><path fill="#FEA13E" d="M720.6 951.1c2.2-.1 4.4-.8 6.7-.8 3.6.1 6.6 1.4 9.5 3.5 5 3.6 9 8.2 12.9 12.9 1.8 2.2 4 4.1 6.5 5.6.7.4 1.5.6 1.7 1.6-6.9-1.8-13.8-2.4-20.9-1.2-4 .7-7.8 2.3-11.8 3-7.7 1.3-13.2-4.2-11.7-11.8.9-5 3.5-9.2 7.1-12.8z"/><path fill="#12100D" d="M806 1022.5c-1.1.2-2.3.2-3.4 0 1.4-16.5 1.8-33.1 1.1-49.6-.2-5.3-.3-10.6-1-15.9 0-5-.7-9.9-1.2-14.9-1.4-12.6-3.1-25.1-6.8-37.3-1.4-4.6-3-9.2-5.4-13.4-1-1.7-2-3.4-3.6-4.7-.9-.8-1.4-1.8-.6-2.8.9-1 2-.8 3 0 1.3 1.2 2.4 2.7 3.4 4.2 4.2 6.3 6.2 13.5 7.9 20.7 3.3 13.9 5.2 28.1 6.4 42.4 0 .3.1.5.2.8.4 7.6.8 15.3 1.1 22.9.4 9.7.3 19.4-.1 29.2-.2 6.2-.5 12.3-1 18.4z"/><path fill="#206BCD" d="M771 1040.3c.3-.3.7-.4 1.1-.4 4 .2 8-.4 11.9-.4 8.1-.1 16.2-.6 24.3-.9 4-.2 8 .2 11.9-.6.6-.1 1.3 0 2 .2.8.2 1.3.7 1.2 1.6 0 .9-.5 1.5-1.3 1.7-9 2.6-17.8 5.6-26.9 7.8-5.9 1.4-11.7 3.6-17.5 5.2-.6.2-1.2.2-1.8.3-1.6-4.9-3.3-9.7-4.9-14.5z"/><path fill="#FEA13E" d="M841.8 968.7c-.2-1.5 1.2-2.1 1.9-3.1 3.3-5 7.8-9.1 10.8-14.4 1.1-1.9 2.9-3.2 5.4-3.3 3.5 5.3 4.3 11.2 3.8 17.3-.3 3.6-1.2 7.1-3.2 10.2-2 3.1-4.5 4-8.1 3.1-3.5-.9-5.8-3.1-7.7-5.9-1-1.3-2-2.6-2.9-3.9z"/><path fill="#24277A" d="M1036.9 795.6c-3.9 2.3-7.9 4.3-12.4 5.2-4.9 1-9.8 1.3-14.8.8-.7-.1-1.4-.3-2.2-.4-12.4-2.5-22.8-8.1-29.5-19.4-.2-.3-.4-.7-.9-.8-6 6.3-13.1 10.2-22.2 9.4-.4-.1-.9-.2-1.3-.3-1-.3-1.3-1.1-1-2.1.3-1 1-1.3 2-1.2 9 1.1 15.7-2.7 20.8-9.8 1.7-2.4 2.9-2.4 4.2.3 2.2 4.7 5.1 8.8 9.3 12 8.9 6.8 19 10 30.2 9 6.4-.6 12.2-3 17.3-6.9.5-.4 1-.7.9-1.4 1.1.1 1.5-.9 2.1-1.6 2-2.3 3.6-4.9 4.6-7.8.7-2 1.8-2.8 3-2.2 1.7.9 1 2.3.5 3.5-2 4.8-5.2 8.9-9.1 12.3-.4.4-1 .9-1.5 1.4z"/><path fill="#12100D" d="M814.9 979.2c1.8-5.8 3-11.9 5.8-17.4 3.3-6.3 6.5-12.8 12-17.6 1.9-1.6 3.8-3.1 6.2-3.9.9-.3 1.9-.3 2.4.8.4 1-.1 1.8-1 2.3-6.8 3.1-10.7 8.9-13.8 15.2-3.5 7-6.9 14.2-8.3 22.1-1.7 6.5-2.7 13.1-3.6 19.8-.9 7.3-1.4 14.7-1.5 22.1-1.1.2-2.3.2-3.4 0 .2-14.2 1.7-28.3 5-42.1.1-.5.2-.9.2-1.3z"/><path fill="#FEA13E" d="M1140.1 1003.9c-1.3.1-2.4 0-2.8-1.5-1.9-6.2-6.5-9.7-12.1-12.1-7.3-3.1-14.8-3.2-22.5-2.5-9.5.9-18.2 4-26.6 8.3-3.2 1.6-6.4 3.2-9.4 5.1-2.4 1.4-3.2 1-3.3-1.8 12.2-8 25.3-13.8 40-15.2 9.3-.9 18.4 0 26.8 4.5 5.2 2.8 8.8 7 10.6 12.7.1.9.3 1.9-.7 2.5z"/><path fill="#12100D" d="M782 975.9c-3-6.5-6.7-12.6-11.1-18.2-.1-.2-.3-.3-.4-.5-.9-1.1-2.2-2.3-.6-3.5 1.4-1.1 2.4.2 3.3 1.2 4.6 5.7 8.4 11.8 11.5 18.4 3.3 6.4 5.6 13.1 8.1 19.8 3.5 9.5 5.4 19.2 6.2 29.2-1.1.2-2.2.2-3.3 0-.1-.5-.1-.9-.2-1.4.1-.8 0-1.6-.3-2.3.2-.4.2-.9-.1-1.3.1-.7 0-1.3-.3-1.9.2-.3.1-.6-.1-.9-.1-.7-.2-1.3-.3-2 0-1 .3-2.1-.9-2.8-.1-.4-.2-.8-.3-1.1.1-.3.1-.6-.2-.9-2.3-10.9-5.9-21.6-11-31.8z"/><path fill="#7A7A7A" d="M1104 1007.5c2.1-1.7 4.6-.9 6.9-1.1 7.5-.7 15.1-.9 22.6-1.4 2.1-.1 4.2-.4 6.3-.6l7.8-.3c.4 0 .9.1 1.3-.3.8-.1 1.5-.1 2.3-.2.7.1 1.3.2 2 .2 4.7-.3 9.4-.5 14.1-.8l12.9-.9c.3.1.7.3 1 .4.3 2.5-.1 2.9-2.5 3.1-9.5.6-19.1 1.3-28.6 1.9-5.4.3-10.8.6-16.1.9-7.4.5-14.7 1-22.1 1.5-1.8.1-3.6.1-5.4.4-1.7.2-2.5-.8-2.5-2.8z"/><path fill="#24277A" d="M1017.7 968c-.8.4-.5 1.3-.7 2-.2 1-.7 1.6-1.8 1.5-1 0-1.3-.7-1.5-1.5-.3-1.2.2-2.4.1-3.6-.1-8.3.4-16.5-.4-24.8-1-9.4-2-18.8-6.3-27.4-1.4-2.8-3.1-5.4-5.3-7.7-1-1.1-1.4-2.1-.3-3.3 1.2-.2 2 .4 2.8 1.2 4.5 4.8 7.3 10.6 9.1 16.9 3.5 12.4 3.9 25.1 4.1 37.8 0 3 .6 6 .2 8.9z"/><path fill="#C6C9CD" d="M1180.2 1002.1l-12.9.9c-4.7.3-9.4.6-14.1.8-.7 0-1.3-.1-2-.2 1.5-1.1 3.2-.6 4.8-.8 5.3-.6 10.7-.8 16.1-1.4 2.3-.2 4.6-.4 6.9 0 .5.2 1 .2 1.2.7zM793.4 1009.9c1.1.7.9 1.8.9 2.8-1.4-.6-.9-1.7-.9-2.8zM768 1037.1c.2.7.2 1.3 0 2-.7-.6-.7-1.3 0-2zM769.2 1029.1c.2.5.2 1.1-.2 1.5-.5-.5-.5-1 .2-1.5zM769.6 1026.3c.2.5.2 1.1-.2 1.5-.5-.5-.5-1 .2-1.5zM770.1 1023.9c.1.5.2 1.1-.3 1.5-.5-.5-.5-1.1.3-1.5zM795.5 1021.1c.1.5.1.9.2 1.4h-.6c0-.5-.2-1 .4-1.4zM768.4 1034.7c.2.4.2.8-.1 1.1-.6-.4-.5-.8.1-1.1zM768.8 1031.9c.2.4.2.8-.1 1.1-.6-.4-.5-.8.1-1.1zM1148.9 1003.9c-.3.4-.8.3-1.3.3.3-.7.8-.8 1.3-.3zM795.1 1017.5c.3.4.3.8.1 1.3-.7-.4-.7-.8-.1-1.3zM793 1007.9c.2.2.3.5.2.9-.5-.2-.7-.5-.2-.9zM794.7 1014.7c.2.3.3.5.1.9-.5-.3-.6-.5-.1-.9z"/><path fill="#FDA585" d="M955.1 790.4c9.1.7 16.2-3.2 22.2-9.4.5.1.7.5.9.8 6.6 11.3 17 16.9 29.5 19.4.7.1 1.4.3 2.2.4-1.2 10.3-3.5 20.4-6.1 30.5-1.4 5.5-2.2 11.1-4 16.5-1.6 4.6-3.9 8.6-7.8 11.6s-8.2 4.8-13.3 4.5c-5.7-2.4-11.5-4.6-16.9-7.6-4.2-2.4-8.3-5-11.8-8.5-.6-.6-1-1.4-1.9-.9-.8.4-1.4 1-1.5 2-.1 1.5.3 2.9 1 4.2 2.6 5.1 6.3 9.2 10.8 12.6 4.2 3.2 9 5.3 13.8 7.5-.8 1.3-2.1 1.6-3.4 1.6-8 .3-15.6-1.4-23.2-3.5-3.8-1.1-7.5-2.4-11-4.3-.9-.5-1.7-.9-1.9-2.1-.1-.8-1.1-.7-1.6-1 1-3.2 1.9-6.5 3.1-9.6 1.3-3.3 1.1-6.9 1.6-10.4 1-8.3 0-16.6-1-24.8-.4-3.5-.7-7-.2-10.5.5-3.8 2.1-7 5-9.5 3.4-2.9 7-2.6 10.1.7 1.5 1.5 2.2 3.4 3.4 5.5 1.9-5.3 1.3-10.6 2-15.7zm33.5 37c-.2-3.1-.2-5.9-.5-8.7-.2-2.2-.5-4.3-.8-6.5-.1-.9-.4-2-1.7-1.8-1.2.1-1 1.2-1.1 2 0 .3 0 .7.1 1 .7 4.8 1.1 9.6 1.1 14.4 0 3.3 0 3.3-3.2 3.7-.3 0-.5.1-.8.2-.5.3-.9.6-.8 1.3.1.6.6.8 1.1.9.9.1 1.7.3 2.6.3 1.8.1 3.2-.9 3.4-2.7.3-1.4.8-2.9.6-4.1zm-17.7 6.2c.1 4.3 3.7 7.4 8 6.8.8-.1 1.2-.4 1.3-1.2.1-.8-.4-1.2-1.2-1.3-.4 0-.8-.2-1.2-.3-4-.6-4.9-1.9-4.2-5.9.1-.8.1-1.5-.8-1.7-.9-.2-1.5.3-1.7 1-.1.9-.1 1.8-.2 2.6z"/><path fill="#24277A" d="M996.3 978.2c-.3 4.6-.3 9.3-.3 13.9v20.1c-.1 2-.2 3.9-.3 5.9 0 .9-.4 1.6-1.1 2.2-.7-.2-1.3-.4-2-.6-.5-4.2-.3-8.4-.2-12.6.1-8.9.2-17.7.4-26.6 0-.7.2-1.5-.2-2.3-1.4-.1-2.8.4-4.2.8-8.3 2.3-16.5 4.7-24.8 7-13.2 3.7-26.5 7.4-39.8 11.1-1.2.3-2.6.6-3-.9-.5-1.7.9-2.1 2.1-2.5l30.9-8.7c10.8-3 21.6-6.1 32.5-9.1 1.6-.4 2.8-1.2 3.8-2.5 4.6-5.8 8.1-12 7.5-19.8-.3-3.7-.9-7.3-1.9-10.8-1.8-5.9-3.7-11.8-5.2-17.8-.4-1.5-1.1-2.8-1.6-4.2-.4-1.2-.5-2.5 1.1-2.9 1.5-.4 2.2.5 2.6 1.8 1.9 6.5 3.5 13.1 5.6 19.6 1.5 4.6 2.4 9.2 2.8 14 .5 6.7-1.5 12.7-5.3 18.2-.3.4-.6.9-.9 1.3-.1.2-.2.4-.3.7 1.6 1.2 1.8 2.9 1.8 4.7zM918.4 989.5c1.3-.2 2.3-1 3.4-1.5s2-.4 2.6.6c.6 1.1 0 1.9-1 2.5-2.9 1.5-5.9 3.1-8.9 4.6-.9.5-2 .5-2.6-.6-.7-1.2.1-2 1-2.6 1.2-.7 2.5-1.3 4-2-1.8-1.1-1.8-2.5-1.6-4.2 1.4-9.5 2.9-18.9 4-28.4 1.4-12.6 1.7-25.2 1.2-37.9-.4-9.2-1.4-18.4-4.3-27.3-1-3-2.2-5.8-4.2-8.4-1.7-2.2-3.8-3.4-6.7-3.2-1.3.1-2.8.3-2.9-1.5-.1-1.8 1.5-1.9 2.9-2 5.5-.5 8.7 2.8 11.1 7 3.5 6.1 5 12.9 6 19.8 1.8 12.5 2 25.1 1.4 37.7-.4 8.2-1 16.5-2.1 24.7-.8 6.5-1.9 12.9-2.8 19.3-.1 1.1-1.2 2-.5 3.4z"/><path fill="#DC6941" d="M972.2 874c-4.8-2.2-9.6-4.3-13.8-7.5-4.5-3.4-8.3-7.5-10.8-12.6-.7-1.3-1.1-2.7-1-4.2.1-1 .6-1.6 1.5-2 .9-.4 1.3.4 1.9.9 3.5 3.4 7.5 6.1 11.8 8.5 5.4 3 11.2 5.2 16.9 7.6-2.1-.3-3.1 1-3.5 2.8-.6 2.2-1.1 4.4-1.7 6.5h-1.3z"/><path fill="#E4EAF1" d="M1107.8 1070.3c-2.4.2-4.7-.5-6.8-1.5-3.4-1.5-4.2-5.5-2.7-9.1 2-4.9 6.4-7.1 10.9-9 3.3-1.4 6.8-2 10.5-1.4 3.1.5 5.5 1.9 6.5 4.8 1.2 3.4 0 6.5-2.3 9-4.3 4.6-9.8 7-16.1 7.2z"/><path fill="#24277A" d="M968.5 741.4c1.1 1.1 1.4 2.1 1.7 3 2.1 6.5 4.2 13 6.4 19.5.4 1.2.6 2.3-.9 2.8-1.4.5-2-.5-2.4-1.7-2-6.6-4.1-13.2-6.2-19.7-.5-1.9 1.7-2.1 1.4-3.9z"/><path fill="#FDA585" d="M1040.1 1069.1c-1.1 9.4-2.1 18.9-3.1 28.3-.1.6.1 1.4-1 1.4-3.9-4.3-8.8-7.5-13-11.6-1.2-2.8-3.2-5.2-4.9-7.6-2.4-3.6-3.5-7.5-3.9-11.7-.1-.7-.1-1.3-.4-1.9 5.8-1 11.3-2.9 16.9-4.4 1-.3 1.6-.9 1.6-2 2.7-1 5.5-2 8.2-3 .3 3-.3 5.9-.6 8.8-.1 1.1-.4 2.4.2 3.7z"/><path fill="#FEA13E" d="M972.2 1099.1c-.5-.3-.9-.5-1.4-.8-5.4-3.8-10.8-7.6-16.2-11.5-.8-.6-1.7-1-2.7-1-.5-1.7-2-2.3-3.2-3.1-7.1-5.5-14.4-10.9-21.6-16.3-6.4-4.9-12.7-10.1-19.2-14.9-5.3-3.9-10.4-8-15.7-11.9-1.1-.9-1.7-1.8-.8-3 1-1.2 2-.5 3 .2 9.1 7 18.2 14 27.3 20.9 12.6 9.6 25.2 19.3 37.7 28.9 3.6 2.8 7.3 5.5 11 8.2 1.4 1.1 2.9 2.2 1.8 4.3z"/><path fill="#E4EAF1" d="M1023 1087.2c4.1 4.1 9 7.3 13 11.6-3 .4-5.9-.3-8.8-.6-7.1-.6-14.1-1.4-21.2-2.2-7.7-.8-15.3-1.6-23-2.5 3.8-1.1 7.8-1.3 11.7-1.9 7.5-1.3 15.1-2.4 22.6-3.5 1.9-.3 3.9-.4 5.7-.9z"/><path fill="#24277A" d="M1032.3 1059.5c0 1.1-.6 1.7-1.6 2-5.6 1.5-11.1 3.4-16.9 4.4-.9-.5-1.4-1.4-1.8-2.3-3.3-7.1-6.6-14.2-10-21.3-.6-1.2-.8-2.2.4-3.2 1.4-.2 2 .7 2.5 1.8 3 6.4 6.1 12.9 9 19.3.7 1.6 1.5 2.1 3.3 1.6 4.1-1.3 8.2-2.2 12.3-3.3 1.3-.3 2.1-.1 2.8 1z"/><path fill="#C6C9CD" d="M1035.4 1102.5c0 2.5-.6 4.9-.9 7.4-18.9-1.8-37.7-3.6-56.5-5.4-.5-2.5.3-4.7.2-6.8-.1-1 .7-1 1.4-.9l24.9 2.7c7.1.7 14.3 1.4 21.4 2.1 3.1.2 6.2.6 9.5.9z"/><path fill="#FECA6C" d="M1054.1 976.7c-.7.2-1.4.4-2.1.5-2 .3-3.5-.3-4.5-2.1-.9-1.8-.5-3.8 1.1-5.2 1.4-1.4 3.6-1.8 5.1-.9.5.3.8.6 1.3 1 .7 1.4 1.2 2.8.5 4.3-.4.7-.9 1.5-1.4 2.4z"/><path fill="#FEA13E" d="M1054.1 976.7c.5-.9.9-1.7 1.3-2.6.7-1.5.2-2.9-.5-4.3 1.9-.9 3.5-.6 4.8 1.1.9 1.2.7 3.4-.5 4.8-1.3 1.6-3 1.9-5.1 1z"/><path fill="#DC6941" d="M988.6 827.4c.2 1.2-.2 2.7-.4 4.2-.2 1.8-1.6 2.8-3.4 2.7-.9-.1-1.7-.2-2.6-.3-.6-.1-1-.3-1.1-.9-.1-.6.3-1 .8-1.3.2-.1.5-.2.8-.2 3.2-.5 3.2-.5 3.2-3.7 0-4.8-.4-9.6-1.1-14.4 0-.3-.1-.7-.1-1 0-.8-.2-1.9 1.1-2 1.3-.1 1.5.9 1.7 1.8.3 2.2.6 4.3.8 6.5 0 2.7.1 5.5.3 8.6zM970.9 833.6c.1-.9 0-1.7.2-2.6.2-.7.8-1.2 1.7-1 1 .2 1 .9.8 1.7-.7 4 .2 5.3 4.2 5.9l1.2.3c.8.1 1.2.4 1.2 1.3-.1.8-.5 1.1-1.3 1.2-4.3.6-7.9-2.5-8-6.8z"/><linearGradient id="a" gradientUnits="userSpaceOnUse" x1="262.805" y1="724.044" x2="262.805" y2="669.007" gradientTransform="matrix(4.4128 0 0 -4.4128 0 3919.11)"><stop offset="0" stop-color="#facb03"/><stop offset=".485" stop-color="#fab205"/><stop offset="1" stop-color="#ef8731"/></linearGradient><circle fill="url(#a)" cx="1159.7" cy="854.7" r="82.5"/><g><path fill="#FFF" d="M1191.9 866.2l15 7.9c-4.9 11.5-15 19.4-29.1 23.4-20.3 5.7-39.3-1.3-49.4-17.2l-12.8 3.5-2.6-9.7 11-3.1c-.4-.9-.9-2.2-.9-3.1s-.4-2.2-.9-3.1l-11 3.1-2.6-9.7 12.8-3.5c.4-18.5 13.2-34.4 33.5-40.2 14.1-4 26.9-1.8 37.1 5.3l-8.8 14.1c-7.1-4.9-15-6.2-22.9-4-10.1 2.6-17.2 10.1-19 19l29.1-7.9 2.6 9.7-31.8 8.8c0 .9.4 2.2.9 3.1s.4 2.2.9 3.1l31.8-8.8 2.6 9.7-29.1 7.9c6.6 7.1 15.9 9.7 26 6.6 7.9-1.7 14.1-7 17.6-14.9z"/></g></svg>