<svg viewBox="0 0 1530 912" xmlns="http://www.w3.org/2000/svg" fill-rule="evenodd" clip-rule="evenodd" stroke-miterlimit="10"><path fill="none" d="M0 312h1529.5v730H0z"/><path fill="#f3f4f6" d="M0-1.897h1529.5V834.4H0z"/><path d="M313.2 617.7c35 41.6 90.7 60.2 144.7 66 63.7 6.9 129.1-1.6 189-24.4 113.1-43 200.5-133 297.3-205.6-108.3-26.2-224-21-329.6 14.9-110 37.3-206.5 106-313 152.3" fill="#fff" fill-opacity=".56" fill-rule="nonzero"/><path fill="#d1dbe5" fill-opacity=".56" d="M491.9 456.2h102.7v122.5H491.9z"/><path d="M515.5 456.2l27.8-27.7 27.7 27.7h-55.5z" fill="none" stroke="#d1dbe5" stroke-width="2"/><path fill="none" stroke="#d1dbe5" stroke-width="8" d="M491.9 456.2h102.7v122.5H491.9z"/><path d="M600.6 834.2s222.1-199.6 284.2-141.8c62.1 57.8 81.2 85.2 202.3 27.3 121.1-57.8 415.1-138 320.2 114.7" fill="#e4eaf1" fill-opacity=".7" fill-rule="nonzero"/><path fill="#e4eaf1" d="M355.5 621.5h279.2v13.2H355.5z"/><path d="M430.7 586.3l6.5-16.3h-28.5l6.5 16.3c-4.9 3.9-8.1 11.4-8.1 20.1 0 12.7 7.1 23 15.9 23s15.9-10.3 15.9-23c0-8.7-3.3-16.2-8.2-20.1z" fill="#e4eaf1" fill-rule="nonzero"/><path fill="#18154d" d="M1325.5 786.2h89.6v47.7h-89.6z"/><path fill="#4f8af7" d="M1304.4 786.2h89.6v47.7h-89.6z"/><path d="M1344.5 786.2h9.3v16.4h-9.3v-16.4zm-34.3 49.1h89.6V883h-89.6v-47.7z" fill="#18154d"/><path fill="#4f8af7" d="M1289.2 835.3h89.6V883h-89.6z"/><path fill="#18154d" d="M1329.2 835.3h9.3v16.4h-9.3z"/><path d="M1315.3 588.9h-111.8l-12 71.3h135.8l-12-71.3z" fill="#ffcb6c" fill-rule="nonzero"/><path d="M1287.1 588.9h-53.3l-11.9 71.3h77l-11.8-71.3z" fill="#fcdba7" fill-rule="nonzero"/><path d="M1259.4 660.2v222.7m-14.1 0h28.2" fill="none" stroke="#18154d" stroke-width="2" stroke-linecap="round" stroke-linejoin="round"/><path d="M1283.4 660.2V684" fill="none" stroke="#ff8b62" stroke-width="2"/><circle cx="1283.4" cy="684" r="3" fill="#ff8b62"/><path d="M157.9 858.3L143 879.8l46.3-10.8 42.5 10.8" fill="none" stroke="#18154d" stroke-width="2" stroke-linecap="round" stroke-linejoin="round"/><path d="M207.5 794.1c-1.4-10.6 2.9-20.6 10.4-26.4-3.1-19.3-19.4-33.5-38.4-34.3L166 660.5l-.2-15.1 8.2-1 .4 3c.1.6.7 1.1 1.3 1l2.1-.3c.6-.1 1.1-.7 1-1.3l-1.2-9.5c-.1-.6-.7-1.1-1.3-1l-2.1.3c-.6.1-1.1.7-1 1.3l.4 2.8-7.8 1-.1-9.4-12 1.6 2.2 9.1-7.8 1-.4-2.8c-.1-.6-.7-1.1-1.3-1l-2.1.3c-.6.1-1.1.7-1 1.3l1.2 9.5c.1.6.7 1.1 1.3 1l2.1-.3c.6-.1 1.1-.7 1-1.3l-.4-3 8.2-1 3.5 14.7 5.2 73.9c-18.2 5.6-30.5 23.4-28.6 42.8 8.7 3.8 15.3 12.4 16.6 23 1.8 14.5-6.8 27.7-19.6 31l.9 6.7c3.5 27.7 28.9 47.3 56.6 43.8 27.7-3.5 47.3-28.9 43.8-56.6l-.9-6.7c-13.2 0-24.8-10.7-26.7-25.2z" fill="#ffcb6c" fill-rule="nonzero"/><path d="M191.7 824l-15.4 2 11.6 60.8 3.9-.5 3.8-.5-3.9-61.8zm-9.4-61.1l-16.9-102.2-4.5.6 9.2 103.2 12.2-1.6z" fill="#18154d" fill-rule="nonzero"/><path d="M176.1 762l8.3 65.2m-4.4-65.7l8.3 65.2m-16.1-64.2l8.2 65.2" fill="none" stroke="#18154d" stroke-width="2"/><path d="M157.9 858.3L143 879.8m73.8-21.5l15 21.5" fill="none" stroke="#18154d" stroke-width="2" stroke-linecap="round" stroke-linejoin="round"/><ellipse cx="451.1" cy="876.3" rx="183.6" ry="12.8" fill="#e4eaf1"/><path fill="#ffcb6c" d="M303.5 814.3h291.1v6.3H303.5z"/><path fill="#18154d" d="M464.1 762.7h89.6v47.7h-89.6z"/><path fill="#4f8af7" d="M485.1 762.7h89.6v47.7h-89.6z"/><path fill="#18154d" d="M525.3 762.7h9.3v16.4h-9.3z"/><g fill="none" stroke="#18154d" stroke-width="2" stroke-linecap="round" stroke-linejoin="round"><path d="M323.8 872v-47.5h195.6V872"/><path d="M382.3 872v-47.5h195.6V872"/></g><path d="M396.9 754.5s15.4-43.2 0-55c-15.4-11.8-24-48.8-65.6-64.3-41.6-15.5 4.9 52.5 26.5 65.4 21.6 13-20.8 31.1 39.1 53.9z" fill="#ff8b62" fill-rule="nonzero"/><path d="M400.1 787.5s2.7-64-42.3-113" fill="none" stroke="#18154d" stroke-width="2" stroke-linecap="round" stroke-linejoin="round"/><path d="M372.2 813.5h55.9l6-35.7h-67.9l6 35.7z" fill="#18154d" fill-rule="nonzero"/><path d="M386.3 813.5H413l5.9-35.7h-38.5l5.9 35.7z" fill="#454179" fill-rule="nonzero"/><path d="M921.9 692.9l-102.2 33.3-31.5-81.6c-2-6.3 1.4-13 7.7-15.1l84-27.3c6.3-2 13 1.4 15.1 7.7l26.9 83z" fill="#ff8b62" fill-rule="nonzero"/><path d="M809.7 772.2l142.9-46.5m-116.7 38l-7.5 42.7" fill="none" stroke="#18154d" stroke-width="2" stroke-linecap="round" stroke-linejoin="round"/><path d="M925.2 691.8l102.2-33.3L1005 574c-2-6.3-8.8-9.7-15.1-7.7l-84 27.3c-6.3 2-9.7 8.8-7.7 15.1l27 83.1z" fill="#ff8b62" fill-rule="nonzero"/><path d="M1035.8 610.7l-7.8 2.5c-4.3 1.4-6.7 6-5.3 10.3l12.5 38.4-93.5 30.4-32.9 10.7-93.5 30.4-12.5-38.4c-1.4-4.3-6-6.7-10.3-5.3l-7.8 2.5c-4.3 1.4-6.7 6-5.3 10.3l21.4 65.8 6.8-2.2 16.6-5.4 93.5-30.4 32.9-10.7 93.5-30.4 16.6-5.4 6.8-2.2-21.4-65.8c-1.3-4.2-6-6.5-10.3-5.1z" fill="#ff8b62" fill-rule="nonzero"/><path d="M1062.7 689.9l-143 46.5m116.7-38l31.2 30.1" fill="none" stroke="#18154d" stroke-width="2" stroke-linecap="round" stroke-linejoin="round"/><circle cx="826.7" cy="650.7" r="5.1" fill="#fff"/><circle cx="870.2" cy="636.5" r="5.1" fill="#fff"/><circle cx="933.4" cy="616" r="5.1" fill="#fff"/><circle cx="976.8" cy="601.8" r="5.1" fill="#fff"/><circle cx="837.6" cy="684.2" r="5.1" fill="#fff"/><circle cx="881.1" cy="670.1" r="5.1" fill="#fff"/><circle cx="944.3" cy="649.5" r="5.1" fill="#fff"/><circle cx="987.7" cy="635.4" r="5.1" fill="#fff"/><g><path d="M938.205 676.517l23.769-46.699 46.699 23.769-23.769 46.699-46.699-23.769z" fill="#ffcb6c"/></g><path d="M796.6 674c5.6 46.9 54.4 48.4 54.4 48.4s-7.1-48.3-54.4-48.4z" fill="#ffcb6c" fill-rule="nonzero"/><g fill-rule="nonzero"><path d="M315.5 874.1c-1-3.3-2.1-6.7-3.1-10 1.2-1.3 2.3-2.6 4.2-4.7-3.8.9-6.2 1.9-8.7 2-2.5 0-5-.9-7.4-1.4-.1.5-.3.9-.4 1.4 1.4.8 2.8 1.6 4.7 2.7-1.2 2.3-2.4 4.7-3.5 7.1h-1.9c-1.4-4.2-2.7-8.4-4.1-12.6-.2-5-.5-9.9-.7-14.9 1.2-2 3.3-4.1.9-6.5-4.9-4.9-7.5-11.1-8.5-17.6-1.1-7.3-1.1-14.6 5.8-19.8.5-.4.6-1.4 1-2 3.6.3 5.4 3 6.3 5.9 1.3 4.1 2 8.3 3 12.4.1 1.7.1 3.4.3 5.1.4 2.7 1.8 3.7 4.3 1.9 1.2-.2 2.9.1 3.4-.6 2.7-3.3 5.6-6.6 7.6-10.4 2.2-4.1 3.6-8.6 5.3-13 1.3.3 2.6.6 3.9 1 .2-.4.4-.7.6-1.1-1.8-1.3-3.5-2.6-5.3-3.8-6.9-4.7-7.2-13.7 0-17.7 5-2.7 10.8-4.4 16.4-5.2 3.6-.6 6.8-1.1 9.5-3.5.8-.7 1.8-1 2.9-1.7.5 3.2.9 5.8 1.2 8.3.2 2.1 1.2 2 2.6 1.2 7.9 6.2 7.3 13.9-2.3 25.4 6 3.1 11.9 6.2 17.8 9.3.3.7.5 1.5.8 2.2-2.5.8-5.1 1.6-7.6 2.4-5 1.1-10.1 2.1-15.1 3.2-.8.9-2.1 1.7-2.2 2.7-.4 2.9-.1 6-.5 8.9-1.9 12.9-9.2 22.6-18.7 31-.5.4-.3 1.5-.4 2.3-.8 3.1-1.6 6.2-2.5 9.3-1.4 2.4-2.8 4.9-4.7 8.2-1.9-2.9-3.4-5.2-4.9-7.4z" fill="#f68d38"/><path d="M355.9 776.4c-1.4.8-2.4.8-2.6-1.2-.2-2.6-.7-5.1-1.2-8.3-1.1.6-2.2 1-2.9 1.7-2.8 2.4-5.9 2.9-9.5 3.5-5.6.9-11.5 2.5-16.4 5.2-7.2 4-6.9 13 0 17.7 1.8 1.2 3.5 2.5 5.3 3.8-.2.4-.4.7-.6 1.1-1.3-.3-2.6-.6-3.9-1-1.8 4.4-3.1 8.9-5.3 13-2 3.7-4.9 7.1-7.6 10.4-.6.7-2.3.5-3.4.6 1.8-2.4 3.7-4.7 5.5-7.1 2.6-5 5.4-9.8 7.8-14.9.5-1.1-.2-3.5-1.2-4.5-4.3-4.6-4.3-10.5-3.1-15.7 1.4-6 4.7-11.6 7.6-17.1 1.6-3 4.9-2.9 5.5.3 1.4 7.1 6 6.7 11.3 6.4 2.4-.1 4.2-.4 5.6-2.6.6-1 2-1.7 3.1-2.3 2.4-1.3 4.3-.3 4.7 2.4.2 2.9.8 5.8 1.3 8.6zm-34-2.3c1.2-.5 2.3-1.1 3.5-1.6 5.2-2.2 5.5-3.8.8-9-1.5 3.9-2.9 7.2-4.3 10.6-.1.1-.1.2-.2.3.1-.1.2-.2.2-.3z" fill="#e57a28"/><path d="M293.7 797.5c-.3.7-.4 1.7-1 2-6.9 5.1-6.9 12.5-5.8 19.8 1 6.6 3.6 12.7 8.5 17.6 2.4 2.4.3 4.4-.9 6.5-.5-1.9-1-3.7-1.4-5.6-.6-.5-1.2-1.1-1.8-1.6-2-4.4-4.2-8.7-5.8-13.3-2.6-7.3-1.9-14.7 2-21.4 1-1.8 4-2.6 6.2-4zm1.5 60.8c1.4 4.2 2.7 8.4 4.1 12.6h1.9c1.2-2.4 2.4-4.8 3.5-7.1-1.9-1.1-3.3-1.9-4.7-2.7.1-.5.3-.9.4-1.4 2.5.5 5 1.5 7.4 1.4 2.5 0 4.9-1 8.7-2-1.9 2.1-3 3.4-4.2 4.7-3.1-1.2-5.5-.9-6.4 2.8-.2.6-.4 1.3-.8 1.7-1.4 1.7-2.9 3.3-4.4 4.9-1.7-1.8-3.4-3.5-5-5.4-.4-.4-.4-1.2-.6-1.8 0-2.3 0-5 .1-7.7z" fill="#e67a2a"/><path d="M295.2 858.3c0 2.7 0 5.4-.1 8.1-.7-3.1-1.9-6.2-2.1-9.3-.3-6.4-.1-12.8 0-19.2.5 1.9 1 3.7 1.4 5.6.3 4.9.5 9.9.8 14.8z" fill="#e47825"/><path d="M349.6 823.1c.3 0 .5.1.7.3 0 .8 0 1.7-.1 2.5 0 .2-.1.3-.2.4-.1-1.1-.2-2.2-.4-3.2z" fill="#eee7e1"/><path d="M349.6 823.1c.1 1 .3 2.1.4 3.1-.2.9-.3 1.8-.5 2.6-.8 3.3-1.1 6.8-2.4 9.9-4.2 10.1-9.9 19.2-19.5 25.2.1-.8 0-1.9.4-2.3 9.5-8.4 16.8-18.1 18.7-31 .4-2.9.1-6 .5-8.9.1-1 1.4-1.8 2.2-2.7.1 1.4.2 2.7.2 4.1z" fill="#e47825"/><path d="M321.9 774.1c1.4-3.4 2.8-6.8 4.3-10.5 4.7 5.1 4.4 6.7-.8 9-1.2.5-2.3 1-3.5 1.5zm0 0c-.1.1-.1.2-.2.3.1-.1.1-.2.2-.3z" fill="#f68d38"/></g><g fill-rule="nonzero"><path d="M1124.9 701.6c-3.3 13.7-6.5 27.5-9.8 41.2-.1.6-.2 1.2-.6 1.7-3.9 5.8-2.9 11.9-1.7 18.2 2.2 11.7 4 23.5 5.9 35.3 1 6.2 1.9 12.4 2.9 18.6-6.2 1.2-12.4 2.4-18.5 3.7-.5.1-.9.9-1.4 1.3-.4-.9-.9-1.9-1.1-2.8-1.8-8.2-3.5-16.5-5.2-24.7-2.6-12.4-5.2-24.8-7.9-37.2-.3-1.2-1.3-2.2-1.9-3.3.2-1.6.6-3.2.6-4.9.3-18.9.5-37.8.8-56.7 0-.9.3-1.9.3-2.8 0-1.7-.2-3.4-.3-5.1 4.1 0 8.2.3 12.2-.1 8.8-1 17.4-2.8 23.8-9.8 3.2 8.3 2.9 16.8 2.1 25.5 0 .6-.1 1.1-.1 1.7l-.1.2z" fill="#238ce8"/><path d="M1123.1 674.3c-6.4 7.1-15 8.8-23.8 9.8-4 .5-8.2.1-12.2.1-1.7-.8-3.3-1.6-5-2.4.5-1.3.9-2.7 1.6-3.8 8.8-12.3 16.5-25.2 21.8-39.4 2.9-7.8 5.9-15.6 5.6-24.2-.2-5-3.4-8.6-8.4-9.3-4.1-.6-9.4 2.3-10.8 6.1-3.9 10.6-7.7 21.2-11.6 31.8-2.9 7.9-6 15.7-9 23.6-.5-1.2-1-2.3-1.4-3.6-1.1-3.5-2.2-7-3.3-10.6-.1-1-.1-2.1-.2-3.1-1.2-7.5-2.4-14.9-3.6-22.4-.5-3.1-.8-6.2-1.2-9.2 1.1-4.9 2-9.9 3.4-14.7.5-1.9 2.2-3.5 3.4-5.2.2 0 .5.1.7.1.5 1.6 1.1 3.3 1.6 4.9.9 2.1 0 5.9 4.2 4.8 3.5-.9 6.9-2.1 10.2-3.5 4-1.8 4.6-3.6 3.4-7.9 6.2 2.6 12.6 4.7 18.4 7.8 4.4 2.3 6.7 7 7.7 11.8 2 10.1 3.4 20.3 4.9 30.5 1.2 7.5 2.2 15.1 3.3 22.6.2 1.8.2 3.6.3 5.4z" fill="#fbce7a"/><path d="M1069.1 598c-.2 0-.5-.1-.7-.1-1.6-.2-3.1-.5-4.7-.4-4.2 0-7.1-1.8-9.2-5.4-4-6.9-4.1-14.3-3.4-21.9 3.2-.4 6.5-.4 9.6-1.2 2.8-.7 5.4-2.3 8.2-3.2 3.8-1.2 5.6.4 5.5 4.3-.1 1.3 0 2.6 0 3.9.3.1.6.2 1 .3.9-.8 1.8-1.8 2.8-2.4 1-.6 2.3-.8 3.5-1.1.3 1.3 1.1 2.6.9 3.8-.3 1.7-1.5 3.2-2 4.8-.8 2.4-2.5 5.1-.2 7.1 1.1 1 3.5.6 5.4.8 1 3 1.9 6.1 2.9 9.1 1.2 4.2.6 6.1-3.4 7.9-3.3 1.5-6.7 2.6-10.2 3.5-4.2 1.1-3.3-2.7-4.2-4.8 3-3.8 6.4-7.3 7.3-12.5-3.1 2.4-6.1 5-9.1 7.5z" fill="#f8a88e"/><path d="M1085.6 587.2c-1.8-.2-4.2.2-5.4-.8-2.3-2-.5-4.8.2-7.1.5-1.7 1.7-3.1 2-4.8.2-1.2-.5-2.5-.9-3.8-1.2.4-2.4.5-3.5 1.1-1.1.6-1.9 1.6-2.8 2.4-.3-.1-.6-.2-1-.3V570c.2-3.9-1.7-5.5-5.5-4.3-2.8.9-5.3 2.5-8.2 3.2-3.1.8-6.4.8-9.6 1.2-4.6-1.6-7.7-4.6-8.2-9.6-.5-5 .5-9.7 5.7-11.6 2.9-1.1 6.6-1.3 9.6-.5 4.3 1.2 8.3 1.2 12.5.6 8.6-1.1 12.7 1.3 15.8 9.3.3.9.5 1.8.7 2.7-.2.3-.7.5-.7.8.1 5 .3 10 .5 15.1-.2 3.4-.7 6.9-1.2 10.3z" fill="#324f9f"/><path d="M1061.7 617.8c.4 3.1.7 6.2 1.2 9.2 1.2 7.5 2.4 14.9 3.6 22.4.2 1 .2 2.1.2 3.1-1.6 4.7-3.1 9.4-4.7 14-1.2-3.2-2.4-6.3-3.4-9.6-1.5-4.8-2.7-9.6-4.1-14.4 2.4-8.1 4.8-16.4 7.2-24.7z" fill="#de734e"/><path d="M1087.1 576.9c-.2-5-.3-10-.5-15.1 0-.2.4-.5.7-.8-.1 5.4-.1 10.6-.2 15.9z" fill="#284da2"/><path d="M1125.1 701.4c0-.6.1-1.1.1-1.7-.1.6-.1 1.2-.1 1.7z" fill="#edf2f6"/><path d="M1082.1 681.8c1.7.8 3.3 1.6 5 2.4.1 1.7.3 3.4.3 5.1 0 .9-.3 1.9-.3 2.8-.3 18.9-.5 37.8-.8 56.7 0 1.6-.4 3.2-.6 4.9-1.9 1.8-3.8 3.5-5.5 5.3-2.1 2.2-4.7 4.2-6 6.8-4.2 9.1-7.8 18.4-11.6 27.6-5.3 12.7-10.5 25.4-15.8 38.1-.6.9-1.1 1.9-1.7 2.8-3.3.2-6.7.4-10 .7-2.3.2-4.5.5-6.8.7-5.5 0-11.1.1-16.6 0-3.9-.1-7.7-.4-11.6-.7.3-.8.5-1.7.8-2.5 2.7-1.1 5.5-2.3 8.3-3.2 5.8-1.9 11.6-3.6 17.3-5.7 1.4-.5 2.9-2 3.4-3.4 6.2-16.1 12.2-32.4 18.2-48.6 4.7-12.5 9.4-25.1 14-37.6.4-1 .6-2 .9-3 .4-1.2.9-2.4 1.3-3.7.2-.8.5-1.6.7-2.4 2.2-5.4 4.4-10.7 6.5-16.1 3.3-8.9 6.5-17.8 9.7-26.7.4 0 .6-.1.9-.3z" fill="#3270c9"/><path d="M1082.1 681.8c-.3.1-.5.2-.8.3-.8 1-1.7 1.9-2.5 2.9-4 4.9-8.2 9.7-11.9 14.8-3.2 4.4-7.4 4.6-12.1 4-4-.6-8.1-.6-12.2-.9-.8.1-1.6.3-2.4.4-1.5-1.2-4.5-.5-4.7-3.5 3.2-1.2 6.3-2.5 9.5-3.6 5.9-2.1 11.7-4.1 17.6-6.2 1.1-2.7 2.1-5.4 3.2-8 .1-.5.1-1.1.2-1.6 1.8-4.6 3.6-9.2 5.3-13.8 3-7.9 6.1-15.7 9-23.6 3.9-10.6 7.7-21.2 11.6-31.8 1.4-3.8 6.6-6.7 10.8-6.1 5 .7 8.2 4.3 8.4 9.3.3 8.6-2.7 16.4-5.6 24.2-5.3 14.2-13 27.1-21.8 39.4-.7 1.1-1.1 2.6-1.6 3.8z" fill="#f9a98e"/><path d="M1101.8 821.6c.4-.5.8-1.2 1.4-1.3 6.2-1.3 12.4-2.5 18.5-3.7.8 4.5 1.6 9 2.3 13.5.2 1.1 0 2.3-.1 3.5-.1 1.1-.2 2.2-.3 3.6-1.8 0-3.1-.1-4.5 0l-9.3.6c-6.6-.1-13.2-.1-19.8-.2-.7-.6-1.5-1.7-2.2-1.8-3.5-.2-6.9-.2-10.4 0-.8 0-1.5 1-2.2 1.5-3-.9-.6-3.4-1.3-4.9 3.5-.7 7-1.4 10.5-2.2 4.9-1.2 9.8-2.4 14.5-4 1.6-.6 3.7-1.8 2.9-4.6z" fill="#3350a0"/><path d="M1109.7 837.8c3.1-.2 6.2-.5 9.3-.6 1.4-.1 2.8 0 4.5 0 .1-1.4.2-2.5.3-3.6.2.1.4.1.7.1.1.5.2 1 .4 1.5.1.6.1 1.3.2 1.9l-1.2 1.2c-.2-.2-.4-.1-.6 0-4.6-.2-9.1-.4-13.6-.5z" fill="#012b97"/><path d="M1075 837.3c.7-.5 1.5-1.4 2.2-1.5 3.5-.2 6.9-.2 10.4 0 .8 0 1.5 1.2 2.2 1.8-4.9-.1-9.8-.2-14.8-.3z" fill="#3c55a1"/><path d="M1028.3 835.7c2.3-.2 4.5-.5 6.8-.7 3.3-.3 6.7-.5 10-.7-1 .7-1.9 2-2.9 2-4.6.2-9.3.1-13.9 0v-.6z" fill="#2d6fc9"/><path d="M1028.3 835.7v.7c-8.5.1-17 .3-25.5.3-.9 0-1.8-1-2.7-1.6 3.9.2 7.7.6 11.6.7 5.5 0 11.1-.1 16.6-.1z" fill="#005fc5"/><path d="M1125 837c-.1-.6-.1-1.3-.2-1.9.1.6.2 1.3.2 1.9zm-1.8 1.2c.2-.2.4-.2.6 0h-.6z" fill="#edf2f6"/><path d="M1069.1 598c3-2.5 5.9-5.1 8.9-7.6-.9 5.2-4.3 8.7-7.3 12.5-.5-1.6-1-3.3-1.6-4.9z" fill="#df7450"/></g><g fill-rule="nonzero"><path d="M688.3 844.1c2.2-8.6 4.3-17.1 6.5-25.7 2.4-9.8 4.9-19.5 7.2-29.3.2-1-.3-2.9-1.1-3.5-9.4-7.2-18.8-14.2-28.3-21.3-6-6.7-12.4-13.3-18-20.3-5.1-6.3-8.5-13.6-10-21.6-1.5-8.1.1-15.3 5.9-21.3-.7 3.8 1.3 6.4 3.9 8.9 6.8 6.6 15.6 9.9 23.9 13.7 6.2 2.8 13 4.1 19.6 6.1.3.7.6 1.4 1 2.1 10.8 17 21.6 34 32.2 51 .9 1.4.7 3.8.3 5.6-.8 3.4-2 6.7-3.1 10.1-.6.6-1.3 1.1-1.6 1.8-1.4 3.2-2.7 6.5-4 9.8-4.3 10.8-8.5 21.6-12.8 32.3-3.2 7.6-6.4 15.2-9.7 22.9h-16.5c.1-1.3 0-2.6.3-3.8 1.3-5.9 2.8-11.7 4.3-17.5z" fill="#314e9f"/><path d="M697.8 729.8c-6.5-2-13.4-3.3-19.6-6.1-8.4-3.8-17.1-7.1-23.9-13.7-2.6-2.5-4.6-5.1-3.9-8.9 1-1.3 1.9-2.9 3.2-3.7 26.4-18.1 53.1-35.9 79.4-54.2 5.1-3.5 10-6.6 16.2-7.2.3 1.5.6 3 .8 4.4-6.3.1-9.6 2.9-11.4 9.1-2 6.9-1.3 13.8.6 20.5 1.3 4.7 1.9 9.9 6.2 13.3-6.3 8.7-12.7 17.4-18.9 26.1-5.4 7.7-10.7 15.5-16.1 23.2-4.2-1-8.4-1.9-12.6-2.8z" fill="#face7a"/><path d="M750.1 635c-3.6-4.4-2.1-8.9-.6-13.6.8-2.4 1.4-4.9 1.8-7.4.7-4 .8-8.1 1.7-12 1-4.2 3.9-7.3 8-8.6 5.9-2 11.7-4.4 18.4-3.1 3.1.6 6.5-.6 9.6-.3 3.6.4 6.9 1.8 7.6 6.2.7 4.4-1 8-4.8 10.1-2.1-.1-4.1 0-6.1-.4-6.4-1.3-9.7 1.7-9.2 8.1.2 2.8.2 5.8-.7 8.5-.5 1.6-2.8 3.2-4.5 3.5-1.1.2-2.7-1.9-3.8-3.2-.6-.7-.4-2.2-1.1-2.9-.9-.9-2.3-1.4-3.5-2.1-.6 1.4-1.5 2.9-1.6 4.3 0 .9 1.4 1.8 2.1 2.6 2.1 2.3 2 5.1-.4 7.1-1.5 1.2-3.3 2.1-4.8 3.3-2.8 2.3-5.4 2.3-8.1-.1z" fill="#474480"/><path d="M750.1 635c2.7 2.3 5.3 2.4 8.1.1 1.5-1.2 3.3-2.1 4.8-3.3 2.5-2 2.6-4.8.4-7.1-.8-.9-2.2-1.8-2.1-2.6 0-1.5 1-2.9 1.6-4.3 1.2.7 2.6 1.2 3.5 2.1.7.7.5 2.1 1.1 2.9 1.1 1.3 2.8 3.4 3.8 3.2 1.7-.3 3.9-1.9 4.5-3.5.9-2.6.9-5.7.7-8.5-.6-6.4 2.7-9.4 9.2-8.1 2 .4 4.1.3 6.1.4.8 3.4 1.6 6.8 2.5 10.2 0 4.9.1 9.7-.2 14.6-.4 6.5-3 11.8-8.9 15.2-3.5-.3-7.1-.7-10.6-1-4-2.7-7.9-5.4-11.9-8.2-.4.4-.9.8-1.3 1.2 2.6 3.5 5.2 6.9 7.7 10.4-.8 1.5-1.5 2.9-2.3 4.4-1.2-.7-2.9-1.1-3.7-2.2-3.5-4.7-7.3-8.7-13.1-10.5-.3-1.5-.6-3-.8-4.4.2-.4.6-.7.9-1z" fill="#f8a88f"/><path d="M697.8 729.8l12.6 2.7c1.5.9 3 1.8 4.5 2.8 4.6 4 9 8.1 13.7 12 5 4.1 10.2 8 15.2 12 3.7 3 7.3 6 10.9 9.1.3.3.6.5.9.8v-.1c0 2.4-.1 4.8-.1 7.3v12.5c-.1 4.9-.3 9.8-.4 14.7 0 .4.7.8 1.1 1.2 0 1.6 0 3.2-.1 4.7-.5.6-.9 1.1-1.4 1.7 0 1.6-.1 3.1-.1 4.7v14.9c.3 5.3.5 10.5.8 15.8 0 4.7 0 9.5-.1 14.2 0 2.4.6 3.8 3.3 4.7 4.3 1.5 8.5 3.7 12.4 6.1 1.2.7 1.3 3.2 1.8 4.9-1.5.3-2.9.8-4.4.9-5.1.3-10.3.5-15.4.7-3.4.1-6.8.3-10.1 0-1.2-.1-3.3-1.3-3.4-2.3-1.6-9.4-2.8-18.9-4.2-28.4-.2-.8-.3-1.6-.5-2.4-.1-.8-.1-1.6-.2-2.4-.2-1.5-.5-3-.7-4.4-.8-6.5-1.4-12.9-2.3-19.4-1-6.7-2.2-13.4-3.3-20.1 1.1-3.3 2.4-6.6 3.1-10.1.4-1.8.6-4.2-.3-5.6-10.6-17.1-21.4-34-32.2-51-.5-.8-.8-1.5-1.1-2.2z" fill="#2e2e76"/><path d="M683.7 865.4h16.5c4.3 2.6 8.6 5 12.7 7.7 2.2 1.5 4.4 3.3 5.9 5.4 1.3 1.9.3 3.6-2.3 3.4-4.2-.2-8.3-.5-12.5-.7h12.5v-1.1c-6 .3-11.9.7-17.9 1-5.2-.4-10.4-.7-15.5-1.5-1-.1-2.7-2.2-2.5-3.1.6-3.7 2-7.4 3.1-11.1z" fill="#2f2f77"/><path d="M755.3 846.4c-.3-5.3-.5-10.5-.8-15.8v-14.9c0-1.6.1-3.1.1-4.7h.6l.3 18.3c.1 4.3.1 8.7.2 13-.1 1.4-.3 2.7-.4 4.1zm-2.2 31.5c5.1-.2 10.3-.4 15.4-.7 1.5-.1 2.9-.6 4.4-.9.3 1.7.3 1.8-1.3 1.8-6.3 0-12.4-.1-18.5-.2zm-54.5 3.2c6-.3 11.9-.7 17.9-1v1.1H704c-1.8 0-3.6 0-5.4-.1z" fill="#02026a"/><path d="M734.8 844.9c.2.8.3 1.6.5 2.4-.2-.8-.4-1.6-.5-2.4z" fill="#eaeef3"/><path d="M821.1 762.1c-.6 2-1.1 4.1-1.7 6.1v1.7c-2.8 7.3-9.6 6.9-15.6 7.7-6.5 1-6.5.8-9.5-5-11-21.1-22.1-42.1-33.2-63.1-.4-.8-1-1.5-1.5-2.3-.4-1-.7-1.9-1.2-2.9-3.6-7.1-7.2-14.2-10.9-21.3.3-.4.6-1 1-1.2 6.9-3.3 13.9-6.6 20.8-10 2.2 5.2 4.5 10.3 6.7 15.5.5 1.6.8 3.3 1.5 4.8 7.6 18.7 15.3 37.3 23 56 2.4 5.9 4.9 11.8 7.3 17.5 4.7-1.2 9-2.3 13.3-3.5z" fill="#faaa90"/><path d="M755.3 776.2c0-2.4.1-4.8.1-7.3.5.8 1.3 1.6 1.3 2.4-.2 11.1-.4 22.2-.7 33.3-.4-.4-1.1-.8-1.1-1.2.1-4.9.2-9.8.4-14.7v-12.5z" fill="#1c1c74"/><path d="M755.5 829.3l-.3-18.3c.3 0 .5-.1.8-.1-.1 6.2-.3 12.3-.5 18.4z" fill="#2e2e76"/><path d="M756 810.9c-.3 0-.5 0-.8.1h-.6c.5-.6.9-1.1 1.4-1.7v1.6z" fill="#363779"/><path d="M755.5 769c-.3-.3-.6-.5-.9-.8.3.3.6.6.9.8z" fill="#1c1c74"/><path d="M747.5 683.1c-.7 0-1.4.1-2.1.1-4.3-3.4-4.8-8.6-6.2-13.3-1.9-6.7-2.6-13.5-.6-20.5 1.8-6.2 5.1-9 11.4-9.1 5.8 1.8 9.7 5.8 13.1 10.5.8 1.1 2.4 1.5 3.7 2.2 0 1.6-.4 3.2 0 4.7.8 3 2.4 5.8 3.1 8.8.4 1.7-.3 3.6-.5 5.4-6.9 3.3-13.9 6.6-20.8 10-.6.2-.8.8-1.1 1.2z" fill="#fbbb65"/><path d="M774.5 645.2c-1.8 1.1-3.6 2.3-5.5 3.4-2.6-3.5-5.2-6.9-7.7-10.4.4-.4.9-.8 1.3-1.2 3.9 2.8 7.9 5.5 11.9 8.2z" fill="#df7551"/><path d="M754.6 815.7v14.9-14.9zm.7-39.5v12.5-12.5z" fill="#363779"/></g></svg>